<svg width="160" height="160" viewBox="0 0 160 160" fill="none" xmlns="http://www.w3.org/2000/svg">
<circle cx="80" cy="80" r="70.5" fill="#F2F4F7" stroke="#2ABB7F" stroke-dasharray="2 2"/>
<rect x="10.5" y="10.5" width="139" height="139" rx="69.5" stroke="#D3D8E0"/>
<path d="M127.486 50C129.83 50 131.793 51.843 131.793 54.1775V106.826C131.793 109.099 129.893 111.003 127.486 111.003H104.307C101.963 111.003 100 109.16 100 106.826V54.1775C100 51.9044 101.9 50 104.307 50H127.486Z" fill="#5B7896"/>
<path d="M129.644 54.5355V106.147C129.644 107.05 129.07 107.773 128.176 108.014C127.985 108.074 127.794 108.074 127.539 108.074H104.19C104.062 108.074 103.935 108.074 103.871 108.074C102.85 107.894 102.148 107.11 102.148 106.147V54.7162C102.148 53.6924 102.85 52.9095 103.871 52.7891C103.998 52.7891 104.062 52.7891 104.19 52.7891H107.635C108.081 52.7891 108.4 53.0902 108.4 53.5117C108.4 54.3549 109.166 55.0775 110.059 55.0775H121.925C122.818 55.0775 123.583 54.3549 123.583 53.5117C123.583 53.0902 123.902 52.7891 124.349 52.7891H127.602L127.552 52.7971C127.744 52.7971 127.999 52.7971 128.19 52.8573C128.956 53.0982 129.644 53.6322 129.644 54.5355Z" fill="#D2DFFE"/>
<rect x="105.578" y="70.9219" width="19.528" height="19.528" rx="9.76401" fill="#7084FF"/>
<path d="M121.711 81.4941C122.216 80.3616 119.718 77.1975 117.332 75.8793C115.828 74.8582 114.261 74.9985 113.943 75.4468C113.247 76.4308 116.25 77.2646 118.258 78.2376C117.827 78.4258 117.42 78.7634 117.18 79.1953C116.432 78.375 114.788 77.6686 112.86 78.2376C111.56 78.6211 110.48 79.525 110.063 80.8903C109.961 80.8451 109.849 80.8199 109.731 80.8199C109.279 80.8199 108.913 81.1874 108.913 81.6408C108.913 82.0941 109.279 82.4616 109.731 82.4616C109.814 82.4616 110.076 82.4052 110.076 82.4052L114.261 82.4356C112.587 85.0992 111.265 85.4886 111.265 85.9501C111.265 86.4115 112.53 86.2865 113.005 86.1145C115.28 85.291 117.722 82.7248 118.142 81.9861C119.902 82.2064 121.381 82.2325 121.711 81.4941Z" fill="url(#paint0_linear_1686_40931)"/>
<path fill-rule="evenodd" clip-rule="evenodd" d="M118.258 78.238C118.258 78.2381 118.258 78.2381 118.258 78.2382C118.351 78.2014 118.336 78.0635 118.311 77.9551C118.252 77.7061 117.238 76.7016 116.286 76.2517C114.99 75.639 114.035 75.6703 113.893 75.9524C114.157 76.4959 115.382 77.0061 116.662 77.5389C117.207 77.7663 117.763 77.9977 118.258 78.2376C118.258 78.2378 118.258 78.2379 118.258 78.238Z" fill="url(#paint1_linear_1686_40931)"/>
<path fill-rule="evenodd" clip-rule="evenodd" d="M116.612 83.7068C116.35 83.6063 116.053 83.514 115.717 83.4303C116.076 82.7854 116.151 81.8306 115.812 81.2269C115.336 80.3797 114.738 79.9287 113.349 79.9287C112.585 79.9287 110.529 80.1869 110.492 81.9096C110.488 82.0902 110.492 82.2557 110.505 82.4079L114.261 82.4352C113.754 83.2414 113.28 83.8392 112.865 84.2938C113.363 84.422 113.775 84.5296 114.153 84.6284C114.511 84.7221 114.839 84.8078 115.182 84.8957C115.7 84.5171 116.186 84.1043 116.612 83.7068Z" fill="url(#paint2_linear_1686_40931)"/>
<path d="M110.013 82.2317C110.166 83.5403 110.907 84.0532 112.422 84.205C113.937 84.3568 114.806 84.2549 115.962 84.3605C116.928 84.4487 117.791 84.9427 118.111 84.772C118.399 84.6184 118.238 84.0633 117.852 83.7072C117.353 83.2457 116.662 82.9247 115.445 82.8108C115.688 82.1448 115.62 81.211 115.243 80.703C114.699 79.9684 113.694 79.6362 112.422 79.7813C111.093 79.9329 109.82 80.5893 110.013 82.2317Z" fill="url(#paint3_linear_1686_40931)"/>
<path d="M118.838 54.0433H114.345C113.887 54.0433 113.703 53.5842 113.703 53.4006C113.703 52.9415 114.162 52.7578 114.345 52.7578H118.838C119.205 52.7578 119.48 53.2169 119.48 53.4006C119.48 53.8597 119.205 54.0433 118.838 54.0433Z" fill="#4E6781"/>
<path d="M111.763 54.0433H111.579C111.121 54.0433 110.938 53.5842 110.938 53.4006C110.938 52.9415 111.396 52.7578 111.579 52.7578H111.763C112.221 52.7578 112.405 53.2169 112.405 53.4006C112.405 53.8597 112.13 54.0433 111.763 54.0433Z" fill="#4E6781"/>
<path d="M56.6654 50C59.0239 50 61 51.855 61 54.2047V107.196C61 109.484 59.0876 111.401 56.6654 111.401H33.3347C30.9761 111.401 29 109.545 29 107.196V54.2047C29 51.9168 30.9124 50 33.3347 50H56.6654Z" fill="#5B7896"/>
<path d="M58.8306 54.5625V106.51C58.8306 107.419 58.2527 108.147 57.3538 108.389C57.1612 108.45 56.9686 108.45 56.7117 108.45H33.211C33.0826 108.45 32.9541 108.45 32.8899 108.45C31.8626 108.268 31.1562 107.48 31.1562 106.51V54.7444C31.1562 53.7139 31.8626 52.9259 32.8899 52.8047C33.0183 52.8047 33.0826 52.8047 33.211 52.8047H36.6783C37.1278 52.8047 37.4488 53.1078 37.4488 53.5321C37.4488 54.3807 38.2193 55.1081 39.1183 55.1081H51.0612C51.9602 55.1081 52.7307 54.3807 52.7307 53.5321C52.7307 53.1078 53.0517 52.8047 53.5012 52.8047H56.776L56.7257 52.8128C56.9183 52.8128 57.1751 52.8128 57.3678 52.8734C58.1383 53.1159 58.8306 53.6533 58.8306 54.5625Z" fill="#D2DFFE"/>
<path d="M87.7208 87.0156L74.875 87.0156" stroke="#2ABB7F" stroke-width="1.83512" stroke-linecap="round" stroke-linejoin="round"/>
<path d="M83.4375 82.733L87.7194 87.0149L83.4375 91.2969" stroke="#2ABB7F" stroke-width="1.83512" stroke-linecap="round" stroke-linejoin="round"/>
<path d="M72.6151 74.1641L85.4609 74.1641" stroke="#2ABB7F" stroke-width="1.83512" stroke-linecap="round" stroke-linejoin="round"/>
<path d="M76.8906 69.8814L72.6087 74.1634L76.8906 78.4453" stroke="#2ABB7F" stroke-width="1.83512" stroke-linecap="round" stroke-linejoin="round"/>
<defs>
<linearGradient id="paint0_linear_1686_40931" x1="112.708" y1="80.4912" x2="121.606" y2="83.006" gradientUnits="userSpaceOnUse">
<stop stop-color="white"/>
<stop offset="1" stop-color="white"/>
</linearGradient>
<linearGradient id="paint1_linear_1686_40931" x1="120.104" y1="80.3219" x2="113.665" y2="73.8894" gradientUnits="userSpaceOnUse">
<stop stop-color="#8697FF"/>
<stop offset="1" stop-color="#8697FF" stop-opacity="0"/>
</linearGradient>
<linearGradient id="paint2_linear_1686_40931" x1="116.79" y1="83.9317" x2="110.616" y2="80.394" gradientUnits="userSpaceOnUse">
<stop stop-color="#8697FF"/>
<stop offset="1" stop-color="#8697FF" stop-opacity="0"/>
</linearGradient>
<linearGradient id="paint3_linear_1686_40931" x1="113.24" y1="80.425" x2="117.424" y2="85.7233" gradientUnits="userSpaceOnUse">
<stop stop-color="white"/>
<stop offset="0.983895" stop-color="#D1D8FF"/>
</linearGradient>
<linearGradient id="paint4_linear_1686_40931" x1="44.4448" y1="71.0625" x2="44.4448" y2="90.7177" gradientUnits="userSpaceOnUse">
<stop stop-color="#FEF5E6"/>
<stop offset="1" stop-color="#E4CBB1"/>
</linearGradient>
</defs>
</svg>
