<svg width="20" height="20" viewBox="0 0 20 20" fill="none" xmlns="http://www.w3.org/2000/svg">
<path d="M17.029 14.6193H16.3504C17.3392 13.2706 17.8726 11.6421 17.8733 9.96982C17.8707 7.88324 17.0407 5.88287 15.5652 4.40749C14.0897 2.9321 12.0893 2.10217 10.0027 2.09973C9.74563 2.09973 9.49907 2.20186 9.31728 2.38365C9.1355 2.56543 9.03337 2.81199 9.03337 3.06907C9.03337 3.19637 9.05844 3.32242 9.10716 3.44002C9.15587 3.55763 9.22727 3.66449 9.31728 3.7545C9.4073 3.84451 9.51416 3.91591 9.63176 3.96463C9.74937 4.01334 9.87542 4.03841 10.0027 4.03841C11.5753 4.04021 13.083 4.66568 14.195 5.77764C15.3071 6.88959 15.9327 8.39722 15.9346 9.96982C15.9337 11.2209 15.5373 12.4396 14.8019 13.4517V12.3631C14.8019 12.2358 14.7768 12.1098 14.7281 11.9922C14.6794 11.8746 14.608 11.7677 14.518 11.6777C14.428 11.5877 14.3211 11.5163 14.2035 11.4676C14.0859 11.4189 13.9599 11.3938 13.8326 11.3938C13.7053 11.3938 13.5792 11.4189 13.4616 11.4676C13.344 11.5163 13.2372 11.5877 13.1472 11.6777C13.0571 11.7677 12.9857 11.8746 12.937 11.9922C12.8883 12.1098 12.8632 12.2358 12.8632 12.3631V15.5886C12.8632 15.7159 12.8883 15.8419 12.937 15.9596C12.9857 16.0772 13.0571 16.184 13.1472 16.274C13.2372 16.364 13.344 16.4354 13.4616 16.4842C13.5792 16.5329 13.7053 16.5579 13.8326 16.5579H17.0314C17.1587 16.5579 17.2848 16.5329 17.4024 16.4842C17.52 16.4354 17.6268 16.364 17.7168 16.274C17.8068 16.184 17.8782 16.0772 17.927 15.9596C17.9757 15.8419 18.0007 15.7159 18.0007 15.5886C18.0008 15.4611 17.9756 15.3349 17.9267 15.2171C17.8779 15.0993 17.8062 14.9924 17.716 14.9023C17.6257 14.8123 17.5186 14.7409 17.4007 14.6924C17.2828 14.6438 17.1565 14.6189 17.029 14.6193Z" fill="currentColor"/>
<path d="M9.99772 15.9609C8.42521 15.9592 6.91758 15.3339 5.8056 14.222C4.69362 13.1101 4.06812 11.6025 4.06632 10.03C4.06745 8.77975 4.46391 7.56187 5.199 6.55055V7.48596C5.199 7.74305 5.30112 7.9896 5.48291 8.17139C5.6647 8.35318 5.91125 8.4553 6.16834 8.4553C6.42542 8.4553 6.67198 8.35318 6.85376 8.17139C7.03555 7.9896 7.13768 7.74305 7.13768 7.48596V4.26048C7.13768 4.00339 7.03555 3.75684 6.85376 3.57505C6.67198 3.39326 6.42542 3.29114 6.16834 3.29114H2.96951C2.71242 3.29114 2.46587 3.39326 2.28408 3.57505C2.10229 3.75684 2.00017 4.00339 2.00017 4.26048C2.00017 4.51756 2.10229 4.76412 2.28408 4.94591C2.46587 5.12769 2.71242 5.22982 2.96951 5.22982H3.76679C2.70521 6.60419 2.12865 8.29144 2.12715 10.0281C2.12959 12.1145 2.95955 14.1149 4.43497 15.5902C5.91038 17.0655 7.91075 17.8954 9.99724 17.8977C10.2543 17.8977 10.5009 17.7955 10.6827 17.6137C10.8645 17.432 10.9666 17.1854 10.9666 16.9283C10.9661 16.6717 10.8638 16.4257 10.6822 16.2443C10.5005 16.063 10.2544 15.961 9.99772 15.9609Z" fill="currentColor"/>
</svg>
