<svg width="40" height="40" viewBox="0 0 40 40" fill="none" xmlns="http://www.w3.org/2000/svg">
<path d="M0 14C0 6.26801 6.26801 0 14 0H26C33.732 0 40 6.26801 40 14V26C40 33.732 33.732 40 26 40H14C6.26801 40 0 33.732 0 26V14Z" fill="#E0E5EC"/>
<path d="M20.0215 9.875L20.0771 9.87988L20.0762 9.88086L20.1025 9.88281L20.1084 9.88379L20.2373 9.91602L20.3604 9.97168L20.3633 9.97363L20.3916 9.99023L20.3955 9.99219L20.4385 10.0225L20.4434 10.0264L20.4355 10.0205C20.4371 10.0214 20.4422 10.0239 20.4473 10.0273C20.4513 10.0301 20.4563 10.0341 20.4619 10.0391L26.7305 14.8164L26.8184 14.8926C26.9018 14.9753 26.9704 15.0761 27.0215 15.1885C27.0896 15.3382 27.125 15.5056 27.125 15.6748C27.125 15.844 27.0896 16.0114 27.0215 16.1611C26.9534 16.3108 26.8541 16.4398 26.7305 16.5332L21.5264 20.499L26.5303 24.3125V24.3115L26.7314 24.4648C26.8545 24.5588 26.953 24.6882 27.0205 24.8379C27.1231 25.0635 27.1509 25.3275 27.0986 25.5752C27.0464 25.8226 26.9167 26.0422 26.7305 26.1836L20.4551 30.9658L20.4453 30.9736L20.4443 30.9727L20.4346 30.9795L20.4336 30.9785C20.4083 30.9968 20.3834 31.0152 20.3564 31.0303L20.3525 31.0332L20.3457 31.0371L20.3447 31.0361C20.3121 31.0536 20.2786 31.0696 20.2441 31.082L20.2402 31.083L20.2168 31.0908L20.2148 31.0918C20.1892 31.0995 20.1629 31.1045 20.1367 31.1094L20.1377 31.1104L20.1104 31.1152L20.1074 31.1162C20.0752 31.1215 20.0434 31.1238 20.0127 31.125H19.9902L19.9805 31.124L19.9766 31.1221C19.9502 31.1214 19.9243 31.1211 19.9004 31.1182L19.8936 31.1172V31.1162L19.8711 31.1123V31.1113C19.811 31.1009 19.7524 31.0833 19.6963 31.0576L19.6885 31.0547V31.0537L19.6689 31.0439V31.043C19.6405 31.0291 19.6119 31.0144 19.585 30.9971L19.5781 30.9922L19.5713 30.9863L19.5635 30.9795V30.9785C19.5452 30.9654 19.5212 30.9496 19.5 30.9297V30.9287L19.4785 30.9111L19.4736 30.9072C19.4574 30.8917 19.442 30.8752 19.4268 30.8584L19.4248 30.8564L19.4023 30.8301L19.4014 30.8291C19.3795 30.8033 19.357 30.7757 19.3369 30.7461L19.332 30.7373L19.3301 30.7334L19.2783 30.6455L19.2773 30.6426L19.2725 30.6318L19.2705 30.6279L19.2617 30.6094V30.6084C19.2349 30.5505 19.2123 30.4901 19.1943 30.4277L19.1934 30.4258C19.1678 30.3303 19.1541 30.2308 19.1514 30.1309V22.3936L14.1797 26.1826L14.1738 26.1865C13.9803 26.3164 13.749 26.3523 13.5312 26.2812C13.3153 26.2107 13.1373 26.0434 13.0273 25.8242C12.9174 25.6049 12.8806 25.3444 12.9229 25.0957C12.9652 24.8472 13.0847 24.6223 13.2627 24.4707L13.2676 24.4658L18.4717 20.499L13.2676 16.5332V16.5322C13.077 16.3866 12.9465 16.1593 12.8975 15.9043L12.8779 15.7588C12.8675 15.6132 12.8831 15.4658 12.9248 15.3271C12.9805 15.1421 13.0814 14.9778 13.2168 14.8574C13.3525 14.7369 13.518 14.6658 13.6924 14.6582C13.8667 14.6507 14.0365 14.7072 14.1797 14.8164L19.1514 18.6035V10.8701C19.1519 10.8175 19.1562 10.7647 19.1641 10.7129L19.2021 10.5459C19.2183 10.4919 19.2384 10.4393 19.2617 10.3887V10.3867L19.2734 10.3633L19.2803 10.3506C19.2888 10.3346 19.2983 10.3191 19.3076 10.3037L19.3271 10.2715L19.3311 10.2637H19.332L19.3535 10.2324L19.3545 10.2314L19.3799 10.1963L19.3857 10.1875H19.3867L19.4072 10.1641V10.1631C19.4193 10.149 19.4316 10.1353 19.4443 10.1221L19.4678 10.0986C19.4809 10.0861 19.495 10.0742 19.5088 10.0625L19.5381 10.0391L19.5723 10.0137L19.5811 10.0059L19.6113 9.98828L19.6162 9.98438L19.6484 9.9668V9.96777C19.6674 9.95614 19.6851 9.94742 19.6943 9.94336L19.7227 9.93066L19.7334 9.92578L19.7705 9.91309L19.7744 9.91211C19.7792 9.91065 19.7773 9.91076 19.7881 9.90723C19.7939 9.90533 19.8025 9.9036 19.8125 9.90137L19.8467 9.89258L19.8506 9.8916C19.8946 9.88205 19.9395 9.87635 19.9844 9.875H20.0215ZM20.8477 28.2539L24.6914 25.3232L20.8477 22.3936V28.2539ZM20.8477 18.6045L24.6914 15.6738L20.8477 12.7441V18.6045Z" fill="#192945" stroke="#192945" stroke-width="0.25"/>
</svg>
