<svg width="40" height="40" viewBox="0 0 40 40" fill="none" xmlns="http://www.w3.org/2000/svg">
<rect width="40" height="40" rx="12" fill="#FF9F0A"/>
<path d="M27.7334 10.4502C28.0292 10.4502 28.3132 10.5683 28.5225 10.7773L28.5723 10.8271V10.833C28.7499 11.0358 28.8496 11.2961 28.8496 11.5674C28.8496 11.8632 28.7325 12.1472 28.5234 12.3564H28.5225L27.3037 13.5742L29.1924 15.4639C29.4016 15.6731 29.5185 15.957 29.5186 16.2529C29.5186 16.5488 29.4015 16.8327 29.1924 17.042L25.8457 20.3887C25.7421 20.4923 25.6187 20.5748 25.4834 20.6309C25.3481 20.6869 25.2031 20.7158 25.0566 20.7158C24.91 20.7158 24.7644 20.687 24.6289 20.6309C24.4935 20.5747 24.3702 20.4924 24.2666 20.3887L22.3789 18.501L20.5332 20.3457C21.3209 21.5194 21.6596 22.9393 21.4805 24.3447C21.2952 25.7974 20.5716 27.1279 19.4531 28.0732C18.3347 29.0184 16.9026 29.5096 15.4395 29.4502C14.0674 29.3944 12.7614 28.8587 11.748 27.9404L11.5498 27.752C10.5103 26.7155 9.89852 25.326 9.83594 23.8594C9.77344 22.3926 10.2642 20.9552 11.2119 19.834C12.1595 18.7128 13.4946 17.9894 14.9512 17.8066C16.36 17.6299 17.7827 17.9728 18.9561 18.7666L20.9209 16.8027L23.1299 14.5918L26.9443 10.7773C27.1535 10.5682 27.4376 10.4503 27.7334 10.4502ZM15.6768 20.0283C14.7245 20.0229 13.8078 20.3929 13.127 21.0586C12.785 21.393 12.513 21.7921 12.3262 22.2324C12.1394 22.6727 12.0418 23.1458 12.0391 23.624C12.0363 24.1024 12.1288 24.577 12.3105 25.0195C12.4923 25.4618 12.7596 25.8639 13.0977 26.2021C13.4358 26.5403 13.838 26.8084 14.2803 26.9902C14.7227 27.1721 15.1974 27.2644 15.6758 27.2617C16.1541 27.2591 16.627 27.1613 17.0674 26.9746C17.5078 26.7879 17.9067 26.5158 18.2412 26.1738C18.907 25.4931 19.2777 24.5772 19.2725 23.625C19.2672 22.6729 18.887 21.7612 18.2139 21.0879C17.5407 20.4146 16.6288 20.0338 15.6768 20.0283ZM23.9561 16.9209L25.0566 18.0195L26.8252 16.251L25.7266 15.1523L23.9561 16.9209Z" fill="white" stroke="white" stroke-width="0.338983"/>
</svg>
