<svg width="40" height="40" viewBox="0 0 40 40" fill="none" xmlns="http://www.w3.org/2000/svg">
<rect width="40" height="40" rx="12" fill="#0A84FF"/>
<path d="M19.7207 10.8772C21.2681 10.8772 22.6612 11.3481 23.8623 12.3127C25.0443 13.262 25.8244 14.4627 26.2012 15.9338H26.498C27.509 15.9338 28.4439 16.1692 29.2998 16.6643C30.1533 17.1581 30.8396 17.8216 31.335 18.676C31.8419 19.5202 32.0897 20.4544 32.0898 21.4651C32.0971 22.4227 31.8568 23.3661 31.3916 24.2034C30.9264 25.0404 30.2517 25.7423 29.4346 26.2424C28.6126 26.7599 27.7117 27.0305 26.7217 27.053H26.7197C26.6359 27.053 26.5581 27.0341 26.501 26.9817C26.4425 26.9279 26.4209 26.8531 26.4209 26.7766V25.2942C26.4209 25.2143 26.441 25.1371 26.499 25.0813C26.5556 25.027 26.6334 25.0077 26.7158 25.0071L26.8857 24.9954C27.7309 24.9172 28.4617 24.5548 29.0811 23.9055C29.7409 23.2137 30.0644 22.4057 30.0645 21.4661C30.0645 20.5175 29.7095 19.6985 29.0059 19.0061L29.0049 19.0051C28.3014 18.3023 27.4712 17.9584 26.5098 17.9583H24.7158C24.6396 17.9583 24.5668 17.9369 24.5137 17.884C24.4628 17.8332 24.4413 17.7643 24.4395 17.6917L24.3623 17.05L24.3613 17.0481C24.2508 15.9095 23.7072 14.8566 22.8418 14.1077L22.8408 14.1067C21.949 13.3134 20.9177 12.9231 19.7324 12.9231C18.6104 12.9231 17.6342 13.2668 16.791 13.9631L16.624 14.1067C15.7442 14.8881 15.2562 15.8748 15.1475 17.0481L15.1465 17.053L15.0576 17.6614C15.0549 17.7368 15.0287 17.8054 14.9707 17.8547C14.9117 17.905 14.833 17.925 14.749 17.925V17.9241L14.1689 17.969L14.168 17.968C13.2712 18.077 12.5169 18.4553 11.9014 19.1243C11.2851 19.7941 10.9834 20.57 10.9834 21.4661C10.9835 22.4058 11.3068 23.2145 11.9561 23.9065C12.6051 24.5982 13.3924 24.9639 14.3213 25.0071H14.3203C14.3957 25.0076 14.4677 25.0291 14.5205 25.0842C14.5734 25.1394 14.5937 25.2142 14.5938 25.2942V26.7766C14.5938 26.8529 14.5726 26.9256 14.5195 26.9788C14.4663 27.0319 14.3938 27.053 14.3174 27.053H14.3135C12.8183 26.9856 11.5348 26.4117 10.4893 25.3333C9.44379 24.2549 8.91413 22.9719 8.91406 21.4661C8.91406 20.1735 9.31928 19.0252 10.1289 18.0139C10.9266 17.0175 11.9336 16.3689 13.1475 16.0706C13.5015 14.5591 14.2945 13.3097 15.5029 12.3459C16.7256 11.3709 18.1398 10.8773 19.7207 10.8772Z" fill="white" stroke="white" stroke-width="0.176432"/>
<path d="M20.04 20.4248V28.2809" stroke="white" stroke-width="2.5" stroke-linecap="round"/>
<path d="M17.5449 26.3516L20.1591 28.9657L22.7732 26.3516" stroke="white" stroke-width="2.5" stroke-linecap="round" stroke-linejoin="round"/>
</svg>
