<svg xmlns="http://www.w3.org/2000/svg" width="14" height="14" viewBox="0 0 14 14" fill="none">
  <path d="M12.1152 8.06934C12.5283 8.06955 12.8604 8.40458 12.8604 8.81641C12.8603 9.22894 12.5258 9.56348 12.1133 9.56348H3.64551L4.87207 10.7881V10.7891C5.16254 11.0814 5.16349 11.5531 4.87207 11.8447C4.72636 11.9904 4.53536 12.0635 4.34375 12.0635C4.1761 12.0635 4.00886 12.008 3.87207 11.8965L3.81543 11.8447L1.40527 9.43652L1.40332 9.43457C1.34819 9.37791 1.30244 9.31094 1.2666 9.23828L1.21191 9.14453C1.1634 9.04555 1.13577 8.934 1.13574 8.81641C1.13574 8.4038 1.47021 8.06934 1.88281 8.06934H12.1152ZM9.61914 2.10547C9.9382 1.84459 10.4085 1.89104 10.6699 2.20996V2.21094L12.6416 4.61914L12.6426 4.62109C12.6808 4.66888 12.7145 4.72302 12.7412 4.78125C12.8163 4.89745 12.8612 5.03573 12.8613 5.18457C12.8613 5.59705 12.5277 5.93143 12.1152 5.93164H1.88281C1.47021 5.93164 1.13574 5.59718 1.13574 5.18457C1.13597 4.77216 1.47035 4.43848 1.88281 4.43848H10.5635L9.51465 3.15723C9.25334 2.83805 9.2998 2.36692 9.61914 2.10547Z" fill="#23C0AC" stroke="#23C0AC" stroke-width="0.4"/>
</svg>
