<svg width="19" height="15" viewBox="0 0 19 15" fill="none" xmlns="http://www.w3.org/2000/svg">
<path d="M18.9993 7.42776C19.0167 9.08155 18.6902 10.6618 18.049 12.1717C17.1333 14.3216 14.938 16.0796 12.9333 14.2083C11.2984 12.6831 10.995 10.8368 8.54556 10.3836C5.30454 9.96706 5.22655 12.7015 3.10921 13.1517C0.749238 13.6601 -0.0335678 9.45209 0.00109523 7.54106C0.0357582 5.63001 0.515264 2.94412 2.56616 2.94412C4.92614 2.94412 5.085 5.48256 8.08049 5.27737C11.0471 5.06299 11.099 2.37142 13.0373 0.683941C14.7098 -0.773847 16.6769 0.294992 17.6619 2.04985C18.5747 3.67302 18.9762 5.57794 18.9964 7.42776H18.9993Z" fill="#50D2C1"/>
</svg>
