<svg xmlns="http://www.w3.org/2000/svg" width="123" height="101" viewBox="0 0 123 101" fill="none">
  <mask id="mask0_132913_4564" style="mask-type:alpha" maskUnits="userSpaceOnUse" x="-1" y="29" width="125" height="72">
    <rect width="53.7055" height="88.3256" transform="matrix(0.866025 0.5 -0.866025 0.5 76.4902 29.3594)" fill="#D9D9D9"/>
  </mask>
  <g mask="url(#mask0_132913_4564)">
    <rect width="53.7055" height="11.54" transform="matrix(0.866025 0.5 0 1 76.4902 29.3594)" fill="#EDF0FF"/>
    <rect width="88.3256" height="11.54" transform="matrix(0.866025 -0.5 0 1 -0.00683594 73.5215)" fill="#EDF0FF"/>
    <rect width="53.7055" height="88.3256" transform="matrix(0.866025 0.5 -0.866025 0.5 76.4902 40.8984)" fill="black"/>
  </g>
  <path d="M77.0692 1.10547C78.8519 0.798556 80.4828 1.087 81.8807 1.82422L81.9296 1.85254C82.0672 1.92651 82.2028 2.00433 82.3358 2.08691L87.9423 5.32422L88.3466 5.55371C89.2759 6.1203 90.0921 6.89236 90.7684 7.82324L91.0546 8.23047C93.5826 11.9343 94.8583 17.0212 95.1923 22.5527L95.2684 22.5967L95.2919 25.0781C95.2928 25.1672 95.2916 25.2573 95.2919 25.3467L95.2997 25.3516C95.3223 31.3395 94.2239 37.7079 92.1112 44.3848L92.1102 44.3877C90.5197 49.4025 87.7606 54.9026 84.3036 58.8672C82.5464 60.8821 80.5702 62.5389 78.4979 63.4424C76.4173 64.3492 74.3966 64.4276 72.5311 63.5947L71.3153 62.8926C71.317 62.8938 71.3185 62.8953 71.3202 62.8965L72.5302 63.5947C72.3469 63.513 72.169 63.423 71.996 63.3262L65.9335 59.8262H65.9344C64.6654 59.1155 63.6632 58.022 62.8016 56.8887C62.3103 56.2422 61.8464 55.5575 61.4052 54.9043C61.1359 54.5057 60.8743 54.1188 60.6132 53.7461C60.358 53.8054 60.0934 53.8847 59.8182 53.9854C57.7597 54.8962 56.3451 56.1959 55.2343 57.6279C54.0443 59.1624 53.0495 61.0424 52.0057 63.3066C51.0584 65.3618 49.9011 68.147 48.701 70.4326C47.4201 72.8722 45.7584 75.4378 43.4266 77.3281L43.4247 77.3271C40.8613 79.4105 38.6502 79.8559 36.912 79.1973C36.7132 79.1219 36.521 79.0327 36.3358 78.9307L30.2733 75.4307L30.0233 75.2822C28.7914 74.5021 27.8704 73.1489 27.1805 71.6377C25.5078 67.9728 24.884 62.681 24.9432 59.0645C24.9437 59.0361 24.9445 59.0071 24.9452 58.9785L24.9384 58.9736C25.0011 55.5169 25.4221 50.9536 26.7811 46.6025C28.184 42.1118 30.7982 37.3042 35.2118 34.7559C37.7121 33.3125 39.6226 33.3425 41.1552 33.9609C41.3712 34.0481 41.5826 34.1481 41.7889 34.2588L41.993 34.373L48.0555 37.873C48.391 38.0665 48.7123 38.2869 49.0223 38.5176C49.9955 38.4747 51.1031 38.0846 52.4559 37.2031L52.7772 36.9854C56.0567 34.6888 57.8736 31.1461 59.7157 26.1348C60.1883 24.8491 60.6379 23.5356 61.1171 22.1465C61.589 20.7782 62.0869 19.3443 62.6259 17.9189C63.6975 15.085 65.0111 12.0626 66.8456 9.25098C70.0981 4.26334 73.778 1.67235 77.0692 1.10547ZM31.2909 67.5293C31.6195 70.1766 32.2434 72.9477 33.243 75.1377C33.3516 75.3756 33.4664 75.6094 33.5868 75.8379C34.7334 75.5765 35.9989 74.936 37.3632 73.8271H37.3641C37.7054 73.5505 38.0302 73.2572 38.3436 72.9541L33.2118 69.9912C32.5102 69.5582 31.8595 68.7256 31.2909 67.5293ZM42.745 42.7373C42.2921 42.811 41.8099 42.9926 41.2743 43.3018C39.2196 44.4881 37.8415 46.6318 36.8436 49.8262C35.8357 53.0531 35.4373 56.7781 35.3719 59.9434L35.3788 59.9473H35.3768C35.3755 60.0111 35.3749 60.0753 35.3739 60.1387C35.3321 62.6947 35.7154 66.3354 36.6561 69.2471C37.597 68.4342 38.4309 67.2607 39.3427 65.5244C40.3861 63.5371 41.1806 61.5463 42.4071 58.8857C43.5374 56.4339 44.9391 53.656 46.8788 51.1553C48.0186 49.6858 49.2966 48.3742 50.7401 47.2725C50.3654 47.1359 50.0116 46.971 49.6766 46.7852L43.6141 43.2852L43.3143 43.1104C43.1184 42.9913 42.9288 42.8664 42.745 42.7373ZM63.6122 47.9688C62.6931 47.9779 61.6686 48.1681 60.5184 48.5986L60.4628 48.6191L60.4052 48.6445L59.8456 48.9004C58.9246 49.3425 58.0604 49.8608 57.2469 50.4434C57.3262 50.4783 57.4047 50.5156 57.4823 50.5557L57.6893 50.6699L63.7518 54.1699C64.611 54.6724 65.3788 55.4896 66.1542 56.5234C66.5948 57.1109 67.0199 57.7414 67.4677 58.4043C67.9088 59.0574 68.3719 59.7423 68.8632 60.3887C68.9352 60.4834 69.0098 60.5769 69.0839 60.6709C70.1725 60.6854 71.295 60.4395 72.4354 59.9424C73.4474 59.5012 74.4358 58.8795 75.3876 58.125L75.2343 58.0527C75.1183 57.9941 75.0039 57.9293 74.8915 57.8604L69.0428 54.4834L68.83 54.3604C68.005 53.8542 67.2678 53.0742 66.5321 52.1064C66.0883 51.5225 65.6615 50.8933 65.2157 50.2334C64.7765 49.5831 64.3166 48.899 63.8329 48.2539C63.761 48.1581 63.6861 48.0639 63.6122 47.9688ZM81.6844 10.2021C79.7782 10.5306 77.7175 11.9272 75.6952 15.0283L75.6942 15.0293C74.4728 16.901 73.4725 19.1099 72.5018 21.6768C72.0197 22.9516 71.5646 24.2627 71.0917 25.6338C70.6259 26.9841 70.1384 28.4079 69.6239 29.8076C67.6961 35.0515 65.0238 40.9668 59.8192 44.8594C60.0244 44.9368 60.2234 45.0245 60.4159 45.1211L60.6766 45.2588C60.8093 45.3331 60.9384 45.4127 61.0653 45.4951L66.4784 48.6211C67.8888 49.329 68.9706 50.5223 69.8944 51.7539C70.3782 52.3991 70.839 53.0831 71.2782 53.7334C71.5538 54.1413 71.8232 54.5369 72.0927 54.918C72.3921 54.8484 72.6841 54.7501 72.9667 54.627C74.0607 54.1499 75.1827 53.2468 76.3075 51.957C78.615 49.3108 80.7619 45.2169 82.0594 41.126C83.869 35.4063 84.8223 29.9981 84.8641 24.9053L84.8593 24.3867L84.8524 24.3828L84.8514 24.1621C84.7971 18.7381 83.8171 13.7842 81.6913 10.2002C81.689 10.2006 81.6868 10.2017 81.6844 10.2021ZM45.4374 37.0664C44.2574 37.0078 42.8882 37.3235 41.2733 38.2559C40.4853 38.7109 39.7546 39.2379 39.078 39.8223L44.9999 43.2412C45.4111 43.4803 45.8112 43.7837 46.2343 44.1318C47.9507 44.3068 50.0599 43.8228 52.746 42.0703L52.7548 42.0645C52.9411 41.9421 53.1241 41.8167 53.3046 41.6895C53.0192 41.5705 52.7397 41.425 52.4637 41.2539L52.455 41.249C52.4576 41.2506 52.4602 41.2523 52.4628 41.2539L46.7323 37.9453C46.6488 37.8999 46.5661 37.8516 46.4833 37.8018L46.4003 37.7539C46.0778 37.554 45.7598 37.321 45.4374 37.0664ZM84.8241 4.49121C84.278 4.46987 83.713 4.5054 83.1317 4.60547C81.5332 4.88074 79.8436 5.63443 78.1552 6.90723C78.3988 6.99237 78.6377 7.09586 78.87 7.21875L79.0682 7.3291L85.1307 10.8291C85.8301 11.2376 86.4676 11.8198 87.0077 12.5635L87.0087 12.5654C87.7125 13.5321 88.3123 14.6279 88.8173 15.8281C88.2403 11.562 87.0198 7.70122 84.9921 4.73047L84.8241 4.49121Z" fill="#8294FF"/>
  <path d="M77.0692 1.10547L77.0486 0.985906L77.0486 0.985908L77.0692 1.10547ZM81.8807 1.82422L81.9417 1.71919L81.9373 1.71691L81.8807 1.82422ZM81.9296 1.85254L81.8687 1.95754L81.8721 1.95941L81.9296 1.85254ZM82.3358 2.08691L82.2718 2.19004L82.2752 2.19198L82.3358 2.08691ZM87.9423 5.32422L87.8816 5.42929L87.8824 5.42973L87.9423 5.32422ZM88.3466 5.55371L88.4097 5.45007L88.4064 5.4482L88.3466 5.55371ZM90.7684 7.82324L90.8677 7.75348L90.8666 7.75193L90.7684 7.82324ZM91.0546 8.23047L91.1548 8.16207L91.1538 8.16072L91.0546 8.23047ZM95.1923 22.5527L95.0712 22.56C95.0736 22.6007 95.0963 22.6375 95.1316 22.6578L95.1923 22.5527ZM95.2684 22.5967L95.3897 22.5955C95.3893 22.5526 95.3663 22.5131 95.3291 22.4916L95.2684 22.5967ZM95.2919 25.0781L95.1706 25.0793V25.0794L95.2919 25.0781ZM95.2919 25.3467L95.1705 25.3471C95.1707 25.3888 95.1922 25.4275 95.2276 25.4496L95.2919 25.3467ZM95.2997 25.3516L95.421 25.3511C95.4208 25.3094 95.3993 25.2708 95.364 25.2487L95.2997 25.3516ZM92.1112 44.3848L92.2263 44.4231L92.2269 44.4214L92.1112 44.3848ZM92.1102 44.3877L91.9951 44.3493L91.9946 44.351L92.1102 44.3877ZM84.3036 58.8672L84.395 58.9469L84.395 58.9469L84.3036 58.8672ZM78.4979 63.4424L78.5464 63.5536L78.5464 63.5536L78.4979 63.4424ZM72.5311 63.5947L72.4701 63.7004L72.4817 63.7055L72.5311 63.5947ZM71.3153 62.8926L71.376 62.7875C71.32 62.7552 71.2484 62.7725 71.2133 62.8268C71.1783 62.8812 71.1921 62.9535 71.2447 62.9912L71.3153 62.8926ZM71.3202 62.8965L71.2493 62.9956L71.2596 63.0016L71.3202 62.8965ZM72.5302 63.5947L72.4807 63.7055C72.5397 63.7318 72.6089 63.7074 72.6382 63.6498C72.6676 63.5923 72.6467 63.5219 72.5908 63.4896L72.5302 63.5947ZM71.996 63.3262L71.9353 63.4313L71.9367 63.432L71.996 63.3262ZM65.9335 59.8262V59.7048C65.8786 59.7048 65.8305 59.7417 65.8163 59.7948C65.8021 59.8478 65.8253 59.9038 65.8728 59.9312L65.9335 59.8262ZM65.9344 59.8262V59.9475C65.9897 59.9475 66.0379 59.9102 66.0518 59.8568C66.0658 59.8034 66.0419 59.7473 65.9937 59.7203L65.9344 59.8262ZM62.8016 56.8887L62.7051 56.9621V56.9621L62.8016 56.8887ZM61.4052 54.9043L61.3046 54.9722V54.9722L61.4052 54.9043ZM60.6132 53.7461L60.7125 53.6765C60.6841 53.6359 60.6339 53.6167 60.5857 53.6279L60.6132 53.7461ZM59.8182 53.9854L59.7765 53.8712L59.7691 53.8744L59.8182 53.9854ZM55.2343 57.6279L55.1384 57.5536L55.1384 57.5536L55.2343 57.6279ZM52.0057 63.3066L51.8956 63.2559H51.8956L52.0057 63.3066ZM48.701 70.4326L48.8085 70.489L48.8085 70.489L48.701 70.4326ZM43.4266 77.3281L43.3724 77.4366C43.415 77.4579 43.4661 77.4523 43.503 77.4224L43.4266 77.3281ZM43.4247 77.3271L43.4789 77.2186C43.4363 77.1973 43.3851 77.2029 43.3482 77.233L43.4247 77.3271ZM36.912 79.1973L36.869 79.3107L36.869 79.3107L36.912 79.1973ZM36.3358 78.9307L36.2751 79.0358L36.2773 79.0369L36.3358 78.9307ZM30.2733 75.4307L30.2114 75.535L30.2127 75.5357L30.2733 75.4307ZM30.0233 75.2822L29.9584 75.3848L29.9614 75.3865L30.0233 75.2822ZM27.1805 71.6377L27.0702 71.6881H27.0702L27.1805 71.6377ZM24.9432 59.0645L24.8219 59.0625L24.8219 59.0625L24.9432 59.0645ZM24.9452 58.9785L25.0665 58.9813C25.0674 58.9411 25.0484 58.9031 25.0157 58.8798L24.9452 58.9785ZM24.9384 58.9736L24.8171 58.9714C24.8163 59.0114 24.8353 59.0491 24.8678 59.0724L24.9384 58.9736ZM26.7811 46.6025L26.6653 46.5664L26.6653 46.5664L26.7811 46.6025ZM35.2118 34.7559L35.1511 34.6508L35.1511 34.6508L35.2118 34.7559ZM41.1552 33.9609L41.2006 33.8484L41.2006 33.8484L41.1552 33.9609ZM41.7889 34.2588L41.8482 34.1529L41.8463 34.1519L41.7889 34.2588ZM41.993 34.373L42.0537 34.268L42.0523 34.2672L41.993 34.373ZM48.0555 37.873L47.9949 37.9781L47.9949 37.9781L48.0555 37.873ZM49.0223 38.5176L48.9499 38.6149C48.9723 38.6316 48.9998 38.64 49.0277 38.6388L49.0223 38.5176ZM52.4559 37.2031L52.5222 37.3048L52.524 37.3036L52.4559 37.2031ZM52.7772 36.9854L52.8453 37.0858L52.8468 37.0847L52.7772 36.9854ZM59.7157 26.1348L59.6018 26.0929V26.0929L59.7157 26.1348ZM61.1171 22.1465L61.2318 22.186V22.186L61.1171 22.1465ZM62.6259 17.9189L62.5124 17.876V17.876L62.6259 17.9189ZM66.8456 9.25098L66.9472 9.31727L66.9472 9.31725L66.8456 9.25098ZM31.2909 67.5293L31.4005 67.4772C31.3749 67.4234 31.3141 67.3962 31.2569 67.4128C31.1998 67.4295 31.1632 67.4852 31.1705 67.5442L31.2909 67.5293ZM33.243 75.1377L33.1327 75.1881H33.1327L33.243 75.1377ZM33.5868 75.8379L33.4795 75.8944C33.5051 75.9431 33.5602 75.9684 33.6138 75.9562L33.5868 75.8379ZM37.3632 73.8271V73.7058C37.3353 73.7058 37.3083 73.7154 37.2866 73.733L37.3632 73.8271ZM37.3641 73.8271V73.9485C37.392 73.9485 37.4189 73.9389 37.4405 73.9214L37.3641 73.8271ZM38.3436 72.9541L38.428 73.0413C38.4553 73.0149 38.4687 72.9771 38.464 72.9393C38.4594 72.9015 38.4373 72.8681 38.4043 72.849L38.3436 72.9541ZM33.2118 69.9912L33.148 70.0945L33.1511 70.0963L33.2118 69.9912ZM42.745 42.7373L42.8147 42.638C42.7888 42.6198 42.7568 42.6125 42.7255 42.6176L42.745 42.7373ZM41.2743 43.3018L41.2136 43.1967L41.2136 43.1967L41.2743 43.3018ZM36.8436 49.8262L36.7278 49.79L36.7278 49.79L36.8436 49.8262ZM35.3719 59.9434L35.2507 59.9409C35.2497 59.9853 35.2732 60.0266 35.3118 60.0487L35.3719 59.9434ZM35.3788 59.9473V60.0686C35.4338 60.0686 35.4819 60.0316 35.496 59.9784C35.5102 59.9252 35.4867 59.8692 35.439 59.8419L35.3788 59.9473ZM35.3768 59.9473V59.8259C35.3108 59.8259 35.2569 59.8787 35.2555 59.9448L35.3768 59.9473ZM35.3739 60.1387L35.2526 60.1367L35.2526 60.1367L35.3739 60.1387ZM36.6561 69.2471L36.5407 69.2844C36.5532 69.3231 36.5843 69.3529 36.6234 69.3639C36.6626 69.3749 36.7047 69.3655 36.7354 69.3389L36.6561 69.2471ZM39.3427 65.5244L39.4501 65.5808L39.4501 65.5808L39.3427 65.5244ZM42.4071 58.8857L42.5173 58.9365V58.9365L42.4071 58.8857ZM46.8788 51.1553L46.7829 51.0809L46.7829 51.0809L46.8788 51.1553ZM50.7401 47.2725L50.8137 47.3689C50.849 47.342 50.8667 47.298 50.8601 47.2542C50.8534 47.2104 50.8233 47.1737 50.7817 47.1585L50.7401 47.2725ZM49.6766 46.7852L49.616 46.8902L49.6178 46.8912L49.6766 46.7852ZM43.6141 43.2852L43.553 43.39L43.5535 43.3902L43.6141 43.2852ZM43.3143 43.1104L43.2513 43.2141L43.2532 43.2152L43.3143 43.1104ZM63.6122 47.9688L63.708 47.8944C63.6848 47.8644 63.6489 47.8471 63.611 47.8474L63.6122 47.9688ZM60.5184 48.5986L60.5604 48.7125L60.561 48.7123L60.5184 48.5986ZM60.4628 48.6191L60.4207 48.5051L60.4138 48.5081L60.4628 48.6191ZM60.4052 48.6445L60.3562 48.5335L60.3547 48.5342L60.4052 48.6445ZM59.8456 48.9004L59.7951 48.79L59.7931 48.791L59.8456 48.9004ZM57.2469 50.4434L57.1763 50.3447C57.1409 50.3701 57.1218 50.4125 57.1263 50.4559C57.1308 50.4992 57.1581 50.5368 57.198 50.5544L57.2469 50.4434ZM57.4823 50.5557L57.5409 50.4494L57.538 50.4479L57.4823 50.5557ZM57.6893 50.6699L57.75 50.5648L57.748 50.5637L57.6893 50.6699ZM63.7518 54.1699L63.8131 54.0652L63.8125 54.0649L63.7518 54.1699ZM66.1542 56.5234L66.2512 56.4506L66.1542 56.5234ZM67.4677 58.4043L67.3671 58.4722V58.4722L67.4677 58.4043ZM68.8632 60.3887L68.7666 60.4621L68.8632 60.3887ZM69.0839 60.6709L68.9886 60.746C69.0112 60.7747 69.0456 60.7917 69.0822 60.7922L69.0839 60.6709ZM72.4354 59.9424L72.4839 60.0536L72.4839 60.0536L72.4354 59.9424ZM75.3876 58.125L75.4629 58.2201C75.4958 58.194 75.5129 58.1528 75.5081 58.1111C75.5033 58.0694 75.4773 58.0331 75.4393 58.0153L75.3876 58.125ZM75.2343 58.0527L75.1795 58.161L75.1825 58.1625L75.2343 58.0527ZM74.8915 57.8604L74.9549 57.7569L74.9521 57.7553L74.8915 57.8604ZM69.0428 54.4834L68.9821 54.5884L68.9822 54.5885L69.0428 54.4834ZM68.83 54.3604L68.7665 54.4638L68.7692 54.4654L68.83 54.3604ZM66.5321 52.1064L66.4355 52.1799L66.4355 52.1799L66.5321 52.1064ZM65.2157 50.2334L65.1152 50.3013L65.1152 50.3013L65.2157 50.2334ZM63.8329 48.2539L63.93 48.1811L63.9299 48.1811L63.8329 48.2539ZM81.6844 10.2021L81.6639 10.0826L81.6638 10.0826L81.6844 10.2021ZM75.6952 15.0283L75.781 15.1141C75.7869 15.1082 75.7922 15.1016 75.7968 15.0946L75.6952 15.0283ZM75.6942 15.0293L75.6084 14.9435C75.6025 14.9494 75.5972 14.956 75.5926 14.963L75.6942 15.0293ZM72.5018 21.6768L72.6153 21.7197L72.5018 21.6768ZM71.0917 25.6338L71.2064 25.6734V25.6733L71.0917 25.6338ZM69.6239 29.8076L69.7378 29.8495V29.8495L69.6239 29.8076ZM59.8192 44.8594L59.7466 44.7622C59.7111 44.7888 59.6929 44.8325 59.6991 44.8764C59.7053 44.9203 59.7349 44.9573 59.7764 44.9729L59.8192 44.8594ZM60.4159 45.1211L60.4726 45.0138L60.4703 45.0127L60.4159 45.1211ZM60.6766 45.2588L60.7359 45.1529L60.7333 45.1515L60.6766 45.2588ZM61.0653 45.4951L60.9991 45.597L61.0046 45.6002L61.0653 45.4951ZM66.4784 48.6211L66.4176 48.7263L66.424 48.7295L66.4784 48.6211ZM69.8944 51.7539L69.9915 51.6811L69.9915 51.6811L69.8944 51.7539ZM71.2782 53.7334L71.1777 53.8013L71.1777 53.8013L71.2782 53.7334ZM72.0927 54.918L71.9936 54.988C72.0221 55.0283 72.0721 55.0473 72.1201 55.0361L72.0927 54.918ZM72.9667 54.627L73.0152 54.7382L73.0152 54.7382L72.9667 54.627ZM76.3075 51.957L76.3989 52.0368L76.3989 52.0368L76.3075 51.957ZM82.0594 41.126L82.1751 41.1627L82.1751 41.1626L82.0594 41.126ZM84.8641 24.9053L84.9855 24.9063L84.9855 24.9041L84.8641 24.9053ZM84.8593 24.3867L84.9806 24.3856C84.9802 24.3424 84.9569 24.3028 84.9194 24.2814L84.8593 24.3867ZM84.8524 24.3828L84.7311 24.3833C84.7313 24.4267 84.7546 24.4666 84.7922 24.4881L84.8524 24.3828ZM84.8514 24.1621L84.9728 24.1616L84.9728 24.1609L84.8514 24.1621ZM81.6913 10.2002L81.7956 10.1383C81.77 10.0951 81.7204 10.0721 81.6709 10.0806L81.6913 10.2002ZM45.4374 37.0664L45.5126 36.9712C45.4928 36.9556 45.4686 36.9465 45.4434 36.9452L45.4374 37.0664ZM41.2733 38.2559L41.2127 38.1508L41.2127 38.1508L41.2733 38.2559ZM39.078 39.8223L38.9987 39.7304C38.969 39.7561 38.9535 39.7946 38.9572 39.8337C38.9609 39.8728 38.9833 39.9077 39.0173 39.9273L39.078 39.8223ZM44.9999 43.2412L45.0609 43.1363L45.0605 43.1361L44.9999 43.2412ZM46.2343 44.1318L46.1572 44.2255C46.1756 44.2407 46.1982 44.2501 46.222 44.2525L46.2343 44.1318ZM52.746 42.0703L52.8123 42.1719L52.8133 42.1713L52.746 42.0703ZM52.7548 42.0645L52.6882 41.963L52.6875 41.9635L52.7548 42.0645ZM53.3046 41.6895L53.3745 41.7886C53.4106 41.7631 53.43 41.7201 53.4252 41.6762C53.4203 41.6323 53.392 41.5945 53.3512 41.5775L53.3046 41.6895ZM52.4637 41.2539L52.5277 41.1507L52.5227 41.1479L52.4637 41.2539ZM52.455 41.249L52.5139 41.143C52.4563 41.111 52.3838 41.1308 52.3504 41.1875C52.317 41.2443 52.335 41.3173 52.3909 41.3521L52.455 41.249ZM52.4628 41.2539L52.4021 41.359C52.4595 41.3921 52.5328 41.3731 52.5669 41.3162C52.6009 41.2593 52.583 41.1857 52.5267 41.1508L52.4628 41.2539ZM46.7323 37.9453L46.793 37.8402L46.7903 37.8388L46.7323 37.9453ZM46.4833 37.8018L46.5459 37.6978L46.5439 37.6967L46.4833 37.8018ZM46.4003 37.7539L46.3363 37.8571L46.3397 37.859L46.4003 37.7539ZM84.8241 4.49121L84.9234 4.4215C84.9016 4.39052 84.8667 4.37146 84.8288 4.36998L84.8241 4.49121ZM83.1317 4.60547L83.1111 4.48591L83.1111 4.48591L83.1317 4.60547ZM78.1552 6.90723L78.0821 6.81035C78.0464 6.83729 78.0284 6.88172 78.0353 6.92594C78.0422 6.97016 78.0729 7.00699 78.1151 7.02176L78.1552 6.90723ZM78.87 7.21875L78.929 7.11272L78.9267 7.11151L78.87 7.21875ZM79.0682 7.3291L79.1289 7.22402L79.1272 7.2231L79.0682 7.3291ZM85.1307 10.8291L85.1919 10.7243L85.1914 10.724L85.1307 10.8291ZM87.0077 12.5635L87.1162 12.5092C87.1132 12.5033 87.1098 12.4976 87.1059 12.4922L87.0077 12.5635ZM87.0087 12.5654L86.9002 12.6197C86.9032 12.6257 86.9066 12.6314 86.9106 12.6368L87.0087 12.5654ZM88.8173 15.8281L88.7054 15.8752C88.729 15.9312 88.7905 15.9612 88.8492 15.9452C88.9079 15.9292 88.9456 15.8722 88.9375 15.8119L88.8173 15.8281ZM84.9921 4.73047L85.0923 4.66207L85.0914 4.66076L84.9921 4.73047ZM77.0692 1.10547L77.0898 1.22503C78.8465 0.922591 80.4502 1.20698 81.8241 1.93153L81.8807 1.82422L81.9373 1.71691C80.5154 0.967017 78.8573 0.67452 77.0486 0.985906L77.0692 1.10547ZM81.8807 1.82422L81.8199 1.92917L81.8687 1.95749L81.9296 1.85254L81.9904 1.74759L81.9416 1.71927L81.8807 1.82422ZM81.9296 1.85254L81.8721 1.95941C82.0078 2.03231 82.1412 2.10887 82.2718 2.18999L82.3358 2.08691L82.3998 1.98384C82.2644 1.89979 82.1267 1.82071 81.987 1.74567L81.9296 1.85254ZM82.3358 2.08691L82.2752 2.19198L87.8816 5.42928L87.9423 5.32422L88.0029 5.21915L82.3965 1.98185L82.3358 2.08691ZM87.9423 5.32422L87.8824 5.42973L88.2867 5.65922L88.3466 5.55371L88.4064 5.4482L88.0022 5.21871L87.9423 5.32422ZM88.3466 5.55371L88.2834 5.6573C89.1978 6.21478 90.0025 6.97539 90.6703 7.89455L90.7684 7.82324L90.8666 7.75193C90.1818 6.80933 89.354 6.02582 88.4097 5.45012L88.3466 5.55371ZM90.7684 7.82324L90.6692 7.89299L90.9553 8.30022L91.0546 8.23047L91.1538 8.16072L90.8677 7.75349L90.7684 7.82324ZM91.0546 8.23047L90.9544 8.29886C93.4652 11.9774 94.7379 17.0398 95.0712 22.56L95.1923 22.5527L95.3134 22.5454C94.9788 17.0027 93.7001 11.8911 91.1548 8.16207L91.0546 8.23047ZM95.1923 22.5527L95.1316 22.6578L95.2078 22.7018L95.2684 22.5967L95.3291 22.4916L95.2529 22.4476L95.1923 22.5527ZM95.2684 22.5967L95.1471 22.5978L95.1706 25.0793L95.2919 25.0781L95.4132 25.077L95.3897 22.5955L95.2684 22.5967ZM95.2919 25.0781L95.1706 25.0794C95.1715 25.1689 95.1702 25.254 95.1705 25.3471L95.2919 25.3467L95.4132 25.3463C95.4129 25.2606 95.4141 25.1655 95.4132 25.0769L95.2919 25.0781ZM95.2919 25.3467L95.2276 25.4496L95.2354 25.4544L95.2997 25.3516L95.364 25.2487L95.3562 25.2438L95.2919 25.3467ZM95.2997 25.3516L95.1784 25.352C95.2009 31.3249 94.1052 37.6807 91.9955 44.3482L92.1112 44.3848L92.2269 44.4214C94.3425 37.7351 95.4437 31.3541 95.421 25.3511L95.2997 25.3516ZM92.1112 44.3848L91.9961 44.3464L91.9951 44.3493L92.1102 44.3877L92.2253 44.4261L92.2263 44.4231L92.1112 44.3848ZM92.1102 44.3877L91.9946 44.351C90.4077 49.3542 87.6556 54.8385 84.2122 58.7875L84.3036 58.8672L84.395 58.9469C87.8656 54.9668 90.6317 49.4507 92.2259 44.4244L92.1102 44.3877ZM84.3036 58.8672L84.2122 58.7874C82.4617 60.7947 80.4994 62.4374 78.4494 63.3312L78.4979 63.4424L78.5464 63.5536C80.6411 62.6403 82.6311 60.9695 84.395 58.9469L84.3036 58.8672ZM78.4979 63.4424L78.4495 63.3312C76.3945 64.2268 74.4098 64.3006 72.5806 63.4839L72.5311 63.5947L72.4817 63.7055C74.3835 64.5546 76.4401 64.4716 78.5464 63.5536L78.4979 63.4424ZM72.5311 63.5947L72.5918 63.4897L71.376 62.7875L71.3153 62.8926L71.2546 62.9976L72.4705 63.6998L72.5311 63.5947ZM71.3153 62.8926L71.2447 62.9912C71.2425 62.9897 71.2409 62.9884 71.2401 62.9877C71.2394 62.9872 71.2389 62.9867 71.2395 62.9872C71.2397 62.9874 71.241 62.9886 71.2425 62.9898C71.2442 62.9911 71.2466 62.993 71.2496 62.9952L71.3202 62.8965L71.3908 62.7978C71.3929 62.7994 71.3945 62.8006 71.3954 62.8013C71.3961 62.8019 71.3966 62.8023 71.396 62.8018C71.3958 62.8017 71.3945 62.8005 71.393 62.7993C71.3914 62.798 71.389 62.7961 71.386 62.794L71.3153 62.8926ZM71.3202 62.8965L71.2596 63.0016L72.4695 63.6998L72.5302 63.5947L72.5908 63.4896L71.3808 62.7914L71.3202 62.8965ZM72.5302 63.5947L72.5796 63.4839C72.3999 63.4038 72.2252 63.3155 72.0552 63.2203L71.996 63.3262L71.9367 63.432C72.1127 63.5306 72.294 63.6222 72.4807 63.7055L72.5302 63.5947ZM71.996 63.3262L72.0566 63.2211L65.9941 59.7211L65.9335 59.8262L65.8728 59.9312L71.9353 63.4312L71.996 63.3262ZM65.9335 59.8262V59.9475H65.9344V59.8262V59.7048H65.9335V59.8262ZM65.9344 59.8262L65.9937 59.7203C64.7463 59.0218 63.7562 57.9439 62.8982 56.8153L62.8016 56.8887L62.7051 56.9621C63.5702 58.1002 64.5845 59.2093 65.8752 59.932L65.9344 59.8262ZM62.8016 56.8887L62.8982 56.8153C62.4092 56.1719 61.9472 55.4899 61.5057 54.8364L61.4052 54.9043L61.3046 54.9722C61.7456 55.6251 62.2113 56.3126 62.7051 56.9621L62.8016 56.8887ZM61.4052 54.9043L61.5057 54.8364C61.2365 54.4379 60.9743 54.0502 60.7125 53.6765L60.6132 53.7461L60.5138 53.8157C60.7742 54.1874 61.0353 54.5735 61.3046 54.9722L61.4052 54.9043ZM60.6132 53.7461L60.5857 53.6279C60.3254 53.6885 60.0559 53.7692 59.7766 53.8714L59.8182 53.9854L59.8599 54.0993C60.1308 54.0002 60.3907 53.9224 60.6406 53.8643L60.6132 53.7461ZM59.8182 53.9854L59.7691 53.8744C57.6885 54.795 56.2588 56.1092 55.1384 57.5536L55.2343 57.6279L55.3301 57.7023C56.4313 56.2826 57.8308 54.9974 59.8673 54.0963L59.8182 53.9854ZM55.2343 57.6279L55.1384 57.5536C53.9397 59.0992 52.9403 60.9895 51.8956 63.2559L52.0057 63.3066L52.1159 63.3574C53.1587 61.0954 54.1488 59.2255 55.3301 57.7023L55.2343 57.6279ZM52.0057 63.3066L51.8956 63.2559C50.9452 65.3176 49.7918 68.0941 48.5936 70.3762L48.701 70.4326L48.8085 70.489C50.0103 68.1999 51.1716 65.4059 52.1159 63.3574L52.0057 63.3066ZM48.701 70.4326L48.5936 70.3762C47.3157 72.8101 45.6632 75.3588 43.3502 77.2339L43.4266 77.3281L43.503 77.4224C45.8536 75.5168 47.5245 72.9342 48.8085 70.489L48.701 70.4326ZM43.4266 77.3281L43.4809 77.2196L43.4789 77.2186L43.4247 77.3271L43.3704 77.4357L43.3724 77.4366L43.4266 77.3281ZM43.4247 77.3271L43.3482 77.233C40.8028 79.3018 38.637 79.7211 36.955 79.0838L36.912 79.1973L36.869 79.3107C38.6635 79.9907 40.9199 79.5193 43.5012 77.4213L43.4247 77.3271ZM36.912 79.1973L36.955 79.0838C36.7617 79.0105 36.5746 78.9237 36.3944 78.8244L36.3358 78.9307L36.2773 79.0369C36.4673 79.1416 36.6648 79.2333 36.869 79.3107L36.912 79.1973ZM36.3358 78.9307L36.3965 78.8256L30.334 75.3256L30.2733 75.4307L30.2127 75.5357L36.2752 79.0357L36.3358 78.9307ZM30.2733 75.4307L30.3353 75.3263L30.0853 75.1779L30.0233 75.2822L29.9614 75.3865L30.2114 75.535L30.2733 75.4307ZM30.0233 75.2822L30.0882 75.1797C28.8851 74.4179 27.9766 73.0895 27.2909 71.5873L27.1805 71.6377L27.0702 71.6881C27.7642 73.2084 28.6976 74.5863 29.9584 75.3847L30.0233 75.2822ZM27.1805 71.6377L27.2909 71.5873C25.6285 67.9452 25.0055 62.6735 25.0645 59.0664L24.9432 59.0645L24.8219 59.0625C24.7626 62.6884 25.387 68.0004 27.0702 71.6881L27.1805 71.6377ZM24.9432 59.0645L25.0645 59.0664C25.065 59.0386 25.0658 59.0109 25.0665 58.9813L24.9452 58.9785L24.8239 58.9758C24.8233 59.0033 24.8224 59.0337 24.8219 59.0625L24.9432 59.0645ZM24.9452 58.9785L25.0157 58.8798L25.0089 58.8749L24.9384 58.9736L24.8678 59.0724L24.8747 59.0772L24.9452 58.9785ZM24.9384 58.9736L25.0597 58.9758C25.1223 55.5257 25.5425 50.9748 26.8969 46.6387L26.7811 46.6025L26.6653 46.5664C25.3016 50.9323 24.88 55.5081 24.8171 58.9714L24.9384 58.9736ZM26.7811 46.6025L26.8969 46.6387C28.2959 42.1606 30.8971 37.3871 35.2725 34.8609L35.2118 34.7559L35.1511 34.6508C30.6992 37.2212 28.0721 42.063 26.6653 46.5664L26.7811 46.6025ZM35.2118 34.7559L35.2724 34.8609C37.7447 33.4337 39.6162 33.4708 41.1098 34.0734L41.1552 33.9609L41.2006 33.8484C39.629 33.2143 37.6794 33.1913 35.1511 34.6508L35.2118 34.7559ZM41.1552 33.9609L41.1097 34.0734C41.3214 34.1589 41.5288 34.257 41.7316 34.3657L41.7889 34.2588L41.8463 34.1519C41.6363 34.0393 41.421 33.9374 41.2006 33.8484L41.1552 33.9609ZM41.7889 34.2588L41.7297 34.3647L41.9338 34.4789L41.993 34.373L42.0523 34.2672L41.8482 34.1529L41.7889 34.2588ZM41.993 34.373L41.9324 34.4781L47.9949 37.9781L48.0555 37.873L48.1162 37.768L42.0537 34.268L41.993 34.373ZM48.0555 37.873L47.9949 37.9781C48.3251 38.1685 48.6422 38.386 48.9499 38.6149L49.0223 38.5176L49.0947 38.4202C48.7823 38.1878 48.457 37.9645 48.1161 37.7679L48.0555 37.873ZM49.0223 38.5176L49.0277 38.6388C50.0299 38.5946 51.1585 38.1933 52.5222 37.3048L52.4559 37.2031L52.3897 37.1015C51.0476 37.9759 49.9611 38.3547 49.017 38.3964L49.0223 38.5176ZM52.4559 37.2031L52.524 37.3036L52.8453 37.0858L52.7772 36.9854L52.7092 36.8849L52.3879 37.1027L52.4559 37.2031ZM52.7772 36.9854L52.8468 37.0847C56.1591 34.7652 57.9864 31.1907 59.8296 26.1766L59.7157 26.1348L59.6018 26.0929C57.7607 31.1014 55.9543 34.6124 52.7076 36.886L52.7772 36.9854ZM59.7157 26.1348L59.8296 26.1766C60.3027 24.8896 60.7527 23.5747 61.2318 22.186L61.1171 22.1465L61.0024 22.1069C60.523 23.4965 60.0739 24.8087 59.6018 26.0929L59.7157 26.1348ZM61.1171 22.1465L61.2318 22.186C61.7037 20.8177 62.2011 19.3853 62.7393 17.9619L62.6259 17.9189L62.5124 17.876C61.9728 19.3032 61.4743 20.7387 61.0024 22.1069L61.1171 22.1465ZM62.6259 17.9189L62.7393 17.9619C63.8096 15.1314 65.1197 12.1183 66.9472 9.31727L66.8456 9.25098L66.744 9.18468C64.9026 12.007 63.5853 15.0387 62.5124 17.876L62.6259 17.9189ZM66.8456 9.25098L66.9472 9.31725C70.1892 4.3457 73.8439 1.78412 77.0898 1.22503L77.0692 1.10547L77.0486 0.985908C73.7122 1.56059 70.007 4.18098 66.744 9.18471L66.8456 9.25098ZM31.2909 67.5293L31.1705 67.5442C31.4999 70.1979 32.126 72.9825 33.1327 75.1881L33.243 75.1377L33.3534 75.0873C32.3609 72.9129 31.7391 70.1552 31.4113 67.5144L31.2909 67.5293ZM33.243 75.1377L33.1327 75.1881C33.2422 75.4281 33.358 75.6639 33.4795 75.8944L33.5868 75.8379L33.6941 75.7813C33.5749 75.5549 33.4611 75.3232 33.3534 75.0873L33.243 75.1377ZM33.5868 75.8379L33.6138 75.9562C34.7832 75.6896 36.0652 75.0385 37.4397 73.9213L37.3632 73.8271L37.2866 73.733C35.9326 74.8336 34.6836 75.4634 33.5598 75.7196L33.5868 75.8379ZM37.3632 73.8271V73.9485H37.3641V73.8271V73.7058H37.3632V73.8271ZM37.3641 73.8271L37.4405 73.9214C37.7851 73.642 38.1125 73.3463 38.428 73.0413L38.3436 72.9541L38.2593 72.8669C37.9478 73.1681 37.6257 73.4589 37.2877 73.7329L37.3641 73.8271ZM38.3436 72.9541L38.4043 72.849L33.2725 69.8861L33.2118 69.9912L33.1511 70.0963L38.283 73.0592L38.3436 72.9541ZM33.2118 69.9912L33.2755 69.888C32.6025 69.4726 31.9645 68.6639 31.4005 67.4772L31.2909 67.5293L31.1813 67.5814C31.7545 68.7872 32.418 69.6438 33.1481 70.0945L33.2118 69.9912ZM42.745 42.7373L42.7255 42.6176C42.2547 42.6942 41.7586 42.8821 41.2136 43.1967L41.2743 43.3018L41.3349 43.4068C41.8612 43.1031 42.3295 42.9279 42.7645 42.857L42.745 42.7373ZM41.2743 43.3018L41.2136 43.1967C39.1213 44.4048 37.7299 46.5821 36.7278 49.79L36.8436 49.8262L36.9594 49.8623C37.9531 46.6816 39.318 44.5714 41.335 43.4068L41.2743 43.3018ZM36.8436 49.8262L36.7278 49.79C35.7153 53.0317 35.3161 56.7691 35.2507 59.9409L35.3719 59.9434L35.4932 59.9459C35.5585 56.7871 35.9561 53.0745 36.9594 49.8623L36.8436 49.8262ZM35.3719 59.9434L35.3118 60.0487L35.3186 60.0526L35.3788 59.9473L35.439 59.8419L35.4321 59.838L35.3719 59.9434ZM35.3788 59.9473V59.8259H35.3768V59.9473V60.0686H35.3788V59.9473ZM35.3768 59.9473L35.2555 59.9448C35.2542 60.0087 35.2536 60.0748 35.2526 60.1367L35.3739 60.1387L35.4952 60.1407C35.4963 60.0757 35.4968 60.0136 35.4981 59.9498L35.3768 59.9473ZM35.3739 60.1387L35.2526 60.1367C35.2106 62.7029 35.595 66.3574 36.5407 69.2844L36.6561 69.2471L36.7716 69.2098C35.8359 66.3135 35.4536 62.6865 35.4952 60.1407L35.3739 60.1387ZM36.6561 69.2471L36.7354 69.3389C37.693 68.5116 38.5354 67.3228 39.4501 65.5808L39.3427 65.5244L39.2352 65.468C38.3265 67.1987 37.501 68.3568 36.5768 69.1553L36.6561 69.2471ZM39.3427 65.5244L39.4501 65.5808C40.4953 63.5902 41.2943 61.5895 42.5173 58.9365L42.4071 58.8857L42.2969 58.8349C41.067 61.503 40.2769 63.4841 39.2352 65.468L39.3427 65.5244ZM42.4071 58.8857L42.5173 58.9365C43.6465 56.4869 45.0437 53.7192 46.9746 51.2296L46.8788 51.1553L46.7829 51.0809C44.8346 53.5929 43.4282 56.3809 42.2969 58.835L42.4071 58.8857ZM46.8788 51.1553L46.9746 51.2296C48.109 49.7672 49.3797 48.4634 50.8137 47.3689L50.7401 47.2725L50.6665 47.176C49.2135 48.285 47.9282 49.6044 46.7829 51.0809L46.8788 51.1553ZM50.7401 47.2725L50.7817 47.1585C50.4134 47.0242 50.0654 46.8621 49.7355 46.6791L49.6766 46.7852L49.6178 46.8912C49.9579 47.0799 50.3174 47.2475 50.6986 47.3864L50.7401 47.2725ZM49.6766 46.7852L49.7373 46.6801L43.6748 43.1801L43.6141 43.2852L43.5535 43.3902L49.616 46.8902L49.6766 46.7852ZM43.6141 43.2852L43.6752 43.1803L43.3754 43.0055L43.3143 43.1104L43.2532 43.2152L43.553 43.39L43.6141 43.2852ZM43.3143 43.1104L43.3773 43.0067C43.1839 42.8892 42.9965 42.7657 42.8147 42.638L42.745 42.7373L42.6753 42.8366C42.8611 42.967 43.0529 43.0935 43.2513 43.214L43.3143 43.1104ZM63.6122 47.9688L63.611 47.8474C62.6758 47.8567 61.6373 48.0503 60.4759 48.485L60.5184 48.5986L60.561 48.7123C61.6999 48.2859 62.7104 48.099 63.6134 48.0901L63.6122 47.9688ZM60.5184 48.5986L60.4765 48.4848L60.4208 48.5053L60.4628 48.6191L60.5047 48.733L60.5604 48.7125L60.5184 48.5986ZM60.4628 48.6191L60.4138 48.5081L60.3562 48.5335L60.4052 48.6445L60.4541 48.7556L60.5117 48.7302L60.4628 48.6191ZM60.4052 48.6445L60.3547 48.5342L59.7951 48.7901L59.8456 48.9004L59.896 49.0107L60.4556 48.7549L60.4052 48.6445ZM59.8456 48.9004L59.7931 48.791C58.8654 49.2364 57.9951 49.7583 57.1763 50.3447L57.2469 50.4434L57.3176 50.542C58.1256 49.9633 58.9838 49.4487 59.8981 49.0098L59.8456 48.9004ZM57.2469 50.4434L57.198 50.5544C57.2752 50.5884 57.3514 50.6246 57.4266 50.6635L57.4823 50.5557L57.538 50.4479C57.458 50.4066 57.3772 50.3682 57.2959 50.3323L57.2469 50.4434ZM57.4823 50.5557L57.4237 50.6619L57.6307 50.7761L57.6893 50.6699L57.748 50.5637L57.5409 50.4494L57.4823 50.5557ZM57.6893 50.6699L57.6287 50.775L63.6912 54.275L63.7518 54.1699L63.8125 54.0649L57.75 50.5649L57.6893 50.6699ZM63.7518 54.1699L63.6906 54.2746C64.5288 54.7649 65.285 55.5667 66.0571 56.5962L66.1542 56.5234L66.2512 56.4506C65.4726 55.4125 64.6931 54.5799 63.8131 54.0652L63.7518 54.1699ZM66.1542 56.5234L66.0571 56.5962C66.4956 57.1808 66.9189 57.8087 67.3671 58.4722L67.4677 58.4043L67.5682 58.3364C67.1208 57.6741 66.694 57.0409 66.2512 56.4506L66.1542 56.5234ZM67.4677 58.4043L67.3671 58.4722C67.808 59.1249 68.2729 59.8126 68.7666 60.4621L68.8632 60.3887L68.9597 60.3153C68.4708 59.6721 68.0097 58.9899 67.5682 58.3364L67.4677 58.4043ZM68.8632 60.3887L68.7666 60.4621C68.8394 60.5579 68.9151 60.6528 68.9886 60.746L69.0839 60.6709L69.1792 60.5958C69.1045 60.501 69.0309 60.4089 68.9597 60.3153L68.8632 60.3887ZM69.0839 60.6709L69.0822 60.7922C70.1906 60.8069 71.3301 60.5565 72.4839 60.0536L72.4354 59.9424L72.387 59.8312C71.2598 60.3224 70.1544 60.5638 69.0855 60.5496L69.0839 60.6709ZM72.4354 59.9424L72.4839 60.0536C73.5075 59.6074 74.5047 58.9797 75.4629 58.2201L75.3876 58.125L75.3122 58.0299C74.3668 58.7794 73.3874 59.395 72.3869 59.8312L72.4354 59.9424ZM75.3876 58.125L75.4393 58.0153L75.286 57.943L75.2343 58.0527L75.1825 58.1625L75.3358 58.2347L75.3876 58.125ZM75.2343 58.0527L75.289 57.9445C75.1765 57.8876 75.065 57.8245 74.9549 57.7569L74.8915 57.8604L74.828 57.9638C74.9428 58.0342 75.0602 58.1007 75.1795 58.161L75.2343 58.0527ZM74.8915 57.8604L74.9521 57.7553L69.1035 54.3783L69.0428 54.4834L68.9822 54.5885L74.8308 57.9654L74.8915 57.8604ZM69.0428 54.4834L69.1036 54.3784L68.8907 54.2553L68.83 54.3604L68.7692 54.4654L68.9821 54.5884L69.0428 54.4834ZM68.83 54.3604L68.8934 54.2569C68.0873 53.7623 67.3609 52.9962 66.6287 52.033L66.5321 52.1064L66.4355 52.1799C67.1748 53.1522 67.9227 53.946 68.7665 54.4638L68.83 54.3604ZM66.5321 52.1064L66.6287 52.033C66.1873 51.4522 65.7623 50.8257 65.3162 50.1655L65.2157 50.2334L65.1152 50.3013C65.5607 50.9608 65.9893 51.5928 66.4355 52.1799L66.5321 52.1064ZM65.2157 50.2334L65.3162 50.1655C64.8775 49.5159 64.4158 48.8291 63.93 48.1811L63.8329 48.2539L63.7358 48.3267C64.2174 48.9689 64.6756 49.6504 65.1152 50.3013L65.2157 50.2334ZM63.8329 48.2539L63.9299 48.1811C63.8573 48.0842 63.7807 47.9879 63.708 47.8944L63.6122 47.9688L63.5163 48.0431C63.5915 48.1399 63.6647 48.2319 63.7358 48.3267L63.8329 48.2539ZM81.6844 10.2021L81.6638 10.0826C79.7122 10.4188 77.6263 11.8449 75.5936 14.962L75.6952 15.0283L75.7968 15.0946C77.8087 12.0095 79.8441 10.6423 81.705 10.3217L81.6844 10.2021ZM75.6952 15.0283L75.6094 14.9425L75.6084 14.9435L75.6942 15.0293L75.78 15.1151L75.781 15.1141L75.6952 15.0283ZM75.6942 15.0293L75.5926 14.963C74.3643 16.8454 73.3603 19.0636 72.3884 21.6338L72.5018 21.6768L72.6153 21.7197C73.5846 19.1563 74.5813 16.9567 75.7958 15.0956L75.6942 15.0293ZM72.5018 21.6768L72.3884 21.6338C71.9056 22.9106 71.4499 24.2233 70.977 25.5942L71.0917 25.6338L71.2064 25.6733C71.6793 24.3022 72.1339 22.9927 72.6153 21.7197L72.5018 21.6768ZM71.0917 25.6338L70.977 25.5942C70.511 26.945 70.024 28.3674 69.51 29.7658L69.6239 29.8076L69.7378 29.8495C70.2528 28.4483 70.7407 27.0232 71.2064 25.6734L71.0917 25.6338ZM69.6239 29.8076L69.51 29.7658C67.5833 35.0069 64.9208 40.8923 59.7466 44.7622L59.8192 44.8594L59.8919 44.9565C65.1268 41.0412 67.809 35.0961 69.7378 29.8495L69.6239 29.8076ZM59.8192 44.8594L59.7764 44.9729C59.9775 45.0487 60.1726 45.1347 60.3615 45.2295L60.4159 45.1211L60.4703 45.0127C60.2741 44.9142 60.0713 44.8248 59.862 44.7459L59.8192 44.8594ZM60.4159 45.1211L60.3592 45.2284L60.62 45.3661L60.6766 45.2588L60.7333 45.1515L60.4725 45.0138L60.4159 45.1211ZM60.6766 45.2588L60.6174 45.3647C60.7472 45.4373 60.8739 45.5154 60.9992 45.5968L61.0653 45.4951L61.1314 45.3934C61.003 45.3099 60.8715 45.2288 60.7359 45.1529L60.6766 45.2588ZM61.0653 45.4951L61.0046 45.6002L66.4177 48.7262L66.4784 48.6211L66.5391 48.516L61.126 45.3901L61.0653 45.4951ZM66.4784 48.6211L66.424 48.7295C67.8088 49.4246 68.8768 50.5995 69.7974 51.8267L69.8944 51.7539L69.9915 51.6811C69.0644 50.4451 67.9688 49.2334 66.5328 48.5127L66.4784 48.6211ZM69.8944 51.7539L69.7973 51.8267C70.279 52.469 70.7381 53.1504 71.1777 53.8013L71.2782 53.7334L71.3787 53.6655C70.9399 53.0157 70.4774 52.3291 69.9915 51.6811L69.8944 51.7539ZM71.2782 53.7334L71.1777 53.8013C71.4534 54.2094 71.7234 54.6059 71.9936 54.988L72.0927 54.918L72.1917 54.8479C71.9231 54.468 71.6542 54.0733 71.3787 53.6655L71.2782 53.7334ZM72.0927 54.918L72.1201 55.0361C72.4272 54.9648 72.7262 54.8641 73.0152 54.7382L72.9667 54.627L72.9182 54.5157C72.642 54.6361 72.3571 54.7319 72.0652 54.7998L72.0927 54.918ZM72.9667 54.627L73.0152 54.7382C74.1315 54.2514 75.2674 53.3342 76.3989 52.0368L76.3075 51.957L76.2161 51.8773C75.098 53.1594 73.9898 54.0484 72.9182 54.5157L72.9667 54.627ZM76.3075 51.957L76.3989 52.0368C78.72 49.375 80.8738 45.2652 82.1751 41.1627L82.0594 41.126L81.9438 41.0893C80.6499 45.1686 78.51 49.2466 76.2161 51.8773L76.3075 51.957ZM82.0594 41.126L82.1751 41.1626C83.9876 35.4338 84.9435 30.0135 84.9855 24.9063L84.8641 24.9053L84.7428 24.9043C84.7011 29.9828 83.7505 35.3788 81.9438 41.0894L82.0594 41.126ZM84.8641 24.9053L84.9855 24.9041L84.9806 24.3856L84.8593 24.3867L84.7379 24.3879L84.7428 24.9064L84.8641 24.9053ZM84.8593 24.3867L84.9194 24.2814L84.9126 24.2775L84.8524 24.3828L84.7922 24.4881L84.7991 24.4921L84.8593 24.3867ZM84.8524 24.3828L84.9737 24.3823L84.9728 24.1616L84.8514 24.1621L84.7301 24.1626L84.7311 24.3833L84.8524 24.3828ZM84.8514 24.1621L84.9728 24.1609C84.9183 18.7261 83.9367 13.748 81.7956 10.1383L81.6913 10.2002L81.5869 10.2621C83.6975 13.8203 84.6759 18.7501 84.7301 24.1633L84.8514 24.1621ZM81.6913 10.2002L81.6709 10.0806C81.6639 10.0818 81.6583 10.0833 81.6547 10.0844C81.6514 10.0854 81.6485 10.0864 81.6484 10.0865C81.6474 10.0868 81.6491 10.0862 81.6512 10.0855C81.6536 10.0848 81.6581 10.0836 81.6639 10.0826L81.6844 10.2021L81.705 10.3217C81.712 10.3205 81.7176 10.319 81.7211 10.3179C81.7244 10.3169 81.7272 10.3159 81.7274 10.3159C81.7283 10.3156 81.7266 10.3162 81.7244 10.3168C81.722 10.3175 81.7175 10.3188 81.7117 10.3198L81.6913 10.2002ZM45.4374 37.0664L45.4434 36.9452C44.2355 36.8853 42.8434 37.2093 41.2127 38.1508L41.2733 38.2559L41.334 38.3609C42.9331 37.4378 44.2793 37.1304 45.4314 37.1876L45.4374 37.0664ZM41.2733 38.2559L41.2127 38.1508C40.4176 38.6099 39.6807 39.1414 38.9987 39.7304L39.078 39.8223L39.1573 39.9141C39.8285 39.3344 40.553 38.8119 41.334 38.3609L41.2733 38.2559ZM39.078 39.8223L39.0173 39.9273L44.9392 43.3463L44.9999 43.2412L45.0605 43.1361L39.1387 39.7172L39.078 39.8223ZM44.9999 43.2412L44.9389 43.3461C45.3416 43.5802 45.7359 43.8788 46.1572 44.2255L46.2343 44.1318L46.3113 44.0382C45.8866 43.6886 45.4805 43.3803 45.0609 43.1363L44.9999 43.2412ZM46.2343 44.1318L46.222 44.2525C47.9738 44.4311 50.1104 43.9347 52.8123 42.1719L52.746 42.0703L52.6797 41.9687C50.0093 43.711 47.9277 44.1825 46.2466 44.0111L46.2343 44.1318ZM52.746 42.0703L52.8133 42.1713L52.8221 42.1654L52.7548 42.0645L52.6875 41.9635L52.6787 41.9694L52.746 42.0703ZM52.7548 42.0645L52.8214 42.1659C53.009 42.0426 53.1932 41.9165 53.3745 41.7886L53.3046 41.6895L53.2346 41.5903C53.0551 41.7169 52.8732 41.8415 52.6882 41.963L52.7548 42.0645ZM53.3046 41.6895L53.3512 41.5775C53.0723 41.4612 52.7986 41.3187 52.5277 41.1508L52.4637 41.2539L52.3998 41.357C52.6808 41.5312 52.966 41.6797 53.2579 41.8014L53.3046 41.6895ZM52.4637 41.2539L52.5227 41.1479L52.5139 41.143L52.455 41.249L52.396 41.3551L52.4048 41.36L52.4637 41.2539ZM52.455 41.249L52.3909 41.3521C52.392 41.3527 52.393 41.3534 52.3944 41.3542C52.3957 41.3551 52.3972 41.356 52.3988 41.357L52.4628 41.2539L52.5267 41.1508C52.5224 41.1481 52.5246 41.1495 52.519 41.146L52.455 41.249ZM52.4628 41.2539L52.5234 41.1488L46.793 37.8402L46.7323 37.9453L46.6716 38.0504L52.4021 41.359L52.4628 41.2539ZM46.7323 37.9453L46.7903 37.8388C46.7089 37.7944 46.6278 37.7471 46.5458 37.6978L46.4833 37.8018L46.4207 37.9057C46.5044 37.9561 46.5888 38.0053 46.6743 38.0519L46.7323 37.9453ZM46.4833 37.8018L46.5439 37.6967L46.4609 37.6488L46.4003 37.7539L46.3397 37.859L46.4227 37.9069L46.4833 37.8018ZM46.4003 37.7539L46.4642 37.6508C46.147 37.4542 45.8329 37.2242 45.5126 36.9712L45.4374 37.0664L45.3622 37.1616C45.6866 37.4178 46.0085 37.6538 46.3363 37.857L46.4003 37.7539ZM84.8241 4.49121L84.8288 4.36998C84.2742 4.34831 83.7007 4.38441 83.1111 4.48591L83.1317 4.60547L83.1523 4.72503C83.7253 4.62638 84.2819 4.59143 84.8194 4.61244L84.8241 4.49121ZM83.1317 4.60547L83.1111 4.48591C81.4902 4.76504 79.783 5.52818 78.0821 6.81035L78.1552 6.90723L78.2282 7.00411C79.9042 5.74068 81.5762 4.99644 83.1523 4.72503L83.1317 4.60547ZM78.1552 6.90723L78.1151 7.02176C78.3532 7.10494 78.5864 7.20602 78.8133 7.32599L78.87 7.21875L78.9267 7.11151C78.6889 6.98571 78.4444 6.8798 78.1952 6.7927L78.1552 6.90723ZM78.87 7.21875L78.811 7.32475L79.0092 7.43511L79.0682 7.3291L79.1272 7.2231L78.929 7.11275L78.87 7.21875ZM79.0682 7.3291L79.0076 7.43417L85.0701 10.9342L85.1307 10.8291L85.1914 10.724L79.1289 7.22403L79.0682 7.3291ZM85.1307 10.8291L85.0695 10.9339C85.7531 11.3332 86.3784 11.9034 86.9095 12.6348L87.0077 12.5635L87.1059 12.4922C86.5567 11.7361 85.907 11.142 85.1919 10.7243L85.1307 10.8291ZM87.0077 12.5635L86.8992 12.6177L86.9002 12.6197L87.0087 12.5654L87.1172 12.5112L87.1162 12.5092L87.0077 12.5635ZM87.0087 12.5654L86.9106 12.6368C87.6081 13.5948 88.2035 14.6822 88.7054 15.8752L88.8173 15.8281L88.9291 15.7811C88.4211 14.5737 87.8169 13.4694 87.1067 12.494L87.0087 12.5654ZM88.8173 15.8281L88.9375 15.8119C88.359 11.5344 87.1342 7.65359 85.0923 4.66207L84.9921 4.73047L84.8919 4.79887C86.9055 7.74886 88.1216 11.5895 88.697 15.8444L88.8173 15.8281ZM84.9921 4.73047L85.0914 4.66076L84.9234 4.4215L84.8241 4.49121L84.7248 4.56092L84.8928 4.80018L84.9921 4.73047Z" fill="black"/>
  <path fill-rule="evenodd" clip-rule="evenodd" d="M95.299 25.3509C95.3216 31.3389 94.2233 37.7073 92.1106 44.3841L92.1098 44.3876C90.5192 49.4024 87.76 54.902 84.3029 58.8666C82.5456 60.8816 80.5695 62.5388 78.4969 63.4422C76.4163 64.3491 74.3959 64.4272 72.5303 63.5941C71.0027 62.9125 69.8423 61.676 68.8632 60.388C68.3718 59.7415 67.9083 59.0565 67.467 58.4032C67.0191 57.7402 66.5941 57.1103 66.1535 56.5228C64.391 54.1728 62.6698 52.9411 59.8182 53.9842C57.7596 54.8951 56.3452 56.1948 55.2343 57.6268C54.0442 59.1613 53.05 61.0417 52.0062 63.306C51.0588 65.3612 49.9012 68.1463 48.7011 70.432C47.4201 72.8715 45.7581 75.4366 43.4263 77.327L43.4254 77.3265C40.8617 79.4104 38.65 79.8555 36.9116 79.1966C35.2541 78.5682 34.079 76.9687 33.2429 75.1371C31.5701 71.4722 30.9459 66.1804 31.0051 62.5638C31.0056 62.5327 31.007 62.5009 31.0076 62.4696L31.0009 62.4735C31.0636 59.0167 31.4845 54.4531 32.8437 50.1019C34.2465 45.6112 36.8603 40.8036 41.2739 38.2552C43.7743 36.8117 45.6851 36.8418 47.2177 37.4603C48.6574 38.0414 49.8797 39.2088 50.9161 40.0878C53.1055 41.9444 54.9634 43.0187 58.5175 40.703L58.8388 40.4852C62.1185 38.1886 63.9349 34.6462 65.7772 29.6346C66.2498 28.349 66.6993 27.0352 67.1786 25.6459C67.6505 24.2775 68.1484 22.8436 68.6873 21.4183C69.759 18.5844 71.073 15.562 72.9075 12.7504C76.1601 7.76258 79.8402 5.17214 83.1315 4.60533C86.3149 4.05727 89.0121 5.40554 90.7684 7.82311L91.0551 8.22984C93.5959 11.9522 94.8731 17.0716 95.1992 22.6351L95.2677 22.5956L95.2914 25.077C95.2923 25.1693 95.2919 25.2624 95.2922 25.3548L95.299 25.3509ZM35.3741 60.138C35.3241 63.1968 35.8801 67.8098 37.2753 70.8666C37.9732 72.3953 38.804 73.3621 39.6992 73.7015C40.5124 74.0097 41.3999 73.8246 42.5552 72.8846L42.5603 72.8807C43.5671 72.0644 44.4418 70.8572 45.4044 69.0238C46.4479 67.0365 47.2428 65.0458 48.4694 62.3851C49.5996 59.9333 51.0011 57.1558 52.9407 54.6551C54.8238 52.2275 57.0813 50.2271 59.8453 48.9003L60.4051 48.6444L60.4626 48.619L60.5185 48.5985C65.3587 46.7867 67.9693 49.1873 69.8942 51.7538C70.3781 52.399 70.8385 53.083 71.2778 53.7333C71.7236 54.3932 72.1499 55.0224 72.5938 55.6063C73.4298 56.7061 74.2675 57.5629 75.2341 58.0516L75.4295 58.1449C76.7251 58.7234 77.943 58.5996 79.0289 58.1263C80.1229 57.6493 81.2455 56.7467 82.3704 55.4569C84.6779 52.8107 86.8246 48.7163 88.1222 44.6254C89.9317 38.9057 90.8848 33.4975 90.9266 28.4046L90.9215 27.8783L90.9148 27.8822L90.9131 27.6615C90.8528 21.639 89.6527 16.1958 87.0083 12.5643L87.0075 12.5629C85.657 10.7033 83.6983 9.85479 81.6845 10.2015C79.7782 10.5299 77.7174 11.9266 75.695 15.0277L75.6942 15.0292C74.4728 16.9009 73.473 19.1098 72.5024 21.6766C72.0203 22.9516 71.5647 24.2624 71.0917 25.6337C70.626 26.984 70.1382 28.4075 69.6236 29.8075C67.5757 35.3784 64.689 41.7083 58.8168 45.5643L58.8084 45.5702C52.9196 49.4122 49.8029 47.1605 47.5205 45.225C46.3204 44.2073 45.4314 43.3602 44.3887 42.9393C43.4388 42.556 42.4948 42.5963 41.2739 43.3011C39.2193 44.4875 37.841 46.6307 36.8431 49.8251C35.8344 53.0545 35.4365 56.7831 35.3716 59.9501L35.3783 59.9462C35.377 60.0102 35.3752 60.0745 35.3741 60.138Z" fill="white" stroke="black" stroke-width="0.242643" stroke-linejoin="round"/>
</svg>