<svg width="393" height="360" viewBox="0 0 393 360" fill="none" xmlns="http://www.w3.org/2000/svg">
<path fill-rule="evenodd" clip-rule="evenodd" d="M297.297 262.1L298.501 264.467L297.297 262.1Z" fill="#AAAAAA"/>
<path fill-rule="evenodd" clip-rule="evenodd" d="M311.77 254.307C312.921 251.952 312.489 249.49 311.584 247.597L312.948 249.969C313.885 251.812 314.124 254.318 312.973 256.673L312.974 256.674C310.671 261.384 304.62 264.46 299.458 263.545L299.457 263.544C296.825 263.077 294.912 261.84 293.994 259.941C293.994 259.941 293.09 258.046 293.108 257.108C293.114 256.755 293.471 257.177 294.054 257.865C295.021 259.008 296.612 260.886 298.255 261.177L298.255 261.178C303.416 262.093 309.467 259.017 311.77 254.308L311.77 254.307Z" fill="#FEC27C"/>
<path d="M311.584 247.597L311.401 247.712L311.761 247.472L311.584 247.597ZM311.77 254.307L311.588 254.425L311.548 254.346L311.594 254.252L311.77 254.307ZM312.948 249.969L313.126 249.844L313.13 249.851L312.948 249.969ZM312.973 256.673L312.792 256.791L312.752 256.712L312.798 256.618L312.973 256.673ZM312.974 256.674L313.155 256.556L313.195 256.635L313.149 256.729L312.974 256.674ZM299.458 263.545L299.385 263.741L299.31 263.728L299.276 263.663L299.458 263.545ZM299.457 263.544L299.53 263.348L299.605 263.361L299.639 263.426L299.457 263.544ZM293.994 259.941L293.812 260.056L293.811 260.055L293.994 259.941ZM293.108 257.108L292.909 257.146L292.909 257.146L293.108 257.108ZM294.054 257.865L293.891 258.011V258.011L294.054 257.865ZM298.255 261.177L298.327 260.981L298.403 260.994L298.436 261.059L298.255 261.177ZM298.255 261.178L298.182 261.374L298.107 261.361L298.073 261.296L298.255 261.178ZM311.77 254.308L311.951 254.19L311.992 254.269L311.946 254.363L311.77 254.308ZM311.584 247.597L311.767 247.482C312.682 249.395 313.138 251.922 311.945 254.363L311.77 254.307L311.594 254.252C312.704 251.982 312.297 249.584 311.401 247.712L311.584 247.597ZM312.948 249.969L312.771 250.094L311.406 247.722L311.584 247.597L311.761 247.472L313.126 249.845L312.948 249.969ZM312.973 256.673L312.798 256.618C313.911 254.339 313.686 251.896 312.767 250.087L312.948 249.969L313.13 249.851C314.084 251.729 314.336 254.298 313.149 256.728L312.973 256.673ZM312.973 256.673L313.155 256.555L313.155 256.556L312.974 256.674L312.792 256.792L312.792 256.791L312.973 256.673ZM312.974 256.674L313.149 256.729C310.79 261.555 304.622 264.67 299.385 263.741L299.458 263.545L299.53 263.348C304.618 264.25 310.552 261.213 312.798 256.619L312.974 256.674ZM299.458 263.545L299.276 263.663L299.276 263.662L299.457 263.544L299.639 263.426L299.639 263.426L299.458 263.545ZM293.994 259.941L294.177 259.826C295.069 261.671 296.934 262.887 299.53 263.348L299.457 263.544L299.385 263.741C296.716 263.268 294.755 262.009 293.812 260.056L293.994 259.941ZM293.108 257.108L293.306 257.07C293.303 257.278 293.351 257.554 293.432 257.859C293.512 258.162 293.622 258.481 293.733 258.774C293.843 259.066 293.955 259.329 294.038 259.52C294.08 259.615 294.115 259.692 294.139 259.745C294.152 259.771 294.161 259.792 294.168 259.806C294.171 259.813 294.173 259.818 294.175 259.821C294.176 259.823 294.176 259.824 294.177 259.825C294.177 259.826 294.177 259.826 294.177 259.826C294.177 259.826 294.177 259.826 294.177 259.826C294.177 259.826 294.177 259.826 294.177 259.826C294.177 259.826 294.177 259.826 293.994 259.941C293.811 260.055 293.811 260.055 293.811 260.055C293.811 260.055 293.811 260.055 293.811 260.055C293.811 260.055 293.811 260.055 293.811 260.055C293.811 260.055 293.811 260.054 293.81 260.054C293.81 260.053 293.809 260.051 293.808 260.049C293.807 260.046 293.804 260.04 293.801 260.033C293.794 260.018 293.784 259.997 293.772 259.97C293.747 259.916 293.711 259.837 293.668 259.74C293.583 259.546 293.469 259.278 293.356 258.979C293.243 258.681 293.13 258.35 293.046 258.033C292.962 257.72 292.904 257.406 292.909 257.146L293.108 257.108ZM294.054 257.865L293.891 258.011C293.596 257.663 293.369 257.395 293.215 257.256C293.178 257.222 293.149 257.199 293.128 257.186C293.101 257.17 293.105 257.179 293.132 257.18C293.15 257.18 293.183 257.176 293.221 257.153C293.261 257.13 293.284 257.099 293.296 257.077C293.313 257.045 293.307 257.033 293.306 257.07L293.108 257.108L292.909 257.146C292.91 257.095 292.916 257.018 292.956 256.945C292.98 256.902 293.017 256.856 293.073 256.822C293.128 256.789 293.181 256.781 293.22 256.781C293.291 256.782 293.348 256.812 293.385 256.835C293.427 256.861 293.47 256.896 293.514 256.936C293.686 257.091 293.928 257.379 294.216 257.719L294.054 257.865ZM298.255 261.177L298.182 261.374C297.315 261.22 296.481 260.654 295.752 260.001C295.02 259.345 294.374 258.582 293.891 258.011L294.054 257.865L294.216 257.719C294.701 258.291 295.334 259.039 296.05 259.68C296.769 260.325 297.551 260.843 298.327 260.981L298.255 261.177ZM298.255 261.178L298.073 261.296L298.073 261.295L298.255 261.177L298.436 261.059L298.436 261.06L298.255 261.178ZM298.255 261.178L298.327 260.981C303.414 261.883 309.348 258.846 311.595 254.253L311.77 254.308L311.946 254.363C309.586 259.188 303.418 262.303 298.182 261.374L298.255 261.178ZM311.77 254.307L311.951 254.189L311.951 254.19L311.77 254.308L311.589 254.426L311.588 254.425L311.77 254.307Z" fill="#FD9E2E"/>
<path fill-rule="evenodd" clip-rule="evenodd" d="M311.768 254.309C312.919 251.954 312.487 249.491 311.582 247.599L312.946 249.971C313.883 251.814 314.122 254.321 312.971 256.676L311.768 254.309Z" fill="white" stroke="#FDB82E" stroke-width="0.398269"/>
<path fill-rule="evenodd" clip-rule="evenodd" d="M293.105 257.11C293.122 256.172 295.619 260.713 298.252 261.18L299.455 263.547C296.823 263.08 294.909 261.842 293.992 259.943C293.992 259.943 293.088 258.049 293.105 257.11Z" fill="#FDB82E" stroke="#FDB82E" stroke-width="0.398269"/>
<path fill-rule="evenodd" clip-rule="evenodd" d="M298.252 261.18C303.414 262.096 309.465 259.019 311.768 254.31L312.971 256.676C310.669 261.386 304.617 264.462 299.455 263.547L298.252 261.18Z" fill="#FFEBB6" stroke="#FDB82E" stroke-width="0.398269"/>
<path fill-rule="evenodd" clip-rule="evenodd" d="M310.814 255.229L312.017 257.596L310.814 255.229Z" fill="#AAAAAA"/>
<path d="M306.505 244.301C301.451 243.406 295.527 246.418 293.272 251.029C291.018 255.639 293.287 260.103 298.341 261C303.395 261.896 309.319 258.884 311.574 254.273C313.828 249.662 311.558 245.198 306.505 244.301Z" fill="url(#paint0_linear_68338_234879)"/>
<path d="M306.505 244.301C301.451 243.406 295.527 246.418 293.272 251.029C291.018 255.639 293.287 260.103 298.341 261C303.395 261.896 309.319 258.884 311.574 254.273C313.828 249.662 311.558 245.198 306.505 244.301Z" stroke="url(#paint1_linear_68338_234879)" stroke-width="0.398269"/>
<path d="M310.416 254.068C312.385 250.04 310.403 246.141 305.989 245.358C301.575 244.576 296.4 247.206 294.431 251.234C292.462 255.261 294.444 259.161 298.858 259.943C303.272 260.726 308.447 258.095 310.416 254.068Z" fill="url(#paint2_linear_68338_234879)"/>
<path d="M299.703 255.691C300.346 256.053 300.988 255.956 301.63 255.4C301.872 255.191 302.002 254.975 302.021 254.753C302.047 254.53 302.012 254.293 301.915 254.043L299.703 255.691ZM305.348 250.027C305.171 249.924 305.002 249.854 304.84 249.815C304.682 249.779 304.532 249.768 304.388 249.781C304.248 249.796 304.113 249.835 303.984 249.897C303.859 249.955 303.743 250.03 303.634 250.124C303.388 250.337 303.249 250.564 303.217 250.803C303.189 251.039 303.219 251.286 303.308 251.543L305.348 250.027ZM303.814 252.633C303.91 252.817 304 253.007 304.083 253.202C304.17 253.393 304.239 253.59 304.288 253.792C304.345 253.993 304.377 254.197 304.382 254.404C304.39 254.614 304.36 254.826 304.292 255.042C304.227 255.26 304.117 255.479 303.965 255.701C303.812 255.922 303.602 256.149 303.335 256.38C302.939 256.723 302.514 257.001 302.061 257.215C301.612 257.426 301.152 257.562 300.682 257.624C300.216 257.682 299.753 257.66 299.293 257.558C298.837 257.451 298.404 257.253 297.993 256.962L297.16 257.584C297.037 257.679 296.892 257.734 296.727 257.75C296.56 257.772 296.421 257.734 296.308 257.636L295.759 257.16L297.144 256.128C296.854 255.739 296.638 255.313 296.496 254.851C296.363 254.388 296.32 253.935 296.368 253.493L297.7 253.141C297.809 253.113 297.919 253.107 298.029 253.123C298.147 253.138 298.242 253.178 298.316 253.242C298.393 253.309 298.445 253.401 298.471 253.517C298.501 253.63 298.526 253.759 298.544 253.905C298.569 254.05 298.599 254.206 298.632 254.372C298.672 254.537 298.74 254.704 298.834 254.873L301.371 252.986C301.223 252.713 301.09 252.427 300.971 252.129C300.856 251.834 300.802 251.524 300.811 251.199C300.82 250.874 300.914 250.533 301.095 250.177C301.278 249.823 301.593 249.453 302.04 249.067C302.369 248.781 302.742 248.548 303.157 248.366C303.573 248.185 304.004 248.07 304.45 248.024C304.899 247.98 305.348 248.015 305.795 248.128C306.247 248.238 306.672 248.444 307.07 248.745L307.817 248.19C307.94 248.095 308.083 248.038 308.245 248.02C308.415 248.001 308.556 248.04 308.669 248.137L309.218 248.614L307.9 249.596C308.164 249.969 308.326 250.344 308.385 250.721C308.448 251.101 308.46 251.458 308.421 251.793L307.36 252.076C307.201 252.119 307.068 252.137 306.96 252.13C306.86 252.123 306.771 252.085 306.694 252.019C306.646 251.977 306.602 251.914 306.564 251.83C306.533 251.746 306.5 251.652 306.465 251.549C306.433 251.442 306.396 251.33 306.352 251.212C306.315 251.094 306.266 250.975 306.204 250.856L303.814 252.633Z" fill="#EE970A"/>
<g opacity="0.7">
<path d="M6.00003 113.699L368 204.699C312.936 237.503 300.564 262.395 245.5 295.199L211.5 282.199L183 312.199L6.00003 113.699Z" fill="url(#paint3_linear_68338_234879)" style="mix-blend-mode:darken"/>
</g>
<g opacity="0.9">
<path d="M60.5232 58.4341L335 181.699L227.5 295.699L212 281.199L181 302.699L60.5232 58.4341Z" fill="url(#paint4_linear_68338_234879)" style="mix-blend-mode:darken"/>
</g>
<path d="M127.726 134.987C141.783 156.978 174.316 173.85 200.389 172.672C226.462 171.493 236.203 152.711 222.146 130.72C208.089 108.729 175.557 91.8566 149.483 93.0349C123.41 94.2133 113.669 112.996 127.726 134.987Z" fill="url(#paint5_linear_68338_234879)" stroke="url(#paint6_linear_68338_234879)" stroke-width="2.49664"/>
<ellipse cx="40.0799" cy="40.0799" rx="40.0799" ry="40.0799" transform="matrix(0.538589 0.842568 0.99898 -0.045148 113.317 100.888)" fill="url(#paint7_linear_68338_234879)"/>
<path d="M122.196 105.493C117.835 113.901 119.79 124.574 126.476 135.034L119.405 148.67C112.718 138.21 110.763 127.537 115.124 119.129L122.196 105.493Z" fill="#DBDFF8"/>
<path d="M120.146 148.642C127.307 159.691 139.073 169.483 152.378 176.383C165.682 183.283 180.464 187.259 193.62 186.747L200.032 174.384C186.792 174.739 172.085 170.707 158.876 163.856C145.665 157.005 133.896 147.306 126.558 136.278L120.146 148.642Z" fill="url(#paint8_linear_68338_234879)" stroke="#DBDFF8" stroke-width="1.24832"/>
<path d="M195.056 186.693C206.826 185.927 215.968 181.455 220.058 173.57L223.841 166.273C218.576 171.187 210.68 173.868 201.46 174.344L195.056 186.693Z" fill="#FEFEFF" stroke="#DBDFF8" stroke-width="1.24832"/>
<path d="M153.786 114.652L155.326 115.331L188.79 139.962L188.742 140.38L161.893 141.358L153.786 114.652Z" fill="#343434"/>
<path d="M153.786 114.651L197.228 125.886L188.742 140.38L172.5 128.425L153.786 114.651Z" fill="#8C8C8C"/>
<path d="M191.687 142.543L192.138 142.62L204.059 151.393L204.4 151.9L164.832 143.529L191.687 142.543Z" fill="#3C3C3B"/>
<path d="M204.395 151.902L191.683 142.545L200.174 128.054L204.395 151.902Z" fill="#8C8C8C"/>
<path d="M188.74 140.38L161.891 141.358L172.498 128.425L188.74 140.38Z" fill="#141414"/>
<path d="M197.229 125.886L188.742 140.38L172.5 128.425L197.229 125.886Z" fill="#393939"/>
<path d="M364.084 202.313C357.768 206.781 347.763 210.964 336.66 214.217C325.377 217.523 313.058 219.842 302.514 220.543C292.027 221.241 277.466 219.141 265.456 216.841C259.466 215.694 254.136 214.503 250.305 213.598C248.39 213.146 246.849 212.766 245.788 212.499C245.623 212.457 245.47 212.417 245.329 212.381L262.565 176.899C288.692 184.055 308.445 187.577 340.796 180.887L340.869 180.872L340.939 180.846C348.085 178.207 354.78 175.263 360.179 172.462C364.072 170.442 367.349 168.464 369.634 166.703L364.084 202.313Z" fill="url(#paint9_linear_68338_234879)" stroke="url(#paint10_linear_68338_234879)" stroke-width="2"/>
<path d="M321.336 151.205L330.378 120.566C336.384 124.177 349.283 132.232 352.83 135.564C357.263 139.728 371.759 149.913 370.5 161.699C369.913 167.199 363.5 169.699 352.83 176.199C343.5 161.699 329.422 155.003 321.336 151.205Z" fill="url(#paint11_linear_68338_234879)" stroke="url(#paint12_linear_68338_234879)" stroke-width="2"/>
<path fill-rule="evenodd" clip-rule="evenodd" d="M118.013 200.886L122.363 197.096L118.013 200.886Z" fill="#AAAAAA"/>
<path fill-rule="evenodd" clip-rule="evenodd" d="M93.924 174.518C88.3514 173.339 83.3903 175.553 79.882 178.465L84.1581 174.332C87.5452 171.382 92.7 169.551 98.2715 170.728L98.2729 170.727C109.418 173.084 119.106 184.206 119.913 195.569L119.912 195.57C120.323 201.364 118.729 206.051 115.213 208.99C115.213 208.99 111.7 211.899 109.713 212.36C108.966 212.533 109.665 211.558 110.807 209.965C112.703 207.32 115.818 202.974 115.562 199.358L115.562 199.357C114.756 187.996 105.069 176.875 93.9254 174.517L93.924 174.518Z" fill="#FEC27C"/>
<path d="M79.882 178.465L80.2205 178.79L79.5251 178.157L79.882 178.465ZM93.924 174.518L94.2685 174.838L94.1233 174.964L93.9006 174.917L93.924 174.518ZM84.1581 174.332L83.8012 174.024L83.8072 174.018L83.8136 174.013L84.1581 174.332ZM98.2715 170.728L98.616 171.048L98.4709 171.174L98.2482 171.127L98.2715 170.728ZM98.2729 170.727L97.9283 170.407L98.0735 170.28L98.2962 170.328L98.2729 170.727ZM119.913 195.569L120.366 195.618L120.377 195.784L120.257 195.889L119.913 195.569ZM119.912 195.57L119.459 195.52L119.447 195.354L119.568 195.25L119.912 195.57ZM115.213 208.99L115.552 209.315L115.551 209.316L115.213 208.99ZM109.713 212.36L109.898 212.759V212.759L109.713 212.36ZM110.807 209.965L111.202 210.23V210.23L110.807 209.965ZM115.562 199.358L115.109 199.308L115.097 199.143L115.217 199.038L115.562 199.358ZM115.562 199.357L116.015 199.407L116.027 199.572L115.907 199.677L115.562 199.357ZM93.9254 174.517L93.5809 174.197L93.7261 174.07L93.9488 174.118L93.9254 174.517ZM79.882 178.465L79.5435 178.14C83.0895 175.197 88.1733 172.898 93.9473 174.119L93.924 174.518L93.9006 174.917C88.5296 173.781 83.6911 175.91 80.2205 178.79L79.882 178.465ZM84.1581 174.332L84.515 174.641L80.2389 178.774L79.882 178.465L79.5251 178.157L83.8012 174.024L84.1581 174.332ZM98.2715 170.728L98.2482 171.127C92.8558 169.988 87.8267 171.757 84.5026 174.652L84.1581 174.332L83.8136 174.013C87.2637 171.007 92.5442 169.114 98.2948 170.329L98.2715 170.728ZM98.2715 170.728L97.927 170.408L97.9283 170.407L98.2729 170.727L98.6174 171.046L98.616 171.048L98.2715 170.728ZM98.2729 170.727L98.2962 170.328C109.715 172.742 119.548 184.09 120.366 195.618L119.913 195.569L119.46 195.52C118.665 184.322 109.121 173.425 98.2495 171.126L98.2729 170.727ZM119.913 195.569L120.257 195.889L120.256 195.889L119.912 195.57L119.568 195.25L119.568 195.249L119.913 195.569ZM115.213 208.99L114.874 208.666C118.29 205.81 119.864 201.235 119.459 195.52L119.912 195.57L120.365 195.619C120.782 201.493 119.168 206.292 115.552 209.315L115.213 208.99ZM109.713 212.36L109.528 211.961C109.969 211.859 110.524 211.611 111.125 211.278C111.719 210.949 112.334 210.549 112.892 210.16C113.449 209.772 113.946 209.398 114.303 209.121C114.481 208.982 114.625 208.868 114.724 208.788C114.773 208.749 114.811 208.718 114.837 208.697C114.849 208.686 114.859 208.678 114.866 208.673C114.869 208.67 114.871 208.668 114.873 208.667C114.873 208.667 114.874 208.666 114.874 208.666C114.875 208.666 114.875 208.665 114.875 208.665C114.875 208.665 114.875 208.665 114.875 208.665C114.875 208.665 114.875 208.665 115.213 208.99C115.551 209.316 115.551 209.316 115.551 209.316C115.551 209.316 115.551 209.316 115.551 209.316C115.551 209.316 115.551 209.316 115.55 209.316C115.55 209.317 115.549 209.317 115.548 209.318C115.546 209.32 115.544 209.322 115.54 209.325C115.533 209.33 115.523 209.339 115.51 209.35C115.483 209.372 115.443 209.404 115.393 209.444C115.292 209.526 115.145 209.643 114.963 209.784C114.6 210.066 114.093 210.448 113.524 210.845C112.955 211.241 112.319 211.655 111.696 212C111.079 212.342 110.45 212.631 109.898 212.759L109.713 212.36ZM110.807 209.965L111.202 210.23C110.624 211.036 110.18 211.657 109.968 212.055C109.916 212.152 109.884 212.225 109.868 212.276C109.847 212.34 109.865 212.328 109.852 212.271C109.843 212.233 109.817 212.165 109.748 212.096C109.678 212.026 109.6 211.993 109.548 211.979C109.472 211.959 109.449 211.979 109.528 211.961L109.713 212.36L109.898 212.759C109.79 212.784 109.625 212.812 109.449 212.765C109.347 212.738 109.229 212.683 109.129 212.584C109.03 212.485 108.985 212.379 108.965 212.295C108.93 212.146 108.963 212.01 108.992 211.92C109.025 211.818 109.075 211.708 109.136 211.595C109.372 211.15 109.849 210.487 110.413 209.7L110.807 209.965ZM115.562 199.358L116.015 199.407C116.15 201.315 115.399 203.373 114.409 205.254C113.413 207.145 112.148 208.91 111.202 210.23L110.807 209.965L110.413 209.7C111.362 208.376 112.603 206.645 113.575 204.797C114.552 202.941 115.23 201.017 115.109 199.308L115.562 199.358ZM115.562 199.357L115.907 199.677L115.906 199.678L115.562 199.358L115.217 199.038L115.218 199.037L115.562 199.357ZM115.562 199.357L115.11 199.308C114.314 188.111 104.772 177.216 93.9019 174.916L93.9254 174.517L93.9488 174.118C105.366 176.534 115.197 187.88 116.015 199.407L115.562 199.357ZM93.924 174.518L93.5795 174.198L93.5809 174.197L93.9254 174.517L94.2698 174.836L94.2685 174.838L93.924 174.518Z" fill="#FD9E2E"/>
<path fill-rule="evenodd" clip-rule="evenodd" d="M93.9284 174.521C88.3558 173.342 83.3947 175.556 79.8863 178.468L84.1625 174.335C87.5501 171.384 92.706 169.553 98.2786 170.731L93.9284 174.521Z" fill="white" stroke="#FDB82E" stroke-width="0.865385"/>
<path fill-rule="evenodd" clip-rule="evenodd" d="M109.719 212.364C107.732 212.824 115.979 205.156 115.568 199.361L119.918 195.572C120.329 201.367 118.735 206.054 115.219 208.994C115.219 208.994 111.706 211.903 109.719 212.364Z" fill="#FDB82E" stroke="#FDB82E" stroke-width="0.865385"/>
<path fill-rule="evenodd" clip-rule="evenodd" d="M115.569 199.362C114.763 187.999 105.074 176.877 93.9294 174.52L98.2796 170.731C109.425 173.088 119.113 184.21 119.919 195.573L115.569 199.362Z" fill="#FFEBB6" stroke="#FDB82E" stroke-width="0.865385"/>
<path fill-rule="evenodd" clip-rule="evenodd" d="M96.3714 176.044L100.722 172.254L96.3714 176.044Z" fill="#AAAAAA"/>
<path d="M75.6275 190.913C76.4169 202.037 85.9021 212.927 96.8132 215.235C107.725 217.542 115.931 210.394 115.141 199.269C114.352 188.145 104.866 177.256 93.9546 174.948C83.0436 172.641 74.8384 179.788 75.6275 190.913Z" fill="url(#paint13_linear_68338_234879)"/>
<path d="M75.6275 190.913C76.4169 202.037 85.9021 212.927 96.8132 215.235C107.725 217.542 115.931 210.394 115.141 199.269C114.352 188.145 104.866 177.256 93.9546 174.948C83.0436 172.641 74.8384 179.788 75.6275 190.913Z" stroke="url(#paint14_linear_68338_234879)" stroke-width="0.865385"/>
<path d="M94.136 177.497C84.6057 175.481 77.4388 181.724 78.1283 191.441C78.8177 201.157 87.1025 210.668 96.6328 212.684C106.163 214.699 113.33 208.456 112.641 198.74C111.951 189.023 103.666 179.512 94.136 177.497Z" fill="url(#paint15_linear_68338_234879)"/>
<path d="M101.769 198.188C102.192 196.642 101.647 195.339 100.135 194.281C99.5656 193.882 99.0418 193.722 98.5636 193.8C98.0797 193.863 97.5998 194.063 97.1238 194.399L101.769 198.188ZM86.8433 189.294C86.7202 189.721 86.6607 190.115 86.6648 190.475C86.673 190.827 86.7287 191.151 86.8319 191.446C86.9392 191.733 87.0919 191.997 87.29 192.236C87.4783 192.468 87.7001 192.674 87.9554 192.853C88.5346 193.258 89.0851 193.432 89.6068 193.373C90.1186 193.307 90.6224 193.112 91.1179 192.79L86.8433 189.294ZM93.1459 191.145C93.4834 190.845 93.8357 190.556 94.2027 190.277C94.5599 189.991 94.9382 189.743 95.3376 189.531C95.7314 189.304 96.145 189.131 96.5783 189.01C97.0158 188.881 97.4794 188.831 97.9692 188.862C98.4632 188.884 98.9841 188.997 99.5319 189.202C100.08 189.407 100.668 189.73 101.296 190.17C102.229 190.823 103.041 191.57 103.732 192.412C104.414 193.246 104.944 194.142 105.324 195.101C105.694 196.052 105.892 197.039 105.92 198.064C105.937 199.081 105.748 200.098 105.353 201.117L107.104 202.544C107.371 202.753 107.564 203.028 107.684 203.369C107.818 203.709 107.813 204.023 107.667 204.311L106.954 205.721L104.045 203.349C103.379 204.167 102.597 204.847 101.697 205.39C100.793 205.917 99.8612 206.248 98.9032 206.381L97.4565 203.76C97.3396 203.544 97.2689 203.316 97.2442 203.075C97.214 202.82 97.2468 202.597 97.3427 202.407C97.4427 202.209 97.6087 202.052 97.8405 201.935C98.0626 201.812 98.3224 201.692 98.62 201.577C98.912 201.446 99.2242 201.302 99.5566 201.144C99.8834 200.971 100.2 200.74 100.505 200.452L95.1842 196.106C94.6877 196.562 94.1568 196.994 93.5916 197.402C93.0305 197.802 92.4054 198.079 91.7161 198.233C91.0269 198.387 90.2587 198.368 89.4115 198.176C88.5685 197.977 87.6218 197.509 86.5713 196.774C85.7956 196.231 85.1063 195.569 84.5034 194.79C83.9005 194.01 83.4316 193.163 83.0968 192.247C82.7662 191.323 82.6019 190.36 82.604 189.356C82.5963 188.346 82.8048 187.342 83.2295 186.344L81.6636 185.063C81.397 184.854 81.2016 184.584 81.0773 184.251C80.9474 183.903 80.9553 183.585 81.1012 183.296L81.8141 181.886L84.5818 184.143C85.2284 183.39 85.9331 182.85 86.6959 182.525C87.4629 182.191 88.2093 181.977 88.9351 181.882L90.0945 183.967C90.2691 184.279 90.3778 184.55 90.4206 184.781C90.4577 184.997 90.4263 185.204 90.3262 185.402C90.2637 185.526 90.1543 185.65 89.998 185.775C89.8361 185.885 89.656 186.004 89.4578 186.134C89.2497 186.256 89.0333 186.395 88.8086 186.55C88.5782 186.69 88.3543 186.857 88.1367 187.051L93.1459 191.145Z" fill="#EE970A"/>
<path d="M337.689 103.8C333.583 119.515 317.556 135.742 301.894 140.044C286.23 144.346 276.861 135.092 280.968 119.377C285.074 103.662 301.101 87.4349 316.764 83.1334C332.427 78.8322 341.795 88.0847 337.689 103.8Z" fill="url(#paint16_linear_68338_234879)" stroke="url(#paint17_linear_68338_234879)" stroke-width="2"/>
<circle cx="25.1275" cy="25.1275" r="25.1275" transform="matrix(-0.252805 0.967517 -0.964297 0.264823 339.911 80.6255)" fill="url(#paint18_linear_68338_234879)"/>
<path fill-rule="evenodd" clip-rule="evenodd" d="M306.198 108.917C306.15 109.063 305.913 109.813 305.483 111.461C305.141 112.771 304.937 113.691 304.867 114.013C303.765 119.017 303.656 122.556 304.708 122.267C305.76 121.978 307.626 117.957 309.175 112.83L305.742 113.773C305.805 113.448 305.997 112.515 306.339 111.205C306.75 109.632 307.021 108.827 307.071 108.681L310.503 107.739C311.599 102.747 311.706 99.2163 310.656 99.5045C309.606 99.7928 307.742 103.805 306.198 108.921L306.198 108.917ZM310.86 107.636L313.932 106.793L315.774 99.7399L320.459 98.4535L315.441 117.656L310.757 118.942L312.6 111.891L309.529 112.734C307.769 118.538 305.511 123.159 304.155 123.531C302.799 123.904 302.795 119.904 304.029 114.244L294.185 116.948L295.517 111.851L305.364 109.147C307.121 103.356 309.376 98.7425 310.73 98.3704C312.085 97.9983 312.092 101.988 310.861 107.637L310.86 107.636Z" fill="white"/>
<path d="M335.502 85.09C339.727 89.2626 340.622 96.0062 338.655 103.536L345.506 110.303C347.474 102.773 346.578 96.0295 342.353 91.8569L335.502 85.09Z" fill="url(#paint19_linear_68338_234879)"/>
<path d="M345.056 110.424C342.919 118.394 337.794 126.504 331.194 133.187C324.593 139.87 316.548 145.095 308.605 147.331L302.407 141.21C310.37 138.861 318.358 133.617 324.911 126.982C331.464 120.347 336.609 112.294 338.858 104.302L345.056 110.424Z" fill="#A3E7CB" stroke="#B8F1E0" stroke-width="0.8"/>
<path d="M307.713 147.571C300.553 149.383 294.246 148.479 290.29 144.571L286.657 140.983C290.742 142.878 295.952 142.947 301.522 141.456L307.713 147.571Z" fill="url(#paint20_linear_68338_234879)" stroke="#B8F1E0" stroke-width="0.8"/>
<path d="M175.69 53.068L172.128 80.6762C194.642 83.5855 242.769 96.9526 263.944 106.807L272.632 80.7427C256.527 70.6494 200.895 57.3969 175.69 53.068Z" fill="url(#paint21_linear_68338_234879)" fill-opacity="0.14" stroke="url(#paint22_linear_68338_234879)" stroke-width="2"/>
<path d="M38.5606 98.9253C42.3407 105.742 46.3686 112.285 53.3 119.696C60.3321 127.215 70.3791 135.657 86.2305 146.169C98.8601 154.545 119.626 164.361 140.512 173.245C160.862 181.901 181.258 189.642 194.201 194.261L206.551 155.99C196.952 152.579 174.888 144.717 156.213 137.996C144.065 133.625 126.125 124.324 109.305 114.734C92.475 105.137 76.6815 95.2017 68.8138 89.5257C62.4862 84.9606 55.8667 78.8131 50.6122 73.144C47.9834 70.308 45.6843 67.5794 43.9276 65.215C43.2162 64.2574 42.5855 63.3424 42.0513 62.4956L38.5606 98.9253Z" fill="url(#paint23_linear_68338_234879)" stroke="url(#paint24_linear_68338_234879)" stroke-width="2"/>
<path d="M98.1653 44.1613C90.71 43.9942 76.5269 44.3475 67.2427 46.6686C57.2003 49.1793 48.3241 50.7195 43.1881 60.5926C43.2288 60.8805 43.348 61.2924 43.5894 61.8384C43.8885 62.5146 44.3366 63.3177 44.921 64.2223C46.0889 66.03 47.7533 68.173 49.7126 70.4141C53.4847 74.729 58.2823 79.3263 62.5794 82.514C69.0565 78.9579 73.4286 77.307 77.3007 76.7243C81.0209 76.1645 84.2185 76.6039 88.2019 77.1559L98.1653 44.1613Z" fill="url(#paint25_linear_68338_234879)" stroke="url(#paint26_linear_68338_234879)" stroke-width="2"/>
<path d="M228.765 207.871C225.375 220.151 212.632 232.703 200.302 235.908C187.973 239.112 180.725 231.755 184.115 219.475C187.505 207.195 200.248 194.643 212.578 191.438C224.907 188.234 232.154 195.591 228.765 207.871Z" fill="url(#paint27_linear_68338_234879)" stroke="url(#paint28_linear_68338_234879)" stroke-width="2.36441"/>
<circle cx="20.0362" cy="20.0362" r="20.0362" transform="matrix(-0.266089 0.963948 -0.967848 0.251534 231.163 189.321)" fill="url(#paint29_linear_68338_234879)"/>
<path fill-rule="evenodd" clip-rule="evenodd" d="M220.932 208.335C220.948 208.673 220.646 209.031 220.258 209.131L219.302 209.38C219.041 209.448 218.798 209.33 218.777 209.109C218.417 205.572 215.416 203.754 210.996 204.903C206.577 206.051 202.028 209.831 199.511 214.116C199.352 214.384 199.004 214.655 198.741 214.723L197.786 214.972C197.398 215.073 197.262 214.828 197.481 214.43C200.432 209.074 206.068 204.287 211.558 202.86C217.047 201.433 220.709 203.804 220.932 208.335ZM218.868 215.803C215.919 221.156 210.281 225.947 204.791 227.374C199.301 228.8 195.641 226.428 195.42 221.897C195.405 221.559 195.706 221.202 196.094 221.101L197.05 220.853C197.333 220.779 197.549 220.881 197.574 221.123C197.935 224.66 200.936 226.477 205.355 225.329C209.775 224.18 214.323 220.4 216.84 216.115C216.996 215.849 217.347 215.577 217.608 215.51L218.563 215.261C218.951 215.161 219.087 215.404 218.868 215.803ZM216.237 213.494C216.159 213.777 215.867 214.065 215.583 214.139L213.95 214.563C213.202 216.284 211.975 217.576 210.319 218.322C210.008 218.46 209.796 218.298 209.878 218L210.174 216.926C210.237 216.698 210.448 216.46 210.688 216.337C211.755 215.79 212.379 214.976 212.717 213.751C213.09 212.398 212.63 211.867 211.708 212.107C210.737 212.359 210.138 212.888 209.265 215.036C208.105 217.943 206.896 219.605 204.501 220.228C202.678 220.701 201.577 219.736 201.822 217.715L200.202 218.136C199.919 218.21 199.752 218.041 199.83 217.758L200.113 216.736C200.191 216.453 200.483 216.165 200.767 216.091L202.387 215.67C203.307 213.363 204.86 211.946 206.648 211.207C206.951 211.08 207.153 211.242 207.072 211.535L206.751 212.7C206.683 212.943 206.449 213.195 206.196 213.309C205.123 213.787 204.177 214.58 203.685 216.362C203.321 217.679 203.8 218.424 204.907 218.136C206.014 217.848 206.585 217.19 207.437 215.17C208.611 212.214 209.854 210.637 212.102 210.052C213.838 209.601 214.829 210.557 214.559 212.507L216.148 212.094C216.431 212.02 216.598 212.189 216.52 212.472L216.237 213.494Z" fill="white"/>
<path d="M227.599 192.832C230.921 196.206 231.561 201.592 229.91 207.574L235.299 213.045C236.95 207.063 236.31 201.676 232.987 198.303L227.599 192.832Z" fill="#298FFD"/>
<path d="M234.899 213.147C233.106 219.464 228.938 225.861 223.611 231.108C218.284 236.356 211.825 240.426 205.482 242.123L200.665 237.232C207.028 235.437 213.436 231.348 218.72 226.143C224.004 220.938 228.19 214.592 230.081 208.257L234.899 213.147Z" fill="url(#paint30_linear_68338_234879)" stroke="#8EC4FF" stroke-width="0.709323"/>
<path d="M204.687 242.323C198.99 243.667 194.012 242.871 190.924 239.736L188.205 236.975C191.419 238.453 195.504 238.543 199.878 237.44L204.687 242.323Z" fill="white" stroke="#8EC4FF" stroke-width="0.709323"/>
<circle cx="27.8795" cy="27.8795" r="26.8795" transform="matrix(0.967211 -0.253973 0.703553 0.710643 22.6423 63.6023)" fill="url(#paint31_linear_68338_234879)" stroke="url(#paint32_linear_68338_234879)" stroke-width="2"/>
<circle cx="22.6266" cy="22.6266" r="22.6266" transform="matrix(0.967211 -0.253973 0.703553 0.710643 31.4192 65.9998)" fill="url(#paint33_linear_68338_234879)"/>
<path d="M36.2858 67.3319C37.7211 62.0807 42.7072 58.3344 49.6082 56.5223L51.9359 48.0062C45.0349 49.8182 40.0488 53.5646 38.6135 58.8158L36.2858 67.3319Z" fill="white" stroke="#FDB82E" stroke-width="0.865385"/>
<path d="M96.1899 69.2535C85.357 58.3114 64.5024 52.6112 49.6098 56.5217L51.9375 48.0056C66.8301 44.0951 87.6847 49.7953 98.5177 60.7374L96.1899 69.2535Z" fill="#FFEBB6" stroke="#FDB82E" stroke-width="0.865385"/>
<path d="M102.16 85.3368C103.595 80.0856 101.208 74.3239 96.188 69.2535L98.5157 60.7373C103.536 65.8078 105.923 71.5695 104.487 76.8206L102.16 85.3368Z" fill="#FDB82E" stroke="#FDB82E" stroke-width="0.865385"/>
<path d="M66.851 79.966C66.9323 80.0985 66.9805 80.176 66.7126 80.1933L63.6582 80.3904L64.956 82.5436L70.5883 82.1789L72.4745 85.3078L75.481 85.1126L73.5948 81.9838L75.4647 81.8642L77.3467 84.9889L80.2079 84.8053L78.3274 81.675L80.4807 81.5394C81.912 81.4447 86.5407 80.2824 84.5744 77.0366C84.1012 76.1549 83.2001 75.3145 82.0176 74.652C80.8352 73.9895 79.4408 73.5439 78.0614 73.3875C78.0614 73.3875 80.2515 72.0006 78.7378 69.9678C77.2241 67.935 74.5318 67.5118 72.9976 67.2938C71.8241 67.1559 70.6695 67.103 69.5563 67.1362L67.5862 63.8649L64.8446 64.0541L66.8094 67.3056L64.6011 67.4504L62.6464 64.1803L59.8765 64.377L61.8425 67.6441L56.0171 68.0223L57.1687 69.9485L60.3627 69.7413C60.6843 69.7205 60.7504 69.8305 60.7945 69.9038L66.851 79.966ZM65.7595 69.3907L69.1566 69.1726C69.7404 69.136 72.7732 69.2842 73.7497 70.9327C74.036 71.3835 74.0783 71.8383 73.869 72.2145C73.6596 72.5908 73.2125 72.8635 72.6087 72.9834C72.3745 73.0444 72.1232 73.0873 71.8588 73.1113L68.1134 73.3519L65.7595 69.3907ZM69.4183 75.397L74.7318 75.0631C75.1188 75.0431 75.5326 75.077 75.9478 75.1627C76.363 75.2484 76.771 75.3841 77.1467 75.5616C77.5225 75.739 77.8582 75.9544 78.1333 76.1947C78.4084 76.435 78.6171 76.6951 78.7467 76.9591C79.5376 78.269 78.2109 78.9516 77.4248 79.1581C77.3114 79.1912 77.187 79.2131 77.0547 79.2234L71.9357 79.5594L69.4183 75.397Z" fill="white"/>
<path fill-rule="evenodd" clip-rule="evenodd" d="M144.694 257.962L147.337 257.708L144.694 257.962Z" fill="#AAAAAA"/>
<path fill-rule="evenodd" clip-rule="evenodd" d="M142.733 241.643C140.962 239.71 138.512 239.211 136.42 239.362L139.127 238.959C141.184 238.761 143.604 239.456 145.375 241.387L145.376 241.387C148.918 245.253 149.568 252.01 146.828 256.48L146.828 256.48C145.431 258.76 143.579 260.088 141.476 260.247C141.476 260.247 139.383 260.396 138.515 260.036C138.189 259.901 138.712 259.723 139.566 259.433C140.984 258.95 143.313 258.157 144.185 256.734L144.186 256.734C146.925 252.265 146.275 245.508 142.734 241.643L142.733 241.643Z" fill="#FEC27C"/>
<path d="M136.42 239.362L136.459 239.574L136.368 239.151L136.42 239.362ZM142.733 241.643L142.777 241.855L142.688 241.863L142.618 241.786L142.733 241.643ZM139.127 238.959L139.075 238.748L139.083 238.748L139.127 238.959ZM145.375 241.387L145.418 241.599L145.33 241.608L145.26 241.531L145.375 241.387ZM145.376 241.387L145.333 241.175L145.421 241.167L145.492 241.244L145.376 241.387ZM146.828 256.48L146.985 256.62L146.945 256.685L146.872 256.692L146.828 256.48ZM146.828 256.48L146.672 256.34L146.712 256.275L146.784 256.268L146.828 256.48ZM141.476 260.247L141.517 260.459L141.516 260.459L141.476 260.247ZM138.515 260.036L138.478 260.235L138.478 260.235L138.515 260.036ZM139.566 259.433L139.643 259.637V259.637L139.566 259.433ZM144.185 256.734L144.029 256.594L144.069 256.529L144.142 256.522L144.185 256.734ZM144.186 256.734L144.342 256.874L144.302 256.939L144.229 256.946L144.186 256.734ZM142.734 241.643L142.691 241.431L142.779 241.422L142.85 241.5L142.734 241.643ZM136.42 239.362L136.38 239.15C138.495 238.997 141.014 239.497 142.849 241.5L142.733 241.643L142.618 241.786C140.911 239.923 138.53 239.425 136.459 239.574L136.42 239.362ZM139.127 238.959L139.178 239.17L136.471 239.573L136.42 239.362L136.368 239.151L139.076 238.749L139.127 238.959ZM145.375 241.387L145.26 241.531C143.546 239.661 141.189 238.977 139.17 239.171L139.127 238.959L139.083 238.748C141.179 238.546 143.663 239.25 145.491 241.244L145.375 241.387ZM145.375 241.387L145.332 241.176L145.333 241.175L145.376 241.387L145.419 241.599L145.418 241.599L145.375 241.387ZM145.376 241.387L145.492 241.244C149.12 245.205 149.764 252.085 146.985 256.62L146.828 256.48L146.672 256.34C149.372 251.935 148.715 245.301 145.26 241.531L145.376 241.387ZM146.828 256.48L146.872 256.692L146.872 256.692L146.828 256.48L146.784 256.268L146.785 256.268L146.828 256.48ZM141.476 260.247L141.436 260.035C143.48 259.88 145.294 258.589 146.672 256.34L146.828 256.48L146.984 256.62C145.568 258.931 143.679 260.295 141.517 260.459L141.476 260.247ZM138.515 260.036L138.553 259.837C138.745 259.917 139.019 259.973 139.334 260.009C139.644 260.045 139.981 260.06 140.294 260.064C140.607 260.068 140.893 260.06 141.101 260.052C141.205 260.048 141.289 260.044 141.347 260.04C141.376 260.039 141.399 260.037 141.414 260.036C141.422 260.036 141.427 260.035 141.431 260.035C141.433 260.035 141.435 260.035 141.435 260.035C141.436 260.035 141.436 260.035 141.437 260.035C141.437 260.035 141.437 260.035 141.437 260.035C141.437 260.035 141.437 260.035 141.437 260.035C141.437 260.035 141.437 260.035 141.476 260.247C141.516 260.459 141.516 260.459 141.516 260.459C141.516 260.459 141.516 260.459 141.516 260.459C141.516 260.459 141.516 260.459 141.515 260.459C141.515 260.459 141.515 260.459 141.514 260.459C141.513 260.459 141.512 260.46 141.509 260.46C141.505 260.46 141.499 260.46 141.491 260.461C141.475 260.462 141.452 260.463 141.422 260.465C141.362 260.469 141.276 260.473 141.17 260.477C140.959 260.486 140.667 260.493 140.348 260.489C140.029 260.485 139.68 260.47 139.354 260.432C139.032 260.395 138.719 260.335 138.478 260.235L138.515 260.036ZM139.566 259.433L139.643 259.637C139.211 259.784 138.878 259.898 138.693 259.99C138.647 260.013 138.616 260.032 138.596 260.047C138.571 260.065 138.581 260.065 138.591 260.04C138.598 260.023 138.607 259.991 138.599 259.947C138.592 259.902 138.571 259.869 138.556 259.85C138.532 259.822 138.518 259.823 138.553 259.837L138.515 260.036L138.478 260.235C138.431 260.216 138.362 260.182 138.308 260.117C138.277 260.08 138.248 260.028 138.237 259.964C138.226 259.901 138.237 259.849 138.253 259.812C138.279 259.747 138.328 259.705 138.363 259.679C138.403 259.649 138.451 259.622 138.504 259.595C138.712 259.492 139.068 259.371 139.489 259.228L139.566 259.433ZM144.185 256.734L144.342 256.874C143.882 257.624 143.05 258.194 142.175 258.633C141.296 259.075 140.35 259.396 139.643 259.637L139.566 259.433L139.489 259.228C140.199 258.986 141.127 258.67 141.985 258.239C142.848 257.805 143.617 257.266 144.029 256.594L144.185 256.734ZM144.186 256.734L144.229 256.946L144.229 256.946L144.185 256.734L144.142 256.522L144.142 256.522L144.186 256.734ZM144.186 256.734L144.029 256.594C146.729 252.19 146.072 245.557 142.619 241.786L142.734 241.643L142.85 241.5C146.477 245.46 147.121 252.339 144.342 256.874L144.186 256.734ZM142.733 241.643L142.69 241.431L142.691 241.431L142.734 241.643L142.778 241.855L142.777 241.855L142.733 241.643Z" fill="#FD9E2E"/>
<path fill-rule="evenodd" clip-rule="evenodd" d="M142.734 241.645C140.963 239.713 138.513 239.214 136.421 239.365L139.128 238.962C141.186 238.764 143.606 239.458 145.377 241.391L142.734 241.645Z" fill="white" stroke="#FDB82E" stroke-width="0.398269"/>
<path fill-rule="evenodd" clip-rule="evenodd" d="M138.517 260.04C137.649 259.68 142.789 259.017 144.187 256.737L146.829 256.483C145.432 258.763 143.581 260.091 141.478 260.25C141.478 260.25 139.384 260.399 138.517 260.04Z" fill="#FDB82E" stroke="#FDB82E" stroke-width="0.398269"/>
<path fill-rule="evenodd" clip-rule="evenodd" d="M144.187 256.738C146.926 252.268 146.276 245.511 142.735 241.645L145.377 241.391C148.919 245.256 149.569 252.014 146.83 256.484L144.187 256.738Z" fill="#FFEBB6" stroke="#FDB82E" stroke-width="0.398269"/>
<path fill-rule="evenodd" clip-rule="evenodd" d="M143.241 242.869L145.884 242.615L143.241 242.869Z" fill="#AAAAAA"/>
<path d="M131.495 242.884C128.813 247.26 129.45 253.876 132.917 257.66C136.385 261.444 141.369 260.964 144.051 256.589C146.733 252.213 146.097 245.597 142.63 241.813C139.163 238.028 134.177 238.508 131.495 242.884Z" fill="url(#paint34_linear_68338_234879)"/>
<path d="M131.495 242.884C128.813 247.26 129.45 253.876 132.917 257.66C136.385 261.444 141.369 260.964 144.051 256.589C146.733 252.213 146.097 245.597 142.63 241.813C139.163 238.028 134.177 238.508 131.495 242.884Z" stroke="url(#paint35_linear_68338_234879)" stroke-width="0.398269"/>
<path d="M142.015 242.815C138.987 239.509 134.633 239.928 132.29 243.751C129.947 247.573 130.503 253.351 133.532 256.657C136.56 259.962 140.915 259.543 143.257 255.721C145.6 251.899 145.044 246.12 142.015 242.815Z" fill="url(#paint36_linear_68338_234879)"/>
<path d="M139.609 253.38C140.181 252.914 140.326 252.281 140.043 251.48C139.936 251.178 139.783 250.978 139.583 250.879C139.385 250.773 139.152 250.72 138.884 250.718L139.609 253.38ZM136.401 246.055C136.241 246.182 136.113 246.314 136.018 246.449C135.927 246.583 135.862 246.72 135.821 246.858C135.784 246.994 135.771 247.134 135.781 247.276C135.789 247.413 135.818 247.55 135.865 247.685C135.974 247.992 136.133 248.204 136.344 248.322C136.554 248.434 136.794 248.496 137.066 248.508L136.401 246.055ZM138.266 248.435C138.472 248.413 138.681 248.399 138.893 248.393C139.104 248.382 139.312 248.39 139.518 248.417C139.726 248.438 139.927 248.484 140.122 248.554C140.32 248.623 140.507 248.729 140.682 248.871C140.861 249.012 141.026 249.194 141.176 249.417C141.327 249.64 141.46 249.919 141.578 250.251C141.752 250.746 141.856 251.243 141.89 251.743C141.922 252.238 141.88 252.715 141.766 253.176C141.65 253.631 141.46 254.054 141.196 254.444C140.93 254.83 140.587 255.16 140.167 255.436L140.44 256.439C140.484 256.588 140.483 256.743 140.437 256.903C140.396 257.066 140.31 257.182 140.178 257.251L139.533 257.588L139.079 255.921C138.611 256.049 138.136 256.095 137.654 256.057C137.174 256.012 136.737 255.887 136.343 255.68L136.503 254.312C136.517 254.2 136.551 254.095 136.607 253.999C136.664 253.895 136.736 253.82 136.822 253.775C136.913 253.727 137.017 253.713 137.135 253.731C137.251 253.744 137.38 253.769 137.523 253.806C137.667 253.835 137.822 253.865 137.989 253.894C138.158 253.917 138.338 253.915 138.53 253.889L137.701 250.838C137.393 250.876 137.078 250.896 136.758 250.897C136.44 250.897 136.132 250.833 135.833 250.706C135.534 250.579 135.251 250.366 134.985 250.068C134.723 249.768 134.494 249.339 134.298 248.783C134.153 248.372 134.071 247.94 134.054 247.486C134.037 247.033 134.089 246.59 134.208 246.158C134.332 245.724 134.528 245.319 134.798 244.944C135.065 244.563 135.412 244.243 135.838 243.984L135.595 243.085C135.551 242.935 135.55 242.782 135.592 242.624C135.637 242.459 135.725 242.342 135.857 242.273L136.501 241.936L136.934 243.521C137.377 243.412 137.785 243.399 138.158 243.481C138.535 243.562 138.871 243.681 139.168 243.84L139.044 244.931C139.026 245.095 138.994 245.225 138.948 245.323C138.905 245.414 138.837 245.483 138.747 245.53C138.691 245.56 138.616 245.577 138.524 245.582C138.434 245.58 138.335 245.576 138.226 245.572C138.115 245.562 137.997 245.556 137.872 245.554C137.748 245.545 137.619 245.547 137.486 245.561L138.266 248.435Z" fill="#EE970A"/>
<path fill-rule="evenodd" clip-rule="evenodd" d="M252.673 242.473L253.662 245.968L252.673 242.473Z" fill="#AAAAAA"/>
<path fill-rule="evenodd" clip-rule="evenodd" d="M274.157 235.839C276.325 232.983 276.397 229.563 275.681 226.784L276.886 230.328C277.656 233.05 277.314 236.477 275.147 239.333L275.148 239.334C270.812 245.047 261.877 247.576 255.19 244.983L255.19 244.982C251.78 243.66 249.54 241.493 248.81 238.702C248.81 238.702 248.098 235.92 248.369 234.665C248.471 234.193 248.838 234.853 249.439 235.931C250.435 237.721 252.073 240.662 254.201 241.488L254.201 241.488C260.887 244.081 269.821 241.552 274.157 235.84L274.157 235.839Z" fill="#FEC27C"/>
<path d="M275.681 226.784L275.405 226.889L275.953 226.663L275.681 226.784ZM274.157 235.839L273.882 235.949L273.849 235.833L273.936 235.719L274.157 235.839ZM276.886 230.328L277.157 230.208L277.16 230.218L276.886 230.328ZM275.147 239.333L274.873 239.443L274.84 239.326L274.926 239.212L275.147 239.333ZM275.148 239.334L275.422 239.223L275.455 239.34L275.369 239.454L275.148 239.334ZM255.19 244.983L255.04 245.227L254.943 245.19L254.915 245.093L255.19 244.983ZM255.19 244.982L255.34 244.738L255.437 244.775L255.464 244.872L255.19 244.982ZM248.81 238.702L248.534 238.808L248.534 238.807L248.81 238.702ZM248.369 234.665L248.092 234.663L248.092 234.663L248.369 234.665ZM249.439 235.931L249.182 236.085V236.085L249.439 235.931ZM254.201 241.488L254.351 241.243L254.448 241.281L254.476 241.377L254.201 241.488ZM254.201 241.488L254.052 241.733L253.954 241.695L253.927 241.599L254.201 241.488ZM274.157 235.84L274.432 235.73L274.465 235.847L274.378 235.961L274.157 235.84ZM275.681 226.784L275.957 226.678C276.68 229.488 276.624 233 274.378 235.96L274.157 235.839L273.936 235.719C276.025 232.966 276.113 229.639 275.405 226.889L275.681 226.784ZM276.886 230.328L276.614 230.449L275.41 226.904L275.681 226.784L275.953 226.663L277.157 230.208L276.886 230.328ZM275.147 239.333L274.926 239.212C277.024 236.448 277.367 233.109 276.611 230.439L276.886 230.328L277.16 230.218C277.945 232.99 277.605 236.505 275.368 239.453L275.147 239.333ZM275.147 239.333L275.422 239.222L275.422 239.223L275.148 239.334L274.873 239.444L274.873 239.443L275.147 239.333ZM275.148 239.334L275.369 239.454C270.926 245.307 261.824 247.858 255.04 245.227L255.19 244.983L255.34 244.738C261.929 247.293 270.698 244.786 274.927 239.213L275.148 239.334ZM255.19 244.983L254.915 245.093L254.915 245.093L255.19 244.982L255.464 244.872L255.464 244.872L255.19 244.983ZM248.81 238.702L249.086 238.595C249.795 241.308 251.977 243.433 255.34 244.738L255.19 244.982L255.04 245.227C251.583 243.886 249.285 241.678 248.534 238.808L248.81 238.702ZM248.369 234.665L248.646 234.667C248.586 234.945 248.577 235.328 248.606 235.759C248.634 236.186 248.696 236.644 248.767 237.066C248.839 237.487 248.919 237.871 248.981 238.149C249.012 238.287 249.038 238.4 249.057 238.477C249.066 238.516 249.073 238.546 249.079 238.566C249.081 238.576 249.083 238.584 249.084 238.589C249.085 238.592 249.085 238.594 249.086 238.595C249.086 238.595 249.086 238.596 249.086 238.596C249.086 238.596 249.086 238.596 249.086 238.596C249.086 238.596 249.086 238.596 249.086 238.596C249.086 238.596 249.086 238.596 248.81 238.702C248.534 238.807 248.534 238.807 248.534 238.807C248.534 238.807 248.534 238.807 248.534 238.807C248.534 238.807 248.534 238.806 248.534 238.806C248.534 238.806 248.534 238.805 248.534 238.805C248.533 238.803 248.533 238.801 248.532 238.798C248.531 238.793 248.529 238.785 248.526 238.774C248.521 238.753 248.513 238.722 248.503 238.682C248.484 238.603 248.457 238.488 248.426 238.346C248.362 238.063 248.281 237.673 248.208 237.242C248.135 236.812 248.07 236.338 248.041 235.891C248.012 235.448 248.016 235.012 248.092 234.663L248.369 234.665ZM249.439 235.931L249.182 236.085C248.878 235.539 248.644 235.12 248.474 234.892C248.433 234.836 248.4 234.799 248.375 234.776C248.344 234.747 248.347 234.76 248.383 234.768C248.407 234.773 248.452 234.777 248.51 234.756C248.568 234.735 248.608 234.699 248.63 234.673C248.662 234.635 248.657 234.617 248.646 234.667L248.369 234.665L248.092 234.663C248.107 234.595 248.135 234.494 248.209 234.406C248.252 234.355 248.315 234.303 248.398 234.272C248.481 234.243 248.554 234.245 248.607 234.256C248.701 234.276 248.77 234.332 248.813 234.372C248.862 234.418 248.911 234.477 248.96 234.542C249.149 234.796 249.399 235.245 249.696 235.778L249.439 235.931ZM254.201 241.488L254.052 241.732C252.929 241.297 251.959 240.316 251.154 239.247C250.344 238.172 249.679 236.978 249.182 236.085L249.439 235.931L249.696 235.778C250.195 236.674 250.847 237.845 251.638 238.895C252.433 239.95 253.346 240.853 254.351 241.243L254.201 241.488ZM254.201 241.488L253.927 241.599L253.927 241.598L254.201 241.488L254.476 241.377L254.476 241.378L254.201 241.488ZM254.201 241.488L254.351 241.243C260.94 243.798 269.707 241.291 273.936 235.72L274.157 235.84L274.378 235.961C269.936 241.813 260.835 244.363 254.052 241.733L254.201 241.488ZM274.157 235.839L274.432 235.729L274.432 235.73L274.157 235.84L273.883 235.95L273.882 235.949L274.157 235.839Z" fill="#FD9E2E"/>
<path fill-rule="evenodd" clip-rule="evenodd" d="M274.154 235.841C276.322 232.985 276.394 229.565 275.678 226.785L276.883 230.33C277.653 233.052 277.311 236.48 275.143 239.336L274.154 235.841Z" fill="white" stroke="#FDB82E" stroke-width="0.544819"/>
<path fill-rule="evenodd" clip-rule="evenodd" d="M248.365 234.668C248.636 233.412 250.787 240.168 254.198 241.49L255.187 244.985C251.777 243.663 249.536 241.496 248.806 238.704C248.806 238.704 248.094 235.923 248.365 234.668Z" fill="#FDB82E" stroke="#FDB82E" stroke-width="0.544819"/>
<path fill-rule="evenodd" clip-rule="evenodd" d="M254.197 241.491C260.883 244.084 269.819 241.555 274.154 235.842L275.143 239.337C270.808 245.049 261.873 247.579 255.186 244.986L254.197 241.491Z" fill="#FFEBB6" stroke="#FDB82E" stroke-width="0.544819"/>
<path fill-rule="evenodd" clip-rule="evenodd" d="M272.631 236.823L273.62 240.318L272.631 236.823Z" fill="#AAAAAA"/>
<path d="M269.736 221.018C263.19 218.479 254.442 220.955 250.197 226.548C245.952 232.141 247.818 238.733 254.365 241.272C260.911 243.81 269.659 241.334 273.904 235.741C278.148 230.148 276.282 223.556 269.736 221.018Z" fill="url(#paint37_linear_68338_234879)"/>
<path d="M269.736 221.018C263.19 218.479 254.442 220.955 250.197 226.548C245.952 232.141 247.818 238.733 254.365 241.272C260.911 243.81 269.659 241.334 273.904 235.741C278.148 230.148 276.282 223.556 269.736 221.018Z" stroke="url(#paint38_linear_68338_234879)" stroke-width="0.544819"/>
<path d="M272.404 235.16C276.111 230.275 274.481 224.517 268.764 222.3C263.046 220.082 255.405 222.245 251.698 227.13C247.99 232.015 249.62 237.773 255.338 239.99C261.056 242.208 268.696 240.045 272.404 235.16Z" fill="url(#paint39_linear_68338_234879)"/>
<path d="M258.101 234.217C258.868 234.873 259.756 234.913 260.765 234.337C261.145 234.119 261.377 233.864 261.461 233.571C261.555 233.278 261.57 232.951 261.506 232.59L258.101 234.217ZM267.175 228.108C266.964 227.923 266.756 227.783 266.55 227.689C266.347 227.599 266.148 227.544 265.952 227.523C265.76 227.507 265.569 227.523 265.379 227.572C265.197 227.617 265.02 227.688 264.85 227.785C264.463 228.006 264.216 228.273 264.11 228.586C264.01 228.895 263.985 229.234 264.036 229.603L267.175 228.108ZM264.428 231.199C264.508 231.472 264.578 231.75 264.638 232.034C264.705 232.314 264.745 232.596 264.758 232.881C264.781 233.166 264.769 233.448 264.722 233.727C264.678 234.011 264.581 234.288 264.432 234.559C264.287 234.834 264.082 235.1 263.819 235.357C263.555 235.614 263.213 235.862 262.794 236.102C262.171 236.457 261.528 236.719 260.863 236.887C260.205 237.051 259.552 237.112 258.904 237.071C258.263 237.026 257.648 236.874 257.057 236.614C256.473 236.351 255.945 235.97 255.471 235.471L254.188 236.085C253.997 236.181 253.789 236.217 253.562 236.194C253.333 236.179 253.156 236.091 253.031 235.931L252.419 235.146L254.551 234.127C254.264 233.528 254.087 232.9 254.02 232.242C253.962 231.585 254.024 230.966 254.206 230.385L256.087 230.265C256.241 230.257 256.39 230.278 256.534 230.328C256.687 230.38 256.805 230.458 256.888 230.564C256.973 230.674 257.018 230.811 257.023 230.974C257.033 231.134 257.032 231.314 257.017 231.514C257.013 231.715 257.012 231.932 257.012 232.164C257.023 232.396 257.07 232.638 257.152 232.89L261.055 231.027C260.929 230.622 260.826 230.204 260.745 229.772C260.668 229.345 260.678 228.915 260.776 228.481C260.874 228.047 261.091 227.615 261.427 227.184C261.767 226.758 262.288 226.344 262.989 225.944C263.506 225.648 264.068 225.433 264.674 225.299C265.28 225.165 265.888 225.126 266.499 225.181C267.114 225.241 267.707 225.406 268.278 225.677C268.855 225.944 269.371 226.332 269.825 226.842L270.975 226.295C271.165 226.199 271.372 226.16 271.595 226.179C271.828 226.199 272.007 226.289 272.132 226.449L272.743 227.234L270.715 228.204C270.97 228.774 271.088 229.32 271.068 229.842C271.052 230.368 270.974 230.851 270.833 231.29L269.334 231.39C269.11 231.405 268.926 231.394 268.783 231.357C268.65 231.32 268.541 231.246 268.455 231.136C268.401 231.067 268.36 230.972 268.331 230.849C268.312 230.727 268.292 230.593 268.272 230.445C268.258 230.294 268.237 230.133 268.209 229.964C268.191 229.795 268.156 229.623 268.104 229.447L264.428 231.199Z" fill="#EE970A"/>
<path fill-rule="evenodd" clip-rule="evenodd" d="M255.006 184.144L255.882 189.527L255.006 184.144Z" fill="#AAAAAA"/>
<path fill-rule="evenodd" clip-rule="evenodd" d="M288.19 177.936C291.913 174.047 292.607 168.959 292.017 164.69L293.205 170.184C293.887 174.375 292.79 179.428 289.068 183.316L289.068 183.318C281.621 191.096 267.859 193.335 258.33 188.32L258.33 188.32C253.47 185.762 250.5 182.146 249.891 177.857C249.891 177.857 249.305 173.585 249.925 171.76C250.158 171.073 250.593 172.121 251.304 173.832C252.483 176.673 254.422 181.341 257.454 182.937L257.454 182.938C266.983 187.952 280.742 185.713 288.19 177.938L288.19 177.936Z" fill="#FEC27C"/>
<path d="M292.017 164.69L291.587 164.8L292.442 164.557L292.017 164.69ZM288.19 177.936L287.761 178.053L287.732 177.873L287.881 177.718L288.19 177.936ZM293.205 170.184L293.631 170.051L293.632 170.059L293.634 170.067L293.205 170.184ZM289.068 183.316L288.639 183.434L288.61 183.254L288.759 183.099L289.068 183.316ZM289.068 183.318L289.496 183.201L289.526 183.38L289.377 183.536L289.068 183.318ZM258.33 188.32L258.065 188.659L257.925 188.586L257.901 188.437L258.33 188.32ZM258.33 188.32L258.595 187.98L258.734 188.054L258.758 188.203L258.33 188.32ZM249.891 177.857L249.461 177.968L249.461 177.966L249.891 177.857ZM249.925 171.76L249.512 171.71L249.512 171.71L249.925 171.76ZM251.304 173.832L251.713 173.648V173.648L251.304 173.832ZM257.454 182.937L257.72 182.598L257.859 182.671L257.883 182.82L257.454 182.937ZM257.454 182.938L257.189 183.277L257.05 183.204L257.026 183.055L257.454 182.938ZM288.19 177.938L288.618 177.82L288.648 178L288.499 178.155L288.19 177.938ZM292.017 164.69L292.446 164.58C293.043 168.895 292.357 174.124 288.499 178.153L288.19 177.936L287.881 177.718C291.47 173.97 292.171 169.023 291.587 164.8L292.017 164.69ZM293.205 170.184L292.78 170.317L291.591 164.823L292.017 164.69L292.442 164.557L293.631 170.051L293.205 170.184ZM289.068 183.316L288.759 183.099C292.361 179.335 293.446 174.414 292.777 170.301L293.205 170.184L293.634 170.067C294.328 174.335 293.218 179.52 289.377 183.534L289.068 183.316ZM289.068 183.316L289.496 183.199L289.496 183.201L289.068 183.318L288.639 183.436L288.639 183.434L289.068 183.316ZM289.068 183.318L289.377 183.536C281.747 191.504 267.732 193.747 258.065 188.659L258.33 188.32L258.595 187.981C267.986 192.923 281.495 190.687 288.759 183.101L289.068 183.318ZM258.33 188.32L257.901 188.437L257.901 188.436L258.33 188.32L258.758 188.203L258.758 188.203L258.33 188.32ZM249.891 177.857L250.32 177.746C250.912 181.913 253.802 185.458 258.595 187.98L258.33 188.32L258.064 188.659C253.138 186.066 250.088 182.378 249.461 177.968L249.891 177.857ZM249.925 171.76L250.338 171.81C250.2 172.215 250.122 172.785 250.091 173.433C250.059 174.075 250.074 174.768 250.108 175.41C250.142 176.051 250.195 176.636 250.24 177.061C250.262 177.273 250.283 177.446 250.297 177.564C250.305 177.624 250.31 177.67 250.314 177.701C250.317 177.716 250.318 177.728 250.319 177.736C250.32 177.74 250.32 177.743 250.32 177.745C250.32 177.745 250.321 177.746 250.321 177.747C250.321 177.747 250.321 177.747 250.321 177.747C250.321 177.747 250.321 177.747 250.321 177.747C250.321 177.747 250.321 177.747 249.891 177.857C249.461 177.966 249.461 177.966 249.461 177.966C249.461 177.966 249.461 177.966 249.461 177.966C249.461 177.966 249.461 177.966 249.461 177.965C249.461 177.965 249.461 177.964 249.461 177.963C249.46 177.961 249.46 177.957 249.459 177.953C249.458 177.945 249.457 177.932 249.455 177.916C249.45 177.883 249.444 177.836 249.437 177.775C249.422 177.653 249.401 177.477 249.378 177.261C249.333 176.828 249.278 176.231 249.243 175.576C249.209 174.922 249.193 174.205 249.226 173.532C249.259 172.866 249.34 172.217 249.512 171.71L249.925 171.76ZM251.304 173.832L250.894 174.017C250.535 173.151 250.258 172.485 250.044 172.117C249.991 172.026 249.948 171.965 249.915 171.926C249.874 171.878 249.876 171.898 249.928 171.916C249.963 171.928 250.031 171.941 250.12 171.92C250.211 171.898 250.277 171.852 250.313 171.817C250.367 171.766 250.363 171.738 250.338 171.81L249.925 171.76L249.512 171.71C249.546 171.61 249.606 171.464 249.731 171.346C249.804 171.278 249.906 171.21 250.037 171.179C250.165 171.149 250.273 171.165 250.35 171.191C250.487 171.237 250.58 171.332 250.638 171.4C250.704 171.477 250.767 171.573 250.828 171.677C251.067 172.089 251.362 172.802 251.713 173.648L251.304 173.832ZM257.454 182.937L257.189 183.276C255.589 182.434 254.311 180.805 253.293 179.072C252.27 177.331 251.483 175.435 250.894 174.017L251.304 173.832L251.713 173.648C252.304 175.07 253.076 176.929 254.075 178.631C255.08 180.341 256.287 181.844 257.72 182.598L257.454 182.937ZM257.454 182.938L257.026 183.055L257.026 183.055L257.454 182.937L257.883 182.82L257.883 182.82L257.454 182.938ZM257.454 182.938L257.72 182.599C267.109 187.54 280.617 185.304 287.881 177.72L288.19 177.938L288.499 178.155C280.868 186.122 266.856 188.364 257.189 183.277L257.454 182.938ZM288.19 177.936L288.618 177.818L288.618 177.82L288.19 177.938L287.761 178.055L287.761 178.053L288.19 177.936Z" fill="#FD9E2E"/>
<path fill-rule="evenodd" clip-rule="evenodd" d="M288.185 177.938C291.909 174.049 292.603 168.961 292.012 164.692L293.201 170.186C293.883 174.378 292.785 179.432 289.061 183.32L288.185 177.938Z" fill="#D683F4" stroke="#D683F4" stroke-width="0.818012"/>
<path fill-rule="evenodd" clip-rule="evenodd" d="M249.919 171.763C250.539 169.937 252.589 180.383 257.448 182.94L258.324 188.323C253.465 185.765 250.494 182.149 249.885 177.86C249.885 177.86 249.299 173.589 249.919 171.763Z" fill="white" stroke="#EF9AFF" stroke-width="0.818012"/>
<path fill-rule="evenodd" clip-rule="evenodd" d="M257.447 182.941C266.976 187.956 280.738 185.716 288.185 177.939L289.061 183.321C281.614 191.099 267.852 193.338 258.323 188.323L257.447 182.941Z" fill="#FBDFFF" stroke="#EF9AFF" stroke-width="0.818012"/>
<path fill-rule="evenodd" clip-rule="evenodd" d="M285.745 179.141L286.62 184.524L285.745 179.141Z" fill="#AAAAAA"/>
<path d="M284.138 155.069C274.809 150.159 261.336 152.352 254.045 159.966C246.754 167.58 248.406 177.733 257.735 182.642C267.064 187.552 280.537 185.36 287.828 177.745C295.119 170.131 293.466 159.979 284.138 155.069Z" fill="url(#paint40_linear_68338_234879)"/>
<path d="M284.138 155.069C274.809 150.159 261.336 152.352 254.045 159.966C246.754 167.58 248.406 177.733 257.735 182.642C267.064 187.552 280.537 185.36 287.828 177.745C295.119 170.131 293.466 159.979 284.138 155.069Z" stroke="url(#paint41_linear_68338_234879)" stroke-width="0.818012"/>
<path d="M285.691 176.621C292.059 169.97 290.616 161.103 282.467 156.814C274.319 152.526 262.551 154.441 256.183 161.092C249.815 167.742 251.258 176.61 259.406 180.898C267.554 185.187 279.322 183.272 285.691 176.621Z" fill="url(#paint42_linear_68338_234879)"/>
<path d="M267.644 165.769C268.206 165.64 268.75 165.66 269.093 165.824L271.323 167.156L272.884 168.009L275.053 169.338C275.336 169.5 275.88 169.521 276.502 169.393L280.007 168.544C280.569 168.414 281.151 168.134 281.465 167.805L283.211 165.982C283.49 165.69 283.528 165.389 283.219 165.189L281.496 164.179C281.213 164.017 280.669 163.996 280.046 164.124L276.542 164.973C275.98 165.103 275.398 165.383 275.084 165.712L273.932 166.915L272.405 166.026L273.592 164.786C273.872 164.494 274.393 164.211 275.05 164.047L281.522 162.517C282.085 162.387 282.628 162.408 282.972 162.572L286.247 164.51C286.591 164.674 286.553 164.975 286.274 165.267L282.991 168.695C282.712 168.986 282.191 169.269 281.534 169.433L275.001 170.961C274.439 171.091 273.895 171.071 273.552 170.906L271.348 169.613L269.821 168.724L267.617 167.431C267.334 167.269 266.791 167.249 266.168 167.376L262.698 168.189C262.136 168.319 261.555 168.6 261.24 168.928L259.495 170.751C259.215 171.043 259.177 171.344 259.486 171.544L261.149 172.552C261.432 172.714 261.976 172.735 262.599 172.607L266.068 171.794C266.631 171.664 267.212 171.384 267.526 171.056L268.643 169.889L270.17 170.778L269.018 171.982C268.738 172.273 268.217 172.556 267.56 172.72L261.027 174.248C260.465 174.378 259.921 174.357 259.578 174.193L256.328 172.294C256.045 172.132 256.022 171.829 256.336 171.5L259.654 168.036C259.933 167.744 260.454 167.462 261.111 167.298L267.644 165.769Z" fill="#B75DD8"/>
<defs>
<linearGradient id="paint0_linear_68338_234879" x1="298.254" y1="261.179" x2="301.44" y2="243.209" gradientUnits="userSpaceOnUse">
<stop stop-color="#FFBA3B"/>
<stop offset="1" stop-color="#FFD489"/>
</linearGradient>
<linearGradient id="paint1_linear_68338_234879" x1="298.254" y1="261.179" x2="301.44" y2="243.209" gradientUnits="userSpaceOnUse">
<stop stop-color="white"/>
<stop offset="1" stop-color="#FDB82E"/>
</linearGradient>
<linearGradient id="paint2_linear_68338_234879" x1="306.011" y1="244.671" x2="303.313" y2="260.802" gradientUnits="userSpaceOnUse">
<stop stop-color="#FFF2D1"/>
<stop offset="1" stop-color="#FFE8A9"/>
</linearGradient>
<linearGradient id="paint3_linear_68338_234879" x1="211" y1="170.199" x2="176.763" y2="314.336" gradientUnits="userSpaceOnUse">
<stop stop-color="#4C65FF" stop-opacity="0"/>
<stop offset="1" stop-color="#4C65FF" stop-opacity="0.2"/>
</linearGradient>
<linearGradient id="paint4_linear_68338_234879" x1="197.5" y1="171.699" x2="171.576" y2="312.787" gradientUnits="userSpaceOnUse">
<stop stop-color="#4C65FF" stop-opacity="0"/>
<stop offset="1" stop-color="#4C65FF" stop-opacity="0.1"/>
</linearGradient>
<linearGradient id="paint5_linear_68338_234879" x1="181.122" y1="170.619" x2="95.417" y2="147.908" gradientUnits="userSpaceOnUse">
<stop stop-color="#DCDFF8"/>
<stop offset="1" stop-color="#C6C8DB"/>
</linearGradient>
<linearGradient id="paint6_linear_68338_234879" x1="125.498" y1="136.137" x2="215.243" y2="114.283" gradientUnits="userSpaceOnUse">
<stop stop-color="white"/>
<stop offset="1" stop-color="#DBDFF8"/>
</linearGradient>
<linearGradient id="paint7_linear_68338_234879" x1="41.5251" y1="-3.49419" x2="40.6722" y2="80.7439" gradientUnits="userSpaceOnUse">
<stop stop-color="#F7F7F7"/>
<stop offset="1" stop-color="#D9DDF8"/>
</linearGradient>
<linearGradient id="paint8_linear_68338_234879" x1="116.615" y1="164.172" x2="200.995" y2="159.112" gradientUnits="userSpaceOnUse">
<stop stop-color="#F7F7F7"/>
<stop offset="1" stop-color="#ECEEFF"/>
</linearGradient>
<linearGradient id="paint9_linear_68338_234879" x1="252.049" y1="201.232" x2="365.473" y2="207.084" gradientUnits="userSpaceOnUse">
<stop stop-color="#8495FF" stop-opacity="0"/>
<stop offset="1" stop-color="#4C65FF" stop-opacity="0.12"/>
</linearGradient>
<linearGradient id="paint10_linear_68338_234879" x1="335.065" y1="200.665" x2="338.752" y2="215.418" gradientUnits="userSpaceOnUse">
<stop stop-color="white" stop-opacity="0"/>
<stop offset="1" stop-color="#A4B0FF"/>
</linearGradient>
<linearGradient id="paint11_linear_68338_234879" x1="317" y1="136.199" x2="394.579" y2="216.471" gradientUnits="userSpaceOnUse">
<stop stop-color="#4C65FF" stop-opacity="0"/>
<stop offset="1" stop-color="#4C65FF" stop-opacity="0.39"/>
</linearGradient>
<linearGradient id="paint12_linear_68338_234879" x1="351.019" y1="148.022" x2="367.528" y2="138.659" gradientUnits="userSpaceOnUse">
<stop stop-color="white" stop-opacity="0"/>
<stop offset="1" stop-color="#8394FF"/>
</linearGradient>
<linearGradient id="paint13_linear_68338_234879" x1="115.564" y1="199.359" x2="76.0091" y2="202.166" gradientUnits="userSpaceOnUse">
<stop stop-color="#FFBA3B"/>
<stop offset="1" stop-color="#FFD489"/>
</linearGradient>
<linearGradient id="paint14_linear_68338_234879" x1="115.564" y1="199.359" x2="76.0091" y2="202.166" gradientUnits="userSpaceOnUse">
<stop stop-color="white"/>
<stop offset="1" stop-color="#FDB82E"/>
</linearGradient>
<linearGradient id="paint15_linear_68338_234879" x1="76.6689" y1="191.757" x2="112.091" y2="188.898" gradientUnits="userSpaceOnUse">
<stop stop-color="#FFF2D1"/>
<stop offset="1" stop-color="#FFE8A9"/>
</linearGradient>
<linearGradient id="paint16_linear_68338_234879" x1="290.171" y1="137.91" x2="343.4" y2="115.477" gradientUnits="userSpaceOnUse">
<stop stop-color="#4CC79A"/>
<stop offset="1" stop-color="#76CFBD"/>
</linearGradient>
<linearGradient id="paint17_linear_68338_234879" x1="307.459" y1="139.983" x2="351.558" y2="116.93" gradientUnits="userSpaceOnUse">
<stop stop-color="white"/>
<stop offset="1" stop-color="#00AF87"/>
</linearGradient>
<linearGradient id="paint18_linear_68338_234879" x1="6.65938" y1="6.6051" x2="34.6521" y2="55.9023" gradientUnits="userSpaceOnUse">
<stop stop-color="#39C9AC"/>
<stop offset="1" stop-color="#C0F5D9"/>
</linearGradient>
<linearGradient id="paint19_linear_68338_234879" x1="341.716" y1="87.0885" x2="332.008" y2="91.6991" gradientUnits="userSpaceOnUse">
<stop stop-color="#1AA88B"/>
<stop offset="1" stop-color="#70DFA5"/>
</linearGradient>
<linearGradient id="paint20_linear_68338_234879" x1="285.282" y1="145.829" x2="306.367" y2="140.039" gradientUnits="userSpaceOnUse">
<stop stop-color="#E3F6F0"/>
<stop offset="1" stop-color="white"/>
</linearGradient>
<linearGradient id="paint21_linear_68338_234879" x1="218.398" y1="47.886" x2="226.104" y2="111.398" gradientUnits="userSpaceOnUse">
<stop stop-color="#58C669"/>
<stop offset="1" stop-color="#58C669" stop-opacity="0"/>
</linearGradient>
<linearGradient id="paint22_linear_68338_234879" x1="233.5" y1="69.6989" x2="234.997" y2="63.8164" gradientUnits="userSpaceOnUse">
<stop stop-color="white" stop-opacity="0"/>
<stop offset="1" stop-color="#5AE0B2"/>
</linearGradient>
<linearGradient id="paint23_linear_68338_234879" x1="153" y1="183.699" x2="43.8184" y2="97.8689" gradientUnits="userSpaceOnUse">
<stop stop-color="#8495FF" stop-opacity="0"/>
<stop offset="0.440204" stop-color="#4C65FF" stop-opacity="0.12"/>
<stop offset="1" stop-color="#4C65FF" stop-opacity="0.08"/>
</linearGradient>
<linearGradient id="paint24_linear_68338_234879" x1="88.4813" y1="145.416" x2="56.5837" y2="160.199" gradientUnits="userSpaceOnUse">
<stop stop-color="white" stop-opacity="0"/>
<stop offset="1" stop-color="#A4B0FF"/>
</linearGradient>
<linearGradient id="paint25_linear_68338_234879" x1="86.0002" y1="62.6988" x2="10.8445" y2="83.436" gradientUnits="userSpaceOnUse">
<stop stop-color="#4C65FF" stop-opacity="0"/>
<stop offset="1" stop-color="#4C65FF" stop-opacity="0.39"/>
</linearGradient>
<linearGradient id="paint26_linear_68338_234879" x1="73.303" y1="55.8231" x2="67.4595" y2="43.5959" gradientUnits="userSpaceOnUse">
<stop stop-color="white" stop-opacity="0"/>
<stop offset="1" stop-color="#A4B0FF"/>
</linearGradient>
<linearGradient id="paint27_linear_68338_234879" x1="240.58" y1="221.58" x2="193.771" y2="200.693" gradientUnits="userSpaceOnUse">
<stop stop-color="#4AA1FF"/>
<stop offset="1" stop-color="#CCE5FF"/>
</linearGradient>
<linearGradient id="paint28_linear_68338_234879" x1="182.971" y1="219.772" x2="223.457" y2="230.948" gradientUnits="userSpaceOnUse">
<stop stop-color="white"/>
<stop offset="1" stop-color="#A3CFFF"/>
</linearGradient>
<linearGradient id="paint29_linear_68338_234879" x1="34.0093" y1="36.3769" x2="15.5431" y2="8.27451" gradientUnits="userSpaceOnUse">
<stop stop-color="#73B6FF"/>
<stop offset="1" stop-color="#288EFC"/>
</linearGradient>
<linearGradient id="paint30_linear_68338_234879" x1="237.101" y1="219.99" x2="198.181" y2="230.105" gradientUnits="userSpaceOnUse">
<stop stop-color="#BFDEFF"/>
<stop offset="1" stop-color="#B3D8FF"/>
</linearGradient>
<linearGradient id="paint31_linear_68338_234879" x1="27.8795" y1="55.7591" x2="27.8795" y2="0" gradientUnits="userSpaceOnUse">
<stop stop-color="#FFBA3B"/>
<stop offset="1" stop-color="#FFD489"/>
</linearGradient>
<linearGradient id="paint32_linear_68338_234879" x1="27.8795" y1="55.7591" x2="27.8795" y2="0" gradientUnits="userSpaceOnUse">
<stop stop-color="white"/>
<stop offset="1" stop-color="#FFDD99"/>
</linearGradient>
<linearGradient id="paint33_linear_68338_234879" x1="38.2267" y1="4.81048" x2="9.50705" y2="-9.99422" gradientUnits="userSpaceOnUse">
<stop stop-color="#FFC975"/>
<stop offset="1" stop-color="#FF9F0A"/>
</linearGradient>
<linearGradient id="paint34_linear_68338_234879" x1="144.186" y1="256.735" x2="128.626" y2="247.199" gradientUnits="userSpaceOnUse">
<stop stop-color="#FFBA3B"/>
<stop offset="1" stop-color="#FFD489"/>
</linearGradient>
<linearGradient id="paint35_linear_68338_234879" x1="144.186" y1="256.735" x2="128.626" y2="247.199" gradientUnits="userSpaceOnUse">
<stop stop-color="white"/>
<stop offset="1" stop-color="#FDB82E"/>
</linearGradient>
<linearGradient id="paint36_linear_68338_234879" x1="131.659" y1="243.478" x2="145.686" y2="251.889" gradientUnits="userSpaceOnUse">
<stop stop-color="#FFF2D1"/>
<stop offset="1" stop-color="#FFE8A9"/>
</linearGradient>
<linearGradient id="paint37_linear_68338_234879" x1="254.2" y1="241.489" x2="263.226" y2="218.212" gradientUnits="userSpaceOnUse">
<stop stop-color="#FFBA3B"/>
<stop offset="1" stop-color="#FFD489"/>
</linearGradient>
<linearGradient id="paint38_linear_68338_234879" x1="254.2" y1="241.489" x2="263.226" y2="218.212" gradientUnits="userSpaceOnUse">
<stop stop-color="white"/>
<stop offset="1" stop-color="#FDB82E"/>
</linearGradient>
<linearGradient id="paint39_linear_68338_234879" x1="268.976" y1="221.384" x2="261.089" y2="242.321" gradientUnits="userSpaceOnUse">
<stop stop-color="#FFF2D1"/>
<stop offset="1" stop-color="#FFE8A9"/>
</linearGradient>
<linearGradient id="paint40_linear_68338_234879" x1="257.452" y1="182.938" x2="274.909" y2="149.768" gradientUnits="userSpaceOnUse">
<stop stop-color="#F2CAFE"/>
<stop offset="1" stop-color="white"/>
</linearGradient>
<linearGradient id="paint41_linear_68338_234879" x1="257.452" y1="182.938" x2="274.909" y2="149.768" gradientUnits="userSpaceOnUse">
<stop stop-color="white"/>
<stop offset="1" stop-color="#FCEBFF"/>
</linearGradient>
<linearGradient id="paint42_linear_68338_234879" x1="282.941" y1="155.485" x2="267.585" y2="185.361" gradientUnits="userSpaceOnUse">
<stop stop-color="#F3CCFE"/>
<stop offset="1" stop-color="#E6ADFE"/>
</linearGradient>
</defs>
</svg>
