<svg xmlns="http://www.w3.org/2000/svg" width="104" height="15" viewBox="0 0 104 15" fill="none">
  <path d="M100.804 8.04783C100.327 8.04783 100.136 7.75219 100.239 7.27463L101.612 1.39221C101.619 1.36189 101.627 1.33156 101.633 1.30882C101.759 0.800934 102.192 0.474976 102.7 0.474976C103.2 0.474976 103.47 0.800934 103.344 1.30882C103.338 1.33156 103.33 1.36189 103.323 1.39221L101.762 7.27463C101.628 7.75219 101.288 8.04783 100.804 8.04783ZM99.9006 11.6713C99.3303 11.6713 98.983 11.2468 99.121 10.6934C99.2589 10.14 99.8179 9.71553 100.388 9.71553C100.974 9.71553 101.314 10.14 101.176 10.6934C101.038 11.2468 100.487 11.6713 99.9006 11.6713Z" fill="currentColor"/>
  <path d="M89.1399 14.5609C87.6515 14.5458 86.6117 13.9848 86.2647 13.1206C86.2007 12.9387 86.1954 12.7719 86.2426 12.5824C86.3371 12.2034 86.6942 11.9305 87.1239 11.9305C87.3817 11.9305 87.525 12.0139 87.6967 12.2337C88.1985 12.916 88.7029 13.2116 89.5038 13.2268C90.8751 13.2419 91.9 12.4839 92.1778 11.3696L92.4935 10.1036H92.4544C91.778 10.9678 90.6675 11.5363 89.4956 11.5363C87.4253 11.5363 86.4728 9.96718 87.087 7.50354C87.7089 5.00958 89.4244 3.45559 91.5494 3.45559C92.7135 3.45559 93.478 4.02412 93.7531 4.9262H93.7843L93.945 4.28186C94.0773 3.75123 94.522 3.44043 95.0063 3.44043C95.4907 3.44043 95.7726 3.75123 95.6403 4.28186L93.8807 11.3392C93.3893 13.3102 91.5796 14.5837 89.1399 14.5609ZM90.2814 10.2022C91.6017 10.2022 92.7375 9.15608 93.1458 7.5187C93.554 5.88133 92.9474 4.80491 91.6271 4.80491C90.3302 4.80491 89.2256 5.85101 88.8117 7.51112C88.3959 9.17882 88.9845 10.2022 90.2814 10.2022Z" fill="currentColor"/>
  <path d="M78.5322 11.7031C78.0322 11.7031 77.7697 11.3771 77.9039 10.8389L79.5425 4.2667C79.6673 3.76639 80.061 3.44043 80.5532 3.44043C81.0376 3.44043 81.2923 3.76639 81.1656 4.27428L81.0088 4.90345H81.0478C81.7199 3.9938 82.7154 3.44801 83.981 3.44801C85.7935 3.44801 86.5529 4.56991 86.0974 6.3968L84.9898 10.8389C84.8556 11.3771 84.4228 11.7031 83.9228 11.7031C83.4306 11.7031 83.1603 11.3771 83.2945 10.8389L84.3227 6.71518C84.6213 5.51747 84.2076 4.85797 83.0357 4.85797C81.8482 4.85797 80.8785 5.67666 80.5704 6.91227L79.5914 10.8389C79.4572 11.3771 79.0244 11.7031 78.5322 11.7031Z" fill="currentColor"/>
  <path d="M77.4428 2.3792C76.9038 2.3792 76.5721 1.9547 76.7006 1.43923C76.831 0.916179 77.3706 0.506836 77.9097 0.506836C78.4565 0.506836 78.792 0.916179 78.6616 1.43923C78.5331 1.9547 77.9897 2.3792 77.4428 2.3792ZM75.1181 11.7031C74.6103 11.7031 74.3594 11.362 74.4898 10.839L76.1171 4.31221C76.2494 3.78158 76.6704 3.44046 77.1782 3.44046C77.686 3.44046 77.9369 3.78158 77.8046 4.31221L76.1773 10.839C76.0469 11.362 75.6259 11.7031 75.1181 11.7031Z" fill="currentColor"/>
  <path d="M61.8603 11.7031C61.3525 11.7031 61.1016 11.362 61.232 10.8389L62.8688 4.27428C62.9973 3.75881 63.4048 3.44043 63.8813 3.44043C64.3501 3.44043 64.6085 3.75123 64.4781 4.27428L64.3156 4.9262H64.3547C64.943 4.03928 65.9498 3.44801 67.0591 3.44801C68.1998 3.44801 68.8861 4.01654 68.9667 5.00958H69.0057C69.6695 4.03928 70.7857 3.44801 71.9576 3.44801C73.5826 3.44801 74.3843 4.49411 73.9892 6.07842L72.8023 10.8389C72.6719 11.362 72.2431 11.7031 71.7353 11.7031C71.2275 11.7031 70.9766 11.362 71.107 10.8389L72.1957 6.4726C72.4527 5.44166 72.0298 4.85039 71.0298 4.85039C70.0298 4.85039 69.1549 5.57053 68.9036 6.57873L67.8414 10.8389C67.711 11.362 67.3056 11.7031 66.7978 11.7031C66.29 11.7031 66.0547 11.362 66.1851 10.8389L67.304 6.35132C67.5327 5.43408 67.0767 4.85039 66.1236 4.85039C65.1236 4.85039 64.2236 5.60843 63.9685 6.63179L62.9195 10.8389C62.7891 11.362 62.3681 11.7031 61.8603 11.7031Z" fill="currentColor"/>
  <path d="M55.8115 11.7107C53.46 11.7107 52.3043 10.1415 52.945 7.57177C53.5839 5.00958 55.5298 3.44043 57.8735 3.44043C60.2173 3.44043 61.3807 5.00958 60.7419 7.57177C60.1012 10.1415 58.1631 11.7107 55.8115 11.7107ZM56.148 10.3614C57.4761 10.3614 58.5809 9.34559 59.0232 7.57177C59.4635 5.80553 58.8574 4.78975 57.5371 4.78975C56.2168 4.78975 55.1042 5.80553 54.6638 7.57177C54.2215 9.34559 54.8276 10.3614 56.148 10.3614Z" fill="currentColor"/>
  <path d="M47.5303 11.7107C45.1787 11.7107 44.0425 10.1264 44.6756 7.58693C45.305 5.06264 47.2329 3.44043 49.5767 3.44043C51.1626 3.44043 52.3179 4.25912 52.3994 5.37344C52.4141 5.50231 52.4114 5.63876 52.383 5.75246C52.2791 6.16939 51.9101 6.42712 51.4961 6.42712C51.1367 6.42712 50.9676 6.29067 50.8552 5.92681C50.6223 5.16877 50.1349 4.80491 49.2677 4.80491C47.9474 4.80491 46.8215 5.87375 46.3982 7.57177C45.9654 9.30769 46.5833 10.3386 47.888 10.3386C48.8021 10.3386 49.455 9.94444 50.0255 9.25462C50.3581 8.86044 50.5718 8.72399 50.939 8.72399C51.3531 8.72399 51.5897 8.99689 51.4877 9.40623C51.4555 9.5351 51.3903 9.67155 51.2881 9.83074C50.5843 10.9299 49.0537 11.7107 47.5303 11.7107Z" fill="currentColor"/>
  <path d="M28.4072 11.7031C27.8994 11.7031 27.6485 11.362 27.7789 10.8389L29.4156 4.27428C29.5442 3.75881 29.9517 3.44043 30.4282 3.44043C30.897 3.44043 31.1554 3.75123 31.025 4.27428L30.8625 4.9262H30.9015C31.4898 4.03928 32.4966 3.44801 33.606 3.44801C34.7466 3.44801 35.433 4.01654 35.5136 5.00958H35.5526C36.2164 4.03928 37.3326 3.44801 38.5045 3.44801C40.1295 3.44801 40.9311 4.49411 40.5361 6.07842L39.3492 10.8389C39.2188 11.362 38.79 11.7031 38.2822 11.7031C37.7744 11.7031 37.5235 11.362 37.6539 10.8389L38.7425 6.4726C38.9996 5.44166 38.5767 4.85039 37.5767 4.85039C36.5767 4.85039 35.7018 5.57053 35.4504 6.57873L34.3883 10.8389C34.2578 11.362 33.8525 11.7031 33.3447 11.7031C32.8369 11.7031 32.6016 11.362 32.732 10.8389L33.8509 6.35132C34.0796 5.43408 33.6236 4.85039 32.6704 4.85039C31.6704 4.85039 30.7705 5.60843 30.5153 6.63179L29.4664 10.8389C29.336 11.362 28.915 11.7031 28.4072 11.7031Z" fill="currentColor"/>
  <path d="M27.3178 2.3792C26.7788 2.3792 26.4471 1.9547 26.5756 1.43923C26.706 0.916179 27.2456 0.506836 27.7847 0.506836C28.3315 0.506836 28.667 0.916179 28.5366 1.43923C28.4081 1.9547 27.8647 2.3792 27.3178 2.3792ZM24.9931 11.7031C24.4853 11.7031 24.2344 11.362 24.3648 10.839L25.9921 4.31221C26.1244 3.78158 26.5454 3.44046 27.0532 3.44046C27.561 3.44046 27.8119 3.78158 27.6796 4.31221L26.0523 10.839C25.9219 11.362 25.5009 11.7031 24.9931 11.7031Z" fill="currentColor"/>
  <path d="M18.2059 11.6955C16.5966 11.6955 15.7057 10.7252 16.0629 9.29253C16.4106 7.89773 17.7336 7.04114 19.7054 6.93501L21.9953 6.80614L22.1484 6.19213C22.3695 5.30522 21.8846 4.77459 20.8534 4.77459C20.0409 4.77459 19.4319 5.05506 18.7817 5.78278C18.5494 6.02536 18.3041 6.13148 18.0073 6.13148C17.5854 6.13148 17.3487 5.85859 17.4508 5.44925C17.4924 5.28248 17.5846 5.10055 17.7315 4.91861C18.3861 4.01654 19.772 3.44043 21.2485 3.44043C23.2407 3.44043 24.259 4.46379 23.8602 6.06326L22.6601 10.8768C22.5315 11.3923 22.1181 11.7031 21.6415 11.7031C21.1728 11.7031 20.9262 11.4075 21.0315 10.9223L21.1997 10.2477H21.1607C20.463 11.1346 19.2762 11.6955 18.2059 11.6955ZM18.9901 10.3993C20.1698 10.3993 21.296 9.6109 21.5549 8.57238L21.7118 7.94321L19.6503 8.0645C18.6255 8.13272 17.9474 8.5648 17.7773 9.24704C17.6035 9.94444 18.0916 10.3993 18.9901 10.3993Z" fill="currentColor"/>
  <path d="M13.2197 11.7032C12.7275 11.7032 12.4572 11.3772 12.5914 10.839L14.9596 1.34073C15.0938 0.802521 15.5266 0.476562 16.0188 0.476562C16.511 0.476562 16.7813 0.802521 16.6471 1.34073L14.2789 10.839C14.1447 11.3772 13.7119 11.7032 13.2197 11.7032Z" fill="currentColor"/>
  <path d="M6.15562 11.741C2.96812 11.741 1.51648 9.57302 2.38588 6.08602C3.24962 2.62176 5.80957 0.438599 8.95801 0.438599C11.0283 0.438599 12.4408 1.41647 12.7413 3.03111C12.7959 3.25094 12.7939 3.47835 12.7428 3.68302C12.6294 4.13785 12.2432 4.43349 11.7745 4.43349C11.3604 4.43349 11.1361 4.2364 11.0504 3.79673C10.8313 2.57628 9.88444 1.92436 8.58756 1.92436C6.54069 1.92436 4.80621 3.55416 4.17495 6.08602C3.53801 8.64063 4.44794 10.2553 6.51825 10.2553C7.89325 10.2553 9.08969 9.68673 9.90797 8.50418C10.1956 8.10242 10.4638 7.93565 10.8466 7.93565C11.3232 7.93565 11.5719 8.25403 11.4604 8.70127C11.4018 8.93627 11.2845 9.1561 11.0971 9.40625C10.002 10.8844 8.24937 11.741 6.15562 11.741Z" fill="currentColor"/>
</svg>