<svg width="24" height="24" viewBox="0 0 24 24" fill="none" xmlns="http://www.w3.org/2000/svg">
<path d="M19 14C17.882 14 17 13.1056 17 12C17 10.882 17.882 10 19 10C20.1056 10 21 10.882 21 12C21 13.1056 20.1056 14 19 14Z" fill="currentColor"/>
<path d="M12 14C10.882 14 10 13.1056 10 12C10 10.882 10.882 10 12 10C13.1056 10 14 10.882 14 12C14 13.1056 13.1056 14 12 14Z" fill="currentColor"/>
<path d="M5 14C3.88199 14 3 13.1056 3 12C3 10.882 3.88199 10 5 10C6.10559 10 7 10.882 7 12C7 13.1056 6.10559 14 5 14Z" fill="currentColor"/>
</svg>
