<svg width="25" height="24" viewBox="0 0 25 24" fill="none" xmlns="http://www.w3.org/2000/svg">
<path d="M3.12989 15.8124C4.50311 19.4177 8.07178 22 12.2597 22C17.6303 22 22 17.7615 22 12.5519C22 7.34232 17.6304 3.10374 12.2598 3.10374C10.9639 3.10374 9.7288 3.35561 8.59679 3.80322L7.80695 2.33422C7.70125 2.13699 7.49484 2.01007 7.26646 2.0004C7.03865 1.99251 6.82093 2.10049 6.69831 2.28742L3.2597 7.53165C3.13707 7.71913 3.12645 7.95581 3.23216 8.15248C3.33787 8.34971 3.54436 8.47655 3.77274 8.48621L10.1738 8.75272C10.1832 8.75327 10.192 8.75327 10.2013 8.75327H10.2145C10.5104 8.74715 10.8677 8.47895 10.8677 8.13185C10.8677 7.96855 10.8026 7.81989 10.6969 7.70947L9.79361 6.02944C10.5647 5.75364 11.3912 5.5895 12.2597 5.5895C16.2176 5.5895 19.4373 8.71259 19.4373 12.5518C19.4373 16.3911 16.2176 19.5142 12.2597 19.5142C9.14263 19.5142 6.49107 17.5736 5.50187 14.8751L5.48391 14.8822C5.31682 14.3842 4.85054 14.0181 4.28134 14.0181C3.57364 14.0181 3 14.5746 3 15.2611C3 15.4596 3.05847 15.6404 3.14381 15.8069L3.12989 15.8124Z" fill="currentColor"/>
</svg>
