<svg width="20" height="20" viewBox="0 0 20 20" fill="none" xmlns="http://www.w3.org/2000/svg">
<g clip-path="url(#clip0_69582_57981)">
<path d="M10 0C15.5228 0 20 4.47716 20 10C20 15.5228 15.5228 20 10 20C4.47716 20 0 15.5228 0 10C0 4.47716 4.47716 0 10 0ZM9.44238 8.68457C9.30317 7.82713 8.49513 7.24472 7.6377 7.38379C6.78022 7.523 6.19783 8.33094 6.33691 9.18848C6.47613 10.0459 7.28414 10.6283 8.1416 10.4893C8.99903 10.3501 9.58143 9.54202 9.44238 8.68457ZM13.5537 8.68457C13.4146 7.82716 12.6064 7.24477 11.749 7.38379C10.8916 7.523 10.3091 8.33094 10.4482 9.18848C10.5875 10.046 11.3954 10.6284 12.2529 10.4893C13.1103 10.3501 13.6928 9.54201 13.5537 8.68457ZM9.94141 2.44141C5.67057 2.44145 2.20788 5.96997 2.20898 10.3213H4.18457C4.18468 7.06038 6.74151 4.41606 9.94141 4.41602C13.1413 4.41602 15.6981 7.06035 15.6982 10.3213H17.6738C17.6744 5.96995 14.212 2.44141 9.94141 2.44141Z" fill="#9391FE"/>
</g>
<defs>
<clipPath id="clip0_69582_57981">
<rect width="20" height="20" fill="white"/>
</clipPath>
</defs>
</svg>
