<svg width="18" height="4" viewBox="0 0 18 4" fill="none" xmlns="http://www.w3.org/2000/svg">
  <path
    d="M2 4C1.42095 4 0.940952 3.80732 0.56 3.42197C0.186667 3.03661 0 2.56262 0 2C0 1.42197 0.186667 0.944123 0.56 0.566474C0.940952 0.188825 1.42095 0 2 0C2.58667 0 3.06667 0.188825 3.44 0.566474C3.81333 0.944123 4 1.42197 4 2C4 2.56262 3.81333 3.03661 3.44 3.42197C3.06667 3.80732 2.58667 4 2 4Z"
    fill="#3E495E" />
  <path
    d="M9 4C8.42095 4 7.94095 3.80732 7.56 3.42197C7.18667 3.03661 7 2.56262 7 2C7 1.42197 7.18667 0.944123 7.56 0.566474C7.94095 0.188825 8.42095 0 9 0C9.58667 0 10.0667 0.188825 10.44 0.566474C10.8133 0.944123 11 1.42197 11 2C11 2.56262 10.8133 3.03661 10.44 3.42197C10.0667 3.80732 9.58667 4 9 4Z"
    fill="#3E495E" />
  <path
    d="M16 4C15.421 4 14.941 3.80732 14.56 3.42197C14.1867 3.03661 14 2.56262 14 2C14 1.42197 14.1867 0.944123 14.56 0.566474C14.941 0.188825 15.421 0 16 0C16.5867 0 17.0667 0.188825 17.44 0.566474C17.8133 0.944123 18 1.42197 18 2C18 2.56262 17.8133 3.03661 17.44 3.42197C17.0667 3.80732 16.5867 4 16 4Z"
    fill="#3E495E" />
</svg>