<svg width="46" height="46" viewBox="0 0 46 46" fill="none" xmlns="http://www.w3.org/2000/svg">
<path d="M23.0002 0C10.2896 0 0 10.2896 0 23.0002C0 35.7109 10.2896 46.0005 23.0002 46.0005C35.7109 46.0005 46.0005 35.7109 46.0005 23.0002C46.0005 10.2896 35.7109 0 23.0002 0Z" fill="#FF736B" fill-opacity="0.1"/>
<path d="M23.5 25.3245C22.6801 25.3245 21.9994 24.6913 21.9402 23.8735L21.3107 15.1728L21.2731 14.3282C21.2167 13.0595 22.23 12 23.5 12C24.77 12 25.7833 13.0595 25.7269 14.3282L25.6893 15.1728L25.0598 23.8735C25.0006 24.6913 24.3199 25.3245 23.5 25.3245ZM23.5141 33.25C22.0452 33.25 21 32.1517 21 30.6082C21 29.0646 22.0734 27.996 23.5141 27.996C24.9266 27.996 26 29.0646 26 30.6082C26 32.1517 24.9266 33.25 23.5141 33.25Z" fill="#FF453A"/>
</svg>
