<svg viewBox="0 0 38 38" fill="none" xmlns="http://www.w3.org/2000/svg">
<path d="M2.48145 24.7578C2.74707 24.6803 2.93522 24.5199 3.0459 24.2764C3.16764 24.0218 3.18978 23.7451 3.1123 23.4463C2.90202 22.5941 2.74154 21.7197 2.63086 20.8232C2.52018 19.9157 2.48698 18.8809 2.53125 17.7188C2.54232 17.3978 2.45931 17.1432 2.28223 16.9551C2.11621 16.7669 1.90039 16.6618 1.63477 16.6396C1.30273 16.6175 1.03711 16.695 0.837891 16.8721C0.638672 17.0492 0.522461 17.2926 0.489258 17.6025C0.422852 18.5544 0.433919 19.5726 0.522461 20.6572C0.62207 21.7308 0.832357 22.8486 1.15332 24.0107C1.24186 24.3317 1.41341 24.5586 1.66797 24.6914C1.93359 24.8242 2.20475 24.8464 2.48145 24.7578ZM1.71777 14.6973C1.99447 14.7969 2.27116 14.7858 2.54785 14.6641C2.83561 14.5423 3.04036 14.3154 3.16211 13.9834C4.04753 11.5264 5.29264 9.47331 6.89746 7.82422C8.51335 6.16406 10.3451 4.91341 12.3926 4.07227C14.4401 3.22005 16.5651 2.79395 18.7676 2.79395C20.2396 2.79395 21.5622 2.93783 22.7354 3.22559C23.9085 3.51335 24.9932 3.92839 25.9893 4.4707C26.3102 4.64779 26.6201 4.72526 26.9189 4.70312C27.2178 4.68099 27.4391 4.52051 27.583 4.22168C27.7158 3.92285 27.7269 3.66829 27.6162 3.45801C27.5055 3.23665 27.3229 3.0485 27.0684 2.89355C25.7956 2.09668 24.4896 1.54329 23.1504 1.2334C21.8223 0.912435 20.3613 0.751953 18.7676 0.751953C16.8418 0.751953 14.988 1.00651 13.2061 1.51562C11.4242 2.02474 9.764 2.79395 8.22559 3.82324C6.68717 4.85254 5.32031 6.13086 4.125 7.6582C2.92969 9.18555 1.9502 10.9619 1.18652 12.9873C1.02051 13.43 0.998372 13.8008 1.12012 14.0996C1.25293 14.3984 1.45215 14.5977 1.71777 14.6973ZM36.6143 20.873C36.902 20.873 37.1344 20.7679 37.3115 20.5576C37.4997 20.3363 37.5827 20.0706 37.5605 19.7607C37.3171 17.4808 36.902 15.4609 36.3154 13.7012C35.7288 11.9414 34.9707 10.3753 34.041 9.00293C33.1113 7.63053 31.999 6.36882 30.7041 5.21777C30.4606 4.98535 30.195 4.88574 29.9072 4.91895C29.6305 4.95215 29.4092 5.06836 29.2432 5.26758C29.0661 5.4668 28.9831 5.70475 28.9941 5.98145C29.0052 6.24707 29.138 6.49609 29.3926 6.72852C31.0638 8.3112 32.4473 10.1429 33.543 12.2236C34.6387 14.3044 35.3193 16.8333 35.585 19.8105C35.6292 20.1094 35.7399 20.3639 35.917 20.5742C36.0941 20.7734 36.3265 20.873 36.6143 20.873ZM4.32422 29.5889C4.5013 29.8324 4.73926 29.9762 5.03809 30.0205C5.34798 30.0648 5.62467 29.9762 5.86816 29.7549C6.47689 29.2458 6.9362 28.5983 7.24609 27.8125C7.55599 27.0156 7.71094 26.18 7.71094 25.3057C7.71094 24.542 7.62793 23.8613 7.46191 23.2637C7.2959 22.6549 7.12988 22.0241 6.96387 21.3711C6.79785 20.7181 6.71484 19.9157 6.71484 18.9639C6.71484 17.3258 7.02474 15.7874 7.64453 14.3486C8.27539 12.9098 9.13867 11.637 10.2344 10.5303C11.3411 9.4235 12.6139 8.55469 14.0527 7.92383C15.5026 7.29297 17.0465 6.97754 18.6846 6.97754C21.3076 6.97754 23.5876 7.64714 25.5244 8.98633C27.4723 10.3255 28.9775 12.196 30.04 14.5977C31.1136 16.9993 31.6504 19.7939 31.6504 22.9814C31.6504 24.863 31.5231 26.4622 31.2686 27.7793C31.014 29.0964 30.7318 30.1201 30.4219 30.8506C30.3112 31.1383 30.3001 31.415 30.3887 31.6807C30.4883 31.9463 30.6543 32.14 30.8867 32.2617C31.1413 32.3724 31.4124 32.3779 31.7002 32.2783C31.999 32.1787 32.2038 31.985 32.3145 31.6973C32.6354 30.8229 32.9453 29.6608 33.2441 28.2109C33.543 26.75 33.6924 25.0013 33.6924 22.9648C33.6924 20.2754 33.3382 17.8294 32.6299 15.627C31.9215 13.4245 30.9089 11.5264 29.5918 9.93262C28.2858 8.33887 26.7087 7.11035 24.8604 6.24707C23.0231 5.38379 20.9645 4.95215 18.6846 4.95215C16.7699 4.95215 14.9658 5.32292 13.2725 6.06445C11.5791 6.79492 10.085 7.80208 8.79004 9.08594C7.50618 10.3698 6.49902 11.8584 5.76855 13.5518C5.03809 15.2451 4.67285 17.0492 4.67285 18.9639C4.67285 19.8825 4.75586 20.7126 4.92188 21.4541C5.09896 22.1846 5.27051 22.8652 5.43652 23.4961C5.61361 24.1159 5.70768 24.7135 5.71875 25.2891C5.71875 25.8646 5.61361 26.4014 5.40332 26.8994C5.2041 27.3975 4.91634 27.818 4.54004 28.1611C4.32975 28.3493 4.20247 28.5817 4.1582 28.8584C4.125 29.1351 4.18034 29.3786 4.32422 29.5889ZM8.3916 32.7266C8.82324 32.5163 9.27148 32.1621 9.73633 31.6641C10.2012 31.166 10.6217 30.6126 10.998 30.0039C11.3854 29.3841 11.6566 28.7865 11.8115 28.2109C11.889 27.9453 11.8724 27.6852 11.7617 27.4307C11.651 27.1761 11.4518 26.999 11.1641 26.8994C10.9095 26.8109 10.6605 26.833 10.417 26.9658C10.1735 27.0986 10.002 27.3145 9.90234 27.6133C9.68099 28.3216 9.37109 28.9469 8.97266 29.4893C8.57422 30.0316 8.07617 30.5075 7.47852 30.917C7.16862 31.1383 6.97493 31.3763 6.89746 31.6309C6.83105 31.8965 6.84766 32.1344 6.94727 32.3447C7.05794 32.5882 7.24609 32.7542 7.51172 32.8428C7.77734 32.9424 8.07064 32.9036 8.3916 32.7266ZM11.9775 23.4463C11.7673 22.8818 11.5348 22.2454 11.2803 21.5371C11.0368 20.8177 10.915 19.9876 10.915 19.0469C10.915 17.5859 11.2637 16.2633 11.9609 15.0791C12.6693 13.8838 13.6156 12.9375 14.7998 12.2402C15.984 11.543 17.3066 11.1943 18.7676 11.1943C19.332 11.1943 19.7913 11.222 20.1455 11.2773C20.5107 11.3216 20.8594 11.4102 21.1914 11.543C21.5234 11.6647 21.9329 11.8363 22.4199 12.0576C22.6966 12.1904 22.9512 12.2236 23.1836 12.1572C23.416 12.0908 23.582 11.9525 23.6816 11.7422C23.8255 11.4876 23.8587 11.222 23.7812 10.9453C23.7038 10.6576 23.5101 10.4251 23.2002 10.248C22.6468 9.92708 21.9772 9.66146 21.1914 9.45117C20.4167 9.24089 19.6087 9.13574 18.7676 9.13574C17.3841 9.13574 16.0947 9.3903 14.8994 9.89941C13.7041 10.4085 12.6527 11.1169 11.7451 12.0244C10.8376 12.9209 10.1292 13.9723 9.62012 15.1787C9.111 16.374 8.85645 17.6634 8.85645 19.0469C8.85645 20.0872 8.97266 21.0391 9.20508 21.9023C9.44857 22.7656 9.70866 23.5404 9.98535 24.2266C10.1071 24.5365 10.2952 24.7523 10.5498 24.874C10.8154 24.9847 11.1087 24.9792 11.4297 24.8574C11.7064 24.7467 11.889 24.5586 11.9775 24.293C12.0771 24.0273 12.0771 23.7451 11.9775 23.4463ZM25.126 14.3652C25.9118 15.5495 26.5039 16.9329 26.9023 18.5156C27.3008 20.0983 27.5 21.8802 27.5 23.8613C27.5 25.9642 27.2288 27.9508 26.6865 29.8213C26.1553 31.6917 25.4303 33.1914 24.5117 34.3203C24.3568 34.5306 24.2738 34.7741 24.2627 35.0508C24.2516 35.3385 24.3512 35.5765 24.5615 35.7646C24.7829 35.9749 25.0485 36.069 25.3584 36.0469C25.6683 36.0247 25.9173 35.8919 26.1055 35.6484C27.1348 34.2539 27.9593 32.5107 28.5791 30.4189C29.1989 28.3271 29.5088 26.1191 29.5088 23.7949C29.5088 22.0794 29.3926 20.5853 29.1602 19.3125C28.9388 18.0286 28.6289 16.9053 28.2305 15.9424C27.8431 14.9795 27.4059 14.0941 26.9189 13.2861C26.7308 12.9984 26.4928 12.8102 26.2051 12.7217C25.9284 12.6331 25.6628 12.6553 25.4082 12.7881C25.1315 12.932 24.9655 13.1533 24.9102 13.4521C24.8548 13.751 24.9268 14.0553 25.126 14.3652ZM11.9277 34.9512C13.3112 33.8333 14.3682 32.4277 15.0986 30.7344C15.8402 29.0299 16.2054 27.1982 16.1943 25.2393C16.1833 24.2432 16.0892 23.3688 15.9121 22.6162C15.735 21.8525 15.5579 21.1663 15.3809 20.5576C15.2148 19.9489 15.1318 19.3789 15.1318 18.8477C15.1318 17.8073 15.4583 16.9772 16.1113 16.3574C16.7754 15.7266 17.6497 15.4111 18.7344 15.4111C19.8079 15.4111 20.6602 15.7764 21.291 16.5068C21.9329 17.2373 22.3978 18.2279 22.6855 19.4785C22.9844 20.7292 23.1559 22.1292 23.2002 23.6787C23.2555 25.3942 23.1061 27.0101 22.752 28.5264C22.3978 30.0426 21.8942 31.3929 21.2412 32.5771C20.5882 33.7725 19.8411 34.7354 19 35.4658C18.7786 35.6429 18.6458 35.8587 18.6016 36.1133C18.5684 36.3678 18.6237 36.6113 18.7676 36.8438C18.9336 37.0872 19.166 37.2256 19.4648 37.2588C19.7747 37.3031 20.0514 37.2145 20.2949 36.9932C21.1803 36.1852 21.9883 35.0895 22.7188 33.7061C23.4603 32.3226 24.0469 30.762 24.4785 29.0244C24.9102 27.2757 25.1204 25.4495 25.1094 23.5459C25.1094 21.5869 24.8991 19.8438 24.4785 18.3164C24.0579 16.778 23.3828 15.5716 22.4531 14.6973C21.5234 13.8118 20.2839 13.3691 18.7344 13.3691C17.6719 13.3691 16.7145 13.5905 15.8623 14.0332C15.0212 14.4759 14.3516 15.0957 13.8535 15.8926C13.3665 16.6895 13.123 17.6136 13.123 18.665C13.123 19.307 13.2061 19.9876 13.3721 20.707C13.5381 21.4264 13.7041 22.168 13.8701 22.9316C14.0472 23.6953 14.1413 24.4645 14.1523 25.2393C14.1634 26.8994 13.8646 28.4378 13.2559 29.8545C12.6582 31.2601 11.7894 32.4222 10.6494 33.3408C10.417 33.5511 10.2786 33.7835 10.2344 34.0381C10.1901 34.3037 10.2454 34.5527 10.4004 34.7852C10.5885 35.0508 10.8265 35.1947 11.1143 35.2168C11.4131 35.2389 11.6842 35.1504 11.9277 34.9512ZM15.8623 36.2959C16.5264 35.8089 17.2015 35.084 17.8877 34.1211C18.585 33.1693 19.0996 32.1621 19.4316 31.0996C19.498 30.8672 19.4925 30.6182 19.415 30.3525C19.3486 30.0758 19.1715 29.8932 18.8838 29.8047C18.5739 29.694 18.2972 29.7051 18.0537 29.8379C17.8213 29.9596 17.6553 30.1478 17.5557 30.4023C17.1572 31.4316 16.709 32.2839 16.2109 32.959C15.7129 33.6341 15.1816 34.1986 14.6172 34.6523C14.3958 34.8294 14.2575 35.0508 14.2021 35.3164C14.1468 35.5931 14.1966 35.8477 14.3516 36.0801C14.4954 36.3346 14.7168 36.4785 15.0156 36.5117C15.3255 36.556 15.6077 36.484 15.8623 36.2959ZM20.4443 26.999C20.5993 26.2354 20.6768 25.4219 20.6768 24.5586C20.6878 23.6842 20.627 22.8044 20.4941 21.9189C20.3724 21.0225 20.1732 20.1536 19.8965 19.3125C19.7858 18.9805 19.6087 18.748 19.3652 18.6152C19.1217 18.4714 18.8617 18.4437 18.585 18.5322C18.3083 18.6208 18.1035 18.7868 17.9707 19.0303C17.849 19.2627 17.8324 19.5339 17.9209 19.8438C18.1755 20.6517 18.3581 21.4486 18.4688 22.2344C18.5905 23.0202 18.6458 23.7894 18.6348 24.542C18.6348 25.2835 18.5684 26.0085 18.4355 26.7168C18.3802 26.9935 18.4134 27.248 18.5352 27.4805C18.668 27.7018 18.8893 27.8402 19.1992 27.8955C19.487 27.9508 19.7526 27.8955 19.9961 27.7295C20.2396 27.5635 20.389 27.32 20.4443 26.999Z" fill="currentColor"/>
</svg>
