<svg xmlns="http://www.w3.org/2000/svg" width="20" height="20" viewBox="0 0 20 20" fill="none">
  <path d="M16.6525 8.81152C16.7852 9.34722 16.8508 9.89047 16.8508 10.4414C16.8507 11.392 16.6703 12.2816 16.3088 13.1113C15.9456 13.9453 15.4551 14.67 14.838 15.2871C14.221 15.9042 13.4961 16.3946 12.6622 16.7578C11.8326 17.1192 10.9431 17.2998 9.99228 17.2998C9.05257 17.2998 8.16877 17.1184 7.33892 16.7568C6.5048 16.3937 5.77687 15.9035 5.15432 15.2861C4.5324 14.6693 4.04255 13.9446 3.68458 13.1113C3.32817 12.2817 3.14945 11.3923 3.14941 10.4414C3.14941 9.90078 3.21337 9.36937 3.34082 8.84961C3.4686 8.32823 3.64993 7.8326 3.88478 7.36328C4.11902 6.89488 4.40902 6.45662 4.75588 6.04883L5.02444 5.75C5.29969 5.45937 5.59688 5.19039 5.91801 4.94531L5.91898 4.94629C6.1099 4.80768 6.30624 4.7597 6.5186 4.79297C6.73404 4.82675 6.90647 4.93003 7.044 5.11035C7.17925 5.28784 7.2289 5.48027 7.19537 5.69922C7.16115 5.92106 7.05654 6.09571 6.877 6.23242C6.19208 6.73313 5.66499 7.35074 5.29886 8.08301C4.93281 8.81521 4.75002 9.60259 4.75002 10.4414C4.75006 11.1607 4.88658 11.8413 5.16018 12.4814C5.43248 13.1185 5.80674 13.6758 6.28227 14.1514C6.75748 14.6264 7.31385 15.0029 7.95026 15.2803C8.59087 15.5597 9.27248 15.6992 9.99228 15.6992C10.712 15.6992 11.393 15.5596 12.0333 15.2803C12.6699 15.0028 13.227 14.6266 13.7023 14.1514C14.1777 13.6761 14.5538 13.119 14.8312 12.4824C15.1105 11.842 15.2501 11.1611 15.2502 10.4414C15.2502 9.58998 15.053 8.78364 14.6603 8.02539C14.267 7.26609 13.7142 6.63957 13.005 6.14844L13.004 6.14746L12.9376 6.09766C12.7912 5.97719 12.7042 5.82451 12.671 5.63281C12.6423 5.46671 12.6592 5.31301 12.7238 5.16699L12.8048 5.02344C12.9308 4.84894 13.0985 4.74428 13.3195 4.70605C13.5408 4.66775 13.7404 4.71062 13.9289 4.83887C14.3876 5.16546 14.7945 5.53523 15.1505 5.94727C15.5085 6.36151 15.8159 6.80862 16.0715 7.28906C16.3262 7.76807 16.5199 8.27572 16.6525 8.81152Z" fill="#FF453A"/>
  <path d="M10.8009 3.50879V9.49609C10.8008 9.71566 10.7246 9.89864 10.5675 10.0557C10.4121 10.2109 10.2247 10.2881 9.99228 10.2881C9.77258 10.2881 9.58969 10.2126 9.4327 10.0557C9.27566 9.89863 9.20035 9.71567 9.20028 9.49609V3.50879C9.20028 3.28894 9.27582 3.10159 9.43465 2.93848C9.59219 2.7768 9.77448 2.7002 9.99228 2.7002C10.2231 2.7002 10.4099 2.77864 10.5655 2.93848C10.7244 3.10158 10.8009 3.28895 10.8009 3.50879Z" fill="#FF453A"/>
</svg>