<svg width="16" height="16" viewBox="0 0 16 16" fill="none" xmlns="http://www.w3.org/2000/svg">
<g id="&#230;&#156;&#186;&#230;&#158;&#132;&#228;&#191;&#161;&#230;&#129;&#175; 1" clip-path="url(#clip0_31479_131056)">
<path id="Rectangle 41747" d="M0 8C0 3.58172 3.58172 0 8 0C12.4183 0 16 3.58172 16 8C16 12.4183 12.4183 16 8 16C3.58172 16 0 12.4183 0 8Z" fill="#7084FF"/>
<path id="Vector" d="M9.95576 7.85715C9.95576 7.65991 10.1157 7.50001 10.3129 7.50001H11.3843C11.5816 7.50001 11.7415 7.65991 11.7415 7.85715V11.0714H12.3086C12.5059 11.0714 12.6658 11.2313 12.6658 11.4286V12.1429C12.6658 12.3401 12.5059 12.5 12.3086 12.5H3.73719C3.53995 12.5 3.38005 12.3401 3.38005 12.1429V11.4286C3.38005 11.2313 3.53995 11.0714 3.73719 11.0714H9.95576V7.85715ZM8.88434 8.92858V11.0714H7.10076V7.85715C7.10076 7.65991 7.26066 7.50001 7.45791 7.50001H8.52612C8.72323 7.50001 8.88307 7.65969 8.88326 7.85679L8.88434 8.92858ZM6.02719 9.28572V11.0714H4.24148V7.85715C4.24148 7.65991 4.40138 7.50001 4.59862 7.50001H5.66891C5.86604 7.50001 6.02589 7.65973 6.02605 7.85687L6.02719 9.28572ZM8.00005 2.50001C8.03813 2.49998 8.07581 2.50776 8.11076 2.52287L8.16005 2.55001L12.89 5.93072C12.9366 5.96339 12.9711 6.01045 12.9883 6.06466C13.0054 6.11887 13.0043 6.17722 12.9851 6.23072C12.9698 6.27452 12.9436 6.31371 12.909 6.34458C12.8744 6.37545 12.8324 6.39699 12.7872 6.40715L12.7301 6.41287H3.27005C3.21328 6.41547 3.15729 6.39893 3.11104 6.3659C3.0648 6.33287 3.031 6.28527 3.01505 6.23072C2.9993 6.18674 2.99583 6.13929 3.00502 6.09348C3.01421 6.04767 3.0357 6.00523 3.06719 5.97072L3.11005 5.93072L7.84005 2.55001C7.88686 2.51705 7.94281 2.49957 8.00005 2.50001Z" fill="white"/>
</g>
<defs>
<clipPath id="clip0_31479_131056">
<rect width="16" height="16" fill="white"/>
</clipPath>
</defs>
</svg>
