<svg width="16" height="16" viewBox="0 0 16 16" fill="none" xmlns="http://www.w3.org/2000/svg">
<g id="&#230;&#156;&#186;&#230;&#158;&#132;&#228;&#191;&#161;&#230;&#129;&#175; 1" clip-path="url(#clip0_31479_131092)">
<path id="Rectangle 41747" d="M0 8C0 3.58172 3.58172 0 8 0C12.4183 0 16 3.58172 16 8C16 12.4183 12.4183 16 8 16C3.58172 16 0 12.4183 0 8Z" fill="#7084FF"/>
<path id="Rectangle 26792 (Stroke)" d="M8.07225 3.35C5.70153 3.35 3.77969 5.27185 3.77969 7.64256C3.77969 8.11542 4.16301 8.49874 4.63586 8.49874C5.10872 8.49874 5.49204 8.11542 5.49204 7.64256C5.49204 6.21755 6.64724 5.06235 8.07225 5.06235C9.49726 5.06235 10.6525 6.21755 10.6525 7.64256C10.6525 8.11542 11.0358 8.49874 11.5086 8.49874C11.9815 8.49874 12.3648 8.11542 12.3648 7.64256C12.3648 5.27185 10.443 3.35 8.07225 3.35Z" fill="white" stroke="white" stroke-width="0.3" stroke-linecap="round" stroke-linejoin="round"/>
<circle id="Ellipse 292189" cx="4.51541" cy="11.284" r="1.21561" fill="white"/>
<circle id="Ellipse 292189_2" cx="11.8299" cy="11.284" r="1.21561" fill="white"/>
</g>
<defs>
<clipPath id="clip0_31479_131092">
<rect width="16" height="16" fill="white"/>
</clipPath>
</defs>
</svg>
