<svg width="240" height="240" viewBox="0 0 240 240" fill="none" xmlns="http://www.w3.org/2000/svg">
<circle cx="120" cy="120" r="105" fill="#F2F4F7"/>
<path d="M55.4375 52.2581C55.4375 48.6465 58.3653 45.7188 61.9769 45.7188H164.154C172.281 45.7188 178.868 52.3062 178.868 60.4323C178.868 68.5584 172.281 75.1459 164.154 75.1459H61.9769C58.3653 75.1459 55.4375 72.2181 55.4375 68.6065V52.2581Z" fill="#242225"/>
<path d="M110.081 68.2216C114.864 68.2216 118.161 66.4684 118.161 59.7788C118.161 53.0859 114.864 51.3359 110.081 51.3359C105.298 51.3359 102 53.0859 102 59.7788C102 66.4684 105.298 68.2216 110.081 68.2216Z" fill="#3B7EFF"/>
<path d="M113.697 56.9419L109.464 52.6797V58.3356L107.136 55.9547L106.29 56.808L109.211 59.7593L106.29 62.7114L107.136 63.5648L109.464 61.2185V66.8389L113.696 62.5763L110.902 59.7589L113.697 56.9419ZM110.699 55.4399L112.005 56.7969L110.699 58.163V55.4399ZM112.005 62.5627L110.699 63.9288V61.2057L112.005 62.5627Z" fill="white"/>
<path d="M68.8144 112.816C66.8441 109.79 67.7005 105.739 70.7273 103.768L156.36 48.0252C163.17 43.592 172.285 45.519 176.718 52.3292C181.151 59.1395 179.224 68.2542 172.414 72.6874L86.7814 128.431C83.7546 130.401 79.7036 129.544 77.7333 126.518L68.8144 112.816Z" fill="#BCBAC2"/>
<circle opacity="0.5" cx="70.1499" cy="60.4398" r="7.7655" stroke="#BCBAC2" stroke-width="0.817421"/>
<circle opacity="0.5" cx="164.152" cy="60.4398" r="7.7655" stroke="#242225" stroke-width="0.817421"/>
<g clip-path="url(#clip0_6030_34627)">
<path d="M139.084 153.797C142.943 153.797 146.176 156.832 146.176 160.676V247.368C146.176 251.111 143.047 254.247 139.084 254.247H100.916C97.0571 254.247 93.8242 251.212 93.8242 247.368V160.676C93.8242 156.933 96.9528 153.797 100.916 153.797H139.084Z" fill="#5B7896"/>
<path d="M142.637 161.259V246.244C142.637 247.731 141.691 248.921 140.221 249.318C139.906 249.417 139.59 249.417 139.17 249.417H100.723C100.513 249.417 100.303 249.417 100.198 249.417C98.5174 249.12 97.3619 247.83 97.3619 246.244V161.556C97.3619 159.87 98.5174 158.581 100.198 158.383C100.408 158.383 100.513 158.383 100.723 158.383H106.396C107.131 158.383 107.656 158.879 107.656 159.573C107.656 160.961 108.917 162.151 110.388 162.151H129.926C131.397 162.151 132.657 160.961 132.657 159.573C132.657 158.879 133.183 158.383 133.918 158.383H139.275L139.193 158.396C139.508 158.396 139.928 158.396 140.244 158.495C141.504 158.892 142.637 159.771 142.637 161.259Z" fill="#D2DFFE"/>
<rect x="104" y="176" width="32.1556" height="32.1556" rx="16.0778" fill="#7084FF"/>
<path d="M130.566 193.409C131.398 191.544 127.285 186.334 123.355 184.163C120.879 182.482 118.298 182.713 117.775 183.451C116.628 185.071 121.574 186.444 124.881 188.047C124.17 188.356 123.5 188.912 123.106 189.623C121.873 188.273 119.167 187.11 115.991 188.047C113.851 188.678 112.073 190.166 111.385 192.415C111.218 192.34 111.034 192.299 110.839 192.299C110.095 192.299 109.492 192.904 109.492 193.65C109.492 194.397 110.095 195.002 110.839 195.002C110.977 195.002 111.408 194.909 111.408 194.909L118.298 194.959C115.543 199.345 113.365 199.986 113.365 200.746C113.365 201.506 115.449 201.3 116.231 201.017C119.976 199.661 123.998 195.435 124.689 194.219C127.587 194.582 130.023 194.625 130.566 193.409Z" fill="url(#paint0_linear_6030_34627)"/>
<path fill-rule="evenodd" clip-rule="evenodd" d="M124.779 187.999C124.813 188.014 124.847 188.029 124.881 188.044C125.035 187.983 125.01 187.756 124.968 187.578C124.871 187.167 123.202 185.513 121.634 184.773C119.494 183.761 117.919 183.815 117.691 184.283C118.124 185.179 120.143 186.02 122.251 186.898C123.113 187.257 123.989 187.622 124.779 187.999Z" fill="url(#paint1_linear_6030_34627)"/>
<path fill-rule="evenodd" clip-rule="evenodd" d="M122.166 197.048C121.735 196.883 121.248 196.732 120.695 196.594C121.287 195.532 121.411 193.96 120.852 192.966C120.068 191.571 119.084 190.828 116.797 190.828C115.539 190.828 112.152 191.253 112.092 194.09C112.086 194.386 112.092 194.657 112.113 194.906L118.298 194.951C117.463 196.281 116.681 197.266 115.996 198.015C116.818 198.226 117.497 198.404 118.12 198.567C118.708 198.721 119.247 198.862 119.81 199.006C120.663 198.383 121.465 197.703 122.166 197.048Z" fill="url(#paint2_linear_6030_34627)"/>
<path d="M111.303 194.617C111.555 196.771 112.776 197.616 115.27 197.866C117.764 198.116 119.195 197.948 121.1 198.122C122.69 198.267 124.111 199.081 124.638 198.8C125.112 198.547 124.847 197.633 124.212 197.046C123.389 196.286 122.251 195.758 120.248 195.57C120.647 194.474 120.535 192.936 119.915 192.099C119.019 190.89 117.364 190.343 115.27 190.582C113.082 190.831 110.986 191.912 111.303 194.617Z" fill="url(#paint3_linear_6030_34627)"/>
<path d="M124.844 160.453H117.445C116.69 160.453 116.388 159.697 116.388 159.394C116.388 158.638 117.143 158.336 117.445 158.336H124.844C125.447 158.336 125.9 159.092 125.9 159.394C125.9 160.15 125.447 160.453 124.844 160.453Z" fill="#4E6781"/>
<path d="M113.193 160.453H112.891C112.136 160.453 111.834 159.697 111.834 159.394C111.834 158.638 112.589 158.336 112.891 158.336H113.193C113.948 158.336 114.25 159.092 114.25 159.394C114.25 160.15 113.797 160.453 113.193 160.453Z" fill="#4E6781"/>
<path d="M129.642 122.005L129.642 141.273" stroke="#2ABB7F" stroke-width="2.75267" stroke-linecap="round" stroke-linejoin="round"/>
<path d="M123.217 128.43L129.64 122.007L136.062 128.43" stroke="#2ABB7F" stroke-width="2.75267" stroke-linecap="round" stroke-linejoin="round"/>
<path d="M110.359 144.652L110.359 125.383" stroke="#2ABB7F" stroke-width="2.75267" stroke-linecap="round" stroke-linejoin="round"/>
<path d="M103.934 138.242L110.356 144.665L116.779 138.242" stroke="#2ABB7F" stroke-width="2.75267" stroke-linecap="round" stroke-linejoin="round"/>
</g>
<rect x="15.75" y="15.75" width="208.5" height="208.5" rx="104.25" stroke="#D3D8E0" stroke-width="1.5"/>
<defs>
<linearGradient id="paint0_linear_6030_34627" x1="115.742" y1="191.757" x2="130.394" y2="195.898" gradientUnits="userSpaceOnUse">
<stop stop-color="white"/>
<stop offset="1" stop-color="white"/>
</linearGradient>
<linearGradient id="paint1_linear_6030_34627" x1="127.921" y1="191.475" x2="117.319" y2="180.88" gradientUnits="userSpaceOnUse">
<stop stop-color="#8697FF"/>
<stop offset="1" stop-color="#8697FF" stop-opacity="0"/>
</linearGradient>
<linearGradient id="paint2_linear_6030_34627" x1="122.46" y1="197.419" x2="112.295" y2="191.596" gradientUnits="userSpaceOnUse">
<stop stop-color="#8697FF"/>
<stop offset="1" stop-color="#8697FF" stop-opacity="0"/>
</linearGradient>
<linearGradient id="paint3_linear_6030_34627" x1="116.616" y1="191.642" x2="123.506" y2="200.366" gradientUnits="userSpaceOnUse">
<stop stop-color="white"/>
<stop offset="0.983895" stop-color="#D1D8FF"/>
</linearGradient>
<clipPath id="clip0_6030_34627">
<rect x="15" y="15" width="210" height="210" rx="105" fill="white"/>
</clipPath>
</defs>
</svg>
