<svg width="128" height="100" viewBox="0 0 128 100" fill="none" xmlns="http://www.w3.org/2000/svg">
<mask id="mask0_72080_259711" style="mask-type:alpha" maskUnits="userSpaceOnUse" x="17" y="37" width="97" height="57">
<rect width="42.3134" height="69.5899" transform="matrix(0.866025 0.5 -0.866025 0.5 77.3516 37.5977)" fill="#D9D9D9"/>
</mask>
<g mask="url(#mask0_72080_259711)">
<rect width="42.3134" height="9.09215" transform="matrix(0.866025 0.5 0 1 77.3516 37.5977)" fill="#2D345E"/>
<rect width="69.5899" height="9.09215" transform="matrix(0.866025 -0.5 0 1 17.0801 72.3926)" fill="#2D345E"/>
<rect width="42.3134" height="69.5899" transform="matrix(0.866025 0.5 -0.866025 0.5 77.3516 46.6895)" fill="black"/>
</g>
<path d="M27.5918 17.2676L29.8876 24.2017L36.0918 26.7676L29.8876 29.3334L27.5918 36.2676L25.296 29.3334L19.0918 26.7676L25.296 24.2017L27.5918 17.2676Z" fill="#FFD13F"/>
<path d="M40.0918 19.2676L41.1722 22.5522L44.0918 23.7676L41.1722 24.983L40.0918 28.2676L39.0114 24.983L36.0918 23.7676L39.0114 22.5522L40.0918 19.2676Z" fill="#FFD13F"/>
<path d="M97.3153 32.2594C91.6679 23.4154 73.2497 25.0834 56.1772 35.9852C39.1046 46.887 29.8428 62.8942 35.4902 71.7383" stroke="#2D345E"/>
<path d="M97.5435 32.8177C103.123 41.705 93.8052 57.5982 76.7322 68.3161C59.6592 79.0341 41.296 80.5182 35.7168 71.6309" stroke="white" stroke-opacity="0.2"/>
<path d="M92.2141 47.1413C94.5024 42.0121 83.1897 27.6818 72.3822 21.7115C65.5698 17.0864 58.4714 17.7218 57.0338 19.7526C53.8787 24.2093 67.4811 27.9857 76.5781 32.3925C74.6226 33.2447 72.7798 34.774 71.6961 36.7297C68.3047 33.0147 60.8609 29.8155 52.1265 32.3925C46.2405 34.1291 41.3489 38.2231 39.4582 44.4067C38.9989 44.2019 38.4902 44.0881 37.9551 44.0881C35.9088 44.0881 34.25 45.7525 34.25 47.8057C34.25 49.8589 35.9088 51.5233 37.9551 51.5233C38.3344 51.5233 39.5203 51.268 39.5203 51.268L58.4714 51.4058C50.8925 63.4696 44.9029 65.2331 44.9029 67.3231C44.9029 69.4131 50.6339 68.8468 52.7857 68.0677C63.0867 64.3384 74.1505 52.7155 76.049 49.3697C84.0217 50.3677 90.722 50.4858 92.2141 47.1413Z" fill="url(#paint0_linear_72080_259711)"/>
<path fill-rule="evenodd" clip-rule="evenodd" d="M56.8027 22.0441C57.4367 20.7616 61.7656 20.6159 67.6455 23.3946C71.9568 25.4321 76.5474 29.981 76.8145 31.1095C76.9302 31.6001 76.9987 32.225 76.5771 32.3917C76.5538 32.3815 76.5303 32.3717 76.5068 32.3614C69.0117 28.7416 58.5087 25.5442 56.8027 22.0441Z" fill="url(#paint1_linear_72080_259711)"/>
<path fill-rule="evenodd" clip-rule="evenodd" d="M54.3393 40.0527C60.6299 40.0527 63.3372 42.0955 65.4936 45.9326C67.0301 48.6667 66.6889 52.991 65.062 55.9121C66.5869 56.2912 67.9281 56.7097 69.1157 57.165C67.189 58.9654 64.9827 60.8332 62.6372 62.5479C59.4443 61.7303 56.5419 60.9556 52.1411 59.8242C54.0218 57.7654 56.1725 55.0594 58.4663 51.4082L41.4585 51.2842C41.3994 50.594 41.3816 49.8433 41.3989 49.0244C41.5645 41.2223 50.8795 40.0528 54.3393 40.0527Z" fill="url(#paint2_linear_72080_259711)"/>
<path d="M39.2321 50.4794C39.927 56.4065 43.2842 58.7294 50.1443 59.4168C57.0044 60.1042 60.9395 59.6431 66.1784 60.1213C70.5539 60.5207 74.4606 62.758 75.91 61.9848C77.2144 61.289 76.4846 58.7752 74.7393 57.1625C72.4768 55.0719 69.3456 53.6184 63.8361 53.1026C64.9341 50.0861 64.6264 45.8567 62.9211 43.5556C60.4555 40.2285 55.9044 38.7243 50.1443 39.3815C44.1264 40.0681 38.36 43.0409 39.2321 50.4794Z" fill="url(#paint3_linear_72080_259711)"/>
<defs>
<linearGradient id="paint0_linear_72080_259711" x1="51.4411" y1="42.5991" x2="91.7415" y2="53.9891" gradientUnits="userSpaceOnUse">
<stop stop-color="#8697FF"/>
<stop offset="1" stop-color="#ABB7FF"/>
</linearGradient>
<linearGradient id="paint1_linear_72080_259711" x1="84.9373" y1="41.8286" x2="55.7757" y2="12.6915" gradientUnits="userSpaceOnUse">
<stop stop-color="#8697FF"/>
<stop offset="1" stop-color="#5156D8" stop-opacity="0"/>
</linearGradient>
<linearGradient id="paint2_linear_72080_259711" x1="69.9243" y1="58.182" x2="41.9607" y2="42.1593" gradientUnits="userSpaceOnUse">
<stop stop-color="#465EED"/>
<stop offset="1" stop-color="#8697FF" stop-opacity="0"/>
</linearGradient>
<linearGradient id="paint3_linear_72080_259711" x1="53.8467" y1="42.2966" x2="72.7965" y2="66.2933" gradientUnits="userSpaceOnUse">
<stop stop-color="#8898FF"/>
<stop offset="0.983895" stop-color="#6277F1"/>
</linearGradient>
</defs>
</svg>
