<svg viewBox="0 0 44 43" fill="none" xmlns="http://www.w3.org/2000/svg">
<path d="M21.308 5.20291C21.6503 4.63422 22.4747 4.63422 22.817 5.20291L27.1367 12.3808C27.2596 12.5851 27.4602 12.7308 27.6925 12.7846L35.8539 14.6748C36.5005 14.8246 36.7553 15.6087 36.3202 16.1099L30.8285 22.4363C30.6722 22.6164 30.5956 22.8521 30.6162 23.0897L31.3406 31.4358C31.3979 32.097 30.7309 32.5816 30.1198 32.3227L22.406 29.0547C22.1864 28.9617 21.9386 28.9617 21.719 29.0547L14.0052 32.3227C13.3941 32.5816 12.7271 32.097 12.7844 31.4358L13.5088 23.0897C13.5294 22.8521 13.4528 22.6164 13.2965 22.4363L7.80478 16.1099C7.36968 15.6087 7.62446 14.8246 8.27108 14.6748L16.4325 12.7846C16.6648 12.7308 16.8654 12.5851 16.9883 12.3808L21.308 5.20291Z" fill="currentColor" />
</svg>
