<svg xmlns="http://www.w3.org/2000/svg" width="16" height="17" viewBox="0 0 16 17" fill="none">
  <path
    d="M2.7002 14V4C2.7002 3.73478 2.80555 3.48043 2.99309 3.29289C3.18062 3.10536 3.43498 3 3.7002 3H8.70019C8.96541 3 9.21977 3.10536 9.4073 3.29289C9.59484 3.48043 9.70019 3.73478 9.70019 4V14"
    stroke="currentColor" stroke-linecap="round" stroke-linejoin="round" />
  <path d="M1.2002 14H11.2002" stroke="currentColor" stroke-linecap="round" stroke-linejoin="round" />
  <path
    d="M9.7002 7.5H11.2002C11.4654 7.5 11.7198 7.60536 11.9073 7.79289C12.0948 7.98043 12.2002 8.23478 12.2002 8.5V11C12.2002 11.2652 12.3056 11.5196 12.4931 11.7071C12.6806 11.8946 12.935 12 13.2002 12C13.4654 12 13.7198 11.8946 13.9073 11.7071C14.0948 11.5196 14.2002 11.2652 14.2002 11V5.91437C14.2002 5.78297 14.1743 5.65285 14.124 5.53145C14.0737 5.41006 14 5.29976 13.9071 5.20687L12.7002 4"
    stroke="currentColor" stroke-linecap="round" stroke-linejoin="round" />
  <path d="M7.7002 7.5H4.7002" stroke="currentColor" stroke-linecap="round" stroke-linejoin="round" />
</svg>