<svg xmlns="http://www.w3.org/2000/svg" width="34" height="17" viewBox="0 0 34 17" fill="none">
  <rect y="0.5" width="34" height="16" rx="2" fill="#8697FF" fill-opacity="0.1" />
  <path
    d="M5.57236 4.5H6.82932L9.19172 10.6703L11.5485 4.5H12.8055L9.68553 12.5H8.6867L5.57236 4.5ZM5 4.5H6.19523L6.40285 9.84066V12.5H5V4.5ZM12.1826 4.5H13.3834V12.5H11.975V9.84066L12.1826 4.5Z"
    fill="#8697FF" />
  <path
    d="M18.3383 5.56593L15.8974 12.5H14.4216L17.4966 4.5H18.4393L18.3383 5.56593ZM20.3809 12.5L17.9343 5.56593L17.8277 4.5H18.776L21.8623 12.5H20.3809ZM20.263 9.53297V10.6264H15.8188V9.53297H20.263Z"
    fill="#8697FF" />
  <path
    d="M23.8487 4.5L25.5827 7.41758L27.3166 4.5H28.9383L26.4693 8.46154L29 12.5H27.3615L25.5827 9.52747L23.8038 12.5H22.1597L24.696 8.46154L22.2214 4.5H23.8487Z"
    fill="#8697FF" />
</svg>
