<svg width="115" height="34" viewBox="0 0 115 34" fill="none" xmlns="http://www.w3.org/2000/svg">
<rect x="0.984802" y="0.205078" width="113.03" height="33.5194" rx="12.4723" fill="white"/>
<rect x="1.4848" y="0.705078" width="112.03" height="32.5194" rx="11.9723" stroke="#7084FF" stroke-opacity="0.12"/>
<path d="M94.0553 21.6766C93.7056 21.4923 93.2874 21.4921 92.9375 21.6761L89.7343 23.3602C88.8539 23.8231 87.8249 23.0755 87.9931 22.0952L88.605 18.5278C88.6719 18.1383 88.5426 17.7408 88.2593 17.4651L85.665 14.9398C84.9519 14.2456 85.345 13.035 86.3299 12.8923L89.9079 12.3737C90.2989 12.3171 90.637 12.0715 90.8119 11.7172L92.4138 8.47143C92.8539 7.57953 94.1258 7.57953 94.5659 8.47143L96.1678 11.7172C96.3427 12.0715 96.6807 12.3171 97.0718 12.3737L100.65 12.8923C101.635 13.035 102.028 14.2456 101.315 14.9398L98.7203 17.4651C98.4371 17.7408 98.3078 18.1383 98.3746 18.5278L98.9861 22.0924C99.1544 23.0732 98.1243 23.8208 97.2439 23.3569L94.0553 21.6766Z" fill="#FF9F0A" fill-opacity="0.14"/>
<path d="M57.1101 9.5603H36.8426C35.551 9.5603 34.504 10.6073 34.504 11.8989C34.504 13.1904 35.551 14.2374 36.8426 14.2374H57.1101C58.4017 14.2374 59.4487 13.1904 59.4487 11.8989C59.4487 10.6073 58.4017 9.5603 57.1101 9.5603Z" fill="#7084FF" fill-opacity="0.25"/>
<path d="M71.1415 19.6941H36.8426C35.551 19.6941 34.504 20.7411 34.504 22.0327C34.504 23.3242 35.551 24.3712 36.8426 24.3712H71.1415C72.433 24.3712 73.4801 23.3242 73.4801 22.0327C73.4801 20.7411 72.433 19.6941 71.1415 19.6941Z" fill="#7084FF" fill-opacity="0.12"/>
<path d="M29.8269 16.9647C29.8269 10.7222 24.7664 5.66162 18.5239 5.66162C12.2814 5.66162 7.22083 10.7222 7.22083 16.9647C7.22083 23.2072 12.2814 28.2677 18.5239 28.2677C24.7664 28.2677 29.8269 23.2072 29.8269 16.9647Z" fill="#7084FF" fill-opacity="0.4"/>
</svg>
