<svg width="20" height="21" viewBox="0 0 20 21" fill="none" xmlns="http://www.w3.org/2000/svg">
<path fill-rule="evenodd" clip-rule="evenodd" d="M10.8889 0.157697L18.6667 3.31164C19.4444 3.6796 20 4.41552 20 5.25657V9.14643C20 14.6133 16.1667 19.4493 10.6111 20.9212C10.2222 21.0263 9.77778 21.0263 9.38889 20.9212C3.83333 19.4493 0 14.6133 0 9.14643V5.25657C0 4.41552 0.555556 3.6796 1.33333 3.31164L9.11111 0.157697C9.72222 -0.0525657 10.3333 -0.0525657 10.8889 0.157697ZM14.3933 8.86741C14.7659 8.48506 14.7673 7.87583 14.3965 7.49174C14.0089 7.09028 13.3659 7.08934 12.9771 7.48968L8.73077 11.8621L7.35558 10.4542C6.97598 10.0656 6.35378 10.0564 5.96296 10.4338C5.56807 10.8151 5.55981 11.4452 5.94455 11.8366L8.04366 13.9726C8.1909 14.1689 8.48538 14.2671 8.73077 14.2671C8.97618 14.2671 9.22158 14.1689 9.4179 13.9726L14.3933 8.86741Z" fill="#7084FF"/>
</svg>
