<svg width="25" height="24" viewBox="0 0 25 24" fill="none" xmlns="http://www.w3.org/2000/svg">
<path fill-rule="evenodd" clip-rule="evenodd" d="M9.3696 1C4.88635 1 1.25195 4.6344 1.25195 9.11765V14.8824C1.25195 19.3656 4.88635 23 9.3696 23H15.1343C19.6176 23 23.252 19.3656 23.252 14.8824V9.11765C23.252 4.63439 19.6176 1 15.1343 1H9.3696ZM12.2477 5.58398C8.79717 5.58398 6 8.38115 6 11.8316C6 12.4198 6.47683 12.8967 7.06503 12.8967C7.65323 12.8967 8.13006 12.4198 8.13006 11.8316C8.13006 9.55755 9.97357 7.71404 12.2477 7.71404C14.5217 7.71404 16.3652 9.55755 16.3652 11.8316C16.3652 12.4198 16.8421 12.8967 17.4303 12.8967C18.0185 12.8967 18.4953 12.4198 18.4953 11.8316C18.4953 8.38115 15.6981 5.58398 12.2477 5.58398ZM6.88411 17.651C7.89664 17.651 8.71745 16.8302 8.71745 15.8177C8.71745 14.8052 7.89664 13.9844 6.88411 13.9844C5.87159 13.9844 5.05078 14.8052 5.05078 15.8177C5.05078 16.8302 5.87159 17.651 6.88411 17.651ZM19.7505 15.8177C19.7505 16.8302 18.9296 17.651 17.9171 17.651C16.9046 17.651 16.0838 16.8302 16.0838 15.8177C16.0838 14.8052 16.9046 13.9844 17.9171 13.9844C18.9296 13.9844 19.7505 14.8052 19.7505 15.8177Z" fill="#7084FF"/>
</svg>
