<svg width="17" height="18" viewBox="0 0 17 18" fill="none" xmlns="http://www.w3.org/2000/svg">
<path d="M6.55469 2.27148H13.9922C14.3209 2.27148 14.6362 2.40208 14.8687 2.63455C15.1012 2.86702 15.2318 3.18231 15.2318 3.51107V10.9486C15.2318 11.2773 15.1012 11.5926 14.8687 11.8251C14.6362 12.0576 14.3209 12.1882 13.9922 12.1882H6.55469C6.22593 12.1882 5.91064 12.0576 5.67817 11.8251C5.4457 11.5926 5.3151 11.2773 5.3151 10.9486V3.51107C5.3151 3.18231 5.4457 2.86702 5.67817 2.63455C5.91064 2.40208 6.22593 2.27148 6.55469 2.27148ZM6.55469 3.33398C6.50772 3.33398 6.46268 3.35264 6.42947 3.38585C6.39626 3.41906 6.3776 3.4641 6.3776 3.51107V10.9486C6.3776 10.9718 6.38219 10.9949 6.39108 11.0163C6.39998 11.0378 6.41303 11.0573 6.42947 11.0738C6.44592 11.0902 6.46544 11.1033 6.48692 11.1122C6.50841 11.1211 6.53143 11.1257 6.55469 11.1257H13.9922C14.0392 11.1257 14.0842 11.107 14.1174 11.0738C14.1506 11.0406 14.1693 10.9955 14.1693 10.9486V3.51107C14.1693 3.4641 14.1506 3.41906 14.1174 3.38585C14.0842 3.35264 14.0392 3.33398 13.9922 3.33398H6.55469ZM10.6276 13.2507C10.6276 13.1098 10.6836 12.9746 10.7832 12.875C10.8828 12.7754 11.018 12.7194 11.1589 12.7194C11.2998 12.7194 11.4349 12.7754 11.5345 12.875C11.6341 12.9746 11.6901 13.1098 11.6901 13.2507V14.4902C11.6901 14.819 11.5595 15.1343 11.327 15.3668C11.0946 15.5992 10.7793 15.7298 10.4505 15.7298H3.01302C2.68426 15.7298 2.36897 15.5992 2.1365 15.3668C1.90404 15.1343 1.77344 14.819 1.77344 14.4902V7.05273C1.77344 6.72398 1.90404 6.40868 2.1365 6.17622C2.36897 5.94375 2.68426 5.81315 3.01302 5.81315H4.2526C4.3935 5.81315 4.52863 5.86912 4.62826 5.96875C4.72788 6.06838 4.78385 6.20351 4.78385 6.3444C4.78385 6.4853 4.72788 6.62042 4.62826 6.72005C4.52863 6.81968 4.3935 6.87565 4.2526 6.87565H3.01302C2.96606 6.87565 2.92101 6.89431 2.8878 6.92752C2.85459 6.96073 2.83594 7.00577 2.83594 7.05273V14.4902C2.83594 14.5372 2.85459 14.5822 2.8878 14.6155C2.92101 14.6487 2.96606 14.6673 3.01302 14.6673H10.4505C10.4975 14.6673 10.5425 14.6487 10.5757 14.6155C10.6089 14.5822 10.6276 14.5372 10.6276 14.4902V13.2507Z" fill="#6A7587"/>
</svg>
