<svg width="22" height="22" viewBox="0 0 22 22" fill="none" xmlns="http://www.w3.org/2000/svg">
<path d="M19.5347 13.859C18.1065 13.859 17.0703 12.8088 17.0703 11.4226C17.0703 10.0364 18.1065 9.00024 19.5347 9.00024C20.9769 9.00024 21.999 10.0364 21.999 11.4226C21.999 12.8088 20.9769 13.859 19.5347 13.859Z" fill="#7084FF"/>
<path d="M11.0015 13.859C9.57326 13.859 8.53711 12.8088 8.53711 11.4226C8.53711 10.0364 9.57326 9.00024 11.0015 9.00024C12.4437 9.00024 13.4658 10.0364 13.4658 11.4226C13.4658 12.8088 12.4437 13.859 11.0015 13.859Z" fill="#7084FF"/>
<path d="M2.46436 13.859C1.03615 13.859 0 12.8088 0 11.4226C0 10.0364 1.03615 9.00024 2.46436 9.00024C3.90657 9.00024 4.92872 10.0364 4.92872 11.4226C4.92872 12.8088 3.90657 13.859 2.46436 13.859Z" fill="#7084FF"/>
</svg>
