<svg width="22" height="22" viewBox="0 0 22 22" fill="none" xmlns="http://www.w3.org/2000/svg">
<path fill-rule="evenodd" clip-rule="evenodd" d="M0.762049 10.8121L3.51866 3.57602C4.10953 2.025 5.59685 1 7.25661 1H15.117C16.8387 1 18.3672 2.10172 18.9117 3.73509L21.2947 10.8842C21.4307 11.2921 21.5 11.7192 21.5 12.1491V16C21.5 18.2091 19.7091 20 17.5 20H4.5C2.29086 20 0.5 18.2091 0.5 16V12.2361C0.5 11.7495 0.588804 11.2669 0.762049 10.8121ZM14.817 13.9328V12.8499H19.5337C20.0442 12.8499 20.458 12.4361 20.458 11.9256C20.458 11.4151 20.0442 11.0013 19.5337 11.0013H13.8342L13.6756 11.013C13.2089 11.0845 12.8527 11.4654 12.8527 11.9256L12.8514 13.2646H9.1841L9.1867 11.9256L9.1737 11.7748C9.097 11.3354 8.6914 11.0013 8.2039 11.0013L2.92505 11.0002C2.41419 11.0001 2 11.4142 2 11.925C2 12.4358 2.41407 12.8499 2.92485 12.8499H7.2224L7.2237 13.9328L7.2341 14.094C7.3173 14.6712 7.8438 15.1158 8.4795 15.1158H13.5625L13.7315 15.1028C14.3438 15.0248 14.817 14.5321 14.817 13.9328ZM7 5C6.44772 5 6 5.44772 6 6C6 6.55228 6.44772 7 7 7H15C15.5523 7 16 6.55228 16 6C16 5.44772 15.5523 5 15 5H7Z" fill="#7084FF"/>
</svg>
