<svg width="21" height="22" viewBox="0 0 21 22" fill="none" xmlns="http://www.w3.org/2000/svg">
<path d="M19.0154 0.874569L1.08223 6.39046C-0.165652 6.77437 -0.392607 8.44266 0.707535 9.14601L6.00598 12.5331C6.28151 12.7092 6.60614 12.7925 6.93242 12.7709C7.2587 12.7493 7.56951 12.6238 7.81941 12.413L14.4324 6.83259C14.7909 6.5301 15.2747 7.01349 14.9722 7.37235L9.39225 13.9866C9.18139 14.2364 9.05602 14.5472 9.03448 14.8734C9.01293 15.1997 9.09634 15.5242 9.27251 15.7996L12.6588 21.0974C13.3618 22.1972 15.0304 21.9702 15.4143 20.7227L20.9301 2.78971C21.2915 1.61403 20.1907 0.513131 19.0154 0.874569Z" fill="#7084FF"/>
</svg>
