<svg width="21" height="21" viewBox="0 0 21 21" fill="none" xmlns="http://www.w3.org/2000/svg">
<path d="M1.98463 0.0698819L19.9178 5.58577C21.1657 5.96969 21.3926 7.63797 20.2925 8.34132L14.994 11.7284C14.7185 11.9045 14.3939 11.9878 14.0676 11.9662C13.7413 11.9446 13.4305 11.8192 13.1806 11.6083L6.56758 6.0279C6.20909 5.72541 5.72534 6.2088 6.02782 6.56766L11.6077 13.1819C11.8186 13.4317 11.944 13.7425 11.9655 14.0687C11.9871 14.395 11.9037 14.7195 11.7275 14.995L8.34122 20.2927C7.63825 21.3925 5.96961 21.1656 5.5857 19.918L0.0698833 1.98502C-0.29155 0.809338 0.80933 -0.291556 1.98463 0.0698819Z" fill="#7084FF"/>
</svg>
