<svg width="25" height="24" viewBox="0 0 25 24" fill="none" xmlns="http://www.w3.org/2000/svg">
<path fill-rule="evenodd" clip-rule="evenodd" d="M9.90671 0.894531C5.42346 0.894531 1.78906 4.52893 1.78906 9.01218V14.9878C1.78906 19.4711 5.42346 23.1055 9.90671 23.1055H15.8824C20.3656 23.1055 24 19.4711 24 14.9878V9.01218C24 4.52893 20.3656 0.894531 15.8824 0.894531H9.90671ZM18.9841 9.96139C18.9841 10.3069 18.8569 10.6524 18.5865 10.8425C18.4275 10.9634 18.2367 11.0325 18.03 11.0325C17.9504 11.0498 17.8709 11.0498 17.7755 11.0498H8.20858C7.54068 11.0498 7 10.5488 7 9.94412C7 9.33945 7.54068 8.83844 8.20858 8.83844H15.8672L15.1834 7.87097C14.7859 7.31813 14.8654 6.55797 15.3266 6.19517C15.8036 5.83236 16.5033 5.98785 16.885 6.55797L18.7138 9.18396C18.8569 9.374 18.9364 9.59859 18.9523 9.82319C18.9841 9.85774 18.9841 9.90956 18.9841 9.96139ZM17.7914 16.1616H10.1328L10.8166 17.129C11.2141 17.6819 11.1346 18.442 10.6734 18.8048C10.1964 19.1676 9.49666 19.0121 9.11501 18.442L7.28624 15.816C7.15902 15.626 7.07951 15.4187 7.04771 15.2114V15.1941C7.04771 15.1682 7.04373 15.1423 7.03976 15.1163C7.03578 15.0904 7.03181 15.0645 7.03181 15.0386C7.03181 14.6931 7.15902 14.3648 7.42936 14.1575C7.58839 14.0366 7.77921 13.9675 7.98594 13.9675C8.06546 13.9502 8.14497 13.9502 8.24038 13.9502H17.8073C18.4752 13.9502 19 14.4512 19 15.0559C18.9841 15.6606 18.4434 16.1616 17.7914 16.1616Z" fill="#7084FF"/>
</svg>
