<svg width="128" height="128" viewBox="0 0 128 128" fill="none" xmlns="http://www.w3.org/2000/svg">
<path d="M100.947 64.75C100.061 63.4441 98.2197 61.8583 94.4432 61.8583H90.0372C90.1071 59.0599 89.9206 57.2176 89.9206 57.2176H28.8193C28.8193 57.2176 27.5605 68.9476 32.7824 78.159C36.0694 83.8958 38.0509 85.5515 40.8717 88.3966C45.6041 93.1538 51.2923 93.1538 51.2923 93.1538H67.3311C67.3311 93.1538 73.0192 93.1538 77.6817 88.5365C78.754 87.4404 79.7565 86.5309 80.7356 85.4582C96.821 84.5721 100.901 73.3318 101.39 71.8393C101.693 71.0231 102.812 67.5484 100.947 64.75ZM96.2848 69.9037L96.1916 70.1836C96.1683 70.2535 94.1634 76.9464 85.3048 79.2784C85.5146 78.9286 85.7244 78.5555 85.9575 78.159C87.9391 74.6377 88.9881 70.7666 89.5243 67.3152H94.4432C95.7486 67.3152 96.3081 67.6184 96.4247 67.7816C96.6811 68.1547 96.5413 69.2275 96.2848 69.9037ZM91.4755 97.1672H27.4019C23.5461 101.342 48.7023 104 48.7023 104H70.1705C70.1705 104 94.576 101.439 91.4755 97.1672ZM65.0698 52.2271C65.1397 52.4603 64.3704 52.7402 64.114 52.6469C56.3976 47.7963 58.2626 41.0335 63.2981 36.0896C67.1446 32.3351 70.012 30.4462 70.0353 24.4996C70.012 23.9632 71.1776 23.8933 71.3641 24.1265C80.8521 37.5821 59.5914 38.2817 65.0698 52.2271ZM51.1524 52.2271C51.2457 52.4603 50.4764 52.7402 50.2199 52.6469C42.5036 47.7963 44.3452 41.0335 49.404 36.0896C53.2272 32.3351 56.0946 30.4462 56.1179 24.4996C56.1179 23.9632 57.2835 23.8933 57.47 24.1265C66.9581 37.5821 45.674 38.2817 51.1524 52.2271Z" fill="white"/>
</svg>
