<svg width="28" height="28" viewBox="0 0 28 28" fill="none" xmlns="http://www.w3.org/2000/svg">
<path d="M8.35246 0.445351C12.1116 0.148595 15.8883 0.14858 19.6474 0.445351C23.8683 0.778599 27.2204 4.13162 27.5536 8.35258C27.8504 12.1117 27.8504 15.8884 27.5536 19.6475C27.2204 23.8684 23.8683 27.2205 19.6474 27.5537C15.8883 27.8505 12.1116 27.8505 8.35246 27.5537C4.1315 27.2205 0.778477 23.8684 0.445229 19.6475C0.148458 15.8884 0.148473 12.1117 0.445229 8.35258C0.778463 4.13161 4.13149 0.778585 8.35246 0.445351ZM16.8925 8.30473C16.5927 8.30473 16.3016 8.417 16.0849 8.62211C15.8677 8.82773 15.7421 9.11097 15.7421 9.40922C15.7424 9.70722 15.8678 9.98992 16.0849 10.1954C16.3016 10.4003 16.5928 10.5127 16.8925 10.5127H18.4843L14.6523 15.6133L11.914 13.0215L11.829 12.9493C11.6246 12.7916 11.3704 12.7061 11.1093 12.7061C10.8107 12.7061 10.5211 12.8179 10.3046 13.0215H10.3036L5.03507 18.0079C4.81727 18.2141 4.69135 18.4978 4.69132 18.7969C4.69144 19.096 4.81722 19.3798 5.03507 19.586C5.25243 19.7915 5.54411 19.9043 5.84464 19.9043C6.14517 19.9043 6.43689 19.7915 6.65421 19.586L11.1132 15.3653L13.8896 17.9932L13.8905 17.9942C14.107 18.1977 14.3968 18.3096 14.6952 18.3096C14.9937 18.3096 15.2834 18.1977 15.4999 17.9942L15.5165 17.9786L15.5312 17.96L19.9911 12.2286V13.4375C19.9912 13.7357 20.1167 14.0191 20.3339 14.2246C20.5506 14.4296 20.8418 14.542 21.1415 14.542C21.2911 14.542 21.4401 14.5138 21.579 14.459C21.7177 14.4042 21.8446 14.3233 21.9521 14.2207C22.0596 14.1179 22.1465 13.9947 22.205 13.8584C22.2488 13.7561 22.2757 13.6473 22.286 13.5371L22.2909 13.4268V9.40922C22.2909 9.11095 22.1653 8.82774 21.9482 8.62211C21.7315 8.41715 21.4411 8.30479 21.1415 8.30473H16.8925ZM11.1132 14.9532L6.44816 19.3682L6.38566 19.4219C6.38097 19.4255 6.37479 19.4272 6.37003 19.4307C6.39684 19.4108 6.42382 19.3903 6.44816 19.3672L11.1132 14.9522V14.9532ZM5.24113 19.3672C5.24544 19.3713 5.2504 19.375 5.2548 19.3789C5.25052 19.3751 5.24533 19.3722 5.24113 19.3682C5.22115 19.3493 5.20224 19.3291 5.18449 19.3086C5.20216 19.329 5.22125 19.3484 5.24113 19.3672ZM15.2323 17.8291C15.2266 17.8336 15.2197 17.8366 15.2138 17.8409C15.2198 17.8364 15.2264 17.8327 15.2323 17.8282L15.2948 17.7754L15.2323 17.8291ZM21.1415 14.2412C21.152 14.2412 21.1623 14.2397 21.1728 14.2393C21.1623 14.2397 21.152 14.2422 21.1415 14.2422L21.0575 14.2383C21.048 14.2374 21.0387 14.2346 21.0292 14.2334C21.0662 14.2381 21.1038 14.2412 21.1415 14.2412ZM21.745 14.0039L21.6835 14.0577C21.6765 14.0632 21.6683 14.067 21.661 14.0723C21.6904 14.0508 21.7188 14.028 21.745 14.003V14.0039ZM21.9286 13.7403L21.8935 13.8125C21.8927 13.8139 21.8913 13.815 21.8905 13.8164C21.9046 13.7915 21.9174 13.7656 21.9286 13.7393V13.7403ZM16.0585 9.25101C16.0479 9.30114 16.0422 9.35249 16.0419 9.40434C16.0421 9.37914 16.0432 9.35403 16.0458 9.32914L16.0585 9.25101Z" fill="currentColor"/>
</svg>
