<svg width="24" height="24" viewBox="0 0 24 24" fill="none" xmlns="http://www.w3.org/2000/svg">
<g id="Frame 1244831096">
<path id="Vector" d="M8.61391 11.189H2.67742C1.74698 11.189 1 10.442 1 9.51159V3.5751C1 2.65776 1.76008 1.89768 2.67742 1.89768H8.61391C9.54435 1.89768 10.2913 2.64466 10.2913 3.5751V9.51159C10.2913 10.442 9.54435 11.189 8.61391 11.189ZM8.61391 22.3412H2.67742C1.74698 22.3412 1 21.5943 1 20.6638V14.7273C1 13.7969 1.74698 13.0499 2.67742 13.0499H8.61391C9.54435 13.0499 10.2913 13.7969 10.2913 14.7273V20.6638C10.2913 21.5811 9.54435 22.3412 8.61391 22.3412ZM19.7661 22.3412H13.8296C12.8992 22.3412 12.1522 21.5943 12.1522 20.6638V14.7273C12.1522 13.7969 12.8992 13.0499 13.8296 13.0499H19.7661C20.6966 13.0499 21.4435 13.7969 21.4435 14.7273V20.6638C21.4435 21.5811 20.6835 22.3412 19.7661 22.3412ZM21.8498 5.37046L17.9708 1.49143C17.3155 0.836189 16.254 0.836189 15.5988 1.49143L11.7198 5.37046C11.0645 6.02571 11.0645 7.0872 11.7198 7.74244L15.5988 11.6215C16.254 12.2767 17.3155 12.2767 17.9708 11.6215L21.8498 7.74244C22.505 7.07409 22.505 6.0126 21.8498 5.37046ZM17.1321 9.82611C16.9486 10.0096 16.6341 10.0096 16.4506 9.82611L13.5151 6.89062C13.3317 6.70716 13.3317 6.39264 13.5151 6.20917L16.4506 3.27369C16.6341 3.09022 16.9486 3.09022 17.1321 3.27369L20.0675 6.20917C20.251 6.39264 20.251 6.70716 20.0675 6.89062L17.1321 9.82611Z" fill="#7084FF"/>
</g>
</svg>
