<svg xmlns="http://www.w3.org/2000/svg" viewBox="0 0 28 28" fill="none">
<rect width="28" height="28" rx="10.03" fill="currentColor"/>
<g transform="translate(5.43, 4.8)">
<path d="M15.2957 3.47195L9.44495 0.961351C9.02704 0.793978 8.56734 0.793978 8.10764 0.961351L2.25689 3.47195C1.67182 3.76486 1.25391 4.35066 1.25391 5.02016V8.11656C1.25391 12.4683 4.13749 16.3179 8.31659 17.4895C8.60913 17.5732 8.94346 17.5732 9.236 17.4895C13.4151 16.3179 16.2987 12.4683 16.2987 8.11656V5.02016C16.2987 4.35066 15.8808 3.76486 15.2957 3.47195Z" stroke="white" stroke-width="1.67164" stroke-linecap="round" stroke-linejoin="round" fill="none"/>
<path d="M6.22189 10.4244L5.08354 6.64063L8.86731 5.50228" stroke="white" stroke-width="1.75522" stroke-linecap="round" stroke-linejoin="round" fill="none"/>
<path d="M12.2191 12.6893C11.1659 9.8807 10.4638 8.12536 5.54883 7.07215" stroke="white" stroke-width="1.75522" stroke-linecap="round" stroke-linejoin="round" fill="none"/>
</g>
</svg>