<svg xmlns="http://www.w3.org/2000/svg" width="28" height="28" viewBox="0 0 28 28" fill="none">
  <path fill-rule="evenodd" clip-rule="evenodd" d="M27.3956 16.2327C27.5175 16.2327 27.6372 16.2465 27.8077 16.2571C27.7338 16.624 27.6909 16.9592 27.6007 17.2815C26.0279 22.9092 22.4046 26.3569 16.8663 27.6643C14.2378 28.2846 11.6295 28.0303 9.08603 27.0959C8.81043 26.9946 8.76359 26.8848 8.83603 26.6057C9.18722 25.2575 9.39571 23.8556 9.87705 22.5588C11.2931 18.7509 14.9372 16.2711 19.004 16.2385C21.8011 16.2166 24.5985 16.2327 27.3956 16.2327ZM1.35654 16.2415C2.25125 16.2884 3.17086 16.234 4.03525 16.4299C7.0793 17.1186 8.93124 20.1904 8.25986 23.303C8.05779 24.2375 7.85309 25.1703 7.64658 26.1018C7.62514 26.1994 7.58608 26.2898 7.55576 26.3821C4.21505 25.1146 0.0741006 19.4124 0.225681 16.2415C0.599794 16.2415 0.979469 16.2248 1.35654 16.2415ZM12.9181 2.23267C12.552 3.89041 12.1975 5.55061 11.8175 7.20532C10.9058 11.1821 7.71739 14.2296 3.77549 14.8069C2.55255 14.9862 1.30123 14.9633 0.0694308 15.0344C-0.72323 7.60002 5.36765 0.212355 13.4044 0.0275901C13.241 0.76891 13.08 1.50118 12.9181 2.23267ZM14.9825 0.00317603C20.2325 0.532806 24.1646 3.11484 26.6114 7.92993C27.6665 10.0053 28.066 12.251 27.9913 14.5881C27.9809 14.9152 27.863 14.9771 27.5743 14.9749C26.0333 14.9612 24.4925 14.968 22.9522 14.968C21.4734 14.968 19.9945 14.9845 18.5157 14.9641C15.7992 14.9262 13.4875 12.9967 12.9698 10.2678C12.8356 9.55083 12.8357 8.81392 12.9698 8.09693C13.4771 5.49191 14.0695 2.90336 14.627 0.30591C14.6707 0.100957 14.724 -0.0216535 14.9825 0.00317603Z" fill="currentColor"/>
</svg>