<svg width="25" height="24" viewBox="0 0 25 24" fill="none" xmlns="http://www.w3.org/2000/svg">
<g id="Frame 1244831090">
<path id="Vector" d="M21.5139 1.07654L1.8728 7.11775C0.506071 7.53823 0.257501 9.3654 1.46242 10.1357L7.26548 13.8454C7.56725 14.0382 7.9228 14.1295 8.28015 14.1058C8.63751 14.0822 8.97792 13.9448 9.25161 13.7138L16.4944 7.60198C16.8871 7.27069 17.4169 7.80012 17.0856 8.19315L10.9743 15.4373C10.7433 15.7109 10.606 16.0513 10.5824 16.4086C10.5588 16.7659 10.6502 17.1214 10.8431 17.423L14.5519 23.2254C15.3218 24.4299 17.1494 24.1813 17.5698 22.815L23.611 3.17407C24.0068 1.88642 22.8011 0.680677 21.5139 1.07654Z" fill="#7084FF"/>
</g>
</svg>
