<svg width="28" height="28" viewBox="0 0 28 28" fill="none" xmlns="http://www.w3.org/2000/svg">
<path fill-rule="evenodd" clip-rule="evenodd" d="M8.43594 1.51958C12.1371 1.17414 15.8627 1.17414 19.5639 1.51958C22.765 1.81849 25.378 4.20745 25.9613 7.36919L26.9994 13L27.4262 18.6768C27.7291 22.7056 24.7045 26.2154 20.6752 26.5108C16.2308 26.8365 11.7681 26.8366 7.32363 26.5108C3.29449 26.2152 0.269803 22.7054 0.572655 18.6768L0.999413 13L2.03848 7.36919C2.6218 4.20741 5.23469 1.81841 8.43594 1.51958ZM19.5971 7.50298C18.8067 7.50298 18.1937 8.17421 18.1937 8.96684C18.1937 10.1922 17.7262 11.083 16.9857 11.6729C16.2377 12.2686 15.1866 12.5752 13.9994 12.5752C12.8123 12.5752 11.762 12.2685 11.0141 11.6729C10.2735 11.083 9.8061 10.1923 9.80605 8.96684C9.80605 8.17421 9.19309 7.50298 8.40273 7.50298C7.61248 7.5031 6.99941 8.17428 6.99941 8.96684C6.99946 11.0005 7.78303 12.6409 9.05996 13.7706C10.3338 14.8974 12.0835 15.5029 13.9994 15.503C15.9155 15.503 17.666 14.8974 18.9398 13.7706C20.2167 12.6409 20.9994 11.0004 20.9994 8.96684C20.9994 8.17436 20.3872 7.50323 19.5971 7.50298Z" fill="currentColor"/>
</svg>
