<svg width="24" height="24" viewBox="0 0 24 24" fill="none" xmlns="http://www.w3.org/2000/svg">
<g id="Frame 1244831092">
<path id="Subtract" fill-rule="evenodd" clip-rule="evenodd" d="M8.11765 0C3.63439 0 0 3.6344 0 8.11765V15.8824C0 20.3656 3.6344 24 8.11765 24H15.8824C20.3656 24 24 20.3656 24 15.8824V8.11765C24 3.63439 20.3656 0 15.8824 0H8.11765ZM18.9214 9.42397C18.9214 9.83301 18.7708 10.2421 18.4508 10.467C18.2625 10.6102 18.0366 10.692 17.7919 10.692C17.6978 10.7125 17.6036 10.7125 17.4907 10.7125H6.16512C5.37444 10.7125 4.73438 10.1193 4.73438 9.40352C4.73438 8.6877 5.37444 8.09458 6.16512 8.09458H15.2316L14.4221 6.94927C13.9515 6.2948 14.0456 5.39491 14.5916 4.96542C15.1563 4.53592 15.9847 4.71999 16.4365 5.39491L18.6014 8.50363C18.7708 8.7286 18.865 8.99448 18.8838 9.26035C18.9214 9.30126 18.9214 9.36261 18.9214 9.42397ZM17.5095 15.58H8.443L9.2525 16.7254C9.72314 17.3798 9.62901 18.2797 9.08307 18.7092C8.5183 19.1387 7.68998 18.9546 7.23817 18.2797L5.07323 15.171C4.92263 14.946 4.8285 14.7006 4.79085 14.4552V14.4347C4.79085 14.4041 4.78615 14.3734 4.78144 14.3427L4.78144 14.3427C4.77673 14.312 4.77203 14.2813 4.77203 14.2507C4.77203 13.8416 4.92263 13.453 5.24266 13.2076C5.43092 13.0644 5.65683 12.9826 5.90156 12.9826C5.99569 12.9622 6.08981 12.9622 6.20277 12.9622H17.5283C18.319 12.9622 18.9403 13.5553 18.9403 14.2711C18.9214 14.9869 18.2814 15.58 17.5095 15.58Z" fill="#7084FF"/>
</g>
</svg>
