<svg width="24" height="24" viewBox="0 0 24 24" fill="none" xmlns="http://www.w3.org/2000/svg">
<g id="Frame 1244831091">
<path id="Union" fill-rule="evenodd" clip-rule="evenodd" d="M6.90856 7.39335L11.1893 11.6668C11.6361 12.1099 12.3538 12.1099 12.8005 11.6668L17.0813 7.39335C17.8027 6.67196 17.2937 5.4379 16.2757 5.4379C15.1735 5.4379 14.2799 4.54438 14.2799 3.44218V1.14251C14.2799 0.512664 13.7673 0 13.1374 0H10.8524C10.2226 0 9.7099 0.512664 9.7099 1.14251V3.44217C9.7099 4.54438 8.81638 5.4379 7.71417 5.4379C6.69617 5.4379 6.18716 6.67196 6.90856 7.39335ZM24 21.1436V12.5711C24 10.9928 22.722 9.71484 20.7373 9.71484H18.6427C17.8773 9.71484 17.1779 10.2129 16.9948 10.9526C16.4382 13.1936 14.4205 14.8561 12.0037 14.8561C9.58682 14.8561 7.56179 13.1936 7.00885 10.9526C6.82576 10.2129 6.12267 9.71484 5.361 9.71484H2.85627C1.278 9.71484 0 10.9928 0 12.5711V21.1436C0 22.7219 1.278 23.9999 2.85627 23.9999H21.1437C22.722 23.9999 24 22.7219 24 21.1436Z" fill="#7084FF"/>
</g>
</svg>
