<svg width="21" height="25" viewBox="0 0 21 25" fill="none" xmlns="http://www.w3.org/2000/svg">
<path fill-rule="evenodd" clip-rule="evenodd" d="M12.4807 21.0898L14.5901 21.7348L12.4807 21.0898Z" fill="#AAAAAA"/>
<path fill-rule="evenodd" clip-rule="evenodd" d="M16.1633 7.93995C15.4184 5.89348 13.6965 4.73165 12.042 4.18233L14.2479 4.73379C15.8904 5.23595 17.5274 6.538 18.2724 8.5839L18.2731 8.5841C19.7627 12.677 18.1138 18.0704 14.5901 20.6306L14.5898 20.6305C12.7928 21.936 10.9496 22.3668 9.28465 21.8207C9.28465 21.8207 7.63024 21.2692 7.07877 20.7177C6.87146 20.5104 7.32944 20.54 8.07729 20.5883C9.31879 20.6684 11.3591 20.8001 12.4806 19.9853L12.4809 19.9854C16.0042 17.4253 17.6529 12.0328 16.1639 7.94016L16.1633 7.93995Z" fill="#FEC27C"/>
<path d="M12.042 4.18233L12.0051 4.35787L12.0699 4.00415L12.042 4.18233ZM16.1633 7.93995L16.1292 8.11641L16.0588 8.0949L16.029 8.01311L16.1633 7.93995ZM14.2479 4.73379L14.2758 4.55545L14.282 4.55734L14.2479 4.73379ZM18.2724 8.5839L18.2383 8.76036L18.1679 8.73884L18.1382 8.65709L18.2724 8.5839ZM18.2731 8.5841L18.3071 8.40765L18.3775 8.42916L18.4073 8.51094L18.2731 8.5841ZM14.5901 20.6306L14.6657 20.7875L14.6144 20.8248L14.5562 20.8071L14.5901 20.6306ZM14.5898 20.6305L14.5142 20.4736L14.5655 20.4363L14.6237 20.454L14.5898 20.6305ZM9.28465 21.8207L9.24815 21.9964L9.24757 21.9962L9.28465 21.8207ZM7.07877 20.7177L6.98677 20.8586L7.07877 20.7177ZM8.07729 20.5883L8.07104 20.7698L8.07729 20.5883ZM12.4806 19.9853L12.405 19.8284L12.4564 19.791L12.5147 19.8088L12.4806 19.9853ZM12.4809 19.9854L12.5565 20.1423L12.5051 20.1797L12.4469 20.1619L12.4809 19.9854ZM16.1639 7.94016L16.198 7.7637L16.2684 7.78522L16.2982 7.86702L16.1639 7.94016ZM12.042 4.18233L12.079 4.00679C13.7512 4.56201 15.5257 5.74631 16.2975 7.86679L16.1633 7.93995L16.029 8.01311C15.3111 6.04065 13.6417 4.90128 12.0051 4.35787L12.042 4.18233ZM14.2479 4.73379L14.2201 4.91197L12.0142 4.36051L12.042 4.18233L12.0699 4.00415L14.2758 4.55561L14.2479 4.73379ZM18.2724 8.5839L18.1382 8.65709C17.4171 6.67694 15.8258 5.40307 14.2139 4.91025L14.2479 4.73379L14.282 4.55734C15.955 5.06883 17.6376 6.39906 18.4066 8.51071L18.2724 8.5839ZM18.2724 8.5839L18.3065 8.40744L18.3071 8.40765L18.2731 8.5841L18.239 8.76056L18.2383 8.76036L18.2724 8.5839ZM18.2731 8.5841L18.4073 8.51094C19.9336 12.7044 18.2406 18.1902 14.6657 20.7875L14.5901 20.6306L14.5144 20.4737C17.987 17.9507 19.5919 12.6496 18.1388 8.65726L18.2731 8.5841ZM14.5901 20.6306L14.5562 20.8071L14.5559 20.807L14.5898 20.6305L14.6237 20.454L14.624 20.4541L14.5901 20.6306ZM9.28465 21.8207L9.32116 21.645C10.939 22.1756 12.7419 21.7611 14.5142 20.4736L14.5898 20.6305L14.6654 20.7874C12.8437 22.1108 10.9603 22.5579 9.24815 21.9964L9.28465 21.8207ZM7.07877 20.7177L7.17078 20.5769C7.2933 20.6994 7.48584 20.8295 7.71542 20.957C7.94261 21.0833 8.19663 21.2019 8.43558 21.3043C8.67423 21.4066 8.89609 21.4919 9.05837 21.5517C9.13945 21.5816 9.20553 21.605 9.25124 21.621C9.27409 21.6289 9.29183 21.635 9.30381 21.6391C9.3098 21.6412 9.31434 21.6427 9.31736 21.6437C9.31886 21.6442 9.31999 21.6446 9.32072 21.6448C9.32109 21.645 9.32136 21.645 9.32153 21.6451C9.32161 21.6451 9.32167 21.6452 9.32171 21.6452C9.32172 21.6452 9.32173 21.6452 9.32174 21.6452C9.32174 21.6452 9.32173 21.6452 9.28465 21.8207C9.24757 21.9962 9.24756 21.9962 9.24753 21.9962C9.24752 21.9961 9.24749 21.9961 9.24745 21.9961C9.24739 21.9961 9.24729 21.9961 9.24718 21.996C9.24695 21.996 9.24661 21.9958 9.24618 21.9957C9.24532 21.9954 9.24407 21.995 9.24243 21.9944C9.23915 21.9933 9.23433 21.9917 9.22807 21.9896C9.21554 21.9853 9.19721 21.979 9.17374 21.9708C9.12682 21.9545 9.05933 21.9305 8.9767 21.9001C8.81154 21.8392 8.58533 21.7522 8.34145 21.6477C8.09786 21.5433 7.83488 21.4207 7.59676 21.2884C7.36104 21.1574 7.13998 21.0118 6.98677 20.8586L7.07877 20.7177ZM8.07729 20.5883L8.07104 20.7698C7.69266 20.7454 7.40147 20.7269 7.22946 20.7387C7.1873 20.7416 7.15721 20.746 7.13729 20.7511C7.1124 20.7574 7.12009 20.7605 7.13587 20.7446C7.1464 20.734 7.16327 20.7119 7.17156 20.6758C7.18006 20.6388 7.17502 20.6068 7.16899 20.5873C7.1601 20.5585 7.14898 20.5551 7.17078 20.5769L7.07877 20.7177L6.98677 20.8586C6.95674 20.8285 6.91458 20.7807 6.89397 20.7141C6.88208 20.6756 6.87603 20.6262 6.88815 20.5735C6.90005 20.5216 6.92519 20.4853 6.94846 20.4619C6.9897 20.4204 7.04072 20.4036 7.07555 20.3948C7.11534 20.3847 7.16136 20.379 7.21024 20.3756C7.40234 20.3624 7.71407 20.3828 8.08354 20.4067L8.07729 20.5883ZM12.4806 19.9853L12.5562 20.1422C11.9645 20.5722 11.1449 20.7446 10.3341 20.8039C9.51923 20.8635 8.69083 20.8098 8.07104 20.7698L8.07729 20.5883L8.08354 20.4067C8.70525 20.4468 9.51776 20.4991 10.3138 20.4409C11.1139 20.3824 11.8753 20.2133 12.405 19.8284L12.4806 19.9853ZM12.4809 19.9854L12.4469 20.1619L12.4466 20.1618L12.4806 19.9853L12.5147 19.8088L12.515 19.8089L12.4809 19.9854ZM12.4809 19.9854L12.4053 19.8285C15.8774 17.3056 17.4821 12.0053 16.0297 8.01329L16.1639 7.94016L16.2982 7.86702C17.8238 12.0602 16.1309 17.5451 12.5565 20.1423L12.4809 19.9854ZM16.1633 7.93995L16.1973 7.76349L16.198 7.7637L16.1639 7.94016L16.1299 8.11662L16.1292 8.11641L16.1633 7.93995Z" fill="#FD9E2E"/>
<path fill-rule="evenodd" clip-rule="evenodd" d="M16.1633 7.94219C15.4184 5.89572 13.6965 4.73389 12.0421 4.18457L14.2479 4.73603C15.8907 5.23827 17.5279 6.54066 18.2728 8.58713L16.1633 7.94219Z" fill="white" stroke="#FDB82E" stroke-width="0.330882"/>
<path fill-rule="evenodd" clip-rule="evenodd" d="M7.07879 20.7207C6.52732 20.1692 10.6836 21.2939 12.4807 19.9883L14.5901 20.6332C12.7931 21.9389 10.9497 22.3698 9.28467 21.8236C9.28467 21.8236 7.63026 21.2722 7.07879 20.7207Z" fill="#FDB82E" stroke="#FDB82E" stroke-width="0.330882"/>
<path fill-rule="evenodd" clip-rule="evenodd" d="M12.4806 19.9889C16.0043 17.4287 17.6533 12.0353 16.1636 7.94238L18.2731 8.58732C19.7628 12.6802 18.1138 18.0736 14.5901 20.6338L12.4806 19.9889Z" fill="#FFEBB6" stroke="#FDB82E" stroke-width="0.330882"/>
<path fill-rule="evenodd" clip-rule="evenodd" d="M16.1633 9.04297L18.2728 9.68791L16.1633 9.04297Z" fill="#AAAAAA"/>
<path d="M7.14196 5.32002C3.69222 7.82652 2.07832 13.1071 3.53675 17.1141C4.99524 21.121 8.97381 22.3374 12.4236 19.8311C15.8734 17.3247 17.4882 12.0444 16.0299 8.03733C14.5714 4.03026 10.5918 2.81356 7.14196 5.32002Z" fill="url(#paint0_linear_46380_14313)"/>
<path d="M7.14196 5.32002C3.69222 7.82652 2.07832 13.1071 3.53675 17.1141C4.99524 21.121 8.97381 22.3374 12.4236 19.8311C15.8734 17.3247 17.4882 12.0444 16.0299 8.03733C14.5714 4.03026 10.5918 2.81356 7.14196 5.32002Z" stroke="url(#paint1_linear_46380_14313)" stroke-width="0.330882"/>
<path d="M15.2395 8.61158C13.9656 5.11166 10.4902 4.04913 7.47701 6.23836C4.4638 8.42759 3.05378 13.0396 4.32764 16.5395C5.60151 20.0394 9.07688 21.1019 12.0901 18.9127C15.1033 16.7235 16.5133 12.1115 15.2395 8.61158Z" fill="url(#paint2_linear_46380_14313)"/>
<path d="M10.061 15.4384C10.6483 15.2628 10.9607 14.8227 10.9984 14.1179C11.0126 13.8525 10.9586 13.6501 10.8365 13.5107C10.7182 13.3665 10.5562 13.2512 10.3507 13.1649L10.061 15.4384ZM9.92776 8.79643C9.76419 8.84297 9.62438 8.90333 9.50836 8.97749C9.39585 9.05134 9.30208 9.13489 9.22706 9.22815C9.15555 9.32109 9.10102 9.4239 9.06348 9.53657C9.02618 9.64466 9.00435 9.7582 8.99799 9.87718C8.98355 10.1472 9.03866 10.3609 9.16331 10.5182C9.28822 10.671 9.45317 10.7951 9.65818 10.8906L9.92776 8.79643ZM10.6021 11.2159C10.7675 11.2648 10.9326 11.3206 11.0974 11.3832C11.2624 11.4413 11.4196 11.5138 11.569 11.6006C11.7222 11.6825 11.8622 11.7815 11.9891 11.8976C12.1195 12.0135 12.2293 12.1539 12.3185 12.319C12.4113 12.4838 12.4798 12.6757 12.5241 12.8949C12.5684 13.1141 12.5827 13.3702 12.5671 13.663C12.5438 14.0978 12.4656 14.5124 12.3324 14.9069C12.1995 15.2969 12.016 15.6503 11.782 15.9673C11.5481 16.2798 11.2679 16.544 10.9411 16.76C10.6147 16.9715 10.2462 17.1161 9.83584 17.1938L9.72698 18.0507C9.71309 18.1795 9.66299 18.2978 9.57667 18.4058C9.49363 18.518 9.39053 18.5796 9.26737 18.5906L8.66566 18.6446L8.84685 17.221C8.44685 17.1703 8.06786 17.054 7.70989 16.872C7.35569 16.6852 7.06011 16.4498 6.82316 16.1659L7.38089 15.1663C7.42727 15.0847 7.487 15.0156 7.56007 14.959C7.6369 14.8974 7.71578 14.863 7.79671 14.8558C7.88116 14.8482 7.96578 14.8702 8.05057 14.9218C8.1356 14.9689 8.22694 15.029 8.32458 15.1022C8.42598 15.1706 8.53593 15.2427 8.65444 15.3186C8.77671 15.3896 8.91555 15.4455 9.07096 15.4862L9.40466 12.8808C9.1562 12.812 8.9086 12.7271 8.66186 12.6263C8.41863 12.5251 8.20237 12.3783 8.01305 12.1857C7.82374 11.9932 7.67444 11.7402 7.56514 11.4266C7.45936 11.1127 7.41957 10.7109 7.44575 10.2213C7.46509 9.85974 7.54024 9.50232 7.67119 9.149C7.80215 8.79568 7.98229 8.47211 8.21162 8.17829C8.44447 7.88416 8.72389 7.63595 9.04988 7.43366C9.37612 7.2268 9.74406 7.09134 10.1537 7.02729L10.2525 6.26013C10.2664 6.13136 10.3147 6.01317 10.3975 5.90555C10.4841 5.79304 10.589 5.73127 10.7121 5.72023L11.3138 5.66629L11.1416 7.02072C11.5167 7.07818 11.8343 7.19774 12.0942 7.37938C12.3576 7.56072 12.5781 7.75956 12.7557 7.97592L12.3138 8.77384C12.2478 8.89361 12.1817 8.98379 12.1154 9.04438C12.0529 9.10009 11.9795 9.13172 11.895 9.13929C11.8422 9.14402 11.7797 9.13368 11.7076 9.10827C11.6391 9.07797 11.5639 9.04372 11.4819 9.00553C11.4002 8.96276 11.3114 8.92062 11.2155 8.87911C11.1235 8.83271 11.024 8.79381 10.9171 8.7624L10.6021 11.2159Z" fill="#EE970A"/>
<defs>
<linearGradient id="paint0_linear_46380_14313" x1="12.4804" y1="19.9867" x2="3.56835" y2="7.7203" gradientUnits="userSpaceOnUse">
<stop stop-color="#FFBA3B"/>
<stop offset="1" stop-color="#FFD489"/>
</linearGradient>
<linearGradient id="paint1_linear_46380_14313" x1="12.4804" y1="19.9867" x2="3.56835" y2="7.7203" gradientUnits="userSpaceOnUse">
<stop stop-color="white"/>
<stop offset="1" stop-color="#FDB82E"/>
</linearGradient>
<linearGradient id="paint2_linear_46380_14313" x1="7.0792" y1="5.82881" x2="15.1722" y2="16.7435" gradientUnits="userSpaceOnUse">
<stop stop-color="#FFF2D1"/>
<stop offset="1" stop-color="#FFE8A9"/>
</linearGradient>
</defs>
</svg>
