<svg xmlns="http://www.w3.org/2000/svg" viewBox="0 0 28 28" fill="none">
<rect width="28" height="28" rx="10.03" fill="currentColor"/>
<path d="M14 21.7313C12.0242 21.7313 10.3026 21.0763 8.83503 19.7663C7.36751 18.4563 6.52637 16.8205 6.31161 14.859H8.07264C8.27308 16.348 8.93525 17.5793 10.0592 18.5529C11.1831 19.5265 12.4967 20.0133 14 20.0133C15.6751 20.0133 17.0961 19.4298 18.263 18.263C19.4298 17.0961 20.0133 15.6751 20.0133 14C20.0133 12.3249 19.4298 10.9039 18.263 9.73702C17.0961 8.57016 15.6751 7.98673 14 7.98673C13.0121 7.98673 12.0886 8.21581 11.2296 8.67396C10.3706 9.13212 9.64754 9.76208 9.06053 10.5638H11.4229V12.2819H6.26866V7.12769H7.98673V9.14643C8.71692 8.23013 9.60817 7.52142 10.6605 7.02032C11.7128 6.51921 12.826 6.26866 14 6.26866C15.0738 6.26866 16.0796 6.47268 17.0174 6.88072C17.9552 7.28876 18.7712 7.83998 19.4656 8.53437C20.16 9.22876 20.7112 10.0448 21.1193 10.9826C21.5273 11.9204 21.7313 12.9262 21.7313 14C21.7313 15.0738 21.5273 16.0796 21.1193 17.0174C20.7112 17.9552 20.16 18.7712 19.4656 19.4656C18.7712 20.16 17.9552 20.7112 17.0174 21.1193C16.0796 21.5273 15.0738 21.7313 14 21.7313V21.7313M16.4053 17.608L13.141 14.3436V9.70481H14.859V13.6564L17.608 16.4053L16.4053 17.608V17.608" fill="white"/>
</svg>