<svg xmlns="http://www.w3.org/2000/svg" viewBox="0 0 28 28" fill="none">
<rect width="28" height="28" rx="10.18" fill="currentColor"/>
<path d="M13.2222 22V18C13.2222 17.2533 13.112 16.7 12.8917 16.34C12.6713 15.98 12.3796 15.6267 12.0167 15.28L13.125 14.14C13.2806 14.2867 13.4296 14.4433 13.5722 14.61C13.7148 14.7767 13.8574 14.9533 14 15.14C14.1815 14.8867 14.3662 14.6633 14.5542 14.47C14.7421 14.2767 14.9333 14.0867 15.1278 13.9C15.6204 13.4333 16.0676 12.8933 16.4694 12.28C16.8713 11.6667 17.0852 10.5933 17.1111 9.06L15.8861 10.32L14.7778 9.2L17.8889 6L21 9.2L19.9111 10.32L18.6667 9.06C18.6407 10.9667 18.3556 12.3233 17.8111 13.13C17.2667 13.9367 16.7222 14.5933 16.1778 15.1C15.763 15.4867 15.4259 15.8633 15.1667 16.23C14.9074 16.5967 14.7778 17.1867 14.7778 18V22H13.2222V22M9.48889 10.94C9.43704 10.6733 9.40139 10.38 9.38194 10.06C9.3625 9.74 9.3463 9.40667 9.33333 9.06L8.08889 10.32L7 9.2L10.1111 6L13.2222 9.2L12.1139 10.32L10.8889 9.08C10.8889 9.36 10.9019 9.62333 10.9278 9.87C10.9537 10.1167 10.9796 10.3467 11.0056 10.56L9.48889 10.94V10.94M11.1611 14.46C10.9019 14.18 10.6523 13.8533 10.4125 13.48C10.1727 13.1067 9.96204 12.6467 9.78056 12.1L11.2778 11.72C11.4074 12.08 11.5565 12.3867 11.725 12.64C11.8935 12.8933 12.075 13.12 12.2694 13.32L11.1611 14.46V14.46" fill="white"/>
</svg>