<svg width="28" height="28" viewBox="0 0 28 28" fill="none" xmlns="http://www.w3.org/2000/svg">
<path d="M0 10.0299C0 4.49052 4.49052 0 10.0299 0H17.9701C23.5095 0 28 4.49052 28 10.0299V17.9701C28 23.5095 23.5095 28 17.9701 28H10.0299C4.49052 28 0 23.5095 0 17.9701V10.0299Z" fill="currentColor"/>
<path d="M17.0342 13.3347C17.2223 13.6595 17.3807 14.0023 17.5107 14.3591L17.5283 14.406L17.4805 14.4226L16.2734 14.863L16.2266 14.8796L16.209 14.8328C16.1066 14.552 15.9826 14.2826 15.835 14.0281L15.8096 13.9851L15.8525 13.9597L16.9658 13.3171L17.0098 13.2917L17.0342 13.3347Z" fill="#F7FAFC" stroke="white" stroke-width="0.1"/>
<path d="M15.5914 11.6099C15.88 11.8522 16.1469 12.1201 16.3893 12.4087L16.4215 12.4468L16.3834 12.479L15.3981 13.3052L15.36 13.3374L15.3278 13.2993C15.1371 13.0726 14.927 12.8625 14.6998 12.6714L14.6617 12.6392L14.694 12.6011L15.5201 11.6157L15.5524 11.5776L15.5914 11.6099Z" fill="#F7FAFC" stroke="white" stroke-width="0.1"/>
<path d="M13.6412 10.4854C13.998 10.6154 14.3401 10.7743 14.6647 10.9619L14.7076 10.9863L14.6832 11.0303L14.0406 12.1436L14.0153 12.1865L13.9713 12.1611C13.7168 12.0136 13.4473 11.8895 13.1666 11.7871L13.1198 11.7695L13.1373 11.7227L13.5768 10.5146L13.5944 10.4678L13.6412 10.4854Z" fill="#F7FAFC" stroke="white" stroke-width="0.1"/>
<path d="M11.7888 13.1682C11.8912 13.4489 12.0153 13.7184 12.1628 13.9729L12.1882 14.0168L12.1453 14.0422L11.032 14.6848L10.988 14.7092L10.9636 14.6663C10.7756 14.3416 10.6171 13.9995 10.4871 13.6428L10.4695 13.5959L10.5164 13.5784L11.7244 13.1389L11.7712 13.1213L11.7888 13.1682Z" fill="#F7FAFC" stroke="white" stroke-width="0.1"/>
<path d="M12.6698 14.7014C12.8604 14.9281 13.0706 15.1383 13.2977 15.3293L13.3358 15.3616L13.3036 15.3997L12.4774 16.385L12.4452 16.4231L12.4071 16.3909C12.1185 16.1485 11.8507 15.8816 11.6083 15.593L11.576 15.554L11.6141 15.5217L12.5995 14.6956L12.6376 14.6633L12.6698 14.7014Z" fill="#F7FAFC" stroke="white" stroke-width="0.1"/>
<path d="M14.0264 15.8367C14.2809 15.9843 14.5502 16.1083 14.8311 16.2107L14.8779 16.2283L14.8613 16.2751L14.4209 17.4822L14.4043 17.53L14.3574 17.5125C14.0006 17.3824 13.6577 17.2235 13.333 17.0359L13.29 17.0115L13.3154 16.9675L13.958 15.8542L13.9834 15.8113L14.0264 15.8367Z" fill="#F7FAFC" stroke="white" stroke-width="0.1"/>
<path d="M16.5715 4.94434C20.1461 4.94441 23.0539 7.85223 23.054 11.4268C23.054 14.572 20.8268 17.2187 17.7913 17.793C17.217 20.8285 14.5703 23.0557 11.425 23.0557C7.85052 23.0556 4.9427 20.1478 4.94263 16.5732C4.94263 13.4282 7.16924 10.7807 10.2043 10.2061C10.7789 7.17095 13.4265 4.94434 16.5715 4.94434ZM16.5715 6.33105C14.2277 6.33105 12.2408 7.9052 11.6555 10.1006C11.959 10.1124 12.2576 10.143 12.55 10.1943L12.5999 10.2031L12.5911 10.252L12.3674 11.5176L12.3586 11.5674L12.3098 11.5586C12.0378 11.5112 11.7597 11.4808 11.4758 11.4775C11.4791 11.7613 11.5091 12.0391 11.5569 12.3105L11.5657 12.3604L11.5168 12.3682L10.2502 12.5918L10.2014 12.6006L10.1926 12.5518C10.1413 12.2599 10.1104 11.9607 10.0989 11.6572C7.90333 12.2431 6.32935 14.2296 6.32935 16.5732C6.32942 19.3832 8.61507 21.6689 11.425 21.6689C13.7691 21.6689 15.7551 20.0942 16.3401 17.8984C16.037 17.8866 15.7386 17.857 15.4465 17.8057L15.3967 17.7969L15.4055 17.748L15.6292 16.4824L15.6379 16.4326L15.6868 16.4414C15.9584 16.4888 16.2363 16.5181 16.5198 16.5215C16.5164 16.2381 16.4874 15.9606 16.4397 15.6895L16.4309 15.6396L16.4797 15.6318L17.7463 15.4082L17.7952 15.3994L17.804 15.4482C17.8552 15.7398 17.8851 16.0387 17.8967 16.3418C20.0926 15.7562 21.6672 13.7707 21.6672 11.4268C21.6672 8.61678 19.3815 6.33113 16.5715 6.33105Z" fill="#F7FAFC" stroke="white" stroke-width="0.1"/>
<mask id="path-9-outside-1_72540_165459" maskUnits="userSpaceOnUse" x="9.27222" y="3.99414" width="15" height="15" fill="black">
<rect fill="white" x="9.27222" y="3.99414" width="15" height="15"/>
<path d="M16.574 4.99414C20.1209 4.99414 23.0075 7.8798 23.0076 11.4268C23.0076 14.4603 20.9195 17.0274 18.0369 17.6924C17.9544 16.9272 17.7686 16.1935 17.4968 15.5029L17.7576 15.457C17.812 15.7665 17.8428 16.0844 17.8523 16.4072C20.1012 15.8364 21.7205 13.815 21.7205 11.4268C21.7204 8.58912 19.4116 6.28027 16.574 6.28027C14.1859 6.28045 12.1648 7.9001 11.5945 10.1484C11.9173 10.1583 12.2347 10.1887 12.5447 10.2432L12.4783 10.6182C11.7808 10.3659 11.0409 10.2039 10.2722 10.1426C10.8707 7.1685 13.4786 4.99432 16.574 4.99414Z"/>
</mask>
<path d="M16.574 4.99414C20.1209 4.99414 23.0075 7.8798 23.0076 11.4268C23.0076 14.4603 20.9195 17.0274 18.0369 17.6924C17.9544 16.9272 17.7686 16.1935 17.4968 15.5029L17.7576 15.457C17.812 15.7665 17.8428 16.0844 17.8523 16.4072C20.1012 15.8364 21.7205 13.815 21.7205 11.4268C21.7204 8.58912 19.4116 6.28027 16.574 6.28027C14.1859 6.28045 12.1648 7.9001 11.5945 10.1484C11.9173 10.1583 12.2347 10.1887 12.5447 10.2432L12.4783 10.6182C11.7808 10.3659 11.0409 10.2039 10.2722 10.1426C10.8707 7.1685 13.4786 4.99432 16.574 4.99414Z" fill="#F7FAFC"/>
<path d="M16.574 4.99414V4.69414H16.574L16.574 4.99414ZM23.0076 11.4268H23.3076V11.4268L23.0076 11.4268ZM18.0369 17.6924L17.7386 17.7245L17.7748 18.0607L18.1043 17.9847L18.0369 17.6924ZM17.4968 15.5029L17.4448 15.2075L17.0832 15.2711L17.2177 15.6128L17.4968 15.5029ZM17.7576 15.457L18.053 15.4051L18.0011 15.1096L17.7056 15.1616L17.7576 15.457ZM17.8523 16.4072L17.5524 16.416L17.5634 16.7901L17.9261 16.698L17.8523 16.4072ZM21.7205 11.4268H22.0205V11.4267L21.7205 11.4268ZM16.574 6.28027V5.98027H16.574L16.574 6.28027ZM11.5945 10.1484L11.3037 10.0747L11.2118 10.4369L11.5853 10.4483L11.5945 10.1484ZM12.5447 10.2432L12.8401 10.2955L12.8925 9.99966L12.5966 9.94769L12.5447 10.2432ZM12.4783 10.6182L12.3762 10.9003L12.7115 11.0215L12.7737 10.6705L12.4783 10.6182ZM10.2722 10.1426L9.97811 10.0834L9.91143 10.4148L10.2484 10.4416L10.2722 10.1426ZM16.574 4.99414V5.29414C19.9553 5.29414 22.7075 8.04554 22.7076 11.4268L23.0076 11.4268L23.3076 11.4268C23.3075 7.71406 20.2866 4.69414 16.574 4.69414V4.99414ZM23.0076 11.4268H22.7076C22.7076 14.3195 20.717 16.7663 17.9694 17.4001L18.0369 17.6924L18.1043 17.9847C21.122 17.2886 23.3076 14.6011 23.3076 11.4268H23.0076ZM18.0369 17.6924L18.3351 17.6602C18.2497 16.8676 18.0573 16.1077 17.776 15.3931L17.4968 15.5029L17.2177 15.6128C17.48 16.2793 17.6591 16.9869 17.7386 17.7245L18.0369 17.6924ZM17.4968 15.5029L17.5488 15.7984L17.8096 15.7525L17.7576 15.457L17.7056 15.1616L17.4448 15.2075L17.4968 15.5029ZM17.7576 15.457L17.4621 15.509C17.5138 15.8031 17.5434 16.1065 17.5524 16.416L17.8523 16.4072L18.1522 16.3985C18.1423 16.0624 18.1102 15.73 18.053 15.4051L17.7576 15.457ZM17.8523 16.4072L17.9261 16.698C20.3063 16.0939 22.0205 13.9541 22.0205 11.4268H21.7205H21.4205C21.4205 13.6759 19.8961 15.579 17.7785 16.1164L17.8523 16.4072ZM21.7205 11.4268L22.0205 11.4267C22.0204 8.42344 19.5773 5.98027 16.574 5.98027V6.28027V6.58027C19.2459 6.58027 21.4204 8.7548 21.4205 11.4268L21.7205 11.4268ZM16.574 6.28027L16.574 5.98027C14.0467 5.98046 11.9073 7.69507 11.3037 10.0747L11.5945 10.1484L11.8853 10.2222C12.4223 8.10512 14.325 6.58044 16.574 6.58027L16.574 6.28027ZM11.5945 10.1484L11.5853 10.4483C11.8954 10.4578 12.1984 10.4869 12.4928 10.5386L12.5447 10.2432L12.5966 9.94769C12.271 9.89051 11.9392 9.85884 11.6037 9.84858L11.5945 10.1484ZM12.5447 10.2432L12.2493 10.1909L12.1829 10.5659L12.4783 10.6182L12.7737 10.6705L12.8401 10.2955L12.5447 10.2432ZM12.4783 10.6182L12.5803 10.336C11.8576 10.0747 11.0914 9.90697 10.2961 9.84353L10.2722 10.1426L10.2484 10.4416C10.9904 10.5008 11.704 10.6572 12.3762 10.9003L12.4783 10.6182ZM10.2722 10.1426L10.5663 10.2018C11.1368 7.36682 13.6224 5.29431 16.574 5.29414L16.574 4.99414L16.574 4.69414C13.3348 4.69433 10.6046 6.97017 9.97811 10.0834L10.2722 10.1426Z" fill="white" mask="url(#path-9-outside-1_72540_165459)"/>
</svg>
