<svg width="24" height="25" viewBox="0 0 24 25" fill="none" xmlns="http://www.w3.org/2000/svg">
<g id="Frame 1244831095">
<path id="Subtract" fill-rule="evenodd" clip-rule="evenodd" d="M12.9778 0.180225L21.5333 3.78473C22.3889 4.20526 23 5.04631 23 6.00751V10.4531C23 16.7009 18.7833 22.2278 12.6722 23.9099C12.2444 24.03 11.7556 24.03 11.3278 23.9099C5.21667 22.2278 1 16.7009 1 10.4531V6.00751C1 5.04631 1.61111 4.20526 2.46667 3.78473L11.0222 0.180225C11.6944 -0.0600751 12.3667 -0.0600751 12.9778 0.180225ZM16.0507 10.7797C16.4461 10.374 16.4476 9.72744 16.0541 9.31986C15.6427 8.89383 14.9604 8.89284 14.5478 9.31767L10.0417 13.9577L8.58232 12.4636C8.17949 12.0512 7.51922 12.0415 7.10448 12.4419C6.68543 12.8465 6.67666 13.5152 7.08495 13.9306L9.3125 16.1973C9.46875 16.4056 9.78125 16.5098 10.0417 16.5098C10.3021 16.5098 10.5625 16.4056 10.7708 16.1973L16.0507 10.7797Z" fill="#7084FF"/>
</g>
</svg>
