<svg width="24" height="24" viewBox="0 0 24 24" fill="none" xmlns="http://www.w3.org/2000/svg">
<g id="Frame 1244831090">
<path id="Vector" d="M3.17365 1.07654L22.8147 7.11775C24.1814 7.53823 24.43 9.3654 23.2251 10.1357L17.422 13.8454C17.1203 14.0382 16.7647 14.1295 16.4073 14.1058C16.05 14.0822 15.7096 13.9448 15.4359 13.7138L8.19306 7.60198C7.80043 7.27069 7.27061 7.80012 7.6019 8.19315L13.7132 15.4373C13.9442 15.7109 14.0815 16.0513 14.1051 16.4086C14.1287 16.7659 14.0373 17.1214 13.8444 17.423L10.1356 23.2254C9.3657 24.4299 7.53815 24.1813 7.11767 22.815L1.07654 3.17407C0.680683 1.88642 1.88641 0.680677 3.17365 1.07654Z" fill="#7084FF"/>
</g>
</svg>
