<svg width="24" height="24" viewBox="0 0 24 24" fill="none" xmlns="http://www.w3.org/2000/svg">
<g id="Frame 1244831098">
<path id="Union" fill-rule="evenodd" clip-rule="evenodd" d="M20.8523 9.39377C20.7892 9.18062 20.7205 8.96747 20.6431 8.75589C18.7042 3.42946 12.8149 0.682951 7.48928 2.62185C2.16284 4.56074 -0.583664 10.4501 1.35523 15.7757C1.4326 15.9881 1.51549 16.1957 1.6047 16.3994C1.4397 16.412 1.27629 16.4231 1.11366 16.4325C0.958409 16.4418 0.806508 16.4816 0.666627 16.5496C0.526746 16.6175 0.401625 16.7124 0.298408 16.8288C0.195191 16.9451 0.1159 17.0806 0.0650607 17.2276C0.0142217 17.3746 -0.00716907 17.5301 0.00210961 17.6854C0.0113883 17.8406 0.0511547 17.9925 0.119138 18.1324C0.187122 18.2723 0.281992 18.3974 0.398331 18.5006C0.51467 18.6039 0.650199 18.6831 0.797182 18.734C0.944165 18.7848 1.09972 18.8062 1.25497 18.7969C4.66698 18.5933 8.54162 17.7809 12.4841 16.3457C16.4267 14.9113 19.9176 13.0426 22.6618 11.005C22.7905 10.9139 22.8998 10.7979 22.9831 10.6639C23.0664 10.53 23.1221 10.3807 23.1469 10.2249C23.1717 10.0691 23.1652 9.90993 23.1276 9.75671C23.0901 9.60348 23.0223 9.45931 22.9282 9.33265C22.8342 9.20598 22.7158 9.09939 22.5799 9.01913C22.4441 8.93887 22.2936 8.88655 22.1373 8.86526C21.981 8.84396 21.822 8.85411 21.6697 8.89512C21.5173 8.93612 21.3747 9.00716 21.2502 9.10404C21.1192 9.20035 20.9865 9.29746 20.8523 9.39377ZM13.3678 7.5289C13.5751 7.52893 13.7805 7.48811 13.9721 7.40877C14.1636 7.32944 14.3377 7.21314 14.4844 7.06652C14.631 6.9199 14.7473 6.74584 14.8267 6.55426C14.906 6.36269 14.9469 6.15736 14.9469 5.95C14.9469 5.74264 14.906 5.53731 14.8267 5.34573C14.7473 5.15416 14.631 4.98009 14.4844 4.83348C14.3377 4.68686 14.1636 4.57056 13.9721 4.49123C13.7805 4.41189 13.5751 4.37107 13.3678 4.37109C12.9491 4.37114 12.5475 4.53751 12.2514 4.83361C11.9554 5.12971 11.7891 5.53128 11.7891 5.95C11.7891 6.36872 11.9554 6.77029 12.2514 7.06639C12.5475 7.36248 12.9491 7.52885 13.3678 7.5289ZM8.91046 22.3164C7.0438 21.9294 5.3218 21.0302 3.9375 19.7195C6.78348 19.3288 9.82603 18.5725 12.8859 17.4593C15.9459 16.3454 18.7626 14.9686 21.1941 13.4395C20.976 15.3333 20.2348 17.1289 19.0535 18.6251C17.8721 20.1212 16.2974 21.2588 14.5059 21.9103C12.7147 22.5627 10.7771 22.7033 8.91046 22.3164Z" fill="#7084FF"/>
</g>
</svg>
