<svg width="24" height="24" viewBox="0 0 24 24" fill="none" xmlns="http://www.w3.org/2000/svg">
<g id="Frame 1244831093">
<path id="Subtract" fill-rule="evenodd" clip-rule="evenodd" d="M8.11765 0C3.63439 0 0 3.6344 0 8.11765V15.8824C0 20.3656 3.6344 24 8.11765 24H15.8824C20.3656 24 24 20.3656 24 15.8824V8.11765C24 3.63439 20.3656 0 15.8824 0H8.11765ZM12.3156 5C8.55146 5 5.5 8.05146 5.5 11.8156C5.5 12.4573 6.02018 12.9775 6.66185 12.9775C7.30352 12.9775 7.8237 12.4573 7.8237 11.8156C7.8237 9.3348 9.8348 7.3237 12.3156 7.3237C14.7964 7.3237 16.8075 9.3348 16.8075 11.8156C16.8075 12.4573 17.3277 12.9775 17.9694 12.9775C18.6111 12.9775 19.1312 12.4573 19.1312 11.8156C19.1312 8.05146 16.0798 5 12.3156 5ZM6.46484 18.1641C7.56941 18.1641 8.46484 17.2686 8.46484 16.1641C8.46484 15.0595 7.56941 14.1641 6.46484 14.1641C5.36027 14.1641 4.46484 15.0595 4.46484 16.1641C4.46484 17.2686 5.36027 18.1641 6.46484 18.1641ZM20.5 16.1641C20.5 17.2686 19.6046 18.1641 18.5 18.1641C17.3954 18.1641 16.5 17.2686 16.5 16.1641C16.5 15.0595 17.3954 14.1641 18.5 14.1641C19.6046 14.1641 20.5 15.0595 20.5 16.1641Z" fill="#7084FF"/>
</g>
</svg>
