<svg width="24" height="24" viewBox="0 0 24 24" fill="none" xmlns="http://www.w3.org/2000/svg">
<g id="Frame 1244831094">
<path id="Subtract" fill-rule="evenodd" clip-rule="evenodd" d="M12 24C18.6274 24 24 18.6274 24 12C24 5.37258 18.6274 0 12 0C5.37258 0 0 5.37258 0 12C0 18.6274 5.37258 24 12 24ZM12.2839 8.00016C12.284 7.29139 11.7095 6.71675 11.0007 6.71666C10.292 6.71658 9.71734 7.29108 9.71725 7.99985L9.71667 12.8602C9.71662 13.2426 9.88711 13.6052 10.1817 13.849L14.3279 17.2809C14.8738 17.7328 15.6828 17.6566 16.1348 17.1106C16.5867 16.5646 16.5104 15.7556 15.9645 15.3037L12.2834 12.2568L12.2839 8.00016Z" fill="#7084FF"/>
</g>
</svg>
