<svg xmlns="http://www.w3.org/2000/svg" width="28" height="28" viewBox="0 0 28 28" fill="none">
  <path
    d="M10.7613 13.3016H3.54035C2.40859 13.3016 1.5 12.393 1.5 11.2613V4.04035C1.5 2.92453 2.42453 2 3.54035 2H10.7613C11.893 2 12.8016 2.90859 12.8016 4.04035V11.2613C12.8016 12.393 11.893 13.3016 10.7613 13.3016ZM10.7613 26.8667H3.54035C2.40859 26.8667 1.5 25.9581 1.5 24.8264V17.6055C1.5 16.4737 2.40859 15.5651 3.54035 15.5651H10.7613C11.893 15.5651 12.8016 16.4737 12.8016 17.6055V24.8264C12.8016 25.9422 11.893 26.8667 10.7613 26.8667ZM25.3264 26.8667H18.1055C16.9737 26.8667 16.0651 25.9581 16.0651 24.8264V17.6055C16.0651 16.4737 16.9737 15.5651 18.1055 15.5651H25.3264C26.4581 15.5651 27.3667 16.4737 27.3667 17.6055V24.8264C27.3667 25.9422 26.4422 26.8667 25.3264 26.8667Z"
    fill="#7084FF" />
  <path
    d="M27.318 5.31606L22.5997 0.597758C21.8027 -0.199253 20.5115 -0.199253 19.7145 0.597758L14.9962 5.31606C14.1992 6.11307 14.1992 7.40422 14.9962 8.20123L19.7145 12.9195C20.5115 13.7165 21.8027 13.7165 22.5997 12.9195L27.318 8.20123C28.115 7.38828 28.115 6.09713 27.318 5.31606Z"
    fill="#7084FF" />
</svg>