<svg width="24" height="24" viewBox="0 0 24 24" fill="none" xmlns="http://www.w3.org/2000/svg">
<path fill-rule="evenodd" clip-rule="evenodd" d="M24 12C24 13.841 23.5854 15.5853 22.8445 17.1444C21.6889 15.4334 20.5 14 20.5 14C20.5 14 16 19.4256 16 21.7647C16 22.2751 16.0959 22.7643 16.2717 23.2174C14.9446 23.7231 13.5046 24 12 24C5.37258 24 0 18.6274 0 12C0 5.37258 5.37258 0 12 0C18.6274 0 24 5.37258 24 12ZM11.3789 19.9219C11.3789 20.2119 11.5547 20.3789 11.8184 20.3789C12.082 20.3789 12.2578 20.2119 12.2578 19.9219V18.8496C14.7891 18.7002 16.6084 17.3555 16.6084 15.1318C16.6084 13.207 15.3516 12.2402 12.9434 11.6953L12.2578 11.5459V8.45215C13.1016 8.56641 13.6553 8.99707 13.998 9.71777C14.2793 10.2275 14.6572 10.4824 15.2021 10.4824C15.8701 10.4824 16.3096 10.1045 16.3096 9.52441C16.3096 9.33984 16.2744 9.16406 16.2217 8.98828C15.7998 7.63477 14.3496 6.60645 12.2578 6.46582V5.36719C12.2578 5.07715 12.082 4.91016 11.8184 4.91016C11.5547 4.91016 11.3789 5.07715 11.3789 5.36719V6.46582C8.92676 6.58887 7.16895 7.95996 7.16895 10.0781C7.16895 11.9766 8.42578 13.0049 10.7285 13.5234L11.3789 13.6729V16.8721C10.2715 16.7754 9.71777 16.2744 9.43652 15.5889C9.19043 15.0791 8.82129 14.7979 8.27637 14.7979C7.55566 14.7979 7.125 15.2285 7.125 15.8613C7.125 16.0283 7.16016 16.2129 7.23047 16.415C7.66113 17.6982 9.12012 18.7441 11.3789 18.8496V19.9219ZM11.3789 11.3438C10.1484 11.0273 9.62988 10.5615 9.62988 9.84961C9.62988 9.1377 10.2275 8.54883 11.3789 8.44336V11.3438ZM12.2578 13.875C13.6641 14.2266 14.1562 14.6221 14.1562 15.4043C14.1562 16.2129 13.5234 16.7754 12.2578 16.8721V13.875Z" fill="#7084FF"/>
<path d="M23 21.5294C23 22.8939 21.8807 24 20.5 24C19.1193 24 18 22.8939 18 21.5294C18 20.1649 20.5 17 20.5 17C20.5 17 23 20.1649 23 21.5294Z" fill="#7084FF"/>
</svg>
