<svg xmlns="http://www.w3.org/2000/svg" viewBox="0 0 28 28" fill="none">
<rect width="28" height="28" rx="10.03" fill="currentColor"/>
<path d="M21.5219 13.9436C21.5356 15.2338 21.2771 16.4665 20.7694 17.6444C20.0443 19.3215 18.306 20.6929 16.7186 19.2331C15.424 18.0433 15.1838 16.6031 13.2442 16.2495C10.6779 15.9246 10.6161 18.0577 8.93958 18.4089C7.07088 18.8055 6.45103 15.5228 6.47848 14.032C6.50593 12.5412 6.88561 10.446 8.50958 10.446C10.3783 10.446 10.5041 12.4262 12.876 12.2661C15.225 12.0989 15.2662 9.9992 16.8009 8.6828C18.1252 7.54558 19.6829 8.37938 20.4628 9.74834C21.1856 11.0146 21.5036 12.5006 21.5196 13.9436H21.5219Z" stroke="white" stroke-width="1.67164"/>
</svg>