<svg xmlns="http://www.w3.org/2000/svg" viewBox="0 0 28 28" fill="none">
<rect width="28" height="28" rx="9.33" fill="currentColor"/>
<path d="M9.2 20L6 16.8L7.12 15.64L8.4 16.92V11.2C8.4 10.32 8.71333 9.56667 9.34 8.94C9.96667 8.31333 10.72 8 11.6 8C12.48 8 13.2333 8.31333 13.86 8.94C14.4867 9.56667 14.8 10.32 14.8 11.2V16.8C14.8 17.24 14.9567 17.6167 15.27 17.93C15.5833 18.2433 15.96 18.4 16.4 18.4C16.84 18.4 17.2167 18.2433 17.53 17.93C17.8433 17.6167 18 17.24 18 16.8V11.08L16.72 12.36L15.6 11.2L18.8 8L22 11.2L20.88 12.36L19.6 11.08V16.8C19.6 17.68 19.2867 18.4333 18.66 19.06C18.0333 19.6867 17.28 20 16.4 20C15.52 20 14.7667 19.6867 14.14 19.06C13.5133 18.4333 13.2 17.68 13.2 16.8V11.2C13.2 10.76 13.0433 10.3833 12.73 10.07C12.4167 9.75667 12.04 9.6 11.6 9.6C11.16 9.6 10.7833 9.75667 10.47 10.07C10.1567 10.3833 10 10.76 10 11.2V16.92L11.28 15.64L12.4 16.8L9.2 20V20" fill="white"/>
</svg>