<svg xmlns="http://www.w3.org/2000/svg" width="28" height="28" viewBox="0 0 28 28" fill="none">
  <path fill-rule="evenodd" clip-rule="evenodd" d="M13.9092 0.000978827C15.7616 -0.0209767 17.6002 0.326624 19.3164 1.02344C21.0326 1.7203 22.5922 2.75277 23.9043 4.05957C25.2165 5.36647 26.255 6.92195 26.958 8.63477C27.661 10.3474 28.0149 12.1831 27.999 14.0342C28.0031 17.7242 26.5434 21.2654 23.9404 23.8828C21.3375 26.5002 17.803 27.981 14.1104 28C6.5236 28.0642 0.010091 22.0059 1.22404e-05 14.0381C-0.0100532 6.19115 6.18889 0.0450415 13.9092 0.000978827ZM20.1328 5.25C19.1272 5.53095 18.2055 5.79535 17.2803 6.05567C13.7474 7.02784 10.2168 8.00315 6.68068 8.95606H6.6797C6.43116 9.02389 6.21738 9.13329 6.07814 9.33399C5.94295 9.52899 5.91407 9.76097 5.91407 9.98731V9.98926C5.93446 12.6925 5.94011 15.3938 5.91407 18.0947C5.91149 18.3745 5.96239 18.6261 6.13478 18.8232C6.29954 19.0116 6.53479 19.1022 6.77345 19.166V19.165C9.94616 20.0214 13.1074 20.9038 16.2813 21.7764H16.2822C17.5447 22.1228 18.8099 22.4654 20.1348 22.8281L20.5137 22.9326V5.14356L20.1328 5.25ZM18.4668 20.2773L10.0274 17.9502L18.4668 15.6221V20.2773ZM16.5928 14.042L8.06056 16.3975V11.6895L16.5928 14.042ZM18.4668 12.4629L10.0205 10.1397L18.4668 7.80762V12.4629Z" fill="currentColor"/>
</svg>