<svg width="28" height="28" viewBox="0 0 28 28" fill="none" xmlns="http://www.w3.org/2000/svg">
<g clip-path="url(#clip0_56895_248847)">
<path d="M14 28C21.732 28 28 21.732 28 14C28 6.26802 21.732 0 14 0C6.26802 0 0 6.26802 0 14C0 21.732 6.26802 28 14 28Z" fill="#4056DD"/>
<path d="M11.3975 14.6829C12.5979 14.488 13.4131 13.3568 13.2183 12.1563C13.0234 10.9558 11.8922 10.1406 10.6917 10.3354C9.49122 10.5303 8.67602 11.6614 8.8708 12.862C9.06571 14.0625 10.197 14.8777 11.3975 14.6829ZM17.1532 14.6829C18.3537 14.488 19.1689 13.3568 18.974 12.1563C18.7792 10.9558 17.6479 10.1406 16.4475 10.3354C15.247 10.5303 14.4317 11.6614 14.6266 12.862C14.8215 14.0625 15.9526 14.8777 17.1532 14.6829Z" fill="white"/>
<path d="M13.9193 3.41846C7.93994 3.41846 3.09204 8.35858 3.09375 14.4506H5.85932C5.85932 9.88514 9.43925 6.1835 13.9193 6.1835C18.3993 6.1835 21.9793 9.88514 21.9793 14.4506H24.7449C24.7459 8.35858 19.8981 3.41846 13.9193 3.41846Z" fill="white"/>
</g>
<defs>
<clipPath id="clip0_56895_248847">
<rect width="28" height="28" fill="white"/>
</clipPath>
</defs>
</svg>
