<svg xmlns="http://www.w3.org/2000/svg" viewBox="0 0 28 28" fill="none">
<rect width="28" height="28" rx="10.03" fill="currentColor"/>
<path d="M6.47761 21.1045V19.5257L8.14925 17.9469V21.1045H6.47761V21.1045M9.8209 21.1045V16.3682L11.4925 14.7894V14.7894V21.1045H9.8209V21.1045M13.1642 21.1045V14.7894L14.8358 16.3879V21.1045H13.1642V21.1045M16.5075 21.1045V16.3879L18.1791 14.8091V21.1045H16.5075V21.1045M19.8507 21.1045V13.2106L21.5224 11.6318V21.1045H19.8507V21.1045M6.47761 17.0194V14.7894L12.3284 9.26368L15.6716 12.4212L21.5224 6.89552V9.12554L15.6716 14.6512L12.3284 11.4937L6.47761 17.0194V17.0194" fill="white"/>
</svg>