<svg xmlns="http://www.w3.org/2000/svg" width="28" height="28" viewBox="0 0 28 28" fill="none">
  <path d="M13.9092 0.000976562C15.7616 -0.020979 17.6001 0.326622 19.3164 1.02344C21.0326 1.7203 22.5922 2.75276 23.9043 4.05957C25.2165 5.36647 26.255 6.92195 26.958 8.63477C27.6609 10.3474 28.0149 12.1831 27.999 14.0342C28.0031 17.7242 26.5434 21.2654 23.9404 23.8828C21.3374 26.5002 17.803 27.981 14.1104 28C6.52358 28.0642 0.0100787 22.0059 0 14.0381C-0.0100655 6.19115 6.18887 0.0450393 13.9092 0.000976562ZM17.8252 5.32031C13.8972 6.42184 9.97017 7.5273 6.03711 8.60742C5.55748 8.74084 5.43173 8.97585 5.43164 9.44629C5.45432 12.5104 5.46061 15.5738 5.43164 18.6367C5.4266 19.1932 5.63571 19.3813 6.13965 19.5186C9.66823 20.4891 13.1856 21.4884 16.7129 22.4766C18.1176 22.8694 19.5218 23.2573 20.9971 23.6689V4.40723C19.8783 4.72574 18.857 5.02446 17.8252 5.32031ZM19.3877 21.5537L8.41699 18.4707L19.3877 15.3848V21.5537ZM17.9854 13.9756L18.0156 14.1006L7.15137 17.1582V10.9297L17.9854 13.9756ZM19.3877 12.7002L8.63281 9.68359V9.55762L19.3877 6.53125V12.7002Z" fill="currentColor"/>
</svg>