<svg xmlns="http://www.w3.org/2000/svg" viewBox="0 0 28 28" fill="none">
<rect width="28" height="28" rx="10.03" fill="currentColor"/>
<g transform="translate(5.22, 5.22)">
<g opacity="0.4">
<path d="M4.28431 2.46064L3.51204 2.20166L3.25407 1.42306C3.1708 1.17148 2.75691 1.17148 2.67364 1.42306L2.41567 2.20166L1.6434 2.46064C1.51849 2.50257 1.43359 2.62014 1.43359 2.75333C1.43359 2.88652 1.51849 3.00409 1.6434 3.04602L2.41567 3.30501L2.67364 4.0836C2.71527 4.20939 2.83201 4.29408 2.96344 4.29408C3.09488 4.29408 3.21243 4.20857 3.25325 4.0836L3.51122 3.30501L4.28349 3.04602C4.40839 3.00409 4.4933 2.88652 4.4933 2.75333C4.4933 2.62014 4.40921 2.50257 4.28431 2.46064Z" fill="white"/>
</g>
<path opacity="0.7" d="M13.5566 13.0283L13.6885 13.4258L14.084 13.5586L14.6826 13.7588L14.0859 13.96L13.6895 14.0928L13.5576 14.4893L13.3643 15.0723L13.1719 14.4893L13.041 14.0928L12.6445 13.96L12.0459 13.7588L12.6445 13.5586L13.041 13.4258L13.1719 13.0283L13.3643 12.4463L13.5566 13.0283Z" stroke="white" stroke-width="1.67164" fill="none"/>
<path d="M11.073 5.40872L8.74573 1.57822C8.49444 1.16462 7.88518 1.1926 7.67285 1.62748L5.84703 5.36707C5.75842 5.54856 5.58595 5.67464 5.38613 5.70402L1.42478 6.28634C0.924973 6.35981 0.724432 6.97303 1.08425 7.32763L3.95949 10.1612C4.10181 10.3014 4.16669 10.5023 4.13328 10.6993L3.46639 14.6313C3.37962 15.1428 3.9289 15.5235 4.3774 15.2626L10.572 11.6593C10.5986 11.6438 10.624 11.6263 10.648 11.607L15.9341 7.35296C16.3518 7.01674 16.1658 6.34393 15.6346 6.27011L11.5118 5.69709C11.3296 5.67177 11.1685 5.56588 11.073 5.40872Z" stroke="white" stroke-width="1.67164" stroke-linecap="round" stroke-linejoin="round" fill="none"/>
</g>
</svg>