<svg xmlns="http://www.w3.org/2000/svg" viewBox="0 0 28 28" fill="none">
<rect width="28" height="28" rx="10.03" fill="currentColor"/>
<g transform="translate(5.01, 6.8)">
<path d="M6.89435 9.3509C7.8907 9.18917 8.56728 8.25027 8.40563 7.25389C8.24386 6.25755 7.30496 5.58096 6.30862 5.74262C5.31224 5.90439 4.63565 6.84318 4.79731 7.83963C4.95907 8.83601 5.89797 9.51259 6.89435 9.3509ZM11.6715 9.3509C12.6678 9.18917 13.3444 8.25027 13.1827 7.25389C13.021 6.25755 12.0821 5.58096 11.0857 5.74262C10.0894 5.90439 9.41268 6.84318 9.57445 7.83963C9.73621 8.83601 10.675 9.51259 11.6715 9.3509Z" fill="white"/>
<path d="M8.98505 0.000233209C4.02239 0.000233209 -0.00121899 4.10039 0.000197144 9.15658H2.29554C2.29554 5.36739 5.26678 2.29514 8.98505 2.29514C12.7033 2.29514 15.6746 5.36739 15.6746 9.15658H17.97C17.9708 4.10039 13.9473 0.000233209 8.98505 0.000233209Z" fill="white"/>
</g>
</svg>