<svg xmlns="http://www.w3.org/2000/svg" width="28" height="28" viewBox="0 0 28 28" fill="none">
  <path fill-rule="evenodd" clip-rule="evenodd" d="M14.9166 0C15.3663 0.0684425 15.8166 0.123055 16.2643 0.196289C21.936 1.12323 26.4368 5.39419 27.6666 11.0264C27.8135 11.702 27.8898 12.3924 27.9996 13.0762V14.9238C27.9309 15.3839 27.8715 15.8453 27.7994 16.3047C26.9314 21.8388 22.5552 26.471 17.0689 27.6484C16.359 27.8011 15.6348 27.8843 14.9166 28H13.067C12.4155 27.8994 11.7571 27.8323 11.1139 27.6934C3.71806 26.0921 -1.00476 19.1779 0.182225 11.707C1.06732 6.13373 5.43471 1.51842 10.9479 0.345703C11.6467 0.197201 12.3599 0.113606 13.067 0H14.9166ZM10.5006 11.4043C7.68393 11.4043 5.40098 13.6873 5.40098 16.5039C5.40098 19.3206 7.68393 21.6035 10.5006 21.6035H17.5006C20.317 21.6033 22.6002 19.3204 22.6002 16.5039C22.6002 13.6874 20.317 11.4046 17.5006 11.4043H10.5006ZM17.5006 13.6035C19.102 13.6038 20.401 14.9024 20.401 16.5039C20.401 18.1054 19.102 19.404 17.5006 19.4043H10.5006C8.89896 19.4043 7.60019 18.1055 7.60019 16.5039C7.60019 14.9023 8.89896 13.6035 10.5006 13.6035H17.5006ZM17.5006 15C16.6727 15 16.0006 15.6721 16.0006 16.5C16.0006 17.3279 16.6727 18 17.5006 18C18.3282 17.9997 19.0006 17.3277 19.0006 16.5C19.0006 15.6723 18.3282 15.0003 17.5006 15ZM6.75058 7C6.06023 7 5.50058 7.55964 5.50058 8.25C5.50058 8.94036 6.06023 9.5 6.75058 9.5H21.2506C21.9407 9.49974 22.5006 8.94019 22.5006 8.25C22.5006 7.55981 21.9407 7.00026 21.2506 7H6.75058Z" fill="currentColor"/>
</svg>