<svg width="28" height="28" viewBox="0 0 28 28" fill="none" xmlns="http://www.w3.org/2000/svg">
<g clip-path="url(#clip0_53790_324353)">
<path d="M22 1C24.2091 1 26 2.79086 26 5V16.2217L24.5107 14.7324C23.3392 13.5608 21.4392 13.5608 20.2676 14.7324L14.6211 20.3789C13.4498 21.5504 13.4498 23.4496 14.6211 24.6211L17 27H6C3.79086 27 2 25.2091 2 23V5C2 2.79086 3.79086 1 6 1H22ZM8 13.5C7.17157 13.5 6.5 14.1716 6.5 15C6.5 15.8284 7.17157 16.5 8 16.5H15C15.8284 16.5 16.5 15.8284 16.5 15C16.5 14.1716 15.8284 13.5 15 13.5H8ZM8 6.5C7.17157 6.5 6.5 7.17157 6.5 8C6.5 8.82843 7.17157 9.5 8 9.5H17C17.8284 9.5 18.5 8.82843 18.5 8C18.5 7.17157 17.8284 6.5 17 6.5H8Z" fill="#5267E8"/>
<path d="M22.3885 24.3686L24.2571 22.5L22.3885 20.6314L20.52 22.5L22.3885 24.3686ZM27.0855 21.0858L27.2222 21.2377C27.8205 21.971 27.8205 23.029 27.2222 23.7623L27.0855 23.9142L23.8027 27.197L23.6508 27.3337C22.9176 27.932 21.8595 27.9319 21.1262 27.3337L20.9743 27.197L17.6915 23.9142C16.9105 23.1332 16.9105 21.8668 17.6915 21.0858L20.9743 17.803L21.1262 17.6663C21.9118 17.0254 23.0704 17.0707 23.8027 17.803L27.0855 21.0858Z" fill="#4C65FF"/>
</g>
<defs>
<clipPath id="clip0_53790_324353">
<rect width="28" height="28" fill="white"/>
</clipPath>
</defs>
</svg>
