<svg xmlns="http://www.w3.org/2000/svg" width="28" height="28" viewBox="0 0 28 28" fill="none">
  <path d="M13.0673 0H14.9165C15.3663 0.0684597 15.8167 0.123227 16.2644 0.196479C21.9362 1.12342 26.4365 5.39394 27.6663 11.0261C27.8132 11.7018 27.8901 12.3919 28 13.0758V14.9242C27.9313 15.3843 27.8716 15.845 27.7995 16.3044C26.9316 21.8386 22.5555 26.4713 17.0692 27.6488C16.3592 27.8015 15.6347 27.8843 14.9165 28H13.0673C12.4157 27.8994 11.7572 27.8323 11.1138 27.6933C3.71787 26.092 -1.00493 19.1776 0.182293 11.7066C1.06739 6.1333 5.43451 1.51844 10.9476 0.345721C11.6467 0.197164 12.3601 0.113643 13.0673 0ZM19.5906 6.02445C19.5775 6.01076 19.5906 6.03403 19.6063 6.03951C20.9563 6.4934 21.7212 8.16724 20.7592 9.70689C19.903 11.0761 19.1319 12.5035 18.3237 13.9048C16.9115 16.353 15.4999 18.8004 14.0891 21.2471C13.5453 22.185 12.5441 22.6334 11.4963 22.3877C11.153 22.3069 10.8323 22.1221 10.4814 21.9769C10.5308 22.0769 10.5734 22.1761 10.627 22.2692C10.9932 22.9004 11.3594 23.5312 11.7256 24.1615C12.8696 26.1146 15.4754 26.1078 16.6173 24.145C17.5736 22.502 18.5262 20.8549 19.4752 19.2036C21.2248 16.175 22.9833 13.1511 24.7192 10.1149C25.6853 8.42533 24.6883 6.29555 22.7595 6.04978C21.7116 5.9156 20.6315 6.02445 19.5919 6.02445H19.5906ZM6.70001 15.5403C7.23423 16.4604 7.68742 17.3203 8.21477 18.1288C8.95498 19.2659 10.6071 19.2105 11.2999 18.0254C13.1127 14.9269 14.9108 11.82 16.6943 8.70465C17.3596 7.54083 16.6345 6.10797 15.3031 5.9957C14.3418 5.91491 13.3736 5.97995 12.3779 5.97995C12.4024 6.01417 12.43 6.04603 12.4603 6.07511C13.2843 6.67482 13.4217 7.34161 12.9032 8.23433C11.6119 10.4615 10.3226 12.6915 9.03532 14.9242C8.47226 15.897 7.77119 16.1058 6.70001 15.5403ZM7.72244 8.39315C7.72524 8.0762 7.66523 7.76181 7.54585 7.46803C7.42646 7.17426 7.25005 6.90688 7.02675 6.68126C6.80345 6.45564 6.53765 6.27621 6.24461 6.15328C5.95158 6.03034 5.63707 5.96632 5.31915 5.96489C5.00003 5.96444 4.68394 6.02666 4.38894 6.148C4.09394 6.26935 3.8258 6.44743 3.59983 6.67209C3.37385 6.89675 3.19448 7.16358 3.07194 7.45735C2.9494 7.75113 2.8861 8.06609 2.88565 8.38425C2.8852 8.70242 2.94761 9.01756 3.06931 9.31168C3.19102 9.60579 3.36964 9.87313 3.59497 10.0984C3.8203 10.3237 4.08794 10.5026 4.3826 10.6247C4.67725 10.7469 4.99316 10.81 5.31228 10.8105C5.62993 10.8102 5.94439 10.7474 6.23763 10.6256C6.53086 10.5039 6.79709 10.3256 7.02103 10.101C7.24497 9.87638 7.4222 9.60989 7.54257 9.31681C7.66294 9.02374 7.72406 8.70984 7.72244 8.39315Z" fill="currentColor"/>
</svg>