<svg xmlns="http://www.w3.org/2000/svg" width="28" height="28" viewBox="0 0 28 28" fill="none">
  <path d="M14 0C21.732 0 28 6.26801 28 14C28 21.732 21.732 28 14 28C6.26801 28 0 21.732 0 14C0 6.26801 6.26801 0 14 0ZM17 3.2002C17 2.88799 16.5827 2.78338 16.4355 3.05859L13 9.5L9.26367 7.83984C9.00657 7.72587 8.7482 7.9964 8.87402 8.24805L11 12.5H2.83398C2.51406 12.5001 2.41686 12.9343 2.70605 13.0713L11 17V24.7998C11 25.112 11.4173 25.2166 11.5645 24.9414L15 18.5L18.7051 20.5586C18.9578 20.6985 19.2434 20.435 19.124 20.1719L17 15.5H25.166C25.4859 15.4999 25.5831 15.0657 25.2939 14.9287L17 11V3.2002Z" fill="currentColor"/>
</svg>