<svg xmlns="http://www.w3.org/2000/svg" width="26" height="27" viewBox="0 0 26 27" fill="none">
  <path d="M13.5932 19.4838L15.2644 19.3373L15.8621 26.1737C16.6229 26.0028 17.3668 25.7637 18.0847 25.4592V19.3953H20.149V24.3487C21.0116 23.7784 21.8035 23.1081 22.5083 22.3516L22.7737 19.3206L24.5432 19.475C25.5515 17.5278 26.0512 15.3574 25.9959 13.1655C25.9405 10.9736 25.3319 8.83118 24.2266 6.93738L24.1608 7.69018L22.0964 7.50938L22.3618 4.48037C21.6932 3.78596 20.9498 3.16762 20.1451 2.63664V7.6145H18.0808V1.52706C17.2003 1.15242 16.2807 0.877165 15.3391 0.706414L15.9358 7.52608L14.2646 7.67249L13.6375 0.511822C13.4271 0.501994 13.2148 0.496094 13.0024 0.496094C12.1744 0.496096 11.3482 0.574747 10.535 0.730984L11.7147 7.4435L10.4426 7.66759L9.27286 1.0386C8.18252 1.3642 7.13999 1.83246 6.17239 2.43123L7.48962 7.34523L6.4909 7.61355L5.26605 3.04155C4.32096 3.74162 3.47479 4.56611 2.75047 5.49265L3.38846 7.245L2.66004 7.51033L2.20096 6.24942C1.4666 7.34193 0.903075 8.53996 0.529819 9.80222L0.736249 9.72754L3.39042 17.0111L2.662 17.2764L0.288976 10.7585C-0.254512 13.2935 -0.0279421 15.933 0.939609 18.3384C1.90716 20.7438 3.57155 22.8052 5.71922 24.2582L4.4865 19.6588L5.48523 19.3904L6.99323 25.0179C8.02641 25.5571 9.12791 25.9539 10.2677 26.1973L9.10475 19.5713L10.3778 19.3472L11.6252 26.4234C12.0843 26.4719 12.5457 26.4962 13.0074 26.4961C13.4094 26.4961 13.8085 26.4774 14.2018 26.4411L13.5932 19.4838ZM22.7835 9.55749L24.843 9.73739L24.1676 17.4602L22.1033 17.2803L22.7835 9.55749ZM18.0876 9.63317H20.152V17.3845H18.0876V9.63317ZM15.2673 9.57423L15.9427 17.2971L14.2715 17.4435L13.5952 9.72065L15.2673 9.57423ZM6.4997 17.3865L4.49337 9.89855L5.49214 9.63122L7.49847 17.1143L6.4997 17.3865ZM10.4515 17.4376L9.10475 9.80417L10.3778 9.58013L11.7235 17.2126L10.4515 17.4376Z" fill="currentColor"/>
</svg>