<svg width="28" height="28" viewBox="0 0 28 28" fill="none" xmlns="http://www.w3.org/2000/svg">
<g clip-path="url(#clip0_66448_208736)">
<path d="M14 0C21.732 0 28 6.268 28 14C28 21.732 21.732 28 14 28C6.268 28 0 21.732 0 14C0 6.268 6.268 0 14 0ZM13.9199 16.5029C9.64214 16.5029 8.41992 16.7529 8.41992 18.0029C8.42032 19.5029 10.2537 21.502 13.9199 21.502C17.5862 21.502 19.4195 19.5029 19.4199 18.0029C19.4199 16.7529 18.1977 16.5029 13.9199 16.5029ZM8.58594 8.50293C8.23255 8.50302 7.8935 8.64276 7.64355 8.89258C7.39351 9.14263 7.25293 9.48232 7.25293 9.83594V11.8359L7.2627 11.9922C7.30292 12.3294 7.47008 12.6384 7.73047 12.8564C7.99099 13.0745 8.32492 13.1849 8.66406 13.165C9.00319 13.1451 9.3224 12.9969 9.55566 12.75C9.78892 12.5029 9.9195 12.1757 9.91992 11.8359V9.83594L9.91016 9.67969C9.87193 9.35539 9.7157 9.05683 9.47168 8.83984C9.22763 8.62284 8.91251 8.50297 8.58594 8.50293ZM19.2529 8.50293C18.8995 8.50293 18.5606 8.64278 18.3105 8.89258C18.0605 9.14263 17.9199 9.48232 17.9199 9.83594V11.8359L17.9287 11.9922C17.9689 12.3295 18.137 12.6384 18.3975 12.8564C18.6581 13.0745 18.9918 13.185 19.3311 13.165C19.6703 13.1451 19.9894 12.997 20.2227 12.75C20.4559 12.5029 20.5855 12.1757 20.5859 11.8359V9.83594L20.5771 9.67969C20.5389 9.35545 20.3826 9.05683 20.1387 8.83984C19.8946 8.62283 19.5795 8.50297 19.2529 8.50293Z" fill="currentColor"/>
</g>
<defs>
<clipPath id="clip0_66448_208736">
<rect width="28" height="28" fill="white"/>
</clipPath>
</defs>
</svg>
