<svg width="20" height="20" viewBox="0 0 20 20" fill="none" xmlns="http://www.w3.org/2000/svg">
<path d="M16 1.84961C16.5702 1.84961 17.1173 2.07629 17.5205 2.47949C17.9237 2.8827 18.1504 3.42978 18.1504 4V16C18.1504 16.5702 17.9237 17.1173 17.5205 17.5205C17.1173 17.9237 16.5702 18.1504 16 18.1504H4C3.42978 18.1504 2.8827 17.9237 2.47949 17.5205C2.07629 17.1173 1.84961 16.5702 1.84961 16V4C1.84961 3.42978 2.07629 2.8827 2.47949 2.47949C2.8827 2.07629 3.42978 1.84961 4 1.84961H16ZM4 3.65039C3.90717 3.65039 3.81857 3.68729 3.75293 3.75293C3.68729 3.81857 3.65039 3.90717 3.65039 4V16C3.65039 16.0928 3.68729 16.1814 3.75293 16.2471C3.81857 16.3127 3.90717 16.3496 4 16.3496H16C16.0928 16.3496 16.1814 16.3127 16.2471 16.2471C16.3127 16.1814 16.3496 16.0928 16.3496 16V4C16.3496 3.90717 16.3127 3.81857 16.2471 3.75293C16.1814 3.68729 16.0928 3.65039 16 3.65039H4ZM6.5 9.34961C6.73869 9.34961 6.96794 9.4445 7.13672 9.61328C7.3055 9.78206 7.40039 10.0113 7.40039 10.25V13.25C7.40039 13.4887 7.3055 13.7179 7.13672 13.8867C6.96794 14.0555 6.73869 14.1504 6.5 14.1504C6.26131 14.1504 6.03206 14.0555 5.86328 13.8867C5.6945 13.7179 5.59961 13.4887 5.59961 13.25V10.25C5.59961 10.0113 5.6945 9.78206 5.86328 9.61328C6.03206 9.4445 6.26131 9.34961 6.5 9.34961ZM10 5.84961C10.2387 5.84961 10.4679 5.9445 10.6367 6.11328C10.8055 6.28206 10.9004 6.51131 10.9004 6.75V13.25C10.9004 13.3682 10.8763 13.4855 10.8311 13.5947C10.7858 13.7038 10.7202 13.8033 10.6367 13.8867C10.5533 13.9702 10.4538 14.0358 10.3447 14.0811C10.2355 14.1263 10.1182 14.1504 10 14.1504C9.88181 14.1504 9.76447 14.1263 9.65527 14.0811C9.54625 14.0358 9.44675 13.9702 9.36328 13.8867C9.27982 13.8033 9.21417 13.7038 9.16895 13.5947C9.12372 13.4855 9.09961 13.3682 9.09961 13.25V6.75C9.09961 6.51131 9.1945 6.28206 9.36328 6.11328C9.53206 5.9445 9.76131 5.84961 10 5.84961ZM13.5 8.34961C13.7387 8.34961 13.9679 8.4445 14.1367 8.61328C14.3055 8.78206 14.4004 9.01131 14.4004 9.25V13.25C14.4004 13.4887 14.3055 13.7179 14.1367 13.8867C13.9679 14.0555 13.7387 14.1504 13.5 14.1504C13.2613 14.1504 13.0321 14.0555 12.8633 13.8867C12.6945 13.7179 12.5996 13.4887 12.5996 13.25V9.25C12.5996 9.01131 12.6945 8.78206 12.8633 8.61328C13.0321 8.4445 13.2613 8.34961 13.5 8.34961Z" fill="currentColor" stroke="currentColor" stroke-width="0.3"/>
</svg>
