<svg xmlns="http://www.w3.org/2000/svg" width="20" height="20" viewBox="0 0 20 20" fill="none">
  <path d="M4.58337 13.332C8.75004 15.4154 11.25 15.4154 15.4167 13.332" stroke="currentColor"
    stroke-width="1.25" stroke-linecap="round" stroke-linejoin="round" />
  <path
    d="M12.9167 14.582L13.75 16.2487C13.75 16.2487 17.2261 15.1418 18.3333 13.332C18.3333 12.4987 18.7751 6.54319 15.8333 4.58203C14.5833 3.7487 12.5 3.33203 12.5 3.33203L11.6667 4.9987H10"
    stroke="currentColor" stroke-width="1.25" stroke-linecap="round" stroke-linejoin="round" />
  <path
    d="M7.10686 14.582L6.27352 16.2487C6.27352 16.2487 2.79742 15.1418 1.69019 13.332C1.69019 12.4987 1.24845 6.54319 4.19019 4.58203C5.44019 3.7487 7.52352 3.33203 7.52352 3.33203L8.35684 4.9987H10.0235"
    stroke="currentColor" stroke-width="1.25" stroke-linecap="round" stroke-linejoin="round" />
  <path
    d="M7.08337 11.6654C6.39302 11.6654 5.83337 10.9192 5.83337 9.9987C5.83337 9.0782 6.39302 8.33203 7.08337 8.33203C7.77373 8.33203 8.33337 9.0782 8.33337 9.9987C8.33337 10.9192 7.77373 11.6654 7.08337 11.6654Z"
    stroke="currentColor" stroke-width="1.25" stroke-linecap="round" stroke-linejoin="round" />
  <path
    d="M12.9166 11.6654C12.2263 11.6654 11.6666 10.9192 11.6666 9.9987C11.6666 9.0782 12.2263 8.33203 12.9166 8.33203C13.607 8.33203 14.1666 9.0782 14.1666 9.9987C14.1666 10.9192 13.607 11.6654 12.9166 11.6654Z"
    stroke="currentColor" stroke-width="1.25" stroke-linecap="round" stroke-linejoin="round" />
</svg>