<svg width="24" height="24" viewBox="0 0 24 24" fill="none" xmlns="http://www.w3.org/2000/svg">
<path d="M12 4.90039C15.9212 4.90039 19.0996 8.07878 19.0996 12C19.0996 15.9212 15.9212 19.0996 12 19.0996C8.07878 19.0996 4.90039 15.9212 4.90039 12C4.90039 8.07878 8.07878 4.90039 12 4.90039Z" stroke="currentColor" stroke-width="1.8"/>
<path fill-rule="evenodd" clip-rule="evenodd" d="M15.6047 12.5756L15.6047 13.4206C15.6047 13.654 15.4156 13.8432 15.1822 13.8432L10.7962 13.8432C10.7065 13.8432 10.6232 13.8152 10.5548 13.7675L10.5156 13.7365L10.4803 13.7013C10.414 13.6266 10.3737 13.5283 10.3737 13.4206L10.3737 9.02012C10.3737 8.78675 10.5628 8.59757 10.7962 8.59757L11.6413 8.59757C11.8747 8.59757 12.0638 8.78675 12.0638 9.02012L12.064 12.1529L15.1822 12.153C15.4156 12.153 15.6047 12.3422 15.6047 12.5756Z" fill="currentColor"/>
</svg>
