<svg preserveAspectRatio="none" width="100%" height="100%" overflow="visible" style="display: block;" viewBox="0 0 22 22" fill="none" xmlns="http://www.w3.org/2000/svg">
<path id="Vector" d="M6 20H2.5C2.2 20 2 19.8 2 19.5V16C2 15.4 1.6 15 1 15C0.4 15 -2.34375e-08 15.4 0 16V19.5C0 20.9 1.1 22 2.5 22H6C6.6 22 7 21.6 7 21C7 20.4 6.6 20 6 20ZM21 15C20.4 15 20 15.4 20 16V19.5C20 19.8 19.8 20 19.5 20H16C15.4 20 15 20.4 15 21C15 21.6 15.4 22 16 22H19.5C20.9 22 22 20.9 22 19.5V16C22 15.4 21.6 15 21 15ZM19.5 0H16C15.4 0 15 0.4 15 1C15 1.6 15.4 2 16 2H19.5C19.8 2 20 2.2 20 2.5V6C20 6.6 20.4 7 21 7C21.6 7 22 6.6 22 6V2.5C22 1.1 20.9 0 19.5 0ZM1 7C1.6 7 2 6.6 2 6V2.5C2 2.2 2.2 2 2.5 2H6C6.6 2 7 1.6 7 1C7 0.4 6.6 -2.34375e-08 6 0H2.5C1.1 0 0 1.1 0 2.5V6C0 6.6 0.4 7 1 7ZM15.9 14.5C16.2 14 16 13.4 15.5 13.1C15 12.8 14.4 13 14.1 13.5C14.1 13.5 13.2 15 11 15C8.8 15 7.9 13.6 7.9 13.5C7.6 13 7 12.9 6.5 13.1C6 13.4 5.9 14 6.1 14.5C6.2 14.6 7.6 17 11 17C14.4 17 15.8 14.6 15.9 14.5ZM11 11C11.6 11 12 10.6 12 10V6C12 5.4 11.6 5 11 5C10.4 5 10 5.4 10 6V10C10 10.6 10.4 11 11 11ZM16 8C16.6 8 17 7.6 17 7V6C17 5.4 16.6 5 16 5C15.4 5 15 5.4 15 6V7C15 7.6 15.4 8 16 8ZM6 5C5.4 5 5 5.4 5 6V7C5 7.6 5.4 8 6 8C6.6 8 7 7.6 7 7V6C7 5.4 6.6 5 6 5Z" fill="var(--fill-0, white)"/>
</svg>
