<svg width="24" height="24" viewBox="0 0 24 24" fill="none" xmlns="http://www.w3.org/2000/svg">
<path d="M12 19C13.933 19 15.683 18.2165 16.9497 16.9497C18.2165 15.683 19 13.933 19 12C19 10.067 18.2165 8.31702 16.9497 7.05025C15.683 5.7835 13.933 5 12 5C10.067 5 8.31702 5.7835 7.05025 7.05025C5.7835 8.31702 5 10.067 5 12C5 13.933 5.7835 15.683 7.05025 16.9497C8.31702 18.2165 10.067 19 12 19Z" stroke="#FF564B" stroke-width="2" stroke-linecap="round" stroke-linejoin="round"/>
<path d="M12 13.3298C11.672 13.3298 11.3998 13.0765 11.3761 12.7494L11.1243 9.26913L11.1093 8.93128C11.0867 8.42379 11.492 8 12 8C12.508 8 12.9133 8.42379 12.8907 8.93128L12.8757 9.26913L12.6239 12.7494C12.6002 13.0765 12.328 13.3298 12 13.3298ZM12.0056 16.5C11.4181 16.5 11 16.0607 11 15.4433C11 14.8259 11.4294 14.3984 12.0056 14.3984C12.5706 14.3984 13 14.8259 13 15.4433C13 16.0607 12.5706 16.5 12.0056 16.5Z" fill="#FF453A"/>
</svg>
