<svg preserveAspectRatio="none" width="100%" height="100%" overflow="visible" style="display: block;" viewBox="0 0 18.415 18.4117" fill="none" xmlns="http://www.w3.org/2000/svg">
<g id="Group 1244831414">
<path id="Vector" d="M12.1417 8.64054C12.3298 8.96528 12.4882 9.30813 12.6182 9.66496L12.6358 9.71183L12.588 9.72843L11.3809 10.1689L11.3341 10.1855L11.3165 10.1386C11.2141 9.85778 11.0901 9.58846 10.9425 9.3339L10.9171 9.29093L10.96 9.26554L12.0733 8.62297L12.1173 8.59758L12.1417 8.64054Z" fill="var(--fill-0, #F7FAFC)" stroke="var(--stroke-0, white)" stroke-width="0.1"/>
<path id="Vector_2" d="M10.699 6.9158C10.9875 7.15817 11.2545 7.42604 11.4968 7.71462L11.529 7.75271L11.491 7.78494L10.5056 8.61111L10.4675 8.64334L10.4353 8.60525C10.2447 8.37855 10.0345 8.16838 9.80737 7.97732L9.76928 7.94509L9.80151 7.90701L10.6277 6.92166L10.6599 6.88357L10.699 6.9158Z" fill="var(--fill-0, #F7FAFC)" stroke="var(--stroke-0, white)" stroke-width="0.1"/>
<path id="Vector_3" d="M8.74874 5.79133C9.10548 5.92135 9.4476 6.08031 9.77218 6.26789L9.81515 6.2923L9.79074 6.33625L9.14816 7.44953L9.12277 7.4925L9.07882 7.46711C8.82434 7.31954 8.55485 7.19543 8.27414 7.09308L8.22726 7.07551L8.24484 7.02863L8.68429 5.82062L8.70187 5.77375L8.74874 5.79133Z" fill="var(--fill-0, #F7FAFC)" stroke="var(--stroke-0, white)" stroke-width="0.1"/>
<path id="Vector_4" d="M6.89643 8.47414C6.99878 8.75485 7.12289 9.02434 7.27046 9.27882L7.29585 9.32277L7.25288 9.34816L6.1396 9.99074L6.09565 10.0152L6.07124 9.97218C5.8832 9.64754 5.72468 9.30545 5.59468 8.94874L5.5771 8.90187L5.62397 8.88429L6.83198 8.44484L6.87886 8.42726L6.89643 8.47414Z" fill="var(--fill-0, #F7FAFC)" stroke="var(--stroke-0, white)" stroke-width="0.1"/>
<path id="Vector_5" d="M7.77732 10.0074C7.96795 10.2341 8.17811 10.4442 8.40525 10.6353L8.44334 10.6675L8.41111 10.7056L7.58494 11.691L7.55271 11.729L7.51462 11.6968C7.22605 11.4545 6.95817 11.1875 6.7158 10.899L6.68357 10.8599L6.72166 10.8277L7.70701 10.0015L7.74509 9.96928L7.77732 10.0074Z" fill="var(--fill-0, #F7FAFC)" stroke="var(--stroke-0, white)" stroke-width="0.1"/>
<path id="Vector_6" d="M9.1339 11.1425C9.38846 11.2901 9.65778 11.4141 9.93859 11.5165L9.98547 11.5341L9.96886 11.5809L9.52843 12.788L9.51183 12.8358L9.46496 12.8182C9.1081 12.6882 8.76523 12.5293 8.44054 12.3417L8.39758 12.3173L8.42297 12.2733L9.06554 11.16L9.09093 11.1171L9.1339 11.1425Z" fill="var(--fill-0, #F7FAFC)" stroke="var(--stroke-0, white)" stroke-width="0.1"/>
<path id="Vector_7" d="M11.6791 0.250195C15.2536 0.250271 18.1614 3.15809 18.1615 6.73262C18.1615 9.8779 15.9343 12.5245 12.8988 13.0988C12.3245 16.1343 9.6779 18.3615 6.53262 18.3615C2.95809 18.3614 0.050271 15.4536 0.0501953 11.8791C0.0501953 8.73408 2.27681 6.08651 5.31191 5.51191C5.88651 2.47681 8.53408 0.250195 11.6791 0.250195ZM11.6791 1.63691C9.33525 1.63691 7.34833 3.21106 6.76309 5.40645C7.06655 5.4183 7.36518 5.44883 7.65762 5.5002L7.70742 5.50898L7.69863 5.55781L7.475 6.82344L7.46621 6.87324L7.41738 6.86445C7.1454 6.81705 6.86723 6.78668 6.5834 6.7834C6.58668 7.06717 6.61667 7.34494 6.66445 7.61641L6.67324 7.66621L6.62441 7.67402L5.35781 7.89766L5.30898 7.90645L5.3002 7.85762C5.24886 7.56575 5.21801 7.26652 5.20645 6.96309C3.0109 7.54892 1.43691 9.53543 1.43691 11.8791C1.43699 14.6891 3.72264 16.9747 6.53262 16.9748C8.8767 16.9748 10.8626 15.4 11.4477 13.2043C11.1445 13.1924 10.8462 13.1628 10.5541 13.1115L10.5043 13.1027L10.5131 13.0539L10.7367 11.7883L10.7455 11.7385L10.7943 11.7473C11.066 11.7946 11.3439 11.824 11.6273 11.8273C11.624 11.5439 11.595 11.2665 11.5473 10.9953L11.5385 10.9455L11.5873 10.9377L12.8539 10.7141L12.9027 10.7053L12.9115 10.7541C12.9628 11.0456 12.9927 11.3446 13.0043 11.6477C15.2002 11.062 16.7748 9.07652 16.7748 6.73262C16.7747 3.92264 14.4891 1.63699 11.6791 1.63691Z" fill="var(--fill-0, #F7FAFC)" stroke="var(--stroke-0, white)" stroke-width="0.1"/>
<g id="Subtract">
<mask id="path-8-outside-1_0_44" maskUnits="userSpaceOnUse" x="4.37967" y="-0.7" width="15" height="15" fill="black">
<rect fill="white" x="4.37967" y="-0.7" width="15" height="15"/>
<path d="M11.6814 0.3C15.2284 0.3 18.1149 3.18566 18.115 6.73262C18.115 9.76615 16.0269 12.3333 13.1443 12.9982C13.0618 12.2331 12.8761 11.4993 12.6043 10.8088L12.865 10.7629C12.9195 11.0724 12.9503 11.3903 12.9597 11.7131C15.2086 11.1423 16.8279 9.12089 16.8279 6.73262C16.8278 3.89498 14.5191 1.58613 11.6814 1.58613C9.29332 1.58631 7.27227 3.20595 6.70193 5.4543C7.02473 5.46417 7.34219 5.49458 7.65213 5.54902L7.58572 5.92402C6.88828 5.67178 6.14836 5.50975 5.37967 5.44844C5.97816 2.47436 8.58602 0.30018 11.6814 0.3Z"/>
</mask>
<path d="M11.6814 0.3C15.2284 0.3 18.1149 3.18566 18.115 6.73262C18.115 9.76615 16.0269 12.3333 13.1443 12.9982C13.0618 12.2331 12.8761 11.4993 12.6043 10.8088L12.865 10.7629C12.9195 11.0724 12.9503 11.3903 12.9597 11.7131C15.2086 11.1423 16.8279 9.12089 16.8279 6.73262C16.8278 3.89498 14.5191 1.58613 11.6814 1.58613C9.29332 1.58631 7.27227 3.20595 6.70193 5.4543C7.02473 5.46417 7.34219 5.49458 7.65213 5.54902L7.58572 5.92402C6.88828 5.67178 6.14836 5.50975 5.37967 5.44844C5.97816 2.47436 8.58602 0.30018 11.6814 0.3Z" fill="var(--fill-0, #F7FAFC)"/>
<path d="M11.6814 0.3V0H11.6814L11.6814 0.3ZM18.115 6.73262H18.415V6.73261L18.115 6.73262ZM13.1443 12.9982L12.846 13.0304L12.8823 13.3666L13.2117 13.2906L13.1443 12.9982ZM12.6043 10.8088L12.5523 10.5133L12.1906 10.577L12.3251 10.9187L12.6043 10.8088ZM12.865 10.7629L13.1605 10.7109L13.1085 10.4154L12.813 10.4674L12.865 10.7629ZM12.9597 11.7131L12.6599 11.7219L12.6708 12.0959L13.0335 12.0039L12.9597 11.7131ZM16.8279 6.73262H17.1279V6.73261L16.8279 6.73262ZM11.6814 1.58613V1.28613H11.6814L11.6814 1.58613ZM6.70193 5.4543L6.41114 5.38053L6.31926 5.74273L6.69276 5.75416L6.70193 5.4543ZM7.65213 5.54902L7.94753 5.60133L7.99991 5.30552L7.70403 5.25355L7.65213 5.54902ZM7.58572 5.92402L7.48369 6.20614L7.81896 6.32739L7.88112 5.97633L7.58572 5.92402ZM5.37967 5.44844L5.08556 5.38925L5.01888 5.72061L5.35581 5.74749L5.37967 5.44844ZM11.6814 0.3V0.6C15.0628 0.6 17.8149 3.3514 17.815 6.73262L18.115 6.73262L18.415 6.73261C18.4149 3.01992 15.394 0 11.6814 0V0.3ZM18.115 6.73262H17.815C17.815 9.62533 15.8245 12.0721 13.0769 12.7059L13.1443 12.9982L13.2117 13.2906C16.2294 12.5945 18.415 9.90697 18.415 6.73262H18.115ZM13.1443 12.9982L13.4426 12.9661C13.3572 12.1734 13.1647 11.4136 12.8834 10.6989L12.6043 10.8088L12.3251 10.9187C12.5874 11.5851 12.7665 12.2928 12.846 13.0304L13.1443 12.9982ZM12.6043 10.8088L12.6563 11.1042L12.917 11.0583L12.865 10.7629L12.813 10.4674L12.5523 10.5133L12.6043 10.8088ZM12.865 10.7629L12.5696 10.8149C12.6213 11.1089 12.6508 11.4123 12.6599 11.7219L12.9597 11.7131L13.2596 11.7043C13.2498 11.3682 13.2176 11.0359 13.1605 10.7109L12.865 10.7629ZM12.9597 11.7131L13.0335 12.0039C15.4137 11.3997 17.1279 9.25997 17.1279 6.73262H16.8279H16.5279C16.5279 8.9818 15.0036 10.8848 12.8859 11.4223L12.9597 11.7131ZM16.8279 6.73262L17.1279 6.73261C17.1278 3.7293 14.6848 1.28613 11.6814 1.28613V1.58613V1.88613C14.3534 1.88613 16.5278 4.06066 16.5279 6.73263L16.8279 6.73262ZM11.6814 1.58613L11.6814 1.28613C9.1542 1.28632 7.01478 3.00093 6.41114 5.38053L6.70193 5.4543L6.99272 5.52806C7.52976 3.41098 9.43245 1.8863 11.6814 1.88613L11.6814 1.58613ZM6.70193 5.4543L6.69276 5.75416C7.0028 5.76364 7.30588 5.7928 7.60022 5.8445L7.65213 5.54902L7.70403 5.25355C7.37849 5.19636 7.04665 5.1647 6.71111 5.15444L6.70193 5.4543ZM7.65213 5.54902L7.35672 5.49671L7.29032 5.87171L7.58572 5.92402L7.88112 5.97633L7.94753 5.60133L7.65213 5.54902ZM7.58572 5.92402L7.68775 5.64191C6.96506 5.38054 6.19885 5.21283 5.40352 5.14939L5.37967 5.44844L5.35581 5.74749C6.09787 5.80668 6.8115 5.96303 7.48369 6.20614L7.58572 5.92402ZM5.37967 5.44844L5.67377 5.50762C6.24426 2.67268 8.72983 0.600172 11.6814 0.6L11.6814 0.3L11.6814 0C8.4422 0.000188559 5.71205 2.27603 5.08556 5.38925L5.37967 5.44844Z" fill="var(--stroke-0, white)" mask="url(#path-8-outside-1_0_44)"/>
</g>
</g>
</svg>
