<svg width="129" height="100" viewBox="0 0 129 100" fill="none" xmlns="http://www.w3.org/2000/svg">
<mask id="mask0_73351_362389" style="mask-type:alpha" maskUnits="userSpaceOnUse" x="1" y="36" width="97" height="57">
<rect width="42.3134" height="69.5899" transform="matrix(0.866025 0.5 -0.866025 0.5 61.3555 36.3359)" fill="#D9D9D9"/>
</mask>
<g mask="url(#mask0_73351_362389)">
<path d="M61.3555 36.3359L98 57.4927V66.5848L61.3555 45.4281V36.3359Z" fill="#4C65FF" fill-opacity="0.25"/>
<path d="M1.08203 71.1309L61.3486 36.3359V45.4281L1.08203 80.223V71.1309Z" fill="#4C65FF" fill-opacity="0.25"/>
<rect width="42.3134" height="69.5899" transform="matrix(0.866025 0.5 -0.866025 0.5 61.3555 45.4277)" fill="black"/>
</g>
<path fill-rule="evenodd" clip-rule="evenodd" d="M22.159 76.0282C20.5803 75.2247 19.5945 73.3593 19.5945 70.659C19.5945 65.466 23.2402 59.1514 27.7375 56.5549C29.8962 55.3086 31.8587 55.1455 33.316 55.8871L30.4754 54.2471C29.0181 53.5054 27.0556 53.6686 24.8969 54.9149C20.3997 57.5114 16.7539 63.826 16.7539 69.019C16.7539 71.7193 17.7397 73.5847 19.3184 74.3882L22.159 76.0282Z" fill="#B75DD8" stroke="#F4D1FE" stroke-width="0.3"/>
<path fill-rule="evenodd" clip-rule="evenodd" d="M33.3139 55.8861C34.8927 56.6896 35.8785 58.5549 35.8785 61.2552C35.8785 66.4482 32.2327 72.7629 27.7355 75.3594C25.5768 76.6057 23.6143 76.7688 22.157 76.0272L19.3164 74.3872C20.7737 75.1288 22.7362 74.9657 24.8949 73.7194C29.3921 71.1229 33.0379 64.8082 33.0379 59.6152C33.0379 56.9149 32.0521 55.0496 30.4734 54.2461L33.3139 55.8861Z" fill="#6580E1"/>
<circle cx="9.40274" cy="9.40274" r="9.40274" transform="matrix(0.866025 -0.5 0 1 19.5977 61.2559)" fill="#F4D1FE"/>
<path d="M26.3786 70.7122C26.2255 70.7647 26.1431 70.699 26.1774 70.5243L26.3041 69.8783C25.0045 70.264 24.2807 69.9241 24.1821 69.2366C24.1652 69.1288 24.1666 69.0246 24.1863 68.924C24.2611 68.5428 24.5621 68.1976 24.9807 68.0543C25.2973 67.9459 25.4784 68.0419 25.5611 68.3001C25.6435 68.6572 25.9059 68.8489 26.5378 68.6868L26.9158 66.7593L26.5557 66.7987C25.2794 66.9443 24.6709 66.5748 24.8952 65.431C25.1455 64.1548 26.3285 62.9791 27.7674 62.4172L27.8972 61.7553C27.9315 61.5805 28.0533 61.445 28.2065 61.3925C28.3596 61.3401 28.442 61.4057 28.4077 61.5805L28.2779 62.2424C29.4763 61.911 30.1972 62.2421 30.2823 62.9737C30.2921 63.0691 30.2918 63.168 30.27 63.2792C30.2014 63.6287 29.9015 63.9438 29.5135 64.0767C29.197 64.1851 29.0076 64.1067 28.9045 63.8555C28.7905 63.4894 28.5198 63.3401 28.0432 63.4391L27.6776 65.3031L28.0582 65.2567C29.3926 65.106 30.0084 65.4385 29.7809 66.5982C29.5182 67.9379 28.3025 69.1099 26.8146 69.7034L26.6879 70.3495C26.6536 70.5242 26.5318 70.6598 26.3786 70.7122ZM26.3516 64.8038C26.2675 65.2327 26.5137 65.4102 27.191 65.3561L27.5337 63.6086C26.8525 63.9012 26.4358 64.3749 26.3516 64.8038ZM28.3244 67.2501C28.4168 66.7788 28.1777 66.6384 27.4024 66.7063L27.0483 68.512C27.7948 68.202 28.2289 67.7372 28.3244 67.2501Z" fill="#B75DD8"/>
<path d="M33.0889 59.8672C35.088 58.713 36.8889 58.5147 38.2568 59.0801L38.5244 59.2031L40.1943 60.167C38.901 59.9778 37.3851 60.32 35.7793 61.2471C33.5026 62.5616 31.45 64.8118 29.9668 67.3809C28.4836 69.9499 27.5615 72.8525 27.5615 75.4814C27.5616 77.3342 28.0221 78.8176 28.8311 79.8428L27.5107 79.0801L27.5039 79.0771L27.2266 78.9209C25.8753 78.0801 25.0215 76.3416 25.0215 73.8408C25.0216 71.277 25.922 68.426 27.3857 65.8906C28.8496 63.3551 30.8685 61.1492 33.0889 59.8672Z" fill="#006745" stroke="#00D18C" stroke-width="0.3"/>
<path fill-rule="evenodd" clip-rule="evenodd" d="M41.435 60.7084C43.0138 61.5118 43.9996 63.3772 43.9996 66.0775C43.9996 71.2705 40.3538 77.5852 35.8565 80.1817C33.6979 81.428 31.7354 81.5911 30.2781 80.8494L27.4375 79.2094C28.8948 79.9511 30.8573 79.788 33.016 78.5417C37.5132 75.9452 41.159 69.6305 41.159 64.4375C41.159 61.7371 40.1732 59.8718 38.5945 59.0684L41.435 60.7084Z" fill="#6580E1"/>
<circle cx="9.40274" cy="9.40274" r="9.40274" transform="matrix(0.866025 -0.5 0 1 27.7148 66.0801)" fill="#00D18C"/>
<path d="M36.2031 75.8755C36.0629 75.9565 35.9694 75.9079 35.9694 75.7298V75.0715C34.7684 75.7001 33.9926 75.5059 33.7636 74.8502C33.7262 74.7477 33.7075 74.6452 33.7075 74.5427C33.7075 74.1541 33.9365 73.7575 34.3197 73.5363C34.6095 73.369 34.8058 73.4283 34.9366 73.6658C35.0862 74.0003 35.3806 74.1379 35.9694 73.8573V71.8931L35.6236 72.0011C34.3992 72.3896 33.7309 72.1441 33.7309 70.9785C33.7309 69.678 34.6656 68.2966 35.9694 67.4683V66.7937C35.9694 66.6157 36.0629 66.4592 36.2031 66.3782C36.3433 66.2973 36.4367 66.3459 36.4367 66.5239V67.1985C37.5489 66.6426 38.32 66.8288 38.5443 67.5303C38.5724 67.6221 38.5911 67.7192 38.5911 67.8325C38.5911 68.1887 38.3574 68.5556 38.0022 68.7607C37.7125 68.9279 37.5116 68.8875 37.362 68.6608C37.1798 68.3236 36.8853 68.2291 36.4367 68.418V70.3174L36.8012 70.1987C38.0817 69.794 38.75 70.0018 38.75 71.1835C38.75 72.5488 37.7826 73.9329 36.4367 74.8017V75.46C36.4367 75.6381 36.3433 75.7946 36.2031 75.8755ZM35.0394 70.0827C35.0394 70.5198 35.3151 70.6466 35.9694 70.4631V68.6824C35.3572 69.1006 35.0394 69.6456 35.0394 70.0827ZM37.4461 72.1036C37.4461 71.6233 37.1844 71.5316 36.4367 71.7474V73.5875C37.1097 73.1397 37.4461 72.6 37.4461 72.1036Z" fill="white"/>
<path fill-rule="evenodd" clip-rule="evenodd" d="M38.2762 85.8543C36.6975 85.0509 35.7117 83.1855 35.7117 80.4852C35.7117 75.2922 39.3574 68.9776 43.8547 66.3811C46.0134 65.1348 47.9759 64.9716 49.4332 65.7133L46.5926 64.0733C45.1353 63.3316 43.1728 63.4947 41.0141 64.7411C36.5168 67.3375 32.8711 73.6522 32.8711 78.8451C32.8711 81.5455 33.8569 83.4108 35.4356 84.2143L38.2762 85.8543Z" fill="#853703" stroke="#FFD13F" stroke-width="0.2"/>
<path fill-rule="evenodd" clip-rule="evenodd" d="M49.435 65.7123C51.0138 66.5157 51.9996 68.3811 51.9996 71.0814C51.9996 76.2744 48.3538 82.5891 43.8565 85.1856C41.6979 86.4319 39.7354 86.595 38.2781 85.8533L35.4375 84.2133C36.8948 84.955 38.8573 84.7919 41.016 83.5456C45.5132 80.9491 49.159 74.6344 49.159 69.4414C49.159 66.741 48.1732 64.8757 46.5945 64.0723L49.435 65.7123Z" fill="#6580E1"/>
<circle cx="9.40274" cy="9.40274" r="9.40274" transform="matrix(0.866025 -0.5 0 1 35.7148 71.084)" fill="#FFD13F"/>
<path d="M44.2031 80.8794C44.0629 80.9604 43.9694 80.9118 43.9694 80.7337V80.0754C42.7684 80.704 41.9926 80.5098 41.7636 79.8541C41.7262 79.7516 41.7075 79.6491 41.7075 79.5466C41.7075 79.158 41.9365 78.7614 42.3197 78.5402C42.6095 78.3729 42.8058 78.4323 42.9366 78.6697C43.0862 79.0043 43.3806 79.1419 43.9694 78.8613V76.897L43.6236 77.005C42.3992 77.3935 41.7309 77.148 41.7309 75.9824C41.7309 74.6819 42.6656 73.3005 43.9694 72.4722V71.7976C43.9694 71.6196 44.0629 71.4631 44.2031 71.3821C44.3433 71.3012 44.4367 71.3498 44.4367 71.5278V72.2024C45.5489 71.6466 46.32 71.8327 46.5443 72.5342C46.5724 72.626 46.5911 72.7231 46.5911 72.8364C46.5911 73.1926 46.3574 73.5595 46.0022 73.7646C45.7125 73.9318 45.5116 73.8914 45.362 73.6647C45.1798 73.3275 44.8853 73.233 44.4367 73.4219V75.3214L44.8012 75.2026C46.0817 74.7979 46.75 75.0057 46.75 76.1874C46.75 77.5527 45.7826 78.9368 44.4367 79.8056V80.4639C44.4367 80.642 44.3433 80.7985 44.2031 80.8794ZM43.0394 75.0866C43.0394 75.5237 43.3151 75.6505 43.9694 75.4671V73.6863C43.3572 74.1045 43.0394 74.6495 43.0394 75.0866ZM45.4461 77.1075C45.4461 76.6272 45.1844 76.5355 44.4367 76.7513V78.5914C45.1097 78.1436 45.4461 77.6039 45.4461 77.1075Z" fill="#853703"/>
<ellipse cx="21.6786" cy="21.6786" rx="21.6786" ry="21.6786" transform="matrix(0.899427 0.437072 0.0711981 0.997462 44.7344 8.74609)" fill="#E8EBFF"/>
<path d="M50.892 17.8545C54.3979 15.4824 59.2372 15.7961 64.2273 18.221L69.913 14.374C64.9229 11.9491 60.0836 11.6354 56.5777 14.0075L50.892 17.8545Z" fill="#9296B2" stroke="#E8EBFF" stroke-width="0.5"/>
<path d="M85.2744 49.329C84.422 37.3867 75.0013 23.4633 64.2327 18.2304L69.9184 14.3834C80.687 19.6163 90.1077 33.5396 90.9601 45.482L85.2744 49.329Z" fill="#9296B2" stroke="#E8EBFF" stroke-width="0.5"/>
<path d="M80.6605 61.8382C84.1664 59.4661 85.675 54.8572 85.28 49.3232L90.9657 45.4762C91.3607 51.0102 89.8521 55.6191 86.3462 57.9912L80.6605 61.8382Z" fill="#9296B2" stroke="#E8EBFF" stroke-width="0.5"/>
<path d="M66.3183 27.6287L66.4739 28.3646L66.2841 46.9336L66.12 47.0257L58.7515 37.5447L66.3183 27.6287Z" fill="#343434"/>
<path d="M66.3215 27.6256L73.596 46.3137L66.1232 47.0226L66.2153 38.0097L66.3215 27.6256Z" fill="#8C8C8C"/>
<path d="M66.1065 48.6574L66.1966 48.841L66.129 55.4555L66.0344 55.7115L58.7335 39.1764L66.1065 48.6574Z" fill="#3C3C3B"/>
<path d="M66.0333 55.7095L66.1054 48.6555L73.5781 47.9492L66.0333 55.7095Z" fill="#8C8C8C"/>
<path d="M66.1227 47.0226L58.7543 37.5417L66.2148 38.0098L66.1227 47.0226Z" fill="#141414"/>
<path d="M73.5928 46.3144L66.12 47.0233L66.2121 38.0104L73.5928 46.3144Z" fill="#393939"/>
</svg>
