<svg width="24" height="24" viewBox="0 0 24 24" fill="none" xmlns="http://www.w3.org/2000/svg">
<path d="M19.2715 12.0703C19.2723 16.0416 16.0425 19.2715 12.0723 19.2715C8.10125 19.2715 4.87109 16.0419 4.87109 12.0713C4.87111 8.10065 8.10211 4.8711 12.0723 4.87109H12.0742C12.3107 4.87499 12.5363 4.97206 12.7021 5.14062C12.8679 5.30915 12.9608 5.53608 12.9609 5.77246C12.9609 6.00901 12.868 6.23664 12.7021 6.40527C12.5363 6.57383 12.3107 6.67091 12.0742 6.6748H12.0723C9.09635 6.67481 6.67482 9.09572 6.6748 12.0713C6.6748 15.0468 9.09714 17.4678 12.0723 17.4678C15.0473 17.4678 17.4678 15.0459 17.4678 12.0703V12.0684H17.4688C17.4727 11.8319 17.5687 11.6063 17.7373 11.4404C17.906 11.2746 18.1336 11.1816 18.3701 11.1816C18.6065 11.1817 18.8334 11.2747 19.002 11.4404C19.1706 11.6063 19.2675 11.8319 19.2715 12.0684V12.0703Z" fill="#FF9F0A" stroke="#FF9F0A" stroke-width="0.257143"/>
</svg>
