<svg width="24" height="24" viewBox="0 0 24 24" fill="none" xmlns="http://www.w3.org/2000/svg">
<g clip-path="url(#clip0_72540_148510)">
<path d="M9.07031 11.2873L11.494 13.6429L16.7846 8.5" stroke="#58C669" stroke-width="1.92857" stroke-linecap="round" stroke-linejoin="round"/>
<path d="M20.0498 11.999C20.0508 16.439 16.4398 20.0498 12.001 20.0498C7.56126 20.0498 3.95026 16.4393 3.9502 12C3.9502 7.56069 7.56218 3.9502 12.001 3.9502H12.002C12.2444 3.95424 12.4754 4.05368 12.6455 4.22656C12.8154 4.39938 12.911 4.63167 12.9111 4.87402C12.9111 5.11657 12.8156 5.34954 12.6455 5.52246C12.4754 5.69535 12.2444 5.79479 12.002 5.79883H12.001C8.58156 5.79883 5.79883 8.58095 5.79883 12C5.79889 15.419 8.58254 18.2002 12.001 18.2002C15.4194 18.2002 18.2012 15.4181 18.2012 11.999V11.998C18.2052 11.7556 18.3047 11.5245 18.4775 11.3545C18.6503 11.1846 18.8827 11.089 19.125 11.0889C19.3675 11.0889 19.6005 11.1845 19.7734 11.3545C19.9463 11.5245 20.0457 11.7556 20.0498 11.998V11.999Z" fill="#58C669" stroke="#58C669" stroke-width="0.1"/>
</g>
<defs>
<clipPath id="clip0_72540_148510">
<rect width="18" height="18" fill="white" transform="translate(3 3)"/>
</clipPath>
</defs>
</svg>
