<svg xmlns="http://www.w3.org/2000/svg" width="23" height="23" viewBox="0 0 23 23" fill="none">
  <path
    d="M6.59341 10.9339C6.46835 11.8596 6.46835 12.9981 6.46835 14.2387V16.3806C6.46835 16.6652 6.46835 16.8061 6.37635 16.8923C6.28435 16.9771 6.14635 16.9671 5.87035 16.9469C5.64258 16.9308 5.41535 16.9078 5.18897 16.8779C4.26897 16.7543 3.50566 16.5056 2.86166 15.9766C2.63123 15.7879 2.41986 15.577 2.2306 15.347C1.67285 14.6671 1.42847 13.8534 1.3106 12.8659C1.19704 11.9028 1.19704 10.6866 1.19704 9.15138V9.05795C1.19704 7.5227 1.19704 6.30513 1.31204 5.34345C1.42704 4.35445 1.67285 3.54226 2.23204 2.86232C2.41891 2.63232 2.63166 2.42101 2.86166 2.23126C3.5416 1.67351 4.35522 1.42913 5.34279 1.31126C6.30591 1.1977 7.52204 1.1977 9.05585 1.1977H9.14929C10.6845 1.1977 11.9007 1.1977 12.8638 1.3127C13.8513 1.4277 14.665 1.67351 15.3449 2.2327C15.5749 2.41957 15.7862 2.63232 15.9745 2.86232C16.5035 3.50632 16.7508 4.27107 16.8758 5.19107C16.9046 5.40382 16.9276 5.63095 16.9448 5.87101C16.965 6.14701 16.975 6.28501 16.8902 6.37701C16.804 6.46901 16.6631 6.46901 16.3785 6.46901H14.2366C12.996 6.46901 11.859 6.46901 10.9303 6.59407C9.90972 6.73063 8.82872 7.05407 7.94035 7.94245C7.05197 8.83082 6.72854 9.91182 6.59197 10.9324L6.59341 10.9339Z"
    fill="currentColor"
    opacity="0.6"
  />
  <path
    d="M15.3856 7.90625H14.3218C13.0123 7.90625 11.9557 7.90625 11.1248 8.01838C10.2623 8.13338 9.53637 8.38206 8.9585 8.9585C8.38206 9.53637 8.13338 10.2623 8.01838 11.1248C7.90625 11.9557 7.90625 13.0123 7.90625 14.3218V15.3856C7.90625 16.6966 7.90625 17.7531 8.01838 18.584C8.13338 19.4465 8.38206 20.1724 8.9585 20.7489C9.53637 21.3268 10.2623 21.574 11.1248 21.6904C11.9557 21.8026 13.0123 21.8026 14.3218 21.8026H15.3856C16.6966 21.8026 17.7531 21.8026 18.584 21.6904C19.4465 21.5754 20.1724 21.3268 20.7489 20.7489C21.3268 20.1739 21.574 19.4465 21.6904 18.584C21.8026 17.7531 21.8026 16.6966 21.8026 15.3856V14.3218C21.8026 13.0123 21.8026 11.9557 21.6904 11.1248C21.5754 10.2623 21.3268 9.53637 20.7489 8.9585C20.1739 8.38206 19.4465 8.13338 18.584 8.01838C17.7531 7.90625 16.6966 7.90625 15.3856 7.90625Z"
    fill="currentColor"
  />
</svg>
