<svg width="20" height="20" viewBox="0 0 20 20" fill="none" xmlns="http://www.w3.org/2000/svg">
  <rect width="20" height="20" rx="10" fill="#000000"/>
  <path d="M8.48579 3.50035C7.67766 3.5 6.87093 3.49965 6.06001 3.5007C5.56966 3.5007 5.38577 4.06783 5.7505 4.4037L11.2706 9.48911C11.4429 9.63431 11.5503 9.79202 11.5542 10C11.5503 10.208 11.4429 10.3658 11.2706 10.5109L5.7505 15.5963C5.38577 15.9322 5.56966 16.4993 6.06001 16.4993C6.87093 16.5004 7.67766 16.5 8.48579 16.4996C8.89036 16.4994 9.29531 16.4993 9.70128 16.4993C10.2324 16.4993 10.5484 16.2379 10.8321 15.9765L15.8106 11.3902C16.2078 11.0241 16.5634 10.5381 16.5585 10C16.5634 9.46187 16.2078 8.97588 15.8106 8.60984L10.8321 4.02352C10.5484 3.76211 10.2324 3.5007 9.70128 3.5007C9.29531 3.5007 8.89036 3.50058 8.48579 3.50035Z" fill="#00F0FF"/>
</svg>
