<svg width="20" height="20" viewBox="0 0 20 20" fill="none" xmlns="http://www.w3.org/2000/svg">
  <rect width="20" height="20" rx="10" fill="#9886e5"/>
  <path fill-rule="evenodd" clip-rule="evenodd" d="M8.5 14.5C7.5 16 5.8 18 3.5 18C2.4 18 1.4 17.5 1.4 15.5C1.4 10.5 7.3 3 13.1 3C16.7 3 18.1 5.5 18.1 8.3C18.1 12 16 16 13.5 16C12.8 16 12.4 15.5 12.4 15C12.4 14.8 12.4 14.6 12.5 14.5C11.7 15.8 10.2 17 8.8 17C7.8 17 7.2 16.3 7.2 15.4C7.2 15 7.3 14.7 7.4 14.5H8.5ZM13 8C13 7.2 12.5 6.7 12 6.7C11.4 6.7 11 7.2 11 8C11 8.8 11.4 9.3 12 9.3C12.5 9.3 13 8.8 13 8ZM15.5 8C15.5 7.2 15 6.7 14.5 6.7C13.9 6.7 13.5 7.2 13.5 8C13.5 8.8 13.9 9.3 14.5 9.3C15 9.3 15.5 8.8 15.5 8Z" fill="white"/>
</svg>
