<svg width="40" height="40" viewBox="0 0 40 40" fill="none" xmlns="http://www.w3.org/2000/svg">
<rect width="40" height="40" rx="12" fill="#0A84FF"/>
<path d="M19.6338 10.1016C21.3528 10.1016 22.9002 10.6249 24.2344 11.6973C25.5493 12.7542 26.4152 14.0918 26.833 15.7305H27.1719C28.2948 15.7305 29.3328 15.9927 30.2832 16.543C31.2312 17.0919 31.9939 17.8287 32.5439 18.7783L32.7412 19.1348C33.171 19.9773 33.3818 20.8949 33.3818 21.8779L33.3721 22.2754C33.3193 23.2019 33.0577 24.1066 32.6055 24.9209C32.0888 25.8514 31.3403 26.6327 30.4326 27.1885L30.4316 27.1875C29.5192 27.7622 28.519 28.0629 27.4199 28.0879H27.418C27.3261 28.0879 27.2426 28.0668 27.1816 28.0107C27.1193 27.9534 27.0957 27.8734 27.0957 27.79V26.1396C27.0958 26.0524 27.1178 25.9697 27.1797 25.9102C27.2402 25.8521 27.3237 25.8307 27.4141 25.8301L27.6045 25.8174C28.5466 25.73 29.3615 25.3256 30.0518 24.6016C30.7876 23.8295 31.1484 22.9267 31.1484 21.8779C31.1483 20.8192 30.7523 19.9053 29.9678 19.1328H29.9668C29.1825 18.3485 28.2567 17.964 27.1846 17.9639H25.1885C25.1053 17.9638 25.0274 17.9405 24.9707 17.8838C24.9163 17.8293 24.8934 17.7553 24.8916 17.6758L24.8057 16.9619V16.96C24.6825 15.69 24.0757 14.5161 23.1113 13.6807L23.1104 13.6797C22.1166 12.795 20.9673 12.3594 19.6465 12.3594C18.3131 12.3594 17.1638 12.7946 16.1826 13.6787L16.1816 13.6797C15.2013 14.5512 14.6573 15.6516 14.5361 16.96V16.9639L14.4375 17.6416C14.4348 17.724 14.4061 17.7984 14.3438 17.8516C14.2819 17.9042 14.1992 17.9249 14.1094 17.9258L13.46 17.9746L13.4609 17.9756C12.4591 18.0964 11.6161 18.5179 10.9287 19.2656C10.2418 20.0129 9.90536 20.8782 9.90527 21.8779C9.90527 22.9267 10.2663 23.8294 10.9902 24.6016C11.7138 25.3734 12.5912 25.7818 13.627 25.8301H13.626C13.7082 25.8306 13.7863 25.8542 13.8428 25.9131C13.8989 25.9719 13.9208 26.0525 13.9209 26.1396V27.79C13.9209 27.8733 13.8976 27.952 13.8408 28.0088C13.7841 28.0654 13.7062 28.0879 13.623 28.0879H13.6191C11.9586 28.013 10.5333 27.3754 9.37207 26.1768C8.2109 24.9781 7.62305 23.5517 7.62305 21.8779C7.62313 20.4415 8.07349 19.166 8.97266 18.042C9.85981 16.9331 10.9797 16.2128 12.3301 15.8818C12.7225 14.1987 13.6032 12.8073 14.9473 11.7344C16.3056 10.6502 17.8773 10.1016 19.6338 10.1016Z" fill="white" stroke="white" stroke-width="0.176432"/>
<path d="M20 29.7402V21.2402" stroke="white" stroke-width="2.5" stroke-linecap="round"/>
<path d="M17.2998 23.3281L20.1282 20.4997L22.9567 23.3281" stroke="white" stroke-width="2.5" stroke-linecap="round" stroke-linejoin="round"/>
</svg>
