<svg width="40" height="40" viewBox="0 0 40 40" fill="none" xmlns="http://www.w3.org/2000/svg">
<path d="M0 12C0 5.37258 5.37258 0 12 0H28C34.6274 0 40 5.37258 40 12V28C40 34.6274 34.6274 40 28 40H12C5.37258 40 0 34.6274 0 28V12Z" fill="#4C65FF"/>
<path d="M21.8511 18.7627C22.3497 18.7627 22.8599 19.14 22.8599 19.7715C22.8599 20.2702 22.4826 20.7803 21.8511 20.7803H16.105L16.0874 20.7764C15.8017 20.7192 15.5563 20.601 15.3813 20.4102C15.2043 20.217 15.1138 19.9645 15.1138 19.667C15.1139 19.4131 15.2099 19.1822 15.3921 19.0166C15.5733 18.8519 15.8264 18.7628 16.1216 18.7627H21.8511ZM24.9761 14.5967C25.4747 14.5967 25.9847 14.9732 25.9849 15.6045V15.626L25.979 15.6475C25.9195 15.8853 25.7982 16.102 25.6089 16.2598C25.4182 16.4187 25.1688 16.5088 24.8716 16.5088H16.1216C15.8262 16.5087 15.5694 16.4195 15.3862 16.2363C15.203 16.0531 15.1138 15.7963 15.1138 15.501C15.1138 15.247 15.2099 15.0163 15.3921 14.8506C15.5733 14.6858 15.8264 14.5967 16.1216 14.5967H24.9761Z" fill="white" stroke="white" stroke-width="0.35"/>
<path d="M25.5845 20.584C26.382 19.7868 27.6386 19.7866 28.436 20.584L29.7896 21.9385C30.1352 22.2842 30.3618 22.85 30.3618 23.3125C30.3617 23.8845 30.1312 24.3439 29.7896 24.6855L22.9302 31.5439C22.7879 31.7997 22.5253 31.9248 22.27 31.9248H19.4575C18.959 31.9246 18.4497 31.5474 18.4497 30.916V28.1035C18.4498 27.8458 18.5748 27.5937 18.7095 27.459L25.5845 20.584ZM27.062 21.9512C27.0186 21.9512 26.9889 21.9657 26.9771 21.9775L20.4663 28.4883V30.0117H21.9897L28.5005 23.501C28.5271 23.4744 28.5424 23.4582 28.5532 23.4463C28.5533 23.4399 28.5532 23.4309 28.5532 23.418C28.5526 23.415 28.5509 23.4109 28.5493 23.4062C28.5438 23.3898 28.5309 23.3625 28.5005 23.332L27.147 21.9775C27.1351 21.9657 27.1054 21.9512 27.062 21.9512Z" fill="white" stroke="white" stroke-width="0.35"/>
<path d="M28.8306 9.17969C29.9687 9.17986 30.8804 10.0913 30.8804 11.2295V19.5625C30.8804 20.0612 30.5031 20.5713 29.8716 20.5713C29.5763 20.5712 29.3194 20.4819 29.1362 20.2988C28.953 20.1156 28.8638 19.858 28.8638 19.5625V11.125C28.8638 11.1281 28.864 11.1277 28.8618 11.123C28.8596 11.1183 28.8562 11.1116 28.8501 11.1055C28.844 11.0994 28.8372 11.0959 28.8325 11.0938C28.8279 11.0916 28.8275 11.0918 28.8306 11.0918H12.1636C12.1667 11.0918 12.1653 11.0916 12.1606 11.0938C12.156 11.096 12.1499 11.0997 12.144 11.1055C12.1379 11.1116 12.1335 11.1183 12.1313 11.123C12.1293 11.1275 12.1304 11.128 12.1304 11.125V29.875C12.1303 29.8723 12.1293 29.8734 12.1313 29.8779C12.1335 29.8826 12.138 29.8885 12.144 29.8945C12.15 29.9005 12.156 29.905 12.1606 29.9072C12.1616 29.9077 12.1629 29.908 12.1636 29.9082H16.8511C17.3497 29.9082 17.8599 30.2855 17.8599 30.917C17.8599 31.5485 17.3497 31.9258 16.8511 31.9258H12.1636C11.0253 31.9258 10.1138 31.0133 10.1138 29.875V11.125C10.1139 9.97393 11.0388 9.17969 12.1636 9.17969H28.8306Z" fill="white" stroke="white" stroke-width="0.35"/>
</svg>
