<svg xmlns="http://www.w3.org/2000/svg" width="12" height="18" viewBox="0 0 12 18" fill="none">
  <path d="M8.00327 4.45298C7.49003 4.99595 6.66885 5.423 5.84767 5.362C5.74502 4.62991 6.14877 3.84901 6.62095 3.37315C7.13419 2.81798 8.03064 2.42143 8.76286 2.39093C8.84498 3.14742 8.50966 3.89782 8.00327 4.45298ZM8.74918 5.50231C7.55846 5.44131 6.53883 6.10629 5.97769 6.10629C5.40286 6.10629 4.54063 5.53282 3.59627 5.55112C2.37134 5.56942 1.23537 6.1856 0.612644 7.16782C-0.673872 9.13836 0.277329 12.0484 1.52279 13.6529C2.13183 14.446 2.8572 15.3184 3.81525 15.2879C4.72539 15.2574 5.08123 14.7633 6.17614 14.7633C7.27789 14.7633 7.59952 15.2879 8.55757 15.2757C9.54983 15.2574 10.1726 14.4826 10.7816 13.6895C11.4728 12.7866 11.7602 11.9142 11.7739 11.8654C11.7533 11.8471 9.85777 11.2004 9.83724 9.24818C9.81671 7.61317 11.3359 6.83838 11.4043 6.78957C10.5489 5.65483 9.21451 5.53282 8.74918 5.50231Z" fill="currentColor"/>
</svg>
