<svg
  viewBox="0 0 22.8206 22.8203"
  fill="none"
  xmlns="http://www.w3.org/2000/svg">
  <path
    d="M11.1624 22.8203C5.00691 22.8203 0 17.7027 0 11.4115C0 5.12039 5.00691 0 11.1624 0C15.7071 0 19.7592 2.77608 21.489 7.0689C21.7243 7.6529 21.442 8.31717 20.858 8.55243C20.2712 8.78769 19.6097 8.50538 19.3744 7.92138C17.9961 4.49487 14.7716 2.28065 11.1652 2.28065C6.26901 2.28065 2.28342 6.37419 2.28342 11.4088C2.28342 16.4434 6.26901 20.5369 11.1652 20.5369C15.6269 20.5369 19.4132 17.1132 19.975 12.5712C20.0525 11.9457 20.6255 11.5001 21.2482 11.5804C21.8737 11.6579 22.3166 12.228 22.2418 12.8536C21.5361 18.5358 16.7755 22.8203 11.1624 22.8203Z"
    fill="currentColor"
  />
  <path
    d="M20.5849 8.9953C20.4714 8.9953 20.3579 8.97869 20.2472 8.94547L16.627 7.82453C16.0264 7.63908 15.6887 6.99973 15.8742 6.39635C16.0596 5.79298 16.699 5.45531 17.3023 5.64352L19.8182 6.42126L20.5849 3.81955C20.762 3.21618 21.3986 2.87021 22.002 3.04734C22.6054 3.22448 22.9514 3.86107 22.7742 4.46445L21.6809 8.17603C21.5951 8.46942 21.3959 8.71575 21.1246 8.85967C20.9558 8.95101 20.7703 8.9953 20.5849 8.9953Z"
    fill="currentColor"
  />
  <path
    fill-rule="evenodd"
    clip-rule="evenodd"
    d="M9.26474 13.642L9.26728 13.6482C9.36673 13.8906 9.50981 14.0906 9.71856 14.2398C9.88488 14.3587 10.1023 14.452 10.3905 14.5035V12.3806L10.0443 12.3011C9.10927 12.0905 8.35635 11.7704 7.83582 11.2869C7.30673 10.7955 7.03503 10.1516 7.03503 9.33975C7.03503 8.4285 7.41563 7.67178 8.05909 7.13446C8.65392 6.63775 9.46422 6.3352 10.3905 6.25455V5.58499C10.3905 5.42447 10.44 5.27313 10.5504 5.1612C10.6608 5.04918 10.8092 5 10.9615 5C11.1137 5 11.2621 5.04918 11.3726 5.1612C11.4829 5.27313 11.5324 5.42447 11.5324 5.58499V6.25797C13.1514 6.42576 14.3247 7.25979 14.6818 8.40543L14.6825 8.40768C14.7283 8.56049 14.7618 8.72293 14.7618 8.89843C14.7618 9.18927 14.6496 9.44277 14.4437 9.62063C14.2409 9.79577 13.9651 9.88271 13.6585 9.88271C13.405 9.88271 13.1783 9.82279 12.9802 9.69515C12.784 9.56868 12.63 9.3849 12.5055 9.15916L12.5023 9.15334L12.4994 9.14734C12.2931 8.71356 11.9876 8.43514 11.5324 8.31233V10.3318L11.9068 10.4134C12.8803 10.6337 13.6539 10.9456 14.1857 11.4213C14.7281 11.9066 15 12.5453 15 13.3677C15 14.3208 14.6072 15.0942 13.9421 15.6399C13.3265 16.145 12.4882 16.4473 11.5324 16.5355V17.1855C11.5324 17.346 11.4829 17.4974 11.3726 17.6093C11.2621 17.7213 11.1137 17.7705 10.9615 17.7705C10.8092 17.7705 10.6608 17.7213 10.5504 17.6093C10.44 17.4974 10.3905 17.346 10.3905 17.1855V16.538C8.64929 16.3981 7.46364 15.5556 7.09592 14.4618C7.03419 14.2841 7 14.1124 7 13.9491C7 13.6452 7.10469 13.3721 7.3126 13.1757C7.51943 12.9804 7.8073 12.8808 8.13839 12.8808C8.39589 12.8808 8.62338 12.9481 8.81676 13.0837C9.00795 13.2177 9.15221 13.4089 9.26184 13.636L9.26474 13.642ZM10.6112 10.3485V8.03679C10.5346 8.04381 10.461 8.05352 10.3905 8.06576C9.61728 8.19995 9.21719 8.6376 9.21719 9.15762C9.21719 9.68045 9.5681 10.0368 10.3905 10.2868C10.4606 10.3081 10.5342 10.3287 10.6112 10.3485ZM11.3117 12.366V14.7547C11.3882 14.7489 11.4618 14.7409 11.5324 14.7309C12.394 14.6086 12.8248 14.1805 12.8248 13.5849C12.8248 13.0042 12.4846 12.6909 11.5324 12.4243C11.4622 12.4046 11.3887 12.3852 11.3117 12.366Z"
    fill="currentColor"
  />
</svg>
