<svg viewBox="0 0 24 24" fill="none" xmlns="http://www.w3.org/2000/svg">
  <g clip-path="url(#benefit-transactions-clip)">
    <path
      d="M9.2557 1.85023C9.75717 1.85093 10.2381 2.05149 10.5926 2.40687C10.947 2.76231 11.1467 3.24428 11.1473 3.74671V10.2457L11.1385 10.4323C11.1209 10.6179 11.0756 10.8001 11.0047 10.9733C10.9101 11.2042 10.7712 11.4145 10.5955 11.5914C10.4199 11.7683 10.2111 11.9086 9.98128 12.0045C9.75142 12.1005 9.50471 12.1507 9.2557 12.151H2.73812C2.48911 12.1507 2.2424 12.1005 2.01253 12.0045C1.78269 11.9086 1.57388 11.7683 1.39827 11.5914C1.22258 11.4145 1.0837 11.2042 0.989095 10.9733C0.894529 10.7424 0.845643 10.4953 0.846517 10.2457V3.74671L0.856282 3.55921C0.899701 3.12559 1.0911 2.71785 1.4012 2.40687C1.7557 2.05149 2.23664 1.85093 2.73812 1.85023H9.2557ZM2.81527 10.1696H9.17855V3.82386H2.81527V10.1696Z"
      fill="currentColor"
      stroke="currentColor"
      stroke-width="0.3"
    />
    <mask
      id="benefit-transactions-mask"
      maskUnits="userSpaceOnUse"
      x="0"
      y="1.00062"
      width="23"
      height="22.0001">
      <rect x="0" y="1.00062" width="23" height="22.0001" fill="white" />
      <path
        d="M17.2011 12.5902C16.8888 12.5907 16.5795 12.5295 16.2908 12.41C16.0021 12.2904 15.7397 12.115 15.5187 11.8937L12.1038 8.48108C11.8824 8.26004 11.7067 7.99729 11.5868 7.70791C11.467 7.41853 11.4053 7.10824 11.4053 6.79487C11.4053 6.48149 11.467 6.1712 11.5868 5.88182C11.7067 5.59245 11.8824 5.32969 12.1038 5.10865L15.5187 1.69607C15.9661 1.25059 16.5708 1.00062 17.2011 1.00062C17.8314 1.00062 18.4361 1.25059 18.8835 1.69607L22.2984 5.10865C22.5198 5.32969 22.6955 5.59245 22.8153 5.88182C22.9352 6.1712 22.9969 6.48149 22.9969 6.79487C22.9969 7.10824 22.9352 7.41853 22.8153 7.70791C22.6955 7.99729 22.5198 8.26004 22.2984 8.48108L18.8835 11.8937C18.4368 12.3403 17.8317 12.5908 17.2011 12.5902ZM17.2011 2.60542C16.9944 2.60508 16.796 2.6866 16.6489 2.83225L13.2341 6.24484C13.1618 6.31652 13.1045 6.40187 13.0654 6.49594C13.0263 6.59 13.0061 6.69092 13.0061 6.79286C13.0061 6.89479 13.0263 6.99571 13.0654 7.08978C13.1045 7.18385 13.1618 7.26919 13.2341 7.34088L16.6489 10.7535C16.7961 10.8991 16.9944 10.9808 17.2011 10.9808C17.4078 10.9808 17.6061 10.8991 17.7532 10.7535L21.1681 7.34088C21.2403 7.26919 21.2977 7.18385 21.3368 7.08978C21.3759 6.99571 21.3961 6.89479 21.3961 6.79286C21.3961 6.69092 21.3759 6.59 21.3368 6.49594C21.2977 6.40187 21.2403 6.31652 21.1681 6.24484L17.7532 2.83225C17.6062 2.6866 17.4077 2.60508 17.2011 2.60542ZM8.91695 23.0006H2.66734C2.22448 23.0001 1.7999 22.8233 1.48675 22.5091C1.1736 22.1949 0.997438 21.7688 0.996908 21.3244V15.0854C0.996646 14.8651 1.03964 14.6468 1.12345 14.4431C1.20725 14.2394 1.33022 14.0542 1.48534 13.8982C1.64045 13.7422 1.82467 13.6183 2.02748 13.5338C2.23029 13.4492 2.44771 13.4055 2.66734 13.4052H8.91695C9.35981 13.4058 9.78439 13.5825 10.0975 13.8968C10.4107 14.211 10.5869 14.637 10.5874 15.0814V21.3204C10.5876 21.5408 10.5446 21.7591 10.4608 21.9628C10.377 22.1665 10.2541 22.3516 10.099 22.5077C9.94384 22.6637 9.75962 22.7875 9.55681 22.8721C9.354 22.9567 9.13658 23.0004 8.91695 23.0006ZM2.66734 15.0112C2.64877 15.0112 2.63096 15.0186 2.61783 15.0317C2.6047 15.0449 2.59732 15.0628 2.59732 15.0814V21.3204C2.59732 21.3296 2.59913 21.3388 2.60265 21.3473C2.60617 21.3558 2.61133 21.3636 2.61783 21.3701C2.62433 21.3766 2.63205 21.3818 2.64054 21.3853C2.64904 21.3889 2.65814 21.3907 2.66734 21.3907H8.91695C8.92615 21.3907 8.93525 21.3889 8.94375 21.3853C8.95224 21.3818 8.95996 21.3766 8.96646 21.3701C8.97296 21.3636 8.97812 21.3558 8.98164 21.3473C8.98516 21.3388 8.98697 21.3296 8.98697 21.3204V15.0854C8.98697 15.0762 8.98516 15.0671 8.98164 15.0585C8.97812 15.05 8.97296 15.0423 8.96646 15.0358C8.95996 15.0292 8.95224 15.0241 8.94375 15.0205C8.93525 15.017 8.92615 15.0152 8.91695 15.0152L2.66734 15.0112ZM20.3319 23.0006H14.0823C13.6393 23.0006 13.2144 22.824 12.9011 22.5097C12.5878 22.1953 12.4119 21.769 12.4119 21.3244V15.0854C12.4113 14.865 12.4541 14.6466 12.5379 14.4428C12.6216 14.2389 12.7445 14.0537 12.8997 13.8976C13.0549 13.7415 13.2392 13.6177 13.4421 13.5332C13.645 13.4487 13.8626 13.4052 14.0823 13.4052H20.3319C20.5515 13.4055 20.7689 13.4492 20.9718 13.5338C21.1746 13.6183 21.3588 13.7422 21.5139 13.8982C21.669 14.0542 21.792 14.2394 21.8758 14.4431C21.9596 14.6468 22.0026 14.8651 22.0023 15.0854V21.3244C22.0018 21.7688 21.8256 22.1949 21.5125 22.5091C21.1993 22.8233 20.7748 23.0001 20.3319 23.0006ZM14.0823 15.0112C14.0637 15.0112 14.0459 15.0186 14.0328 15.0317C14.0196 15.0449 14.0123 15.0628 14.0123 15.0814V21.3204C14.0123 21.3296 14.0141 21.3388 14.0176 21.3473C14.0211 21.3558 14.0263 21.3636 14.0328 21.3701C14.0393 21.3766 14.047 21.3818 14.0555 21.3853C14.064 21.3889 14.0731 21.3907 14.0823 21.3907H20.3319C20.3411 21.3907 20.3502 21.3889 20.3587 21.3853C20.3672 21.3818 20.3749 21.3766 20.3814 21.3701C20.3879 21.3636 20.3931 21.3558 20.3966 21.3473C20.4001 21.3388 20.4019 21.3296 20.4019 21.3204V15.0854C20.4019 15.0762 20.4001 15.0671 20.3966 15.0585C20.3931 15.05 20.3879 15.0423 20.3814 15.0358C20.3749 15.0292 20.3672 15.0241 20.3587 15.0205C20.3502 15.017 20.3411 15.0152 20.3319 15.0152L14.0823 15.0112Z"
        fill="black"
      />
    </mask>
    <path
      d="M17.2011 12.5902C16.8888 12.5907 16.5795 12.5295 16.2908 12.41C16.0021 12.2904 15.7397 12.115 15.5187 11.8937L12.1038 8.48108C11.8824 8.26004 11.7067 7.99729 11.5868 7.70791C11.467 7.41853 11.4053 7.10824 11.4053 6.79487C11.4053 6.48149 11.467 6.1712 11.5868 5.88182C11.7067 5.59245 11.8824 5.32969 12.1038 5.10865L15.5187 1.69607C15.9661 1.25059 16.5708 1.00062 17.2011 1.00062C17.8314 1.00062 18.4361 1.25059 18.8835 1.69607L22.2984 5.10865C22.5198 5.32969 22.6955 5.59245 22.8153 5.88182C22.9352 6.1712 22.9969 6.48149 22.9969 6.79487C22.9969 7.10824 22.9352 7.41853 22.8153 7.70791C22.6955 7.99729 22.5198 8.26004 22.2984 8.48108L18.8835 11.8937C18.4368 12.3403 17.8317 12.5908 17.2011 12.5902ZM17.2011 2.60542C16.9944 2.60508 16.796 2.6866 16.6489 2.83225L13.2341 6.24484C13.1618 6.31652 13.1045 6.40187 13.0654 6.49594C13.0263 6.59 13.0061 6.69092 13.0061 6.79286C13.0061 6.89479 13.0263 6.99571 13.0654 7.08978C13.1045 7.18385 13.1618 7.26919 13.2341 7.34088L16.6489 10.7535C16.7961 10.8991 16.9944 10.9808 17.2011 10.9808C17.4078 10.9808 17.6061 10.8991 17.7532 10.7535L21.1681 7.34088C21.2403 7.26919 21.2977 7.18385 21.3368 7.08978C21.3759 6.99571 21.3961 6.89479 21.3961 6.79286C21.3961 6.69092 21.3759 6.59 21.3368 6.49594C21.2977 6.40187 21.2403 6.31652 21.1681 6.24484L17.7532 2.83225C17.6062 2.6866 17.4077 2.60508 17.2011 2.60542ZM8.91695 23.0006H2.66734C2.22448 23.0001 1.7999 22.8233 1.48675 22.5091C1.1736 22.1949 0.997438 21.7688 0.996908 21.3244V15.0854C0.996646 14.8651 1.03964 14.6468 1.12345 14.4431C1.20725 14.2394 1.33022 14.0542 1.48534 13.8982C1.64045 13.7422 1.82467 13.6183 2.02748 13.5338C2.23029 13.4492 2.44771 13.4055 2.66734 13.4052H8.91695C9.35981 13.4058 9.78439 13.5825 10.0975 13.8968C10.4107 14.211 10.5869 14.637 10.5874 15.0814V21.3204C10.5876 21.5408 10.5446 21.7591 10.4608 21.9628C10.377 22.1665 10.2541 22.3516 10.099 22.5077C9.94384 22.6637 9.75962 22.7875 9.55681 22.8721C9.354 22.9567 9.13658 23.0004 8.91695 23.0006ZM2.66734 15.0112C2.64877 15.0112 2.63096 15.0186 2.61783 15.0317C2.6047 15.0449 2.59732 15.0628 2.59732 15.0814V21.3204C2.59732 21.3296 2.59913 21.3388 2.60265 21.3473C2.60617 21.3558 2.61133 21.3636 2.61783 21.3701C2.62433 21.3766 2.63205 21.3818 2.64054 21.3853C2.64904 21.3889 2.65814 21.3907 2.66734 21.3907H8.91695C8.92615 21.3907 8.93525 21.3889 8.94375 21.3853C8.95224 21.3818 8.95996 21.3766 8.96646 21.3701C8.97296 21.3636 8.97812 21.3558 8.98164 21.3473C8.98516 21.3388 8.98697 21.3296 8.98697 21.3204V15.0854C8.98697 15.0762 8.98516 15.0671 8.98164 15.0585C8.97812 15.05 8.97296 15.0423 8.96646 15.0358C8.95996 15.0292 8.95224 15.0241 8.94375 15.0205C8.93525 15.017 8.92615 15.0152 8.91695 15.0152L2.66734 15.0112ZM20.3319 23.0006H14.0823C13.6393 23.0006 13.2144 22.824 12.9011 22.5097C12.5878 22.1953 12.4119 21.769 12.4119 21.3244V15.0854C12.4113 14.865 12.4541 14.6466 12.5379 14.4428C12.6216 14.2389 12.7445 14.0537 12.8997 13.8976C13.0549 13.7415 13.2392 13.6177 13.4421 13.5332C13.645 13.4487 13.8626 13.4052 14.0823 13.4052H20.3319C20.5515 13.4055 20.7689 13.4492 20.9718 13.5338C21.1746 13.6183 21.3588 13.7422 21.5139 13.8982C21.669 14.0542 21.792 14.2394 21.8758 14.4431C21.9596 14.6468 22.0026 14.8651 22.0023 15.0854V21.3244C22.0018 21.7688 21.8256 22.1949 21.5125 22.5091C21.1993 22.8233 20.7748 23.0001 20.3319 23.0006ZM14.0823 15.0112C14.0637 15.0112 14.0459 15.0186 14.0328 15.0317C14.0196 15.0449 14.0123 15.0628 14.0123 15.0814V21.3204C14.0123 21.3296 14.0141 21.3388 14.0176 21.3473C14.0211 21.3558 14.0263 21.3636 14.0328 21.3701C14.0393 21.3766 14.047 21.3818 14.0555 21.3853C14.064 21.3889 14.0731 21.3907 14.0823 21.3907H20.3319C20.3411 21.3907 20.3502 21.3889 20.3587 21.3853C20.3672 21.3818 20.3749 21.3766 20.3814 21.3701C20.3879 21.3636 20.3931 21.3558 20.3966 21.3473C20.4001 21.3388 20.4019 21.3296 20.4019 21.3204V15.0854C20.4019 15.0762 20.4001 15.0671 20.3966 15.0585C20.3931 15.05 20.3879 15.0423 20.3814 15.0358C20.3749 15.0292 20.3672 15.0241 20.3587 15.0205C20.3502 15.017 20.3411 15.0152 20.3319 15.0152L14.0823 15.0112Z"
      fill="currentColor"
    />
    <path
      d="M17.2011 12.5902C16.8888 12.5907 16.5795 12.5295 16.2908 12.41C16.0021 12.2904 15.7397 12.115 15.5187 11.8937L12.1038 8.48108C11.8824 8.26004 11.7067 7.99729 11.5868 7.70791C11.467 7.41853 11.4053 7.10824 11.4053 6.79487C11.4053 6.48149 11.467 6.1712 11.5868 5.88182C11.7067 5.59245 11.8824 5.32969 12.1038 5.10865L15.5187 1.69607C15.9661 1.25059 16.5708 1.00062 17.2011 1.00062C17.8314 1.00062 18.4361 1.25059 18.8835 1.69607L22.2984 5.10865C22.5198 5.32969 22.6955 5.59245 22.8153 5.88182C22.9352 6.1712 22.9969 6.48149 22.9969 6.79487C22.9969 7.10824 22.9352 7.41853 22.8153 7.70791C22.6955 7.99729 22.5198 8.26004 22.2984 8.48108L18.8835 11.8937C18.4368 12.3403 17.8317 12.5908 17.2011 12.5902ZM17.2011 2.60542C16.9944 2.60508 16.796 2.6866 16.6489 2.83225L13.2341 6.24484C13.1618 6.31652 13.1045 6.40187 13.0654 6.49594C13.0263 6.59 13.0061 6.69092 13.0061 6.79286C13.0061 6.89479 13.0263 6.99571 13.0654 7.08978C13.1045 7.18385 13.1618 7.26919 13.2341 7.34088L16.6489 10.7535C16.7961 10.8991 16.9944 10.9808 17.2011 10.9808C17.4078 10.9808 17.6061 10.8991 17.7532 10.7535L21.1681 7.34088C21.2403 7.26919 21.2977 7.18385 21.3368 7.08978C21.3759 6.99571 21.3961 6.89479 21.3961 6.79286C21.3961 6.69092 21.3759 6.59 21.3368 6.49594C21.2977 6.40187 21.2403 6.31652 21.1681 6.24484L17.7532 2.83225C17.6062 2.6866 17.4077 2.60508 17.2011 2.60542ZM8.91695 23.0006H2.66734C2.22448 23.0001 1.7999 22.8233 1.48675 22.5091C1.1736 22.1949 0.997438 21.7688 0.996908 21.3244V15.0854C0.996646 14.8651 1.03964 14.6468 1.12345 14.4431C1.20725 14.2394 1.33022 14.0542 1.48534 13.8982C1.64045 13.7422 1.82467 13.6183 2.02748 13.5338C2.23029 13.4492 2.44771 13.4055 2.66734 13.4052H8.91695C9.35981 13.4058 9.78439 13.5825 10.0975 13.8968C10.4107 14.211 10.5869 14.637 10.5874 15.0814V21.3204C10.5876 21.5408 10.5446 21.7591 10.4608 21.9628C10.377 22.1665 10.2541 22.3516 10.099 22.5077C9.94384 22.6637 9.75962 22.7875 9.55681 22.8721C9.354 22.9567 9.13658 23.0004 8.91695 23.0006ZM2.66734 15.0112C2.64877 15.0112 2.63096 15.0186 2.61783 15.0317C2.6047 15.0449 2.59732 15.0628 2.59732 15.0814V21.3204C2.59732 21.3296 2.59913 21.3388 2.60265 21.3473C2.60617 21.3558 2.61133 21.3636 2.61783 21.3701C2.62433 21.3766 2.63205 21.3818 2.64054 21.3853C2.64904 21.3889 2.65814 21.3907 2.66734 21.3907H8.91695C8.92615 21.3907 8.93525 21.3889 8.94375 21.3853C8.95224 21.3818 8.95996 21.3766 8.96646 21.3701C8.97296 21.3636 8.97812 21.3558 8.98164 21.3473C8.98516 21.3388 8.98697 21.3296 8.98697 21.3204V15.0854C8.98697 15.0762 8.98516 15.0671 8.98164 15.0585C8.97812 15.05 8.97296 15.0423 8.96646 15.0358C8.95996 15.0292 8.95224 15.0241 8.94375 15.0205C8.93525 15.017 8.92615 15.0152 8.91695 15.0152L2.66734 15.0112ZM20.3319 23.0006H14.0823C13.6393 23.0006 13.2144 22.824 12.9011 22.5097C12.5878 22.1953 12.4119 21.769 12.4119 21.3244V15.0854C12.4113 14.865 12.4541 14.6466 12.5379 14.4428C12.6216 14.2389 12.7445 14.0537 12.8997 13.8976C13.0549 13.7415 13.2392 13.6177 13.4421 13.5332C13.645 13.4487 13.8626 13.4052 14.0823 13.4052H20.3319C20.5515 13.4055 20.7689 13.4492 20.9718 13.5338C21.1746 13.6183 21.3588 13.7422 21.5139 13.8982C21.669 14.0542 21.792 14.2394 21.8758 14.4431C21.9596 14.6468 22.0026 14.8651 22.0023 15.0854V21.3244C22.0018 21.7688 21.8256 22.1949 21.5125 22.5091C21.1993 22.8233 20.7748 23.0001 20.3319 23.0006ZM14.0823 15.0112C14.0637 15.0112 14.0459 15.0186 14.0328 15.0317C14.0196 15.0449 14.0123 15.0628 14.0123 15.0814V21.3204C14.0123 21.3296 14.0141 21.3388 14.0176 21.3473C14.0211 21.3558 14.0263 21.3636 14.0328 21.3701C14.0393 21.3766 14.047 21.3818 14.0555 21.3853C14.064 21.3889 14.0731 21.3907 14.0823 21.3907H20.3319C20.3411 21.3907 20.3502 21.3889 20.3587 21.3853C20.3672 21.3818 20.3749 21.3766 20.3814 21.3701C20.3879 21.3636 20.3931 21.3558 20.3966 21.3473C20.4001 21.3388 20.4019 21.3296 20.4019 21.3204V15.0854C20.4019 15.0762 20.4001 15.0671 20.3966 15.0585C20.3931 15.05 20.3879 15.0423 20.3814 15.0358C20.3749 15.0292 20.3672 15.0241 20.3587 15.0205C20.3502 15.017 20.3411 15.0152 20.3319 15.0152L14.0823 15.0112Z"
      stroke="currentColor"
      stroke-width="0.6"
      mask="url(#benefit-transactions-mask)"
    />
  </g>
  <defs>
    <clipPath id="benefit-transactions-clip">
      <rect width="24" height="24" fill="white" />
    </clipPath>
  </defs>
</svg>
