<svg viewBox="0 0 24 24" fill="none" xmlns="http://www.w3.org/2000/svg">
  <g clip-path="url(#benefit-networks-clip)">
    <path
      d="M12.0148 0.741895C18.2557 0.741895 23.3146 5.8008 23.3146 12.0417C23.3146 18.2826 18.2557 23.3415 12.0148 23.3415C5.77395 23.3415 0.715039 18.2826 0.715039 12.0417C0.715039 5.8008 5.77395 0.741895 12.0148 0.741895ZM12.0148 2.7165C10.7552 2.7165 9.53424 2.96336 8.38594 3.44893C7.2758 3.91867 6.27813 4.59092 5.42109 5.44795C4.56406 6.30498 3.89158 7.30267 3.42207 8.41279C2.93651 9.56109 2.68965 10.782 2.68965 12.0417C2.68965 13.3014 2.93628 14.5223 3.42207 15.6706C3.89182 16.7807 4.56406 17.7784 5.42109 18.6354C6.27812 19.4927 7.27581 20.165 8.38594 20.6345C9.53424 21.12 10.7552 21.3669 12.0148 21.3669C13.2745 21.3669 14.4955 21.1203 15.6438 20.6345C16.7539 20.1647 17.7516 19.4925 18.6086 18.6354C19.4659 17.7784 20.1381 16.7807 20.6076 15.6706C21.0932 14.5223 21.34 13.3014 21.34 12.0417C21.34 10.782 21.0934 9.56108 20.6076 8.41279C20.1379 7.30266 19.4656 6.30498 18.6086 5.44795C17.7516 4.59091 16.7539 3.91843 15.6438 3.44893C14.4954 2.96336 13.2745 2.7165 12.0148 2.7165Z"
      fill="currentColor"
      stroke="currentColor"
      stroke-width="0.1"
    />
    <path
      d="M12.0098 0.746582C12.6109 0.746582 13.1781 1.07156 13.6875 1.64697C14.197 2.22241 14.6528 3.05265 15.0352 4.07373C15.8001 6.11649 16.2725 8.93534 16.2725 12.0464C16.2725 12.112 16.2719 12.1774 16.2715 12.2427C17.141 12.1215 17.9484 11.9627 18.666 11.769C19.6496 11.5036 20.2711 11.2239 20.6494 10.9956C20.8386 10.8815 20.9668 10.7808 21.0488 10.7017C21.0898 10.6621 21.1192 10.6279 21.1387 10.6011C21.1587 10.5735 21.1661 10.5556 21.168 10.5483L21.2148 10.5591V10.5229H23.1406V10.5737C23.1405 11.0886 22.9225 11.841 21.9141 12.5317C21.3152 12.9419 20.4877 13.2999 19.458 13.5981V13.5991C18.4982 13.8769 17.3912 14.0939 16.1914 14.2456C16.0005 16.8237 15.4807 19.0881 14.751 20.7124C14.3842 21.5287 13.9642 22.1865 13.5039 22.6401C13.0434 23.0939 12.5395 23.3462 12.0098 23.3462C11.4801 23.3461 10.9771 23.0929 10.5166 22.6392C10.0563 22.1855 9.63526 21.5287 9.26855 20.7124C8.53872 19.0877 8.01893 16.8224 7.82812 14.2437C6.63208 14.092 5.5285 13.8755 4.57129 13.5981C3.54151 13.2997 2.71413 12.941 2.11523 12.5308C1.10687 11.8399 0.889648 11.0875 0.889648 10.5728V10.5229H2.81445V10.5591L2.86133 10.5483C2.86323 10.5557 2.87144 10.5733 2.8916 10.6011C2.91108 10.6279 2.94052 10.6612 2.98145 10.7007C3.06342 10.7798 3.19071 10.8815 3.37988 10.9956C3.75818 11.2239 4.37962 11.5036 5.36328 11.769C6.07774 11.9619 6.88153 12.1196 7.74707 12.2407C7.74662 12.1761 7.74707 12.1114 7.74707 12.0464C7.74707 8.93534 8.21945 6.11649 8.98438 4.07373C9.36676 3.05261 9.82354 2.22243 10.333 1.64697C10.8423 1.07181 11.4088 0.746639 12.0098 0.746582ZM14.1943 14.4302C13.4846 14.474 12.7552 14.4976 12.0146 14.4976C11.2705 14.4976 10.5373 14.4743 9.82422 14.4302C9.96614 16.0672 10.2528 17.587 10.666 18.8491C10.9331 19.6649 11.248 20.3487 11.5742 20.8276C11.7602 21.1009 11.9144 21.252 12.0088 21.3267C12.1032 21.2521 12.2586 21.1018 12.4453 20.8276C12.7715 20.3487 13.0855 19.6648 13.3525 18.8491C13.7658 17.5871 14.0524 16.0673 14.1943 14.4302ZM12.0098 2.76611C11.9154 2.84077 11.7606 2.99154 11.5742 3.26514C11.248 3.74411 10.9331 4.42877 10.666 5.24463C10.0576 7.10366 9.7217 9.51929 9.72168 12.0464C9.72168 12.1791 9.72287 12.3116 9.72461 12.4438C10.4666 12.4949 11.2344 12.5229 12.0146 12.5229C12.7913 12.5229 13.5553 12.4954 14.2939 12.4448C14.2958 12.3125 14.2969 12.1794 14.2969 12.0464C14.2969 9.51894 13.961 7.10346 13.3525 5.24463C13.0855 4.42877 12.7715 3.74411 12.4453 3.26514C12.2589 2.99134 12.1041 2.8406 12.0098 2.76611Z"
      fill="currentColor"
      stroke="currentColor"
      stroke-width="0.1"
    />
  </g>
  <defs>
    <clipPath id="benefit-networks-clip">
      <rect width="24" height="24" fill="white" />
    </clipPath>
  </defs>
</svg>
