<svg xmlns="http://www.w3.org/2000/svg" width="23" height="24" viewBox="0 0 23 24" fill="none">
  <path
    d="M21.5078 13.292C21.2618 18.1472 17.2356 22.0194 12.3213 22.0195C7.24721 22.0195 3.12012 17.8929 3.12012 12.8193C3.12035 7.74592 7.24844 3.62012 12.3213 3.62012H12.3232L12.4365 3.62695C12.6969 3.65693 12.9406 3.77543 13.126 3.96387L13.2012 4.04785C13.3659 4.25181 13.457 4.50706 13.457 4.77148C13.457 5.03585 13.3658 5.29114 13.2012 5.49512L13.126 5.58008C12.914 5.79541 12.6254 5.91885 12.3232 5.92383H12.3213C8.51885 5.92383 5.42406 9.01739 5.42383 12.8193C5.42383 16.6214 8.51974 19.7148 12.3213 19.7148C16.1225 19.7147 19.2156 16.6212 19.2158 12.8193V12.8164L19.2236 12.7041C19.2535 12.4435 19.371 12.1992 19.5596 12.0137L19.6445 11.9385C19.8485 11.774 20.1039 11.6836 20.3682 11.6836C20.6703 11.6837 20.9604 11.8019 21.1758 12.0137L21.252 12.0967C21.4202 12.298 21.5152 12.5519 21.5195 12.8164V12.8193L21.5078 13.292Z"
    fill="currentColor" stroke="currentColor" stroke-width="0.328571" />
</svg>