<svg xmlns="http://www.w3.org/2000/svg" width="16" height="16" viewBox="0 0 16 16" fill="currentColor">
  <path d="M10.28 1.14c.37-.22.73-.24 1.09-.19l.15.03.01.003c.39.16.73.32.98.74l1.55 2.49c.09.1.17.27.17.45 0 .51-.35.88-.88.88-.28 0-.54-.18-.7-.43l-1.51-2.41-4.66 2.75-.05-.09.04.09c-.08.04-.15.07-.22.08a.6.6 0 01-.21 0c-.26 0-.48-.09-.63-.24a.87.87 0 01-.24-.63c0-.35.18-.61.43-.79l4.67-2.73z"/>
  <path d="M4.11 2.06c.51 0 .88.35.88.88s-.35.88-.88.88h-.39c-.19 0-.33.02-.45.06-.12.04-.23.11-.33.22-.21.21-.28.49-.28.79 0 .29.07.57.28.78.21.14.43.21.65.29h9.08c1.38 0 2.43 1.06 2.43 2.43v4.28c0 1.38-1.06 2.43-2.43 2.43H3.33c-1.38 0-2.43-1.06-2.43-2.43V4.89c0-1.53 1.29-2.82 2.82-2.82h.39zM2.66 12.66c0 .1.02.19.05.26.03.07.08.14.15.21.07.07.14.12.21.15.07.03.16.05.26.05h9.33c.1 0 .19-.02.26-.05.07-.03.14-.08.21-.15.07-.07.12-.14.15-.21.03-.07.05-.16.05-.26V8.39c0-.1-.02-.19-.05-.26a.64.64 0 00-.15-.21.64.64 0 00-.21-.15.53.53 0 00-.26-.05H2.66v4.96z"/>
</svg>