<svg width="24" height="24" viewBox="0 0 24 24" fill="none" xmlns="http://www.w3.org/2000/svg">
<rect width="24" height="24" rx="12" fill="#2980FE"/>
<path d="M9.45349 10.8534H9.45621C9.45349 10.8371 9.45349 10.8181 9.45349 10.8018V10.8534Z" fill="#29AEFF"/>
<path d="M14.8639 11.3696H11.8694V16.7745C11.8694 17.0299 12.0759 17.2365 12.3313 17.2365H14.402C14.6574 17.2365 14.8639 17.0299 14.8639 16.7745V11.3696Z" fill="white"/>
<path d="M10.4239 7.5H10.3234H4.96196C4.70651 7.5 4.5 7.70651 4.5 7.96196V9.83695C4.5 10.0924 4.70651 10.2989 4.96196 10.2989H6.22011H6.72012V10.8533V16.788C6.72012 17.0435 6.92663 17.25 7.18206 17.25H9.14946C9.40489 17.25 9.61141 17.0435 9.61141 16.788V10.8533V10.8016V10.2989H10.1114H10.3152H10.4158C11.1875 10.2989 11.8152 9.6712 11.8152 8.89946C11.8234 8.12771 11.1957 7.5 10.4239 7.5Z" fill="white"/>
<path d="M14.8669 11.3696V15.1414C14.9702 15.1658 15.0762 15.1848 15.1849 15.2012C15.3371 15.2229 15.4947 15.2365 15.6523 15.2392C15.6604 15.2392 15.6686 15.2392 15.6794 15.2392V12.2392C15.2256 12.2093 14.8669 11.8316 14.8669 11.3696Z" fill="url(#paint0_linear_962_29167)"/>
<path d="M15.7389 7.5C13.6031 7.5 11.8694 9.2337 11.8694 11.3696C11.8694 13.2065 13.1493 14.7446 14.8667 15.1413V11.3696C14.8667 10.8886 15.258 10.4973 15.7389 10.4973C16.2199 10.4973 16.6112 10.8886 16.6112 11.3696C16.6112 11.7745 16.3368 12.1141 15.9618 12.2119C15.8911 12.231 15.815 12.2418 15.7389 12.2418V15.2391C15.815 15.2391 15.8884 15.2364 15.9618 15.2337C17.9944 15.1168 19.6085 13.4321 19.6085 11.3696C19.6112 9.2337 17.8775 7.5 15.7389 7.5Z" fill="white"/>
<path d="M15.7392 15.2393V12.242C15.7175 12.242 15.6985 12.242 15.6768 12.2393V15.2393C15.6985 15.2393 15.7202 15.2393 15.7392 15.2393Z" fill="white"/>
<defs>
<linearGradient id="paint0_linear_962_29167" x1="15.7405" y1="13.305" x2="14.8673" y2="13.305" gradientUnits="userSpaceOnUse">
<stop stop-color="white"/>
<stop offset="0.9667" stop-color="white" stop-opacity="0.3233"/>
<stop offset="1" stop-color="white" stop-opacity="0.3"/>
</linearGradient>
</defs>
</svg>
