<svg xmlns="http://www.w3.org/2000/svg" width="42" height="42" viewBox="0 0 42 42" fill="none">
<path d="M35.8415 5.25H11.4085C9.45984 5.25 7.875 6.80244 7.875 8.71008V10.5H6.1585C4.21025 10.5 2.625 12.0524 2.625 13.9601V25.789C2.625 26.5137 3.21275 27.1015 3.9375 27.1015C4.32141 27.1015 4.66635 26.9366 4.9067 26.6741L11.6427 21.0911L21.2285 30.3573C21.4832 30.6038 21.8121 30.726 22.1406 30.726C22.4839 30.726 22.8268 30.5919 23.0844 30.3257C23.5881 29.8044 23.5741 28.9738 23.0528 28.4698L21.1362 26.6171L23.6184 24.5491L31.4491 32.1193C31.466 32.1353 31.4828 32.1509 31.5 32.1661V33.2899C31.5 33.7427 31.0837 34.125 30.5915 34.125H6.1585C5.6659 34.125 5.25 33.7423 5.25 33.2899V32.2498C5.25 31.525 4.66225 30.9373 3.9375 30.9373C3.21275 30.9373 2.625 31.525 2.625 32.2498V33.2899C2.625 35.198 4.21025 36.75 6.1585 36.75H30.5911C32.5397 36.75 34.1246 35.198 34.1246 33.2899V31.5H35.8411C37.7897 31.5 39.3746 29.948 39.3746 28.0399V8.71008C39.375 6.80244 37.7897 5.25 35.8415 5.25ZM24.6586 21.904C24.6545 21.8999 24.65 21.8962 24.6459 21.8925C24.1746 21.3851 23.3834 21.3294 22.8449 21.7781L19.238 24.7829L12.7095 18.4718C12.7009 18.4636 12.6919 18.4554 12.6833 18.4476C12.2145 17.9304 11.4167 17.8693 10.8741 18.3192L5.25 22.9802V13.9601C5.25 13.5073 5.66631 13.125 6.1585 13.125H30.5911C31.0837 13.125 31.4996 13.5077 31.4996 13.9601V28.5173L24.6586 21.904ZM36.75 28.0399C36.75 28.4927 36.3337 28.875 35.8415 28.875H34.125V13.9601C34.125 12.052 32.5397 10.5 30.5915 10.5H10.5V8.71008C10.5 8.25727 10.9163 7.875 11.4085 7.875H35.8411C36.3337 7.875 36.7496 8.25768 36.7496 8.71008V28.0399H36.75Z" fill="white"/>
<path d="M25.5938 17.0625C25.5938 17.5846 25.8012 18.0854 26.1704 18.4546C26.5396 18.8238 27.0404 19.0312 27.5625 19.0312C28.0846 19.0312 28.5854 18.8238 28.9546 18.4546C29.3238 18.0854 29.5312 17.5846 29.5312 17.0625C29.5312 16.5404 29.3238 16.0396 28.9546 15.6704C28.5854 15.3012 28.0846 15.0938 27.5625 15.0938C27.0404 15.0938 26.5396 15.3012 26.1704 15.6704C25.8012 16.0396 25.5938 16.5404 25.5938 17.0625Z" fill="white"/>
</svg>
