<svg xmlns="http://www.w3.org/2000/svg" width="20" height="20" viewBox="0 0 20 20" fill="none">
  <g clip-path="url(#clip0_5166_30445)">
    <path fill-rule="evenodd" clip-rule="evenodd"
      d="M17.4107 1.42634C17.4107 1.13047 17.1709 0.890625 16.875 0.890625C16.5791 0.890625 16.3393 1.13047 16.3393 1.42634L16.3393 2.75781H15C14.7041 2.75781 14.4643 2.99766 14.4643 3.29353C14.4643 3.58939 14.7041 3.82924 15 3.82924H16.3393L16.3393 5.17634C16.3393 5.47221 16.5791 5.71205 16.875 5.71205C17.1709 5.71205 17.4107 5.47221 17.4107 5.17634V3.82924H18.75C19.0459 3.82924 19.2857 3.58939 19.2857 3.29353C19.2857 2.99766 19.0459 2.75781 18.75 2.75781H17.4107V1.42634Z"
      fill="#7084FF" />
    <path fill-rule="evenodd" clip-rule="evenodd"
      d="M2.11996 15.0067C2.11996 14.8218 1.97006 14.6719 1.78514 14.6719C1.60022 14.6719 1.45032 14.8218 1.45032 15.0067V15.7422H0.714826C0.52991 15.7422 0.380005 15.8921 0.380005 16.077C0.380005 16.2619 0.52991 16.4118 0.714826 16.4118H1.45032V17.1496C1.45032 17.3345 1.60022 17.4844 1.78514 17.4844C1.97006 17.4844 2.11996 17.3345 2.11996 17.1496V16.4118H2.85768C3.0426 16.4118 3.1925 16.2619 3.1925 16.077C3.1925 15.8921 3.0426 15.7422 2.85768 15.7422H2.11996V15.0067Z"
      fill="#7084FF" />
    <path
      d="M9.60373 0.951397C9.75013 0.599415 10.2488 0.599416 10.3952 0.951398L12.7329 6.57197C12.7946 6.72036 12.9341 6.82174 13.0943 6.83459L19.1622 7.32105C19.5422 7.35151 19.6963 7.82573 19.4068 8.07373L14.7837 12.0339C14.6616 12.1384 14.6083 12.3025 14.6456 12.4588L16.0581 18.38C16.1465 18.7508 15.7431 19.0439 15.4178 18.8452L10.2228 15.6722C10.0857 15.5884 9.9132 15.5884 9.77605 15.6722L4.5811 18.8452C4.25577 19.0439 3.85237 18.7508 3.94083 18.38L5.35325 12.4588C5.39054 12.3025 5.33724 12.1384 5.21519 12.0339L0.592102 8.07373C0.302587 7.82573 0.45667 7.35151 0.836664 7.32105L6.90455 6.83459C7.06474 6.82174 7.20429 6.72036 7.26601 6.57197L9.60373 0.951397Z"
      fill="#7084FF" />
  </g>
  <defs>
    <clipPath id="clip0_5166_30445">
      <rect width="20" height="20" fill="white" />
    </clipPath>
  </defs>
</svg>