<svg xmlns="http://www.w3.org/2000/svg" width="20" height="20" viewBox="0 0 20 20" fill="none">
  <g clip-path="url(#clip0_5175_14726)">
    <path fill-rule="evenodd" clip-rule="evenodd"
      d="M17.4107 1.42634C17.4107 1.13047 17.1709 0.890625 16.875 0.890625C16.5791 0.890625 16.3393 1.13047 16.3393 1.42634L16.3393 2.76172H15C14.7041 2.76172 14.4643 3.00157 14.4643 3.29743C14.4643 3.5933 14.7041 3.83315 15 3.83315H16.3393L16.3393 5.17634C16.3393 5.47221 16.5791 5.71205 16.875 5.71205C17.1709 5.71205 17.4107 5.47221 17.4107 5.17634V3.83315H18.75C19.0459 3.83315 19.2857 3.5933 19.2857 3.29743C19.2857 3.00157 19.0459 2.76172 18.75 2.76172H17.4107V1.42634Z"
      fill="#6A7587" />
    <path fill-rule="evenodd" clip-rule="evenodd"
      d="M2.11996 15.0067C2.11996 14.8218 1.97006 14.6719 1.78514 14.6719C1.60022 14.6719 1.45032 14.8218 1.45032 15.0067V15.7422H0.712873C0.527956 15.7422 0.378052 15.8921 0.378052 16.077C0.378052 16.2619 0.527956 16.4118 0.712873 16.4118H1.45032V17.1496C1.45032 17.3345 1.60022 17.4844 1.78514 17.4844C1.97006 17.4844 2.11996 17.3345 2.11996 17.1496V16.4118H2.85573C3.04065 16.4118 3.19055 16.2619 3.19055 16.077C3.19055 15.8921 3.04065 15.7422 2.85573 15.7422H2.11996V15.0067Z"
      fill="#6A7587" />
    <path
      d="M7.84308 6.81199L9.99944 1.62747L12.1558 6.81199C12.3075 7.17677 12.6506 7.42602 13.0444 7.45759L18.6415 7.90631L14.3771 11.5592C14.0771 11.8163 13.946 12.2195 14.0377 12.6038L15.3405 18.0657L10.5486 15.1388C10.2115 14.9329 9.78742 14.9329 9.45026 15.1388L4.65835 18.0657L5.9612 12.6038C6.05287 12.2195 5.92183 11.8163 5.62179 11.5592L1.35737 7.90631L6.95449 7.45759C7.34831 7.42602 7.69136 7.17677 7.84308 6.81199ZM19.0002 7.59907L18.9999 7.59933L19.0002 7.59907Z"
      stroke="#6A7587" stroke-width="1.25" />
  </g>
  <defs>
    <clipPath id="clip0_5175_14726">
      <rect width="20" height="20" fill="white" />
    </clipPath>
  </defs>
</svg>